%TF.GenerationSoftware,KiCad,Pcbnew,9.0.4+dfsg-1*%
%TF.CreationDate,2025-10-04T19:22:22+02:00*%
%TF.ProjectId,CWSensorKey,43575365-6e73-46f7-924b-65792e6b6963,rev?*%
%TF.SameCoordinates,Original*%
%TF.FileFunction,Legend,Bot*%
%TF.FilePolarity,Positive*%
%FSLAX46Y46*%
G04 Gerber Fmt 4.6, Leading zero omitted, Abs format (unit mm)*
G04 Created by KiCad (PCBNEW 9.0.4+dfsg-1) date 2025-10-04 19:22:22*
%MOMM*%
%LPD*%
G01*
G04 APERTURE LIST*
%ADD10C,0.300000*%
G04 APERTURE END LIST*
D10*
G36*
X168680834Y-100872138D02*
G01*
X168680834Y-101175000D01*
X169891173Y-101175000D01*
X169891173Y-98517637D01*
X169593172Y-98517637D01*
X169593172Y-100872138D01*
X168680834Y-100872138D01*
G37*
G36*
X167633719Y-99248869D02*
G01*
X167779628Y-99300120D01*
X167904545Y-99382562D01*
X168014232Y-99493894D01*
X168109261Y-99630340D01*
X168190107Y-99795027D01*
X168248345Y-99972979D01*
X168284250Y-100169367D01*
X168296664Y-100387469D01*
X168284748Y-100600788D01*
X168252027Y-100771732D01*
X168201816Y-100908116D01*
X168135611Y-101016242D01*
X168048844Y-101110298D01*
X167960289Y-101174081D01*
X167868607Y-101211389D01*
X167771829Y-101223848D01*
X167677780Y-101211777D01*
X167573057Y-101173104D01*
X167454851Y-101102643D01*
X167347763Y-101011793D01*
X167251882Y-100897085D01*
X167166595Y-100755818D01*
X167143891Y-101001088D01*
X167116587Y-101175000D01*
X166829229Y-101175000D01*
X166861743Y-101027047D01*
X166883287Y-100842571D01*
X166891163Y-100614767D01*
X166891163Y-99548037D01*
X167167621Y-99548037D01*
X167167621Y-100366098D01*
X167253261Y-100529640D01*
X167342620Y-100663272D01*
X167435617Y-100770625D01*
X167540657Y-100859842D01*
X167630291Y-100906760D01*
X167708613Y-100920987D01*
X167778127Y-100906366D01*
X167844399Y-100860944D01*
X167910058Y-100777494D01*
X167956153Y-100675976D01*
X167987053Y-100537222D01*
X167998664Y-100350222D01*
X167987197Y-100154086D01*
X167954966Y-99988856D01*
X167904180Y-99849380D01*
X167835558Y-99731524D01*
X167747302Y-99630722D01*
X167651254Y-99560786D01*
X167545602Y-99518770D01*
X167427538Y-99504378D01*
X167304570Y-99514839D01*
X167167621Y-99548037D01*
X166891163Y-99548037D01*
X166891163Y-99260136D01*
X167163261Y-99260136D01*
X167231863Y-99250976D01*
X167461903Y-99230826D01*
X167633719Y-99248869D01*
G37*
G36*
X165869061Y-101093178D02*
G01*
X166611370Y-99250366D01*
X166308112Y-99250366D01*
X165721471Y-100672928D01*
X165230360Y-99250366D01*
X164953261Y-99250366D01*
X165576703Y-101042040D01*
X165688868Y-101332639D01*
X165787906Y-101542370D01*
X165875061Y-101687619D01*
X165951768Y-101782706D01*
X166044621Y-101861189D01*
X166150649Y-101918259D01*
X166272280Y-101953860D01*
X166412618Y-101966346D01*
X166531883Y-101959434D01*
X166634708Y-101939938D01*
X166634708Y-101650662D01*
X166520815Y-101682757D01*
X166419670Y-101692794D01*
X166296690Y-101677651D01*
X166192066Y-101634329D01*
X166130688Y-101588152D01*
X166070091Y-101520324D01*
X166009855Y-101426570D01*
X165935980Y-101280238D01*
X165892783Y-101168435D01*
X165869061Y-101093178D01*
G37*
G36*
X164169041Y-99213744D02*
G01*
X164290739Y-99248971D01*
X164399566Y-99306047D01*
X164497508Y-99385236D01*
X164585889Y-99488197D01*
X164675187Y-99637703D01*
X164739657Y-99805693D01*
X164779577Y-99995581D01*
X164793489Y-100211767D01*
X164779586Y-100428017D01*
X164739678Y-100618122D01*
X164675207Y-100786454D01*
X164585889Y-100936405D01*
X164497474Y-101039673D01*
X164399514Y-101119075D01*
X164290687Y-101176289D01*
X164169007Y-101211595D01*
X164031946Y-101223848D01*
X163895512Y-101211613D01*
X163774279Y-101176345D01*
X163665741Y-101119159D01*
X163567930Y-101039747D01*
X163479542Y-100936405D01*
X163390164Y-100786445D01*
X163325655Y-100618110D01*
X163285724Y-100428008D01*
X163271813Y-100211767D01*
X163569814Y-100211767D01*
X163578817Y-100386212D01*
X163603938Y-100531692D01*
X163643056Y-100652882D01*
X163695092Y-100753681D01*
X163763767Y-100840391D01*
X163841401Y-100900862D01*
X163929808Y-100937565D01*
X164031946Y-100950296D01*
X164134835Y-100937534D01*
X164223724Y-100900779D01*
X164301610Y-100840299D01*
X164370338Y-100753681D01*
X164422317Y-100652891D01*
X164461396Y-100531706D01*
X164486494Y-100386222D01*
X164495488Y-100211767D01*
X164486512Y-100038329D01*
X164461444Y-99893436D01*
X164422369Y-99772497D01*
X164370338Y-99671685D01*
X164301610Y-99585066D01*
X164223724Y-99524586D01*
X164134835Y-99487831D01*
X164031946Y-99475069D01*
X163929808Y-99487801D01*
X163841401Y-99524504D01*
X163763767Y-99584974D01*
X163695092Y-99671685D01*
X163643004Y-99772507D01*
X163603890Y-99893449D01*
X163578799Y-100038338D01*
X163569814Y-100211767D01*
X163271813Y-100211767D01*
X163285733Y-99995589D01*
X163325675Y-99805705D01*
X163390184Y-99637713D01*
X163479542Y-99488197D01*
X163567896Y-99385162D01*
X163665688Y-99305963D01*
X163774227Y-99248915D01*
X163895479Y-99213726D01*
X164031946Y-99201517D01*
X164169041Y-99213744D01*
G37*
G36*
X161607036Y-99250366D02*
G01*
X161607036Y-101175000D01*
X161881956Y-101175000D01*
X161881956Y-100762840D01*
X161970215Y-100904042D01*
X162063730Y-101017039D01*
X162162774Y-101105085D01*
X162271782Y-101172658D01*
X162377036Y-101211292D01*
X162480393Y-101223848D01*
X162572619Y-101213686D01*
X162658694Y-101183613D01*
X162740182Y-101133173D01*
X162811737Y-101065411D01*
X162865919Y-100986550D01*
X162904442Y-100895189D01*
X162926592Y-100791801D01*
X162943711Y-100611614D01*
X162950732Y-100322592D01*
X162950732Y-99250366D01*
X162675684Y-99250366D01*
X162675684Y-100361518D01*
X162668608Y-100612986D01*
X162653757Y-100723150D01*
X162622516Y-100802463D01*
X162573358Y-100865574D01*
X162511824Y-100907492D01*
X162447439Y-100920987D01*
X162358637Y-100905733D01*
X162260007Y-100856243D01*
X162147771Y-100763756D01*
X162048090Y-100651305D01*
X161959568Y-100519748D01*
X161881956Y-100367166D01*
X161881956Y-99250366D01*
X161607036Y-99250366D01*
G37*
G36*
X159823135Y-101092873D02*
G01*
X160002190Y-101174544D01*
X160099081Y-101205835D01*
X160263340Y-101223848D01*
X160374378Y-101214986D01*
X160476901Y-101189079D01*
X160572240Y-101146606D01*
X160659086Y-101085998D01*
X160729051Y-101010211D01*
X160784072Y-100918087D01*
X160820461Y-100813011D01*
X160845857Y-100662301D01*
X160855623Y-100452041D01*
X160855623Y-99690003D01*
X161255821Y-99690003D01*
X161255821Y-99416451D01*
X160855623Y-99416451D01*
X160855623Y-98664183D01*
X160580575Y-98664183D01*
X160580575Y-99416451D01*
X159867630Y-99416451D01*
X159867630Y-99690003D01*
X160580575Y-99690003D01*
X160580575Y-100447156D01*
X160574087Y-100601015D01*
X160557745Y-100703881D01*
X160535310Y-100769404D01*
X160481797Y-100850937D01*
X160414264Y-100906485D01*
X160333832Y-100938756D01*
X160234617Y-100950296D01*
X160109089Y-100935203D01*
X159972908Y-100887503D01*
X159823135Y-100801919D01*
X159823135Y-101092873D01*
G37*
G36*
X157646473Y-101175000D02*
G01*
X157114457Y-101175000D01*
X156926505Y-101162551D01*
X156778786Y-101128798D01*
X156663880Y-101078038D01*
X156575517Y-101012883D01*
X156471925Y-100893738D01*
X156382719Y-100741466D01*
X156308163Y-100550348D01*
X156257198Y-100346967D01*
X156225067Y-100115927D01*
X156213787Y-99853188D01*
X156215987Y-99796707D01*
X156510249Y-99796707D01*
X156517365Y-100057361D01*
X156536301Y-100256432D01*
X156563848Y-100405177D01*
X156609049Y-100545114D01*
X156668436Y-100658234D01*
X156741828Y-100748643D01*
X156805534Y-100797471D01*
X156892062Y-100836165D01*
X157007466Y-100862343D01*
X157158952Y-100872138D01*
X157348473Y-100872138D01*
X157348473Y-98791189D01*
X157136000Y-98791189D01*
X156959125Y-98806114D01*
X156835891Y-98844696D01*
X156752471Y-98900335D01*
X156682844Y-98980627D01*
X156622978Y-99083609D01*
X156573081Y-99213271D01*
X156540958Y-99351835D01*
X156518693Y-99542000D01*
X156510249Y-99796707D01*
X156215987Y-99796707D01*
X156224619Y-99575062D01*
X156255171Y-99334951D01*
X156303034Y-99127939D01*
X156355880Y-98977999D01*
X156418259Y-98853738D01*
X156489730Y-98751771D01*
X156570516Y-98669526D01*
X156660740Y-98608584D01*
X156777294Y-98560964D01*
X156926195Y-98529298D01*
X157114457Y-98517637D01*
X157646473Y-98517637D01*
X157646473Y-101175000D01*
G37*
G36*
X154581964Y-100872138D02*
G01*
X154581964Y-101175000D01*
X155792304Y-101175000D01*
X155792304Y-98517637D01*
X155494303Y-98517637D01*
X155494303Y-100872138D01*
X154581964Y-100872138D01*
G37*
G36*
X153541441Y-98452065D02*
G01*
X153658893Y-98488186D01*
X153762708Y-98546595D01*
X153855043Y-98627699D01*
X153933637Y-98728927D01*
X153987924Y-98837018D01*
X154020331Y-98953823D01*
X154031355Y-99082144D01*
X154020433Y-99212642D01*
X153988006Y-99334663D01*
X153933261Y-99450645D01*
X153829968Y-99602605D01*
X153732714Y-99703589D01*
X153688603Y-99742057D01*
X153845882Y-99887325D01*
X153964542Y-100027693D01*
X154050525Y-100163939D01*
X154108614Y-100297349D01*
X154142239Y-100429729D01*
X154153300Y-100563324D01*
X154141983Y-100705989D01*
X154109056Y-100833571D01*
X154054664Y-100949193D01*
X153977115Y-101055015D01*
X153885001Y-101136839D01*
X153769668Y-101198566D01*
X153626016Y-101238616D01*
X153447664Y-101253157D01*
X153271028Y-101237794D01*
X153128149Y-101195320D01*
X153012734Y-101129428D01*
X152919880Y-101041277D01*
X152841679Y-100928702D01*
X152787257Y-100809211D01*
X152754652Y-100680923D01*
X152746110Y-100573246D01*
X153040157Y-100573246D01*
X153053587Y-100682019D01*
X153093324Y-100777335D01*
X153162229Y-100863132D01*
X153247697Y-100928136D01*
X153339216Y-100966595D01*
X153439073Y-100979605D01*
X153548228Y-100965733D01*
X153644858Y-100925337D01*
X153731816Y-100858094D01*
X153801549Y-100768926D01*
X153841745Y-100670743D01*
X153855299Y-100559660D01*
X153843666Y-100452705D01*
X153806700Y-100338196D01*
X153739242Y-100212717D01*
X153633755Y-100073278D01*
X153480747Y-99917301D01*
X153397270Y-99995154D01*
X153189414Y-100226269D01*
X153101658Y-100351957D01*
X153054744Y-100466118D01*
X153040157Y-100573246D01*
X152746110Y-100573246D01*
X152743567Y-100541189D01*
X152751974Y-100420057D01*
X152776567Y-100309232D01*
X152817169Y-100206729D01*
X152873034Y-100113232D01*
X152964448Y-99996833D01*
X153102219Y-99852577D01*
X153218778Y-99742210D01*
X153047225Y-99563708D01*
X152963220Y-99454309D01*
X152904813Y-99348324D01*
X152864357Y-99245023D01*
X152839363Y-99137509D01*
X152832514Y-99045965D01*
X153107476Y-99045965D01*
X153119279Y-99151189D01*
X153157998Y-99272500D01*
X153199381Y-99347494D01*
X153277692Y-99445824D01*
X153407529Y-99573988D01*
X153472540Y-99518117D01*
X153613477Y-99385588D01*
X153696810Y-99282270D01*
X153736280Y-99209064D01*
X153758967Y-99135430D01*
X153766437Y-99059704D01*
X153757809Y-98982422D01*
X153731134Y-98905162D01*
X153683602Y-98825841D01*
X153622376Y-98764881D01*
X153543648Y-98726792D01*
X153442022Y-98713032D01*
X153347055Y-98725250D01*
X153267840Y-98760000D01*
X153200954Y-98816682D01*
X153147403Y-98891071D01*
X153117319Y-98966681D01*
X153107476Y-99045965D01*
X152832514Y-99045965D01*
X152831018Y-99025968D01*
X152839133Y-98918299D01*
X152863169Y-98817356D01*
X152903466Y-98721427D01*
X152958023Y-98636578D01*
X153025885Y-98566665D01*
X153108759Y-98510768D01*
X153199104Y-98471792D01*
X153298207Y-98447770D01*
X153407529Y-98439480D01*
X153541441Y-98452065D01*
G37*
G36*
X152535838Y-101175000D02*
G01*
X152248993Y-101175000D01*
X152098454Y-100608356D01*
X151321011Y-100608356D01*
X151168933Y-101175000D01*
X150855032Y-101175000D01*
X151073962Y-100334804D01*
X151388330Y-100334804D01*
X152027031Y-100334804D01*
X151765960Y-99317991D01*
X151713772Y-99063978D01*
X151654915Y-99317227D01*
X151388330Y-100334804D01*
X151073962Y-100334804D01*
X151547461Y-98517637D01*
X151847641Y-98517637D01*
X152535838Y-101175000D01*
G37*
G36*
X150572675Y-101175000D02*
G01*
X150027708Y-101175000D01*
X149815293Y-101162549D01*
X149666817Y-101130587D01*
X149566731Y-101085698D01*
X149477170Y-101017132D01*
X149402750Y-100932227D01*
X149342076Y-100829549D01*
X149296921Y-100715458D01*
X149270532Y-100601351D01*
X149261806Y-100485624D01*
X149263351Y-100467001D01*
X149559806Y-100467001D01*
X149571959Y-100581122D01*
X149607683Y-100682230D01*
X149668415Y-100773831D01*
X149747620Y-100840976D01*
X149856538Y-100885000D01*
X150004756Y-100901448D01*
X150274675Y-100901448D01*
X150274675Y-99983094D01*
X150198379Y-99983094D01*
X150017628Y-99992209D01*
X149890486Y-100015637D01*
X149804336Y-100048429D01*
X149725419Y-100099066D01*
X149664710Y-100157713D01*
X149619432Y-100224437D01*
X149574724Y-100340367D01*
X149559806Y-100467001D01*
X149263351Y-100467001D01*
X149271834Y-100364772D01*
X149302656Y-100241706D01*
X149356437Y-100114375D01*
X149430858Y-100005236D01*
X149544921Y-99902172D01*
X149709576Y-99805713D01*
X149583029Y-99710336D01*
X149495308Y-99614288D01*
X149427955Y-99504528D01*
X149379775Y-99384394D01*
X149350649Y-99255390D01*
X149343752Y-99158927D01*
X149627254Y-99158927D01*
X149635841Y-99274189D01*
X149660721Y-99376762D01*
X149702221Y-99470504D01*
X149761636Y-99556433D01*
X149841776Y-99629785D01*
X149975392Y-99709542D01*
X150274675Y-99709542D01*
X150274675Y-98791189D01*
X150076435Y-98791189D01*
X149897830Y-98804544D01*
X149785244Y-98837486D01*
X149718552Y-98882170D01*
X149669493Y-98950060D01*
X149638551Y-99039959D01*
X149627254Y-99158927D01*
X149343752Y-99158927D01*
X149340794Y-99117559D01*
X149348491Y-99000613D01*
X149370829Y-98895295D01*
X149407344Y-98799585D01*
X149458557Y-98715050D01*
X149524621Y-98645134D01*
X149607635Y-98588926D01*
X149701866Y-98554831D01*
X149867125Y-98528476D01*
X150133881Y-98517637D01*
X150572675Y-98517637D01*
X150572675Y-101175000D01*
G37*
G36*
X147488035Y-101170267D02*
G01*
X147648718Y-101217813D01*
X147793389Y-101244658D01*
X147923880Y-101253157D01*
X148062407Y-101242486D01*
X148190568Y-101211284D01*
X148309923Y-101160160D01*
X148421787Y-101088904D01*
X148522601Y-100998908D01*
X148613007Y-100888006D01*
X148693515Y-100753992D01*
X148764026Y-100593854D01*
X148831577Y-100368942D01*
X148873325Y-100121019D01*
X148887766Y-99846318D01*
X148873666Y-99574968D01*
X148832876Y-99329589D01*
X148766847Y-99106568D01*
X148697837Y-98947910D01*
X148618000Y-98813770D01*
X148527370Y-98701427D01*
X148425378Y-98608923D01*
X148273203Y-98514618D01*
X148112774Y-98458446D01*
X147941191Y-98439480D01*
X147810144Y-98450610D01*
X147660588Y-98486347D01*
X147489445Y-98550915D01*
X147489445Y-98875300D01*
X147651062Y-98782767D01*
X147804591Y-98730059D01*
X147952603Y-98713032D01*
X148062400Y-98728227D01*
X148165730Y-98773755D01*
X148265093Y-98851945D01*
X148349727Y-98953532D01*
X148425992Y-99087467D01*
X148493338Y-99259983D01*
X148540748Y-99442111D01*
X148569810Y-99637753D01*
X148579764Y-99848913D01*
X148569179Y-100061552D01*
X148538078Y-100261146D01*
X148486952Y-100449585D01*
X148415632Y-100628506D01*
X148341300Y-100756440D01*
X148254357Y-100852936D01*
X148153553Y-100921892D01*
X148036133Y-100964600D01*
X147898106Y-100979605D01*
X147786035Y-100970446D01*
X147786035Y-100129640D01*
X148008382Y-100129640D01*
X148008382Y-99856088D01*
X147488035Y-99856088D01*
X147488035Y-101170267D01*
G37*
G36*
X165992801Y-90934596D02*
G01*
X166163968Y-91002215D01*
X166313517Y-91039631D01*
X166444546Y-91051284D01*
X166615308Y-91031869D01*
X166775294Y-90974342D01*
X166927323Y-90877761D01*
X167029250Y-90782833D01*
X167120100Y-90666805D01*
X167200435Y-90527549D01*
X167270203Y-90362116D01*
X167336963Y-90129439D01*
X167378247Y-89872758D01*
X167392532Y-89588171D01*
X167378432Y-89305967D01*
X167337642Y-89050773D01*
X167271614Y-88818831D01*
X167202603Y-88653826D01*
X167122766Y-88514320D01*
X167032137Y-88397484D01*
X166930144Y-88301280D01*
X166816714Y-88223971D01*
X166698761Y-88169220D01*
X166575153Y-88136223D01*
X166444546Y-88125059D01*
X166313500Y-88136635D01*
X166163944Y-88173801D01*
X165992801Y-88240952D01*
X165992801Y-88578312D01*
X166154417Y-88482078D01*
X166307947Y-88427262D01*
X166455959Y-88409553D01*
X166565756Y-88425357D01*
X166669086Y-88472705D01*
X166768449Y-88554023D01*
X166853132Y-88659648D01*
X166929608Y-88798943D01*
X166997335Y-88978382D01*
X167045247Y-89167807D01*
X167074527Y-89370091D01*
X167084530Y-89587219D01*
X167074186Y-89807943D01*
X167043946Y-90012878D01*
X166994514Y-90204152D01*
X166924910Y-90385485D01*
X166848170Y-90523930D01*
X166764859Y-90626765D01*
X166667045Y-90705445D01*
X166564891Y-90751411D01*
X166455959Y-90766789D01*
X166308880Y-90749073D01*
X166155377Y-90694077D01*
X165992801Y-90597236D01*
X165992801Y-90934596D01*
G37*
G36*
X164990181Y-88966824D02*
G01*
X165136090Y-89020125D01*
X165261007Y-89105865D01*
X165370694Y-89221649D01*
X165465723Y-89363554D01*
X165546569Y-89534829D01*
X165604807Y-89719898D01*
X165640712Y-89924142D01*
X165653126Y-90150968D01*
X165641210Y-90372820D01*
X165608489Y-90550602D01*
X165558278Y-90692441D01*
X165492073Y-90804891D01*
X165405306Y-90902710D01*
X165316751Y-90969045D01*
X165225069Y-91007845D01*
X165128291Y-91020802D01*
X165034242Y-91008248D01*
X164929519Y-90968028D01*
X164811313Y-90894748D01*
X164704225Y-90800265D01*
X164608344Y-90680968D01*
X164523057Y-90534050D01*
X164500353Y-90789131D01*
X164473049Y-90970000D01*
X164185691Y-90970000D01*
X164218205Y-90816129D01*
X164239749Y-90624274D01*
X164247625Y-90387358D01*
X164247625Y-89277958D01*
X164524083Y-89277958D01*
X164524083Y-90128742D01*
X164609723Y-90298826D01*
X164699082Y-90437803D01*
X164792079Y-90549450D01*
X164897119Y-90642235D01*
X164986753Y-90691030D01*
X165065075Y-90705826D01*
X165134589Y-90690621D01*
X165200861Y-90643382D01*
X165266520Y-90556594D01*
X165312615Y-90451015D01*
X165343515Y-90306711D01*
X165355126Y-90112231D01*
X165343659Y-89908249D01*
X165311428Y-89736410D01*
X165260642Y-89591355D01*
X165192020Y-89468785D01*
X165103764Y-89363951D01*
X165007716Y-89291217D01*
X164902064Y-89247521D01*
X164784000Y-89232554D01*
X164661032Y-89243433D01*
X164524083Y-89277958D01*
X164247625Y-89277958D01*
X164247625Y-88978541D01*
X164519723Y-88978541D01*
X164588325Y-88969016D01*
X164818365Y-88948060D01*
X164990181Y-88966824D01*
G37*
G36*
X163049698Y-88930001D02*
G01*
X163154232Y-88969749D01*
X163271942Y-89042044D01*
X163378743Y-89135292D01*
X163474491Y-89252687D01*
X163559812Y-89396868D01*
X163559812Y-88968381D01*
X163834860Y-88968381D01*
X163834860Y-91742198D01*
X163559812Y-91742198D01*
X163559812Y-90970476D01*
X163495570Y-90979525D01*
X163265530Y-91000481D01*
X163093747Y-90981648D01*
X162947840Y-90928144D01*
X162822889Y-90842041D01*
X162713190Y-90725757D01*
X162617938Y-90583176D01*
X162536685Y-90411013D01*
X162478022Y-90224956D01*
X162441860Y-90019661D01*
X162431475Y-89830277D01*
X162727359Y-89830277D01*
X162738960Y-90036645D01*
X162771532Y-90210077D01*
X162822798Y-90356095D01*
X162892004Y-90479120D01*
X162980950Y-90584615D01*
X163076799Y-90657510D01*
X163181281Y-90701111D01*
X163297074Y-90715987D01*
X163420368Y-90705091D01*
X163559812Y-90670265D01*
X163559812Y-89813607D01*
X163473334Y-89642174D01*
X163383761Y-89502273D01*
X163291176Y-89390041D01*
X163186498Y-89296584D01*
X163097078Y-89247454D01*
X163018821Y-89232554D01*
X162949293Y-89247768D01*
X162882809Y-89295089D01*
X162816734Y-89382103D01*
X162770313Y-89487812D01*
X162739112Y-89633231D01*
X162727359Y-89830277D01*
X162431475Y-89830277D01*
X162429359Y-89791699D01*
X162441334Y-89568711D01*
X162474215Y-89390054D01*
X162524666Y-89247549D01*
X162591182Y-89134600D01*
X162678319Y-89036203D01*
X162767102Y-88969537D01*
X162858874Y-88930578D01*
X162955604Y-88917578D01*
X163049698Y-88930001D01*
G37*
G36*
X161465464Y-88966824D02*
G01*
X161611373Y-89020125D01*
X161736289Y-89105865D01*
X161845977Y-89221649D01*
X161941006Y-89363554D01*
X162021852Y-89534829D01*
X162080090Y-89719898D01*
X162115995Y-89924142D01*
X162128409Y-90150968D01*
X162116493Y-90372820D01*
X162083771Y-90550602D01*
X162033561Y-90692441D01*
X161967355Y-90804891D01*
X161880589Y-90902710D01*
X161792034Y-90969045D01*
X161700351Y-91007845D01*
X161603574Y-91020802D01*
X161509525Y-91008248D01*
X161404801Y-90968028D01*
X161286595Y-90894748D01*
X161179508Y-90800265D01*
X161083627Y-90680968D01*
X160998340Y-90534050D01*
X160975636Y-90789131D01*
X160948331Y-90970000D01*
X160660973Y-90970000D01*
X160693487Y-90816129D01*
X160715031Y-90624274D01*
X160722907Y-90387358D01*
X160722907Y-89277958D01*
X160999366Y-89277958D01*
X160999366Y-90128742D01*
X161085006Y-90298826D01*
X161174365Y-90437803D01*
X161267361Y-90549450D01*
X161372402Y-90642235D01*
X161462036Y-90691030D01*
X161540358Y-90705826D01*
X161609871Y-90690621D01*
X161676143Y-90643382D01*
X161741803Y-90556594D01*
X161787897Y-90451015D01*
X161818797Y-90306711D01*
X161830408Y-90112231D01*
X161818942Y-89908249D01*
X161786710Y-89736410D01*
X161735924Y-89591355D01*
X161667303Y-89468785D01*
X161579046Y-89363951D01*
X161482999Y-89291217D01*
X161377347Y-89247521D01*
X161259283Y-89232554D01*
X161136315Y-89243433D01*
X160999366Y-89277958D01*
X160722907Y-89277958D01*
X160722907Y-88978541D01*
X160995006Y-88978541D01*
X161063608Y-88969016D01*
X161293648Y-88948060D01*
X161465464Y-88966824D01*
G37*
G36*
X158933364Y-90907131D02*
G01*
X159116339Y-90971720D01*
X159287424Y-91008836D01*
X159448198Y-91020802D01*
X159606490Y-91004839D01*
X159748983Y-90958479D01*
X159878529Y-90882524D01*
X159995063Y-90779084D01*
X160092350Y-90654818D01*
X160171914Y-90507855D01*
X160229592Y-90345676D01*
X160264897Y-90167527D01*
X160277060Y-89970143D01*
X160266988Y-89790443D01*
X160237767Y-89627678D01*
X160190193Y-89479227D01*
X160124112Y-89342954D01*
X160038429Y-89217313D01*
X159911452Y-89084909D01*
X159774832Y-88992365D01*
X159626256Y-88936627D01*
X159462431Y-88917578D01*
X159297920Y-88929811D01*
X159122126Y-88967825D01*
X158933364Y-89034106D01*
X158933364Y-89362894D01*
X159127023Y-89269100D01*
X159293754Y-89217878D01*
X159438068Y-89202072D01*
X159533068Y-89211962D01*
X159623773Y-89241423D01*
X159711449Y-89290976D01*
X159788947Y-89359816D01*
X159854702Y-89451198D01*
X159909304Y-89568644D01*
X159948307Y-89696613D01*
X159971383Y-89825536D01*
X159979060Y-89956648D01*
X159964492Y-90129288D01*
X159920431Y-90297533D01*
X159844549Y-90464515D01*
X159769718Y-90567928D01*
X159677184Y-90642288D01*
X159563267Y-90689067D01*
X159422296Y-90705826D01*
X159250856Y-90690903D01*
X159149015Y-90661971D01*
X158933364Y-90577709D01*
X158933364Y-90907131D01*
G37*
G36*
X158078600Y-90970000D02*
G01*
X158078600Y-89252875D01*
X158523293Y-89252875D01*
X158523293Y-88968381D01*
X157803552Y-88968381D01*
X157803552Y-90685505D01*
X157357448Y-90685505D01*
X157357448Y-90970000D01*
X158078600Y-90970000D01*
G37*
G36*
X158123095Y-88268258D02*
G01*
X158115536Y-88196799D01*
X158094464Y-88141902D01*
X158060007Y-88099499D01*
X157996208Y-88056540D01*
X157941140Y-88043775D01*
X157884728Y-88056639D01*
X157820734Y-88099499D01*
X157786277Y-88141902D01*
X157765206Y-88196799D01*
X157757646Y-88268258D01*
X157765158Y-88338446D01*
X157786186Y-88392827D01*
X157820734Y-88435272D01*
X157884720Y-88478006D01*
X157941140Y-88490837D01*
X157996216Y-88478105D01*
X158060007Y-88435272D01*
X158094555Y-88392827D01*
X158115583Y-88338446D01*
X158123095Y-88268258D01*
G37*
G36*
X155417238Y-90884588D02*
G01*
X155596293Y-90969525D01*
X155693184Y-91002069D01*
X155857443Y-91020802D01*
X155968481Y-91011585D01*
X156071005Y-90984642D01*
X156166343Y-90940471D01*
X156253189Y-90877438D01*
X156323155Y-90798619D01*
X156378175Y-90702810D01*
X156414565Y-90593532D01*
X156439960Y-90436793D01*
X156449726Y-90218122D01*
X156449726Y-89425603D01*
X156849924Y-89425603D01*
X156849924Y-89141109D01*
X156449726Y-89141109D01*
X156449726Y-88358750D01*
X156174678Y-88358750D01*
X156174678Y-89141109D01*
X155461733Y-89141109D01*
X155461733Y-89425603D01*
X156174678Y-89425603D01*
X156174678Y-90213042D01*
X156168190Y-90373056D01*
X156151848Y-90480036D01*
X156129414Y-90548180D01*
X156075900Y-90632974D01*
X156008367Y-90690744D01*
X155927935Y-90724306D01*
X155828720Y-90736308D01*
X155703193Y-90720611D01*
X155567011Y-90671003D01*
X155417238Y-90581995D01*
X155417238Y-90884588D01*
G37*
G36*
X154553883Y-90970000D02*
G01*
X154553883Y-89252875D01*
X154998575Y-89252875D01*
X154998575Y-88968381D01*
X154278835Y-88968381D01*
X154278835Y-90685505D01*
X153832731Y-90685505D01*
X153832731Y-90970000D01*
X154553883Y-90970000D01*
G37*
G36*
X154598377Y-88268258D02*
G01*
X154590818Y-88196799D01*
X154569747Y-88141902D01*
X154535290Y-88099499D01*
X154471491Y-88056540D01*
X154416423Y-88043775D01*
X154360011Y-88056639D01*
X154296017Y-88099499D01*
X154261560Y-88141902D01*
X154240488Y-88196799D01*
X154232929Y-88268258D01*
X154240441Y-88338446D01*
X154261469Y-88392827D01*
X154296017Y-88435272D01*
X154360003Y-88478006D01*
X154416423Y-88490837D01*
X154471499Y-88478105D01*
X154535290Y-88435272D01*
X154569838Y-88392827D01*
X154590866Y-88338446D01*
X154598377Y-88268258D01*
G37*
G36*
X152718434Y-90970000D02*
G01*
X153417787Y-88968381D01*
X153116196Y-88968381D01*
X152569434Y-90538496D01*
X152011131Y-88968381D01*
X151735442Y-88968381D01*
X152440437Y-90970000D01*
X152718434Y-90970000D01*
G37*
G36*
X150890638Y-88933400D02*
G01*
X151020608Y-88979969D01*
X151142134Y-89057602D01*
X151249805Y-89162180D01*
X151340858Y-89291605D01*
X151416156Y-89448941D01*
X151470830Y-89619813D01*
X151503282Y-89793780D01*
X151514122Y-89972683D01*
X151502568Y-90158518D01*
X151468290Y-90335117D01*
X151411027Y-90504680D01*
X151332985Y-90660416D01*
X151241641Y-90786733D01*
X151136363Y-90886969D01*
X151017879Y-90960790D01*
X150888893Y-91005493D01*
X150746808Y-91020802D01*
X150558882Y-91001338D01*
X150356790Y-90940366D01*
X150137343Y-90832515D01*
X150137343Y-90518492D01*
X150303302Y-90619567D01*
X150452939Y-90686648D01*
X150588534Y-90724356D01*
X150712315Y-90736308D01*
X150806192Y-90726544D01*
X150891024Y-90698116D01*
X150968514Y-90651372D01*
X151037085Y-90586932D01*
X151097466Y-90502815D01*
X151149955Y-90396090D01*
X151188074Y-90280036D01*
X151211113Y-90156905D01*
X151218942Y-90025073D01*
X150114390Y-90025073D01*
X150114390Y-89949187D01*
X150125212Y-89728196D01*
X150412391Y-89728196D01*
X150412391Y-89771060D01*
X151202272Y-89771060D01*
X151160870Y-89591004D01*
X151105897Y-89452352D01*
X151038910Y-89347336D01*
X150954891Y-89265891D01*
X150863319Y-89218211D01*
X150761170Y-89202072D01*
X150660754Y-89218476D01*
X150577559Y-89265588D01*
X150507407Y-89344478D01*
X150456401Y-89445476D01*
X150424050Y-89571202D01*
X150412391Y-89728196D01*
X150125212Y-89728196D01*
X150127535Y-89680769D01*
X150163369Y-89468073D01*
X150217742Y-89300816D01*
X150288395Y-89170479D01*
X150382269Y-89059990D01*
X150488576Y-88981960D01*
X150609823Y-88934199D01*
X150749757Y-88917578D01*
X150890638Y-88933400D01*
G37*
G36*
X167755160Y-95302596D02*
G01*
X167926327Y-95370215D01*
X168075876Y-95407631D01*
X168206905Y-95419284D01*
X168377667Y-95399869D01*
X168537653Y-95342342D01*
X168689682Y-95245761D01*
X168791609Y-95150833D01*
X168882459Y-95034805D01*
X168962794Y-94895549D01*
X169032562Y-94730116D01*
X169099322Y-94497439D01*
X169140606Y-94240758D01*
X169154891Y-93956171D01*
X169140791Y-93673967D01*
X169100001Y-93418773D01*
X169033973Y-93186831D01*
X168964962Y-93021826D01*
X168885125Y-92882320D01*
X168794496Y-92765484D01*
X168692503Y-92669280D01*
X168579073Y-92591971D01*
X168461120Y-92537220D01*
X168337512Y-92504223D01*
X168206905Y-92493059D01*
X168075859Y-92504635D01*
X167926303Y-92541801D01*
X167755160Y-92608952D01*
X167755160Y-92946312D01*
X167916776Y-92850078D01*
X168070306Y-92795262D01*
X168218318Y-92777553D01*
X168328115Y-92793357D01*
X168431445Y-92840705D01*
X168530808Y-92922023D01*
X168615491Y-93027648D01*
X168691967Y-93166943D01*
X168759694Y-93346382D01*
X168807606Y-93535807D01*
X168836886Y-93738091D01*
X168846889Y-93955219D01*
X168836545Y-94175943D01*
X168806305Y-94380878D01*
X168756873Y-94572152D01*
X168687269Y-94753485D01*
X168610529Y-94891930D01*
X168527218Y-94994765D01*
X168429404Y-95073445D01*
X168327250Y-95119411D01*
X168218318Y-95134789D01*
X168071239Y-95117073D01*
X167917736Y-95062077D01*
X167755160Y-94965236D01*
X167755160Y-95302596D01*
G37*
G36*
X167262895Y-95338000D02*
G01*
X167522171Y-92574343D01*
X167249815Y-92574343D01*
X167097353Y-94254795D01*
X167077606Y-94529128D01*
X167077862Y-94529128D01*
X167049652Y-94254001D01*
X166815124Y-92574343D01*
X166544308Y-92574343D01*
X166276825Y-94321473D01*
X166250026Y-94583582D01*
X166250282Y-94583582D01*
X166233356Y-94320203D01*
X166064993Y-92574343D01*
X165830209Y-92574343D01*
X166100897Y-95338000D01*
X166381843Y-95338000D01*
X166669458Y-93465292D01*
X166699078Y-93188894D01*
X166725878Y-93465292D01*
X166984769Y-95338000D01*
X167262895Y-95338000D01*
G37*
G36*
X163301178Y-95338000D02*
G01*
X163301178Y-92889318D01*
X163968217Y-92889318D01*
X163968217Y-92574343D01*
X162334727Y-92574343D01*
X162334727Y-92889318D01*
X163003177Y-92889318D01*
X163003177Y-95338000D01*
X163301178Y-95338000D01*
G37*
G36*
X161525503Y-93298294D02*
G01*
X161647201Y-93334930D01*
X161756028Y-93394289D01*
X161853970Y-93476645D01*
X161942351Y-93583725D01*
X162031649Y-93739212D01*
X162096119Y-93913921D01*
X162136040Y-94111404D01*
X162149951Y-94336237D01*
X162136048Y-94561138D01*
X162096140Y-94758847D01*
X162031669Y-94933912D01*
X161942351Y-95089861D01*
X161853936Y-95197260D01*
X161755976Y-95279838D01*
X161647149Y-95339341D01*
X161525469Y-95376058D01*
X161388408Y-95388802D01*
X161251975Y-95376078D01*
X161130742Y-95339399D01*
X161022203Y-95279925D01*
X160924392Y-95197337D01*
X160836004Y-95089861D01*
X160746626Y-94933903D01*
X160682117Y-94758835D01*
X160642186Y-94561129D01*
X160628276Y-94336237D01*
X160926276Y-94336237D01*
X160935279Y-94517661D01*
X160960400Y-94668960D01*
X160999518Y-94794997D01*
X161051555Y-94899828D01*
X161120229Y-94990007D01*
X161197863Y-95052896D01*
X161286271Y-95091067D01*
X161388408Y-95104308D01*
X161491298Y-95091036D01*
X161580187Y-95052811D01*
X161658073Y-94989911D01*
X161726801Y-94899828D01*
X161778780Y-94795007D01*
X161817859Y-94668974D01*
X161842956Y-94517671D01*
X161851951Y-94336237D01*
X161842974Y-94155862D01*
X161817906Y-94005173D01*
X161778831Y-93879397D01*
X161726801Y-93774552D01*
X161658073Y-93684469D01*
X161580187Y-93621570D01*
X161491298Y-93583344D01*
X161388408Y-93570072D01*
X161286271Y-93583313D01*
X161197863Y-93621484D01*
X161120229Y-93684373D01*
X161051555Y-93774552D01*
X160999467Y-93879407D01*
X160960352Y-94005187D01*
X160935261Y-94155872D01*
X160926276Y-94336237D01*
X160628276Y-94336237D01*
X160642195Y-94111413D01*
X160682138Y-93913933D01*
X160746646Y-93739221D01*
X160836004Y-93583725D01*
X160924358Y-93476569D01*
X161022151Y-93394202D01*
X161130690Y-93334872D01*
X161251941Y-93298275D01*
X161388408Y-93285578D01*
X161525503Y-93298294D01*
G37*
G36*
X158963498Y-93336381D02*
G01*
X158963498Y-95338000D01*
X159238418Y-95338000D01*
X159238418Y-94909353D01*
X159326677Y-95056204D01*
X159420192Y-95173721D01*
X159519236Y-95265288D01*
X159628244Y-95335565D01*
X159733498Y-95375744D01*
X159836856Y-95388802D01*
X159929081Y-95378233D01*
X160015156Y-95346957D01*
X160096645Y-95294500D01*
X160168199Y-95224028D01*
X160222381Y-95142012D01*
X160260904Y-95046996D01*
X160283055Y-94939473D01*
X160300173Y-94752079D01*
X160307194Y-94451496D01*
X160307194Y-93336381D01*
X160032146Y-93336381D01*
X160032146Y-94491979D01*
X160025070Y-94753505D01*
X160010219Y-94868076D01*
X159978978Y-94950561D01*
X159929821Y-95016197D01*
X159868286Y-95059791D01*
X159803901Y-95073826D01*
X159715100Y-95057962D01*
X159616470Y-95006493D01*
X159504233Y-94910306D01*
X159404552Y-94793357D01*
X159316030Y-94656538D01*
X159238418Y-94497853D01*
X159238418Y-93336381D01*
X158963498Y-93336381D01*
G37*
G36*
X157171006Y-95275131D02*
G01*
X157353980Y-95339720D01*
X157525065Y-95376836D01*
X157685839Y-95388802D01*
X157844131Y-95372839D01*
X157986625Y-95326479D01*
X158116171Y-95250524D01*
X158232705Y-95147084D01*
X158329992Y-95022818D01*
X158409555Y-94875855D01*
X158467233Y-94713676D01*
X158502539Y-94535527D01*
X158514702Y-94338143D01*
X158504630Y-94158443D01*
X158475409Y-93995678D01*
X158427835Y-93847227D01*
X158361754Y-93710954D01*
X158276071Y-93585313D01*
X158149093Y-93452909D01*
X158012473Y-93360365D01*
X157863898Y-93304627D01*
X157700073Y-93285578D01*
X157535561Y-93297811D01*
X157359767Y-93335825D01*
X157171006Y-93402106D01*
X157171006Y-93730894D01*
X157364665Y-93637100D01*
X157531395Y-93585878D01*
X157675709Y-93570072D01*
X157770710Y-93579962D01*
X157861415Y-93609423D01*
X157949090Y-93658976D01*
X158026589Y-93727816D01*
X158092344Y-93819198D01*
X158146945Y-93936644D01*
X158185948Y-94064613D01*
X158209024Y-94193536D01*
X158216701Y-94324648D01*
X158202133Y-94497288D01*
X158158073Y-94665533D01*
X158082191Y-94832515D01*
X158007360Y-94935928D01*
X157914826Y-95010288D01*
X157800908Y-95057067D01*
X157659937Y-95073826D01*
X157488497Y-95058903D01*
X157386656Y-95029971D01*
X157171006Y-94945709D01*
X157171006Y-95275131D01*
G37*
G36*
X156765294Y-95338000D02*
G01*
X156765294Y-92462577D01*
X156490246Y-92462577D01*
X156490246Y-93762487D01*
X156411430Y-93626997D01*
X156321413Y-93512199D01*
X156219558Y-93416394D01*
X156107286Y-93341852D01*
X155999177Y-93299362D01*
X155893219Y-93285578D01*
X155803589Y-93295406D01*
X155720390Y-93324386D01*
X155642150Y-93372736D01*
X155571849Y-93437270D01*
X155519827Y-93507455D01*
X155483532Y-93583884D01*
X155453247Y-93681382D01*
X155434421Y-93785189D01*
X155425639Y-93919345D01*
X155421470Y-94222884D01*
X155421470Y-95338000D01*
X155696518Y-95338000D01*
X155696518Y-94182401D01*
X155703635Y-93920875D01*
X155718573Y-93806304D01*
X155749741Y-93723835D01*
X155798972Y-93658183D01*
X155860610Y-93614675D01*
X155926302Y-93600554D01*
X156014893Y-93616495D01*
X156113461Y-93668275D01*
X156225841Y-93765185D01*
X156325539Y-93882594D01*
X156413575Y-94019086D01*
X156490246Y-94176527D01*
X156490246Y-95338000D01*
X156765294Y-95338000D01*
G37*
G36*
X153237756Y-95338000D02*
G01*
X153237756Y-92574343D01*
X152939755Y-92574343D01*
X152939755Y-93912989D01*
X152118073Y-92574343D01*
X151800839Y-92574343D01*
X152603030Y-93885683D01*
X151688768Y-95338000D01*
X152062166Y-95338000D01*
X152939755Y-93940454D01*
X152939755Y-95338000D01*
X153237756Y-95338000D01*
G37*
G36*
X150890639Y-93301400D02*
G01*
X151020609Y-93347969D01*
X151142134Y-93425602D01*
X151249806Y-93530180D01*
X151340858Y-93659605D01*
X151416156Y-93816941D01*
X151470830Y-93987813D01*
X151503282Y-94161780D01*
X151514122Y-94340683D01*
X151502568Y-94526518D01*
X151468291Y-94703117D01*
X151411027Y-94872680D01*
X151332985Y-95028416D01*
X151241641Y-95154733D01*
X151136364Y-95254969D01*
X151017879Y-95328790D01*
X150888894Y-95373493D01*
X150746809Y-95388802D01*
X150558883Y-95369338D01*
X150356790Y-95308366D01*
X150137343Y-95200515D01*
X150137343Y-94886492D01*
X150303303Y-94987567D01*
X150452939Y-95054648D01*
X150588534Y-95092356D01*
X150712315Y-95104308D01*
X150806192Y-95094544D01*
X150891025Y-95066116D01*
X150968514Y-95019372D01*
X151037085Y-94954932D01*
X151097467Y-94870815D01*
X151149956Y-94764090D01*
X151188075Y-94648036D01*
X151211113Y-94524905D01*
X151218942Y-94393073D01*
X150114391Y-94393073D01*
X150114391Y-94317187D01*
X150125213Y-94096196D01*
X150412391Y-94096196D01*
X150412391Y-94139060D01*
X151202273Y-94139060D01*
X151160870Y-93959004D01*
X151105897Y-93820352D01*
X151038911Y-93715336D01*
X150954891Y-93633891D01*
X150863320Y-93586211D01*
X150761170Y-93570072D01*
X150660754Y-93586476D01*
X150577559Y-93633588D01*
X150507408Y-93712478D01*
X150456401Y-93813476D01*
X150424050Y-93939202D01*
X150412391Y-94096196D01*
X150125213Y-94096196D01*
X150127535Y-94048769D01*
X150163370Y-93836073D01*
X150217743Y-93668816D01*
X150288395Y-93538479D01*
X150382269Y-93427990D01*
X150488577Y-93349960D01*
X150609824Y-93302199D01*
X150749758Y-93285578D01*
X150890639Y-93301400D01*
G37*
G36*
X149126654Y-95252905D02*
G01*
X149868963Y-93336381D01*
X149565705Y-93336381D01*
X148979064Y-94815845D01*
X148487953Y-93336381D01*
X148210853Y-93336381D01*
X148834295Y-95199721D01*
X148946461Y-95501945D01*
X149045499Y-95720064D01*
X149132654Y-95871124D01*
X149209361Y-95970015D01*
X149302213Y-96051637D01*
X149408242Y-96110990D01*
X149529873Y-96148015D01*
X149670210Y-96161000D01*
X149789476Y-96153811D01*
X149892300Y-96133535D01*
X149892300Y-95832689D01*
X149778408Y-95866067D01*
X149677263Y-95876506D01*
X149554283Y-95860758D01*
X149449659Y-95815702D01*
X149388281Y-95767679D01*
X149327684Y-95697137D01*
X149267448Y-95599632D01*
X149193572Y-95447447D01*
X149150376Y-95331173D01*
X149126654Y-95252905D01*
G37*
G36*
X161032070Y-104985000D02*
G01*
X161274035Y-104985000D01*
X161274035Y-102327637D01*
X160975778Y-102327637D01*
X160465176Y-104063288D01*
X159954574Y-102327637D01*
X159663498Y-102327637D01*
X159663498Y-104985000D01*
X159938546Y-104985000D01*
X159938546Y-103296518D01*
X159931493Y-103070136D01*
X159993683Y-103298350D01*
X160338872Y-104457435D01*
X160634564Y-104457435D01*
X160984112Y-103298350D01*
X161039250Y-103070136D01*
X161039122Y-103070136D01*
X161032070Y-103296518D01*
X161032070Y-104985000D01*
G37*
G36*
X158782822Y-103058869D02*
G01*
X158928731Y-103110120D01*
X159053648Y-103192562D01*
X159163335Y-103303894D01*
X159258364Y-103440340D01*
X159339210Y-103605027D01*
X159397448Y-103782979D01*
X159433353Y-103979367D01*
X159445767Y-104197469D01*
X159433851Y-104410788D01*
X159401130Y-104581732D01*
X159350919Y-104718116D01*
X159284714Y-104826242D01*
X159197947Y-104920298D01*
X159109392Y-104984081D01*
X159017710Y-105021389D01*
X158920932Y-105033848D01*
X158826883Y-105021777D01*
X158722160Y-104983104D01*
X158603954Y-104912643D01*
X158496866Y-104821793D01*
X158400985Y-104707085D01*
X158315698Y-104565818D01*
X158292994Y-104811088D01*
X158265690Y-104985000D01*
X157978332Y-104985000D01*
X158010846Y-104837047D01*
X158032390Y-104652571D01*
X158040266Y-104424767D01*
X158040266Y-103358037D01*
X158316724Y-103358037D01*
X158316724Y-104176098D01*
X158402364Y-104339640D01*
X158491723Y-104473272D01*
X158584720Y-104580625D01*
X158689760Y-104669842D01*
X158779394Y-104716760D01*
X158857716Y-104730987D01*
X158927230Y-104716366D01*
X158993502Y-104670944D01*
X159059161Y-104587494D01*
X159105256Y-104485976D01*
X159136156Y-104347222D01*
X159147767Y-104160222D01*
X159136300Y-103964086D01*
X159104069Y-103798856D01*
X159053283Y-103659380D01*
X158984661Y-103541524D01*
X158896405Y-103440722D01*
X158800357Y-103370786D01*
X158694705Y-103328770D01*
X158576641Y-103314378D01*
X158453673Y-103324839D01*
X158316724Y-103358037D01*
X158040266Y-103358037D01*
X158040266Y-103070136D01*
X158312364Y-103070136D01*
X158380966Y-103060976D01*
X158611006Y-103040826D01*
X158782822Y-103058869D01*
G37*
G36*
X157018164Y-104903178D02*
G01*
X157760473Y-103060366D01*
X157457215Y-103060366D01*
X156870574Y-104482928D01*
X156379463Y-103060366D01*
X156102364Y-103060366D01*
X156725806Y-104852040D01*
X156837971Y-105142639D01*
X156937009Y-105352370D01*
X157024164Y-105497619D01*
X157100871Y-105592706D01*
X157193724Y-105671189D01*
X157299752Y-105728259D01*
X157421383Y-105763860D01*
X157561721Y-105776346D01*
X157680986Y-105769434D01*
X157783811Y-105749938D01*
X157783811Y-105460662D01*
X157669918Y-105492757D01*
X157568773Y-105502794D01*
X157445793Y-105487651D01*
X157341169Y-105444329D01*
X157279791Y-105398152D01*
X157219194Y-105330324D01*
X157158958Y-105236570D01*
X157085083Y-105090238D01*
X157041886Y-104978435D01*
X157018164Y-104903178D01*
G37*
G36*
X152736007Y-104985000D02*
G01*
X154091244Y-104985000D01*
X154091244Y-104688092D01*
X154081970Y-104573450D01*
X154052262Y-104444765D01*
X153999655Y-104315030D01*
X153904031Y-104154116D01*
X153672581Y-103844691D01*
X153520503Y-103660593D01*
X153319955Y-103400016D01*
X153181597Y-103204153D01*
X153116073Y-103087385D01*
X153078738Y-102977798D01*
X153066962Y-102874589D01*
X153079918Y-102769757D01*
X153117141Y-102684866D01*
X153180315Y-102614928D01*
X153258863Y-102563987D01*
X153343457Y-102533432D01*
X153435873Y-102523032D01*
X153519272Y-102528230D01*
X153618084Y-102545166D01*
X153794653Y-102597068D01*
X154046749Y-102721937D01*
X154046749Y-102430067D01*
X153861421Y-102341800D01*
X153681300Y-102287948D01*
X153506718Y-102258020D01*
X153381248Y-102249480D01*
X153211889Y-102266854D01*
X153060423Y-102317257D01*
X152969011Y-102372266D01*
X152897142Y-102442198D01*
X152842051Y-102527764D01*
X152801998Y-102625742D01*
X152778304Y-102726692D01*
X152770372Y-102832151D01*
X152779964Y-102949703D01*
X152809685Y-103071895D01*
X152861927Y-103200806D01*
X152930107Y-103321477D01*
X153040692Y-103479817D01*
X153206346Y-103684559D01*
X153369964Y-103877206D01*
X153507552Y-104037490D01*
X153628477Y-104196007D01*
X153717717Y-104339893D01*
X153762360Y-104440793D01*
X153791937Y-104554064D01*
X153805937Y-104682138D01*
X152736007Y-104682138D01*
X152736007Y-104985000D01*
G37*
G36*
X151806139Y-102265427D02*
G01*
X151935461Y-102311260D01*
X152049367Y-102385916D01*
X152150427Y-102490972D01*
X152239895Y-102630498D01*
X152322881Y-102823069D01*
X152385785Y-103053410D01*
X152426311Y-103328262D01*
X152440827Y-103655403D01*
X152426295Y-103983565D01*
X152385744Y-104259011D01*
X152322836Y-104489597D01*
X152239895Y-104682138D01*
X152150427Y-104821665D01*
X152049367Y-104926721D01*
X151935461Y-105001377D01*
X151806139Y-105047210D01*
X151657742Y-105063157D01*
X151508707Y-105047175D01*
X151379042Y-105001279D01*
X151265043Y-104926582D01*
X151164104Y-104821551D01*
X151074948Y-104682138D01*
X150992288Y-104489644D01*
X150929577Y-104259074D01*
X150889147Y-103983612D01*
X150874657Y-103655403D01*
X150875866Y-103628078D01*
X151171247Y-103628078D01*
X151184530Y-103919528D01*
X151223043Y-104185571D01*
X151285369Y-104429347D01*
X151341496Y-104567344D01*
X151407163Y-104666651D01*
X151482215Y-104734635D01*
X151568403Y-104775463D01*
X151669154Y-104789605D01*
X151762642Y-104774111D01*
X151846365Y-104728087D01*
X151918971Y-104654151D01*
X151985748Y-104545668D01*
X151227411Y-103114863D01*
X151185579Y-103361040D01*
X151171247Y-103628078D01*
X150875866Y-103628078D01*
X150889131Y-103328216D01*
X150929536Y-103053347D01*
X150992244Y-102823022D01*
X151007667Y-102787119D01*
X151326787Y-102787119D01*
X152090638Y-104209223D01*
X152124134Y-104011595D01*
X152137185Y-103875068D01*
X152142827Y-103636779D01*
X152133980Y-103389876D01*
X152109070Y-103177153D01*
X152070173Y-102994315D01*
X152018831Y-102837494D01*
X151960334Y-102716966D01*
X151895734Y-102629962D01*
X151824890Y-102570531D01*
X151746399Y-102535141D01*
X151657742Y-102523032D01*
X151569194Y-102536544D01*
X151482712Y-102577834D01*
X151431794Y-102621152D01*
X151379941Y-102688777D01*
X151326787Y-102787119D01*
X151007667Y-102787119D01*
X151074948Y-102630498D01*
X151164104Y-102491086D01*
X151265043Y-102386055D01*
X151379042Y-102311358D01*
X151508707Y-102265462D01*
X151657742Y-102249480D01*
X151806139Y-102265427D01*
G37*
G36*
X149211290Y-104985000D02*
G01*
X150566526Y-104985000D01*
X150566526Y-104688092D01*
X150557252Y-104573450D01*
X150527545Y-104444765D01*
X150474938Y-104315030D01*
X150379314Y-104154116D01*
X150147863Y-103844691D01*
X149995786Y-103660593D01*
X149795238Y-103400016D01*
X149656879Y-103204153D01*
X149591356Y-103087385D01*
X149554021Y-102977798D01*
X149542245Y-102874589D01*
X149555201Y-102769757D01*
X149592423Y-102684866D01*
X149655598Y-102614928D01*
X149734146Y-102563987D01*
X149818740Y-102533432D01*
X149911155Y-102523032D01*
X149994555Y-102528230D01*
X150093367Y-102545166D01*
X150269936Y-102597068D01*
X150522031Y-102721937D01*
X150522031Y-102430067D01*
X150336704Y-102341800D01*
X150156583Y-102287948D01*
X149982001Y-102258020D01*
X149856530Y-102249480D01*
X149687171Y-102266854D01*
X149535705Y-102317257D01*
X149444294Y-102372266D01*
X149372425Y-102442198D01*
X149317334Y-102527764D01*
X149277281Y-102625742D01*
X149253587Y-102726692D01*
X149245655Y-102832151D01*
X149255246Y-102949703D01*
X149284967Y-103071895D01*
X149337209Y-103200806D01*
X149405390Y-103321477D01*
X149515975Y-103479817D01*
X149681628Y-103684559D01*
X149845246Y-103877206D01*
X149982835Y-104037490D01*
X150103759Y-104196007D01*
X150192999Y-104339893D01*
X150237642Y-104440793D01*
X150267219Y-104554064D01*
X150281220Y-104682138D01*
X149211290Y-104682138D01*
X149211290Y-104985000D01*
G37*
G36*
X148748260Y-103617240D02*
G01*
X148748260Y-102327637D01*
X147493426Y-102327637D01*
X147493426Y-102640268D01*
X148473212Y-102640268D01*
X148473212Y-103285069D01*
X148431410Y-103285069D01*
X148232017Y-103296414D01*
X148061718Y-103328281D01*
X147916588Y-103377989D01*
X147793150Y-103443685D01*
X147688460Y-103524427D01*
X147593630Y-103627863D01*
X147521498Y-103742149D01*
X147469966Y-103868720D01*
X147438340Y-104009969D01*
X147427389Y-104169076D01*
X147439423Y-104336353D01*
X147474589Y-104488632D01*
X147532664Y-104628863D01*
X147611703Y-104753744D01*
X147709976Y-104859674D01*
X147829767Y-104947752D01*
X147960494Y-105011918D01*
X148095962Y-105050260D01*
X148237787Y-105063157D01*
X148380597Y-105051517D01*
X148562855Y-105012158D01*
X148792755Y-104937525D01*
X148792755Y-104579862D01*
X148660785Y-104652579D01*
X148515014Y-104710684D01*
X148366994Y-104748536D01*
X148237787Y-104760296D01*
X148113523Y-104742606D01*
X147990179Y-104688397D01*
X147915166Y-104632722D01*
X147852958Y-104563112D01*
X147802326Y-104478348D01*
X147764560Y-104383790D01*
X147742613Y-104290257D01*
X147735391Y-104196400D01*
X147746559Y-104081145D01*
X147779598Y-103975986D01*
X147835688Y-103878040D01*
X147918372Y-103785614D01*
X148010927Y-103720649D01*
X148142513Y-103667728D01*
X148324572Y-103631137D01*
X148570537Y-103617240D01*
X148748260Y-103617240D01*
G37*
G36*
X171745343Y-86169000D02*
G01*
X171213327Y-86169000D01*
X171025375Y-86156053D01*
X170877656Y-86120950D01*
X170762749Y-86068160D01*
X170674387Y-86000399D01*
X170570795Y-85876488D01*
X170481589Y-85718124D01*
X170407033Y-85519362D01*
X170356067Y-85307845D01*
X170323937Y-85067565D01*
X170312657Y-84794315D01*
X170314857Y-84735575D01*
X170609119Y-84735575D01*
X170616234Y-85006655D01*
X170635171Y-85213689D01*
X170662718Y-85368384D01*
X170707918Y-85513919D01*
X170767306Y-85631564D01*
X170840698Y-85725589D01*
X170904404Y-85776370D01*
X170990932Y-85816611D01*
X171106336Y-85843837D01*
X171257822Y-85854024D01*
X171447342Y-85854024D01*
X171447342Y-83689837D01*
X171234869Y-83689837D01*
X171057995Y-83705358D01*
X170934761Y-83745483D01*
X170851341Y-83803349D01*
X170781713Y-83886853D01*
X170721848Y-83993953D01*
X170671951Y-84128802D01*
X170639827Y-84272908D01*
X170617562Y-84470680D01*
X170609119Y-84735575D01*
X170314857Y-84735575D01*
X170323488Y-84505064D01*
X170354041Y-84255350D01*
X170401904Y-84040057D01*
X170454750Y-83884119D01*
X170517129Y-83754887D01*
X170588600Y-83648842D01*
X170669386Y-83563307D01*
X170759610Y-83499928D01*
X170876164Y-83450403D01*
X171025065Y-83417470D01*
X171213327Y-83405343D01*
X171745343Y-83405343D01*
X171745343Y-86169000D01*
G37*
G36*
X169395405Y-84132400D02*
G01*
X169525375Y-84178969D01*
X169646900Y-84256602D01*
X169754572Y-84361180D01*
X169845624Y-84490605D01*
X169920922Y-84647941D01*
X169975596Y-84818813D01*
X170008048Y-84992780D01*
X170018888Y-85171683D01*
X170007335Y-85357518D01*
X169973057Y-85534117D01*
X169915793Y-85703680D01*
X169837751Y-85859416D01*
X169746408Y-85985733D01*
X169641130Y-86085969D01*
X169522645Y-86159790D01*
X169393660Y-86204493D01*
X169251575Y-86219802D01*
X169063649Y-86200338D01*
X168861556Y-86139366D01*
X168642109Y-86031515D01*
X168642109Y-85717492D01*
X168808069Y-85818567D01*
X168957705Y-85885648D01*
X169093301Y-85923356D01*
X169217082Y-85935308D01*
X169310958Y-85925544D01*
X169395791Y-85897116D01*
X169473280Y-85850372D01*
X169541851Y-85785932D01*
X169602233Y-85701815D01*
X169654722Y-85595090D01*
X169692841Y-85479036D01*
X169715879Y-85355905D01*
X169723708Y-85224073D01*
X168619157Y-85224073D01*
X168619157Y-85148187D01*
X168629979Y-84927196D01*
X168917157Y-84927196D01*
X168917157Y-84970060D01*
X169707039Y-84970060D01*
X169665637Y-84790004D01*
X169610663Y-84651352D01*
X169543677Y-84546336D01*
X169459657Y-84464891D01*
X169368086Y-84417211D01*
X169265936Y-84401072D01*
X169165520Y-84417476D01*
X169082325Y-84464588D01*
X169012174Y-84543478D01*
X168961168Y-84644476D01*
X168928816Y-84770202D01*
X168917157Y-84927196D01*
X168629979Y-84927196D01*
X168632301Y-84879769D01*
X168668136Y-84667073D01*
X168722509Y-84499816D01*
X168793161Y-84369479D01*
X168887035Y-84258990D01*
X168993343Y-84180960D01*
X169114590Y-84133199D01*
X169254524Y-84116578D01*
X169395405Y-84132400D01*
G37*
G36*
X168201904Y-86058980D02*
G01*
X168201904Y-85697330D01*
X168088023Y-85778446D01*
X167973217Y-85840050D01*
X167856844Y-85883235D01*
X167683928Y-85923594D01*
X167553714Y-85935308D01*
X167420144Y-85924342D01*
X167327536Y-85896114D01*
X167265331Y-85855770D01*
X167215464Y-85796413D01*
X167187202Y-85731340D01*
X167177751Y-85657799D01*
X167187996Y-85584991D01*
X167218271Y-85524284D01*
X167276561Y-85470970D01*
X167423307Y-85385371D01*
X167515118Y-85339172D01*
X167700150Y-85248521D01*
X167899365Y-85139422D01*
X168016592Y-85051246D01*
X168077652Y-84980379D01*
X168121512Y-84894391D01*
X168148245Y-84796190D01*
X168157538Y-84682550D01*
X168147694Y-84563110D01*
X168119081Y-84457348D01*
X168071662Y-84362275D01*
X168003536Y-84275971D01*
X167924504Y-84212288D01*
X167819603Y-84162395D01*
X167682345Y-84128983D01*
X167504988Y-84116578D01*
X167334400Y-84125941D01*
X167171190Y-84153596D01*
X167014518Y-84199132D01*
X167014518Y-84514901D01*
X167195662Y-84449877D01*
X167361844Y-84412887D01*
X167514990Y-84401072D01*
X167626054Y-84410428D01*
X167711679Y-84435685D01*
X167777087Y-84473783D01*
X167831474Y-84529081D01*
X167861226Y-84588173D01*
X167870949Y-84653656D01*
X167862167Y-84717449D01*
X167836034Y-84772014D01*
X167789653Y-84820034D01*
X167694235Y-84882066D01*
X167523709Y-84967044D01*
X167342908Y-85048804D01*
X167179242Y-85134435D01*
X167066441Y-85216092D01*
X166992719Y-85293450D01*
X166936716Y-85388355D01*
X166902901Y-85497559D01*
X166891163Y-85625254D01*
X166901480Y-85750787D01*
X166931463Y-85861930D01*
X166981138Y-85961819D01*
X167052473Y-86052471D01*
X167135222Y-86119620D01*
X167244037Y-86171974D01*
X167385304Y-86206883D01*
X167566665Y-86219802D01*
X167769627Y-86202675D01*
X167980713Y-86150006D01*
X168201904Y-86058980D01*
G37*
G36*
X166009214Y-86169000D02*
G01*
X166009214Y-84451875D01*
X166453907Y-84451875D01*
X166453907Y-84167381D01*
X165734166Y-84167381D01*
X165734166Y-85884505D01*
X165288063Y-85884505D01*
X165288063Y-86169000D01*
X166009214Y-86169000D01*
G37*
G36*
X166053709Y-83467258D02*
G01*
X166046150Y-83395799D01*
X166025079Y-83340902D01*
X165990621Y-83298499D01*
X165926823Y-83255540D01*
X165871754Y-83242775D01*
X165815342Y-83255639D01*
X165751349Y-83298499D01*
X165716891Y-83340902D01*
X165695820Y-83395799D01*
X165688261Y-83467258D01*
X165695773Y-83537446D01*
X165716801Y-83591827D01*
X165751349Y-83634272D01*
X165815334Y-83677006D01*
X165871754Y-83689837D01*
X165926831Y-83677105D01*
X165990621Y-83634272D01*
X166025169Y-83591827D01*
X166046197Y-83537446D01*
X166053709Y-83467258D01*
G37*
G36*
X164091819Y-84165824D02*
G01*
X164237729Y-84219125D01*
X164362645Y-84304865D01*
X164472333Y-84420649D01*
X164567362Y-84562554D01*
X164648208Y-84733829D01*
X164706446Y-84918898D01*
X164742351Y-85123142D01*
X164754765Y-85349968D01*
X164742849Y-85571820D01*
X164710127Y-85749602D01*
X164659916Y-85891441D01*
X164593711Y-86003891D01*
X164506945Y-86101710D01*
X164418390Y-86168045D01*
X164326707Y-86206845D01*
X164229930Y-86219802D01*
X164135815Y-86207421D01*
X164031073Y-86167784D01*
X163912951Y-86095653D01*
X163805736Y-86002500D01*
X163710222Y-85885404D01*
X163625722Y-85741782D01*
X163625722Y-86002463D01*
X163632567Y-86189302D01*
X163649957Y-86317121D01*
X163684717Y-86427879D01*
X163740742Y-86524141D01*
X163816194Y-86601271D01*
X163915772Y-86660196D01*
X164026497Y-86695520D01*
X164145299Y-86707506D01*
X164299611Y-86689641D01*
X164464586Y-86633684D01*
X164621711Y-86550785D01*
X164748994Y-86458415D01*
X164748994Y-86806095D01*
X164543979Y-86911467D01*
X164346913Y-86972223D01*
X164155301Y-86992000D01*
X163964690Y-86973742D01*
X163800718Y-86921808D01*
X163658804Y-86838640D01*
X163563221Y-86752830D01*
X163488820Y-86655152D01*
X163433207Y-86544639D01*
X163395297Y-86419202D01*
X163360034Y-86194242D01*
X163352987Y-86036723D01*
X163349263Y-85583024D01*
X163349263Y-84476958D01*
X163625722Y-84476958D01*
X163625722Y-85327742D01*
X163711362Y-85497826D01*
X163800721Y-85636803D01*
X163893717Y-85748450D01*
X163998758Y-85841235D01*
X164088392Y-85890030D01*
X164166713Y-85904826D01*
X164236227Y-85889621D01*
X164302499Y-85842382D01*
X164368159Y-85755594D01*
X164414253Y-85650015D01*
X164445153Y-85505711D01*
X164456764Y-85311231D01*
X164445298Y-85107249D01*
X164413066Y-84935410D01*
X164362280Y-84790355D01*
X164293659Y-84667785D01*
X164205402Y-84562951D01*
X164109355Y-84490217D01*
X164003703Y-84446521D01*
X163885639Y-84431554D01*
X163762671Y-84442433D01*
X163625722Y-84476958D01*
X163349263Y-84476958D01*
X163349263Y-84177541D01*
X163621362Y-84177541D01*
X163689964Y-84168016D01*
X163920004Y-84147060D01*
X164091819Y-84165824D01*
G37*
G36*
X162933550Y-86169000D02*
G01*
X162933550Y-84167381D01*
X162658502Y-84167381D01*
X162658502Y-84593487D01*
X162579686Y-84457997D01*
X162489669Y-84343199D01*
X162387813Y-84247394D01*
X162275541Y-84172852D01*
X162167432Y-84130362D01*
X162061474Y-84116578D01*
X161968330Y-84127198D01*
X161882064Y-84158522D01*
X161801044Y-84210880D01*
X161729795Y-84281240D01*
X161675596Y-84363006D01*
X161636785Y-84457590D01*
X161614296Y-84564584D01*
X161596880Y-84752036D01*
X161589725Y-85053884D01*
X161589725Y-86169000D01*
X161864773Y-86169000D01*
X161864773Y-85013401D01*
X161871891Y-84751875D01*
X161886829Y-84637304D01*
X161917996Y-84554835D01*
X161967227Y-84489183D01*
X162028865Y-84445675D01*
X162094557Y-84431554D01*
X162183148Y-84447495D01*
X162281717Y-84499275D01*
X162394097Y-84596185D01*
X162493795Y-84713594D01*
X162581831Y-84850086D01*
X162658502Y-85007527D01*
X162658502Y-86169000D01*
X162933550Y-86169000D01*
G37*
G36*
X159428964Y-86169000D02*
G01*
X159158276Y-86169000D01*
X159089674Y-86178525D01*
X158859506Y-86199481D01*
X158687724Y-86180645D01*
X158541863Y-86127138D01*
X158416993Y-86041041D01*
X158307294Y-85924757D01*
X158212041Y-85782176D01*
X158130789Y-85610013D01*
X158072125Y-85423956D01*
X158035964Y-85218661D01*
X158025578Y-85029277D01*
X158321463Y-85029277D01*
X158333063Y-85235645D01*
X158365635Y-85409077D01*
X158416901Y-85555095D01*
X158486107Y-85678120D01*
X158575053Y-85783615D01*
X158670903Y-85856510D01*
X158775384Y-85900111D01*
X158891178Y-85914987D01*
X159014471Y-85904091D01*
X159153916Y-85869265D01*
X159153916Y-85012607D01*
X159067438Y-84841174D01*
X158977865Y-84701273D01*
X158885279Y-84589041D01*
X158780601Y-84495584D01*
X158691181Y-84446454D01*
X158612924Y-84431554D01*
X158543397Y-84446768D01*
X158476912Y-84494089D01*
X158410838Y-84581103D01*
X158364416Y-84686812D01*
X158333215Y-84832231D01*
X158321463Y-85029277D01*
X158025578Y-85029277D01*
X158023462Y-84990699D01*
X158035438Y-84767711D01*
X158068319Y-84589054D01*
X158118770Y-84446549D01*
X158185285Y-84333600D01*
X158272423Y-84235203D01*
X158361206Y-84168537D01*
X158452977Y-84129578D01*
X158549708Y-84116578D01*
X158643801Y-84129001D01*
X158748336Y-84168749D01*
X158866045Y-84241044D01*
X158972847Y-84334292D01*
X159068595Y-84451687D01*
X159153916Y-84595868D01*
X159153916Y-83293577D01*
X159428964Y-83293577D01*
X159428964Y-86169000D01*
G37*
G36*
X157057268Y-86083905D02*
G01*
X157799577Y-84167381D01*
X157496319Y-84167381D01*
X156909678Y-85646845D01*
X156418567Y-84167381D01*
X156141467Y-84167381D01*
X156764909Y-86030721D01*
X156877075Y-86332945D01*
X156976113Y-86551064D01*
X157063268Y-86702124D01*
X157139975Y-86801015D01*
X157232827Y-86882637D01*
X157338856Y-86941990D01*
X157460487Y-86979015D01*
X157600825Y-86992000D01*
X157720090Y-86984811D01*
X157822915Y-86964535D01*
X157822915Y-86663689D01*
X157709022Y-86697067D01*
X157607877Y-86707506D01*
X157484897Y-86691758D01*
X157380273Y-86646702D01*
X157318895Y-86598679D01*
X157258298Y-86528137D01*
X157198062Y-86430632D01*
X157124186Y-86278447D01*
X157080990Y-86162173D01*
X157057268Y-86083905D01*
G37*
G36*
X154021739Y-86169000D02*
G01*
X154263704Y-86169000D01*
X154263704Y-83405343D01*
X153965447Y-83405343D01*
X153454845Y-85210420D01*
X152944243Y-83405343D01*
X152653167Y-83405343D01*
X152653167Y-86169000D01*
X152928215Y-86169000D01*
X152928215Y-84412979D01*
X152921162Y-84177541D01*
X152983352Y-84414884D01*
X153328541Y-85620332D01*
X153624233Y-85620332D01*
X153973782Y-84414884D01*
X154028919Y-84177541D01*
X154028791Y-84177541D01*
X154021739Y-84412979D01*
X154021739Y-86169000D01*
G37*
G36*
X151845243Y-83340644D02*
G01*
X151974565Y-83388310D01*
X152088471Y-83465953D01*
X152189531Y-83575211D01*
X152278999Y-83720318D01*
X152361984Y-83920592D01*
X152424889Y-84160146D01*
X152465415Y-84445993D01*
X152479931Y-84786219D01*
X152465399Y-85127508D01*
X152424848Y-85413971D01*
X152361939Y-85653781D01*
X152278999Y-85854024D01*
X152189531Y-85999132D01*
X152088471Y-86108389D01*
X151974565Y-86186032D01*
X151845243Y-86233698D01*
X151696846Y-86250284D01*
X151547811Y-86233662D01*
X151418146Y-86185930D01*
X151304147Y-86108245D01*
X151203207Y-85999013D01*
X151114052Y-85854024D01*
X151031392Y-85653829D01*
X150968681Y-85414037D01*
X150928251Y-85127556D01*
X150913761Y-84786219D01*
X150914970Y-84757801D01*
X151210351Y-84757801D01*
X151223634Y-85060909D01*
X151262147Y-85337594D01*
X151324473Y-85591121D01*
X151380600Y-85734638D01*
X151446267Y-85837917D01*
X151521319Y-85908620D01*
X151607507Y-85951081D01*
X151708258Y-85965789D01*
X151801746Y-85949675D01*
X151885469Y-85901810D01*
X151958075Y-85824917D01*
X152024852Y-85712094D01*
X151266515Y-84224057D01*
X151224683Y-84480082D01*
X151210351Y-84757801D01*
X150914970Y-84757801D01*
X150928235Y-84445944D01*
X150968640Y-84160081D01*
X151031347Y-83920543D01*
X151046770Y-83883204D01*
X151365891Y-83883204D01*
X152129742Y-85362192D01*
X152163238Y-85156659D01*
X152176289Y-85014671D01*
X152181931Y-84766850D01*
X152173084Y-84510071D01*
X152148174Y-84288839D01*
X152109277Y-84098688D01*
X152057935Y-83935594D01*
X151999438Y-83810245D01*
X151934838Y-83719760D01*
X151863994Y-83657952D01*
X151785503Y-83621147D01*
X151696846Y-83608553D01*
X151608297Y-83622606D01*
X151521815Y-83665547D01*
X151470898Y-83710598D01*
X151419045Y-83780928D01*
X151365891Y-83883204D01*
X151046770Y-83883204D01*
X151114052Y-83720318D01*
X151203207Y-83575330D01*
X151304147Y-83466097D01*
X151418146Y-83388413D01*
X151547811Y-83340680D01*
X151696846Y-83324059D01*
X151845243Y-83340644D01*
G37*
G36*
X150638584Y-83405343D02*
G01*
X150340584Y-83405343D01*
X150340584Y-85217246D01*
X150333474Y-85458147D01*
X150315998Y-85611173D01*
X150293011Y-85701616D01*
X150255282Y-85781318D01*
X150206881Y-85846362D01*
X150146832Y-85898317D01*
X150043603Y-85948626D01*
X149927307Y-85965789D01*
X149804934Y-85947165D01*
X149699318Y-85893078D01*
X149639590Y-85836685D01*
X149590483Y-85761635D01*
X149551600Y-85664626D01*
X149528635Y-85555827D01*
X149511060Y-85370301D01*
X149503899Y-85077222D01*
X149503899Y-83405343D01*
X149228851Y-83405343D01*
X149228851Y-85206292D01*
X149240939Y-85462679D01*
X149273439Y-85660266D01*
X149321945Y-85810683D01*
X149392121Y-85947243D01*
X149472988Y-86055763D01*
X149565064Y-86139629D01*
X149668831Y-86198993D01*
X149793356Y-86236779D01*
X149943079Y-86250284D01*
X150081519Y-86238935D01*
X150204266Y-86206348D01*
X150313656Y-86153918D01*
X150412352Y-86078485D01*
X150492597Y-85982780D01*
X150556262Y-85864819D01*
X150596546Y-85729686D01*
X150626527Y-85509341D01*
X150638584Y-85170889D01*
X150638584Y-83405343D01*
G37*
G36*
X148831859Y-86169000D02*
G01*
X148831859Y-83405343D01*
X148533858Y-83405343D01*
X148533858Y-84743989D01*
X147712177Y-83405343D01*
X147394942Y-83405343D01*
X148197133Y-84716683D01*
X147282871Y-86169000D01*
X147656269Y-86169000D01*
X148533858Y-84771454D01*
X148533858Y-86169000D01*
X148831859Y-86169000D01*
G37*
G36*
X147072321Y-86169000D02*
G01*
X146540306Y-86169000D01*
X146352353Y-86156053D01*
X146204635Y-86120950D01*
X146089728Y-86068160D01*
X146001365Y-86000399D01*
X145897773Y-85876488D01*
X145808567Y-85718124D01*
X145734011Y-85519362D01*
X145683046Y-85307845D01*
X145650915Y-85067565D01*
X145639636Y-84794315D01*
X145641836Y-84735575D01*
X145936098Y-84735575D01*
X145943213Y-85006655D01*
X145962150Y-85213689D01*
X145989697Y-85368384D01*
X146034897Y-85513919D01*
X146094284Y-85631564D01*
X146167676Y-85725589D01*
X146231382Y-85776370D01*
X146317910Y-85816611D01*
X146433315Y-85843837D01*
X146584800Y-85854024D01*
X146774321Y-85854024D01*
X146774321Y-83689837D01*
X146561848Y-83689837D01*
X146384973Y-83705358D01*
X146261739Y-83745483D01*
X146178319Y-83803349D01*
X146108692Y-83886853D01*
X146048826Y-83993953D01*
X145998929Y-84128802D01*
X145966806Y-84272908D01*
X145944541Y-84470680D01*
X145936098Y-84735575D01*
X145641836Y-84735575D01*
X145650467Y-84505064D01*
X145681019Y-84255350D01*
X145728882Y-84040057D01*
X145781729Y-83884119D01*
X145844107Y-83754887D01*
X145915579Y-83648842D01*
X145996364Y-83563307D01*
X146086588Y-83499928D01*
X146203142Y-83450403D01*
X146352043Y-83417470D01*
X146540306Y-83405343D01*
X147072321Y-83405343D01*
X147072321Y-86169000D01*
G37*
M02*
