%TF.GenerationSoftware,KiCad,Pcbnew,9.0.4+dfsg-1*%
%TF.CreationDate,2025-10-06T19:47:27+02:00*%
%TF.ProjectId,CWSensorKey,43575365-6e73-46f7-924b-65792e6b6963,rev?*%
%TF.SameCoordinates,Original*%
%TF.FileFunction,Legend,Bot*%
%TF.FilePolarity,Positive*%
%FSLAX46Y46*%
G04 Gerber Fmt 4.6, Leading zero omitted, Abs format (unit mm)*
G04 Created by KiCad (PCBNEW 9.0.4+dfsg-1) date 2025-10-06 19:47:27*
%MOMM*%
%LPD*%
G01*
G04 APERTURE LIST*
%ADD10C,0.300000*%
G04 APERTURE END LIST*
D10*
G36*
X162691749Y-100285024D02*
G01*
X162691749Y-100600000D01*
X163959723Y-100600000D01*
X163959723Y-97836343D01*
X163647532Y-97836343D01*
X163647532Y-100285024D01*
X162691749Y-100285024D01*
G37*
G36*
X161594771Y-98596824D02*
G01*
X161747628Y-98650125D01*
X161878493Y-98735865D01*
X161993404Y-98851649D01*
X162092958Y-98993554D01*
X162177654Y-99164829D01*
X162238666Y-99349898D01*
X162276280Y-99554142D01*
X162289285Y-99780968D01*
X162276802Y-100002820D01*
X162242522Y-100180602D01*
X162189920Y-100322441D01*
X162120562Y-100434891D01*
X162029664Y-100532710D01*
X161936893Y-100599045D01*
X161840844Y-100637845D01*
X161739458Y-100650802D01*
X161640930Y-100638248D01*
X161531220Y-100598028D01*
X161407386Y-100524748D01*
X161295198Y-100430265D01*
X161194752Y-100310968D01*
X161105404Y-100164050D01*
X161081619Y-100419131D01*
X161053014Y-100600000D01*
X160751972Y-100600000D01*
X160786034Y-100446129D01*
X160808604Y-100254274D01*
X160816855Y-100017358D01*
X160816855Y-98907958D01*
X161106478Y-98907958D01*
X161106478Y-99758742D01*
X161196196Y-99928826D01*
X161289811Y-100067803D01*
X161387235Y-100179450D01*
X161497278Y-100272235D01*
X161591181Y-100321030D01*
X161673232Y-100335826D01*
X161746055Y-100320621D01*
X161815483Y-100273382D01*
X161884270Y-100186594D01*
X161932559Y-100081015D01*
X161964930Y-99936711D01*
X161977094Y-99742231D01*
X161965082Y-99538249D01*
X161931316Y-99366410D01*
X161878111Y-99221355D01*
X161806222Y-99098785D01*
X161713763Y-98993951D01*
X161613142Y-98921217D01*
X161502458Y-98877521D01*
X161378772Y-98862554D01*
X161249949Y-98873433D01*
X161106478Y-98907958D01*
X160816855Y-98907958D01*
X160816855Y-98608541D01*
X161101911Y-98608541D01*
X161173779Y-98599016D01*
X161414774Y-98578060D01*
X161594771Y-98596824D01*
G37*
G36*
X159746082Y-100514905D02*
G01*
X160523739Y-98598381D01*
X160206040Y-98598381D01*
X159591464Y-100077845D01*
X159076967Y-98598381D01*
X158786672Y-98598381D01*
X159439802Y-100461721D01*
X159557308Y-100763945D01*
X159661062Y-100982064D01*
X159752368Y-101133124D01*
X159832727Y-101232015D01*
X159930002Y-101313637D01*
X160041079Y-101372990D01*
X160168502Y-101410015D01*
X160315522Y-101423000D01*
X160440467Y-101415811D01*
X160548188Y-101395535D01*
X160548188Y-101094689D01*
X160428872Y-101128067D01*
X160322911Y-101138506D01*
X160194075Y-101122758D01*
X160084469Y-101077702D01*
X160020167Y-101029679D01*
X159956685Y-100959137D01*
X159893581Y-100861632D01*
X159816187Y-100709447D01*
X159770934Y-100593173D01*
X159746082Y-100514905D01*
G37*
G36*
X157965108Y-98560294D02*
G01*
X158092602Y-98596930D01*
X158206611Y-98656289D01*
X158309217Y-98738645D01*
X158401806Y-98845725D01*
X158495357Y-99001212D01*
X158562897Y-99175921D01*
X158604718Y-99373404D01*
X158619292Y-99598237D01*
X158604727Y-99823138D01*
X158562918Y-100020847D01*
X158495378Y-100195912D01*
X158401806Y-100351861D01*
X158309181Y-100459260D01*
X158206556Y-100541838D01*
X158092547Y-100601341D01*
X157965073Y-100638058D01*
X157821485Y-100650802D01*
X157678555Y-100638078D01*
X157551549Y-100601399D01*
X157437842Y-100541925D01*
X157335373Y-100459337D01*
X157242776Y-100351861D01*
X157149142Y-100195903D01*
X157081561Y-100020835D01*
X157039729Y-99823129D01*
X157025156Y-99598237D01*
X157337347Y-99598237D01*
X157346779Y-99779661D01*
X157373096Y-99930960D01*
X157414077Y-100056997D01*
X157468591Y-100161828D01*
X157540535Y-100252007D01*
X157621867Y-100314896D01*
X157714484Y-100353067D01*
X157821485Y-100366308D01*
X157929274Y-100353036D01*
X158022396Y-100314811D01*
X158103991Y-100251911D01*
X158175992Y-100161828D01*
X158230446Y-100057007D01*
X158271386Y-99930974D01*
X158297678Y-99779671D01*
X158307101Y-99598237D01*
X158297697Y-99417862D01*
X158271436Y-99267173D01*
X158230500Y-99141397D01*
X158175992Y-99036552D01*
X158103991Y-98946469D01*
X158022396Y-98883570D01*
X157929274Y-98845344D01*
X157821485Y-98832072D01*
X157714484Y-98845313D01*
X157621867Y-98883484D01*
X157540535Y-98946373D01*
X157468591Y-99036552D01*
X157414023Y-99141407D01*
X157373046Y-99267187D01*
X157346759Y-99417872D01*
X157337347Y-99598237D01*
X157025156Y-99598237D01*
X157039738Y-99373413D01*
X157081583Y-99175933D01*
X157149163Y-99001221D01*
X157242776Y-98845725D01*
X157335338Y-98738569D01*
X157437787Y-98656202D01*
X157551494Y-98596872D01*
X157678520Y-98560275D01*
X157821485Y-98547578D01*
X157965108Y-98560294D01*
G37*
G36*
X155281103Y-98598381D02*
G01*
X155281103Y-100600000D01*
X155569114Y-100600000D01*
X155569114Y-100171353D01*
X155661576Y-100318204D01*
X155759545Y-100435721D01*
X155863305Y-100527288D01*
X155977504Y-100597565D01*
X156087770Y-100637744D01*
X156196049Y-100650802D01*
X156292667Y-100640233D01*
X156382840Y-100608957D01*
X156468209Y-100556500D01*
X156543171Y-100486028D01*
X156599933Y-100404012D01*
X156640290Y-100308996D01*
X156663496Y-100201473D01*
X156681429Y-100014079D01*
X156688785Y-99713496D01*
X156688785Y-98598381D01*
X156400639Y-98598381D01*
X156400639Y-99753979D01*
X156393226Y-100015505D01*
X156377668Y-100130076D01*
X156344940Y-100212561D01*
X156293441Y-100278197D01*
X156228976Y-100321791D01*
X156161525Y-100335826D01*
X156068495Y-100319962D01*
X155965169Y-100268493D01*
X155847588Y-100172306D01*
X155743160Y-100055357D01*
X155650423Y-99918538D01*
X155569114Y-99759853D01*
X155569114Y-98598381D01*
X155281103Y-98598381D01*
G37*
G36*
X153412255Y-100514588D02*
G01*
X153599836Y-100599525D01*
X153701341Y-100632069D01*
X153873422Y-100650802D01*
X153989748Y-100641585D01*
X154097153Y-100614642D01*
X154197031Y-100570471D01*
X154288013Y-100507438D01*
X154361310Y-100428619D01*
X154418950Y-100332810D01*
X154457073Y-100223532D01*
X154483678Y-100066793D01*
X154493909Y-99848122D01*
X154493909Y-99055603D01*
X154913164Y-99055603D01*
X154913164Y-98771109D01*
X154493909Y-98771109D01*
X154493909Y-97988750D01*
X154205763Y-97988750D01*
X154205763Y-98771109D01*
X153458868Y-98771109D01*
X153458868Y-99055603D01*
X154205763Y-99055603D01*
X154205763Y-99843042D01*
X154198966Y-100003056D01*
X154181846Y-100110036D01*
X154158343Y-100178180D01*
X154102281Y-100262974D01*
X154031532Y-100320744D01*
X153947271Y-100354306D01*
X153843331Y-100366308D01*
X153711826Y-100350611D01*
X153569159Y-100301003D01*
X153412255Y-100211995D01*
X153412255Y-100514588D01*
G37*
G36*
X164055906Y-104968000D02*
G01*
X163498556Y-104968000D01*
X163301653Y-104955053D01*
X163146901Y-104919950D01*
X163026522Y-104867160D01*
X162933952Y-104799399D01*
X162825427Y-104675488D01*
X162731973Y-104517124D01*
X162653867Y-104318362D01*
X162600475Y-104106845D01*
X162566814Y-103866565D01*
X162554997Y-103593315D01*
X162557301Y-103534575D01*
X162865576Y-103534575D01*
X162873030Y-103805655D01*
X162892869Y-104012689D01*
X162921728Y-104167384D01*
X162969080Y-104312919D01*
X163031296Y-104430564D01*
X163108183Y-104524589D01*
X163174922Y-104575370D01*
X163265570Y-104615611D01*
X163386470Y-104642837D01*
X163545170Y-104653024D01*
X163743715Y-104653024D01*
X163743715Y-102488837D01*
X163521124Y-102488837D01*
X163335827Y-102504358D01*
X163206725Y-102544483D01*
X163119332Y-102602349D01*
X163046389Y-102685853D01*
X162983673Y-102792953D01*
X162931400Y-102927802D01*
X162897747Y-103071908D01*
X162874422Y-103269680D01*
X162865576Y-103534575D01*
X162557301Y-103534575D01*
X162566344Y-103304064D01*
X162598351Y-103054350D01*
X162648493Y-102839057D01*
X162703857Y-102683119D01*
X162769205Y-102553887D01*
X162844080Y-102447842D01*
X162928713Y-102362307D01*
X163023233Y-102298928D01*
X163145338Y-102249403D01*
X163301329Y-102216470D01*
X163498556Y-102204343D01*
X164055906Y-102204343D01*
X164055906Y-104968000D01*
G37*
G36*
X160845468Y-104653024D02*
G01*
X160845468Y-104968000D01*
X162113443Y-104968000D01*
X162113443Y-102204343D01*
X161801252Y-102204343D01*
X161801252Y-104653024D01*
X160845468Y-104653024D01*
G37*
G36*
X159755396Y-102136148D02*
G01*
X159878441Y-102173713D01*
X159987199Y-102234458D01*
X160083931Y-102318807D01*
X160166268Y-102424084D01*
X160223140Y-102536499D01*
X160257091Y-102657976D01*
X160268640Y-102791429D01*
X160257197Y-102927147D01*
X160223227Y-103054050D01*
X160165875Y-103174671D01*
X160057662Y-103332709D01*
X159955777Y-103437733D01*
X159909566Y-103477740D01*
X160074334Y-103628818D01*
X160198644Y-103774801D01*
X160288722Y-103916496D01*
X160349577Y-104055243D01*
X160384804Y-104192918D01*
X160396391Y-104331857D01*
X160384536Y-104480229D01*
X160350041Y-104612914D01*
X160293059Y-104733161D01*
X160211817Y-104843216D01*
X160115316Y-104928312D01*
X159994491Y-104992509D01*
X159843999Y-105034161D01*
X159657153Y-105049284D01*
X159472106Y-105033305D01*
X159322424Y-104989133D01*
X159201513Y-104920605D01*
X159104237Y-104828928D01*
X159022313Y-104711850D01*
X158965298Y-104587579D01*
X158931141Y-104454160D01*
X158922192Y-104342176D01*
X159230241Y-104342176D01*
X159244311Y-104455300D01*
X159285940Y-104554428D01*
X159358127Y-104643657D01*
X159447664Y-104711262D01*
X159543541Y-104751259D01*
X159648153Y-104764789D01*
X159762506Y-104750362D01*
X159863738Y-104708350D01*
X159954837Y-104638418D01*
X160027890Y-104545683D01*
X160070000Y-104443572D01*
X160084200Y-104328047D01*
X160072013Y-104216813D01*
X160033287Y-104097724D01*
X159962616Y-103967226D01*
X159852106Y-103822209D01*
X159691812Y-103659994D01*
X159604360Y-103740960D01*
X159386606Y-103981319D01*
X159294671Y-104112035D01*
X159245523Y-104230763D01*
X159230241Y-104342176D01*
X158922192Y-104342176D01*
X158919528Y-104308837D01*
X158928335Y-104182859D01*
X158954100Y-104067601D01*
X158996635Y-103960998D01*
X159055160Y-103863762D01*
X159150927Y-103742707D01*
X159295259Y-103592680D01*
X159417368Y-103477898D01*
X159237646Y-103292257D01*
X159149641Y-103178481D01*
X159088452Y-103068257D01*
X159046070Y-102960824D01*
X159019886Y-102849009D01*
X159012711Y-102753804D01*
X159300767Y-102753804D01*
X159313131Y-102863237D01*
X159353694Y-102989400D01*
X159397048Y-103067394D01*
X159479087Y-103169657D01*
X159615107Y-103302947D01*
X159683214Y-103244842D01*
X159830862Y-103107011D01*
X159918164Y-102999561D01*
X159959513Y-102923427D01*
X159983281Y-102846847D01*
X159991107Y-102768092D01*
X159982067Y-102687719D01*
X159954122Y-102607369D01*
X159904327Y-102524875D01*
X159840185Y-102461476D01*
X159757709Y-102421864D01*
X159651243Y-102407553D01*
X159551754Y-102420260D01*
X159468766Y-102456400D01*
X159398696Y-102515349D01*
X159342595Y-102592714D01*
X159311078Y-102671348D01*
X159300767Y-102753804D01*
X159012711Y-102753804D01*
X159011143Y-102733006D01*
X159019645Y-102621031D01*
X159044825Y-102516051D01*
X159087042Y-102416285D01*
X159144197Y-102328041D01*
X159215290Y-102255331D01*
X159302110Y-102197199D01*
X159396758Y-102156664D01*
X159500580Y-102131681D01*
X159615107Y-102123059D01*
X159755396Y-102136148D01*
G37*
G36*
X158701907Y-104968000D02*
G01*
X158401403Y-104968000D01*
X158243696Y-104378690D01*
X157429231Y-104378690D01*
X157269912Y-104968000D01*
X156941063Y-104968000D01*
X157170418Y-104094196D01*
X157499756Y-104094196D01*
X158168872Y-104094196D01*
X157895369Y-103036710D01*
X157840695Y-102772537D01*
X157779036Y-103035916D01*
X157499756Y-104094196D01*
X157170418Y-104094196D01*
X157666464Y-102204343D01*
X157980939Y-102204343D01*
X158701907Y-104968000D01*
G37*
G36*
X156645261Y-104968000D02*
G01*
X156074343Y-104968000D01*
X155851812Y-104955051D01*
X155696266Y-104921810D01*
X155591414Y-104875126D01*
X155497588Y-104803817D01*
X155419625Y-104715516D01*
X155356061Y-104608730D01*
X155308756Y-104490077D01*
X155281111Y-104371405D01*
X155271969Y-104251049D01*
X155273588Y-104231681D01*
X155584160Y-104231681D01*
X155596891Y-104350367D01*
X155634316Y-104455519D01*
X155697940Y-104550784D01*
X155780917Y-104620615D01*
X155895022Y-104666400D01*
X156050297Y-104683505D01*
X156333069Y-104683505D01*
X156333069Y-103728418D01*
X156253141Y-103728418D01*
X156063782Y-103737897D01*
X155930586Y-103762262D01*
X155840334Y-103796367D01*
X155757659Y-103849029D01*
X155694059Y-103910021D01*
X155646625Y-103979414D01*
X155599788Y-104099982D01*
X155584160Y-104231681D01*
X155273588Y-104231681D01*
X155282474Y-104125363D01*
X155314764Y-103997375D01*
X155371107Y-103864950D01*
X155449071Y-103751446D01*
X155568565Y-103644259D01*
X155741061Y-103543942D01*
X155608488Y-103444750D01*
X155516590Y-103344859D01*
X155446030Y-103230709D01*
X155395555Y-103105770D01*
X155365042Y-102971606D01*
X155357817Y-102871285D01*
X155654819Y-102871285D01*
X155663815Y-102991157D01*
X155689880Y-103097832D01*
X155733356Y-103195324D01*
X155795601Y-103284690D01*
X155879557Y-103360977D01*
X156019535Y-103443924D01*
X156333069Y-103443924D01*
X156333069Y-102488837D01*
X156125390Y-102488837D01*
X155938280Y-102502726D01*
X155820333Y-102536986D01*
X155750465Y-102583457D01*
X155699070Y-102654062D01*
X155666654Y-102747558D01*
X155654819Y-102871285D01*
X155357817Y-102871285D01*
X155354718Y-102828261D01*
X155362782Y-102706637D01*
X155386183Y-102597106D01*
X155424437Y-102497569D01*
X155478089Y-102409652D01*
X155547299Y-102336939D01*
X155634266Y-102278483D01*
X155732984Y-102243024D01*
X155906113Y-102215616D01*
X156185571Y-102204343D01*
X156645261Y-102204343D01*
X156645261Y-104968000D01*
G37*
G36*
X153413732Y-104963078D02*
G01*
X153582067Y-105012525D01*
X153733628Y-105040444D01*
X153870332Y-105049284D01*
X154015456Y-105038185D01*
X154149719Y-105005735D01*
X154274758Y-104952567D01*
X154391949Y-104878460D01*
X154497563Y-104784865D01*
X154592275Y-104669527D01*
X154676617Y-104530152D01*
X154750486Y-104363608D01*
X154821253Y-104129700D01*
X154864989Y-103871860D01*
X154880118Y-103586171D01*
X154865346Y-103303967D01*
X154822614Y-103048773D01*
X154753441Y-102816831D01*
X154681144Y-102651826D01*
X154597505Y-102512320D01*
X154502560Y-102395484D01*
X154395711Y-102299280D01*
X154236290Y-102201203D01*
X154068222Y-102142784D01*
X153888467Y-102123059D01*
X153751180Y-102134635D01*
X153594503Y-102171801D01*
X153415210Y-102238952D01*
X153415210Y-102576312D01*
X153584523Y-102480078D01*
X153745363Y-102425262D01*
X153900423Y-102407553D01*
X154015448Y-102423357D01*
X154123699Y-102470705D01*
X154227794Y-102552023D01*
X154316458Y-102657673D01*
X154396354Y-102796966D01*
X154466907Y-102976382D01*
X154516575Y-103165795D01*
X154547020Y-103369263D01*
X154557448Y-103588870D01*
X154546360Y-103810014D01*
X154513778Y-104017592D01*
X154460217Y-104213569D01*
X154385501Y-104399646D01*
X154307629Y-104532697D01*
X154216546Y-104633053D01*
X154110942Y-104704768D01*
X153987931Y-104749184D01*
X153843331Y-104764789D01*
X153725924Y-104755264D01*
X153725924Y-103880826D01*
X153958858Y-103880826D01*
X153958858Y-103596332D01*
X153413732Y-103596332D01*
X153413732Y-104963078D01*
G37*
G36*
X166337696Y-91525735D02*
G01*
X166517014Y-91595954D01*
X166673685Y-91634810D01*
X166810953Y-91646910D01*
X166989846Y-91626749D01*
X167157451Y-91567009D01*
X167316719Y-91466714D01*
X167423500Y-91368134D01*
X167518676Y-91247644D01*
X167602836Y-91103031D01*
X167675927Y-90931236D01*
X167745866Y-90689610D01*
X167789115Y-90423057D01*
X167804081Y-90127524D01*
X167789310Y-89834466D01*
X167746577Y-89569457D01*
X167677405Y-89328593D01*
X167605108Y-89157242D01*
X167521469Y-89012371D01*
X167426524Y-88891041D01*
X167319674Y-88791137D01*
X167200843Y-88710854D01*
X167077273Y-88653998D01*
X166947779Y-88619732D01*
X166810953Y-88608138D01*
X166673666Y-88620159D01*
X166516989Y-88658755D01*
X166337696Y-88728489D01*
X166337696Y-89078825D01*
X166507009Y-88978889D01*
X166667849Y-88921964D01*
X166822909Y-88903574D01*
X166937934Y-88919986D01*
X167046185Y-88969155D01*
X167150280Y-89053600D01*
X167238995Y-89163289D01*
X167319113Y-89307941D01*
X167390065Y-89494282D01*
X167440258Y-89690992D01*
X167470933Y-89901056D01*
X167481412Y-90126535D01*
X167470576Y-90355748D01*
X167438896Y-90568565D01*
X167387110Y-90767196D01*
X167314192Y-90955504D01*
X167233796Y-91099274D01*
X167146518Y-91206064D01*
X167044047Y-91287770D01*
X166937028Y-91335504D01*
X166822909Y-91351474D01*
X166668826Y-91333076D01*
X166508014Y-91275965D01*
X166337696Y-91175399D01*
X166337696Y-91525735D01*
G37*
G36*
X165287332Y-89482279D02*
G01*
X165440189Y-89537630D01*
X165571054Y-89626667D01*
X165685965Y-89746905D01*
X165785519Y-89894267D01*
X165870215Y-90072130D01*
X165931227Y-90264318D01*
X165968841Y-90476416D01*
X165981846Y-90711967D01*
X165969363Y-90942351D01*
X165935083Y-91126971D01*
X165882481Y-91274265D01*
X165813123Y-91391041D01*
X165722225Y-91492622D01*
X165629454Y-91561508D01*
X165533405Y-91601800D01*
X165432019Y-91615256D01*
X165333491Y-91602220D01*
X165223781Y-91560452D01*
X165099947Y-91484354D01*
X164987759Y-91386237D01*
X164887313Y-91262352D01*
X164797965Y-91109783D01*
X164774180Y-91374675D01*
X164745575Y-91562500D01*
X164444533Y-91562500D01*
X164478595Y-91402711D01*
X164501165Y-91203477D01*
X164509416Y-90957449D01*
X164509416Y-89805380D01*
X164799039Y-89805380D01*
X164799039Y-90688886D01*
X164888757Y-90865511D01*
X164982372Y-91009834D01*
X165079796Y-91125775D01*
X165189839Y-91222129D01*
X165283742Y-91272800D01*
X165365793Y-91288166D01*
X165438616Y-91272375D01*
X165508044Y-91223320D01*
X165576831Y-91133194D01*
X165625120Y-91023554D01*
X165657491Y-90873700D01*
X165669655Y-90671740D01*
X165657643Y-90459912D01*
X165623877Y-90281465D01*
X165570672Y-90130830D01*
X165498783Y-90003546D01*
X165406324Y-89894680D01*
X165305703Y-89819149D01*
X165195019Y-89773772D01*
X165071333Y-89758229D01*
X164942510Y-89769527D01*
X164799039Y-89805380D01*
X164509416Y-89805380D01*
X164509416Y-89494446D01*
X164794472Y-89494446D01*
X164866340Y-89484555D01*
X165107335Y-89462793D01*
X165287332Y-89482279D01*
G37*
G36*
X163254445Y-89444040D02*
G01*
X163363958Y-89485316D01*
X163487272Y-89560392D01*
X163599160Y-89657227D01*
X163699467Y-89779136D01*
X163788851Y-89928863D01*
X163788851Y-89483895D01*
X164076996Y-89483895D01*
X164076996Y-92364398D01*
X163788851Y-92364398D01*
X163788851Y-91562994D01*
X163721550Y-91572391D01*
X163480555Y-91594153D01*
X163300592Y-91574596D01*
X163147737Y-91519034D01*
X163016836Y-91429619D01*
X162901913Y-91308863D01*
X162802125Y-91160798D01*
X162717003Y-90982014D01*
X162655546Y-90788800D01*
X162617663Y-90575609D01*
X162606782Y-90378941D01*
X162916757Y-90378941D01*
X162928910Y-90593247D01*
X162963033Y-90773349D01*
X163016740Y-90924983D01*
X163089242Y-91052740D01*
X163182423Y-91162292D01*
X163282837Y-91237991D01*
X163392294Y-91283269D01*
X163513601Y-91298717D01*
X163642766Y-91287402D01*
X163788851Y-91251236D01*
X163788851Y-90361631D01*
X163698254Y-90183603D01*
X163604416Y-90038322D01*
X163507422Y-89921774D01*
X163397759Y-89824722D01*
X163304081Y-89773702D01*
X163222098Y-89758229D01*
X163149259Y-89774029D01*
X163079609Y-89823169D01*
X163010388Y-89913531D01*
X162961756Y-90023304D01*
X162929069Y-90174316D01*
X162916757Y-90378941D01*
X162606782Y-90378941D01*
X162604566Y-90338879D01*
X162617112Y-90107316D01*
X162651559Y-89921787D01*
X162704412Y-89773801D01*
X162774095Y-89656508D01*
X162865382Y-89554326D01*
X162958392Y-89485096D01*
X163054534Y-89444639D01*
X163155871Y-89431139D01*
X163254445Y-89444040D01*
G37*
G36*
X161594771Y-89482279D02*
G01*
X161747628Y-89537630D01*
X161878493Y-89626667D01*
X161993404Y-89746905D01*
X162092958Y-89894267D01*
X162177654Y-90072130D01*
X162238665Y-90264318D01*
X162276280Y-90476416D01*
X162289285Y-90711967D01*
X162276802Y-90942351D01*
X162242522Y-91126971D01*
X162189920Y-91274265D01*
X162120562Y-91391041D01*
X162029664Y-91492622D01*
X161936893Y-91561508D01*
X161840844Y-91601800D01*
X161739458Y-91615256D01*
X161640930Y-91602220D01*
X161531220Y-91560452D01*
X161407385Y-91484354D01*
X161295198Y-91386237D01*
X161194752Y-91262352D01*
X161105404Y-91109783D01*
X161081619Y-91374675D01*
X161053014Y-91562500D01*
X160751972Y-91562500D01*
X160786034Y-91402711D01*
X160808604Y-91203477D01*
X160816855Y-90957449D01*
X160816855Y-89805380D01*
X161106478Y-89805380D01*
X161106478Y-90688886D01*
X161196196Y-90865511D01*
X161289811Y-91009834D01*
X161387235Y-91125775D01*
X161497278Y-91222129D01*
X161591181Y-91272800D01*
X161673232Y-91288166D01*
X161746055Y-91272375D01*
X161815483Y-91223320D01*
X161884270Y-91133194D01*
X161932559Y-91023554D01*
X161964930Y-90873700D01*
X161977094Y-90671740D01*
X161965082Y-90459912D01*
X161931315Y-90281465D01*
X161878111Y-90130830D01*
X161806222Y-90003546D01*
X161713763Y-89894680D01*
X161613142Y-89819149D01*
X161502458Y-89773772D01*
X161378772Y-89758229D01*
X161249949Y-89769527D01*
X161106478Y-89805380D01*
X160816855Y-89805380D01*
X160816855Y-89494446D01*
X161101911Y-89494446D01*
X161173779Y-89484555D01*
X161414774Y-89462793D01*
X161594771Y-89482279D01*
G37*
G36*
X158942096Y-91497213D02*
G01*
X159133783Y-91564286D01*
X159313015Y-91602829D01*
X159481445Y-91615256D01*
X159647275Y-91598679D01*
X159796553Y-91550536D01*
X159932269Y-91471659D01*
X160054352Y-91364241D01*
X160156272Y-91235196D01*
X160239624Y-91082581D01*
X160300048Y-90914164D01*
X160337035Y-90729162D01*
X160349777Y-90524187D01*
X160339226Y-90337575D01*
X160308613Y-90168550D01*
X160258774Y-90014389D01*
X160189546Y-89872875D01*
X160099783Y-89742402D01*
X159966759Y-89604906D01*
X159823633Y-89508802D01*
X159667982Y-89450921D01*
X159496356Y-89431139D01*
X159324011Y-89443842D01*
X159139846Y-89483319D01*
X158942096Y-89552149D01*
X158942096Y-89893582D01*
X159144977Y-89796181D01*
X159319647Y-89742988D01*
X159470833Y-89726575D01*
X159570357Y-89736845D01*
X159665382Y-89767439D01*
X159757232Y-89818899D01*
X159838421Y-89890386D01*
X159907307Y-89985283D01*
X159964509Y-90107246D01*
X160005369Y-90240137D01*
X160029543Y-90374018D01*
X160037586Y-90510173D01*
X160022324Y-90689453D01*
X159976166Y-90864169D01*
X159896670Y-91037573D01*
X159818276Y-91144964D01*
X159721336Y-91222184D01*
X159601993Y-91270762D01*
X159454310Y-91288166D01*
X159274706Y-91272669D01*
X159168015Y-91242624D01*
X158942096Y-91155121D01*
X158942096Y-91497213D01*
G37*
G36*
X158046628Y-91562500D02*
G01*
X158046628Y-89779331D01*
X158512497Y-89779331D01*
X158512497Y-89483895D01*
X157758483Y-89483895D01*
X157758483Y-91267063D01*
X157291136Y-91267063D01*
X157291136Y-91562500D01*
X158046628Y-91562500D01*
G37*
G36*
X158093242Y-88756845D02*
G01*
X158085323Y-88682637D01*
X158063248Y-88625630D01*
X158027150Y-88581595D01*
X157960313Y-88536984D01*
X157902623Y-88523728D01*
X157843524Y-88537087D01*
X157776483Y-88581595D01*
X157740385Y-88625630D01*
X157718311Y-88682637D01*
X157710391Y-88756845D01*
X157718261Y-88829732D01*
X157740290Y-88886205D01*
X157776483Y-88930282D01*
X157843516Y-88974660D01*
X157902623Y-88987984D01*
X157960322Y-88974762D01*
X158027150Y-88930282D01*
X158063343Y-88886205D01*
X158085373Y-88829732D01*
X158093242Y-88756845D01*
G37*
G36*
X155258535Y-91473803D02*
G01*
X155446117Y-91562007D01*
X155547621Y-91595802D01*
X155719702Y-91615256D01*
X155836028Y-91605684D01*
X155943433Y-91577705D01*
X156043312Y-91531835D01*
X156134293Y-91466378D01*
X156207590Y-91384528D01*
X156265231Y-91285034D01*
X156303353Y-91171552D01*
X156329958Y-91008785D01*
X156340189Y-90781704D01*
X156340189Y-89958703D01*
X156759444Y-89958703D01*
X156759444Y-89663267D01*
X156340189Y-89663267D01*
X156340189Y-88850818D01*
X156052044Y-88850818D01*
X156052044Y-89663267D01*
X155305149Y-89663267D01*
X155305149Y-89958703D01*
X156052044Y-89958703D01*
X156052044Y-90776428D01*
X156045246Y-90942597D01*
X156028127Y-91053692D01*
X156004624Y-91124456D01*
X155948562Y-91212512D01*
X155877813Y-91272504D01*
X155793551Y-91307357D01*
X155689612Y-91319820D01*
X155558107Y-91303519D01*
X155415440Y-91252003D01*
X155258535Y-91159572D01*
X155258535Y-91473803D01*
G37*
G36*
X154354067Y-91562500D02*
G01*
X154354067Y-89779331D01*
X154819936Y-89779331D01*
X154819936Y-89483895D01*
X154065922Y-89483895D01*
X154065922Y-91267063D01*
X153598575Y-91267063D01*
X153598575Y-91562500D01*
X154354067Y-91562500D01*
G37*
G36*
X154400681Y-88756845D02*
G01*
X154392762Y-88682637D01*
X154370687Y-88625630D01*
X154334589Y-88581595D01*
X154267752Y-88536984D01*
X154210062Y-88523728D01*
X154150963Y-88537087D01*
X154083922Y-88581595D01*
X154047824Y-88625630D01*
X154025750Y-88682637D01*
X154017830Y-88756845D01*
X154025700Y-88829732D01*
X154047729Y-88886205D01*
X154083922Y-88930282D01*
X154150955Y-88974660D01*
X154210062Y-88987984D01*
X154267761Y-88974762D01*
X154334589Y-88930282D01*
X154370782Y-88886205D01*
X154392812Y-88829732D01*
X154400681Y-88756845D01*
G37*
G36*
X152431217Y-91562500D02*
G01*
X153163872Y-89483895D01*
X152847919Y-89483895D01*
X152275121Y-91114399D01*
X151690233Y-89483895D01*
X151401415Y-89483895D01*
X152139981Y-91562500D01*
X152431217Y-91562500D01*
G37*
G36*
X150516383Y-89447569D02*
G01*
X150652542Y-89495929D01*
X150779854Y-89576549D01*
X150892653Y-89685148D01*
X150988041Y-89819551D01*
X151066925Y-89982938D01*
X151124202Y-90160383D01*
X151158200Y-90341041D01*
X151169556Y-90526824D01*
X151157452Y-90719807D01*
X151121542Y-90903198D01*
X151061552Y-91079283D01*
X150979793Y-91241009D01*
X150884100Y-91372184D01*
X150773809Y-91476276D01*
X150649683Y-91552936D01*
X150514555Y-91599358D01*
X150365704Y-91615256D01*
X150168829Y-91595043D01*
X149957113Y-91531726D01*
X149727216Y-91419727D01*
X149727216Y-91093627D01*
X149901079Y-91198589D01*
X150057840Y-91268250D01*
X150199893Y-91307409D01*
X150329568Y-91319820D01*
X150427915Y-91309680D01*
X150516787Y-91280159D01*
X150597966Y-91231618D01*
X150669803Y-91164699D01*
X150733060Y-91077347D01*
X150788048Y-90966516D01*
X150827983Y-90845999D01*
X150852118Y-90718132D01*
X150860320Y-90581229D01*
X149703171Y-90581229D01*
X149703171Y-90502424D01*
X149714508Y-90272934D01*
X150015362Y-90272934D01*
X150015362Y-90317447D01*
X150842856Y-90317447D01*
X150799483Y-90130466D01*
X150741891Y-89986480D01*
X150671716Y-89877425D01*
X150583695Y-89792848D01*
X150487763Y-89743334D01*
X150380749Y-89726575D01*
X150275551Y-89743610D01*
X150188395Y-89792533D01*
X150114903Y-89874458D01*
X150061468Y-89979340D01*
X150027576Y-90109902D01*
X150015362Y-90272934D01*
X149714508Y-90272934D01*
X149716941Y-90223683D01*
X149754482Y-90002807D01*
X149811444Y-89829116D01*
X149885461Y-89693767D01*
X149983805Y-89579028D01*
X150095175Y-89497997D01*
X150222196Y-89448399D01*
X150368793Y-89431139D01*
X150516383Y-89447569D01*
G37*
G36*
X168183977Y-96061735D02*
G01*
X168363295Y-96131954D01*
X168519966Y-96170810D01*
X168657234Y-96182910D01*
X168836127Y-96162749D01*
X169003732Y-96103009D01*
X169163000Y-96002714D01*
X169269781Y-95904134D01*
X169364957Y-95783644D01*
X169449117Y-95639031D01*
X169522208Y-95467236D01*
X169592147Y-95225610D01*
X169635396Y-94959057D01*
X169650362Y-94663524D01*
X169635591Y-94370466D01*
X169592858Y-94105457D01*
X169523686Y-93864593D01*
X169451389Y-93693242D01*
X169367750Y-93548371D01*
X169272805Y-93427041D01*
X169165955Y-93327137D01*
X169047124Y-93246854D01*
X168923554Y-93189998D01*
X168794060Y-93155732D01*
X168657234Y-93144138D01*
X168519947Y-93156159D01*
X168363270Y-93194755D01*
X168183977Y-93264489D01*
X168183977Y-93614825D01*
X168353290Y-93514889D01*
X168514130Y-93457964D01*
X168669190Y-93439574D01*
X168784215Y-93455986D01*
X168892466Y-93505155D01*
X168996561Y-93589600D01*
X169085276Y-93699289D01*
X169165394Y-93843941D01*
X169236346Y-94030282D01*
X169286539Y-94226992D01*
X169317214Y-94437056D01*
X169327693Y-94662535D01*
X169316857Y-94891748D01*
X169285177Y-95104565D01*
X169233391Y-95303196D01*
X169160473Y-95491504D01*
X169080077Y-95635274D01*
X168992799Y-95742064D01*
X168890328Y-95823770D01*
X168783309Y-95871504D01*
X168669190Y-95887474D01*
X168515107Y-95869076D01*
X168354295Y-95811965D01*
X168183977Y-95711399D01*
X168183977Y-96061735D01*
G37*
G36*
X167668270Y-96098500D02*
G01*
X167939893Y-93228548D01*
X167654568Y-93228548D01*
X167494846Y-94973633D01*
X167474158Y-95258518D01*
X167474427Y-95258518D01*
X167444874Y-94972809D01*
X167199178Y-93228548D01*
X166915465Y-93228548D01*
X166635245Y-95042876D01*
X166607170Y-95315066D01*
X166607438Y-95315066D01*
X166589706Y-95041557D01*
X166413326Y-93228548D01*
X166167361Y-93228548D01*
X166450940Y-96098500D01*
X166745264Y-96098500D01*
X167046575Y-94153765D01*
X167077606Y-93866737D01*
X167105681Y-94153765D01*
X167376901Y-96098500D01*
X167668270Y-96098500D01*
G37*
G36*
X163517901Y-96098500D02*
G01*
X163517901Y-93555638D01*
X164216704Y-93555638D01*
X164216704Y-93228548D01*
X162505428Y-93228548D01*
X162505428Y-93555638D01*
X163205709Y-93555638D01*
X163205709Y-96098500D01*
X163517901Y-96098500D01*
G37*
G36*
X161657670Y-93980344D02*
G01*
X161785163Y-94018389D01*
X161899173Y-94080031D01*
X162001778Y-94165555D01*
X162094368Y-94276753D01*
X162187918Y-94438220D01*
X162255458Y-94619649D01*
X162297279Y-94824727D01*
X162311854Y-95058208D01*
X162297289Y-95291758D01*
X162255480Y-95497072D01*
X162187939Y-95678870D01*
X162094368Y-95840817D01*
X162001743Y-95952347D01*
X161899118Y-96038101D01*
X161785108Y-96099892D01*
X161657634Y-96138022D01*
X161514047Y-96151256D01*
X161371116Y-96138042D01*
X161244110Y-96099953D01*
X161130403Y-96038191D01*
X161027935Y-95952427D01*
X160935338Y-95840817D01*
X160841704Y-95678861D01*
X160774122Y-95497059D01*
X160732290Y-95291749D01*
X160717717Y-95058208D01*
X161029909Y-95058208D01*
X161039340Y-95246609D01*
X161065657Y-95403728D01*
X161106638Y-95534612D01*
X161161152Y-95643475D01*
X161233097Y-95737122D01*
X161314428Y-95802431D01*
X161407045Y-95842070D01*
X161514047Y-95855820D01*
X161621835Y-95842037D01*
X161714957Y-95802342D01*
X161796552Y-95737023D01*
X161868553Y-95643475D01*
X161923007Y-95534623D01*
X161963947Y-95403742D01*
X161990240Y-95246620D01*
X161999663Y-95058208D01*
X161990259Y-94870895D01*
X161963997Y-94714410D01*
X161923061Y-94583797D01*
X161868553Y-94474920D01*
X161796552Y-94381372D01*
X161714957Y-94316053D01*
X161621835Y-94276358D01*
X161514047Y-94262575D01*
X161407045Y-94276325D01*
X161314428Y-94315964D01*
X161233097Y-94381272D01*
X161161152Y-94474920D01*
X161106584Y-94583808D01*
X161065607Y-94714425D01*
X161039321Y-94870906D01*
X161029909Y-95058208D01*
X160717717Y-95058208D01*
X160732300Y-94824736D01*
X160774144Y-94619662D01*
X160841725Y-94438230D01*
X160935338Y-94276753D01*
X161027899Y-94165475D01*
X161130348Y-94079940D01*
X161244056Y-94018328D01*
X161371081Y-93980324D01*
X161514047Y-93967139D01*
X161657670Y-93980344D01*
G37*
G36*
X158973665Y-94019895D02*
G01*
X158973665Y-96098500D01*
X159261676Y-96098500D01*
X159261676Y-95653367D01*
X159354138Y-95805865D01*
X159452106Y-95927902D01*
X159555866Y-96022992D01*
X159670065Y-96095971D01*
X159780331Y-96137696D01*
X159888611Y-96151256D01*
X159985228Y-96140280D01*
X160075401Y-96107802D01*
X160160770Y-96053327D01*
X160235732Y-95980144D01*
X160292494Y-95894974D01*
X160332852Y-95796304D01*
X160356057Y-95684645D01*
X160373991Y-95490044D01*
X160381346Y-95177899D01*
X160381346Y-94019895D01*
X160093201Y-94019895D01*
X160093201Y-95219940D01*
X160085788Y-95491525D01*
X160070230Y-95610502D01*
X160037501Y-95696160D01*
X159986002Y-95764320D01*
X159921538Y-95809591D01*
X159854087Y-95824166D01*
X159761057Y-95807692D01*
X159657730Y-95754242D01*
X159540149Y-95654356D01*
X159435721Y-95532910D01*
X159342984Y-95390828D01*
X159261676Y-95226040D01*
X159261676Y-94019895D01*
X158973665Y-94019895D01*
G37*
G36*
X157095816Y-96033213D02*
G01*
X157287503Y-96100286D01*
X157466735Y-96138829D01*
X157635165Y-96151256D01*
X157800995Y-96134679D01*
X157950273Y-96086536D01*
X158085989Y-96007659D01*
X158208072Y-95900241D01*
X158309992Y-95771196D01*
X158393344Y-95618581D01*
X158453768Y-95450164D01*
X158490755Y-95265162D01*
X158503497Y-95060187D01*
X158492945Y-94873575D01*
X158462333Y-94704550D01*
X158412494Y-94550389D01*
X158343266Y-94408875D01*
X158253502Y-94278402D01*
X158120479Y-94140906D01*
X157977353Y-94044802D01*
X157821702Y-93986921D01*
X157650076Y-93967139D01*
X157477731Y-93979842D01*
X157293566Y-94019319D01*
X157095816Y-94088149D01*
X157095816Y-94429582D01*
X157298697Y-94332181D01*
X157473367Y-94278988D01*
X157624553Y-94262575D01*
X157724077Y-94272845D01*
X157819101Y-94303439D01*
X157910952Y-94354899D01*
X157992141Y-94426386D01*
X158061027Y-94521283D01*
X158118229Y-94643246D01*
X158159089Y-94776137D01*
X158183263Y-94910018D01*
X158191306Y-95046173D01*
X158176044Y-95225453D01*
X158129886Y-95400169D01*
X158050390Y-95573573D01*
X157971996Y-95680964D01*
X157875056Y-95758184D01*
X157755713Y-95806762D01*
X157608030Y-95824166D01*
X157428426Y-95808669D01*
X157321735Y-95778624D01*
X157095816Y-95691121D01*
X157095816Y-96033213D01*
G37*
G36*
X156670784Y-96098500D02*
G01*
X156670784Y-93112484D01*
X156382639Y-93112484D01*
X156382639Y-94462390D01*
X156300070Y-94321690D01*
X156205766Y-94202476D01*
X156099061Y-94102987D01*
X155981443Y-94025577D01*
X155868185Y-93981452D01*
X155757182Y-93967139D01*
X155663284Y-93977345D01*
X155576123Y-94007440D01*
X155494157Y-94057649D01*
X155420509Y-94124666D01*
X155366009Y-94197549D01*
X155327986Y-94276918D01*
X155296258Y-94378166D01*
X155276536Y-94485965D01*
X155267336Y-94625282D01*
X155262969Y-94940495D01*
X155262969Y-96098500D01*
X155551114Y-96098500D01*
X155551114Y-94898455D01*
X155558570Y-94626870D01*
X155574219Y-94507892D01*
X155606871Y-94422252D01*
X155658447Y-94354074D01*
X155723020Y-94308894D01*
X155791840Y-94294229D01*
X155884649Y-94310783D01*
X155987912Y-94364555D01*
X156105643Y-94465193D01*
X156210089Y-94587117D01*
X156302317Y-94728859D01*
X156382639Y-94892355D01*
X156382639Y-96098500D01*
X156670784Y-96098500D01*
G37*
G36*
X152975268Y-96098500D02*
G01*
X152975268Y-93228548D01*
X152663077Y-93228548D01*
X152663077Y-94618681D01*
X151802267Y-93228548D01*
X151469926Y-93228548D01*
X152310317Y-94590324D01*
X151352519Y-96098500D01*
X151743698Y-96098500D01*
X152663077Y-94647202D01*
X152663077Y-96098500D01*
X152975268Y-96098500D01*
G37*
G36*
X150516383Y-93983569D02*
G01*
X150652542Y-94031929D01*
X150779855Y-94112549D01*
X150892654Y-94221148D01*
X150988042Y-94355551D01*
X151066925Y-94518938D01*
X151124203Y-94696383D01*
X151158200Y-94877041D01*
X151169556Y-95062824D01*
X151157453Y-95255807D01*
X151121542Y-95439198D01*
X151061552Y-95615283D01*
X150979794Y-95777009D01*
X150884101Y-95908184D01*
X150773810Y-96012276D01*
X150649683Y-96088936D01*
X150514555Y-96135358D01*
X150365704Y-96151256D01*
X150168829Y-96131043D01*
X149957113Y-96067726D01*
X149727217Y-95955727D01*
X149727217Y-95629627D01*
X149901079Y-95734589D01*
X150057841Y-95804250D01*
X150199893Y-95843409D01*
X150329568Y-95855820D01*
X150427916Y-95845680D01*
X150516788Y-95816159D01*
X150597967Y-95767618D01*
X150669803Y-95700699D01*
X150733060Y-95613347D01*
X150788049Y-95502516D01*
X150827983Y-95381999D01*
X150852119Y-95254132D01*
X150860320Y-95117229D01*
X149703171Y-95117229D01*
X149703171Y-95038424D01*
X149714508Y-94808934D01*
X150015362Y-94808934D01*
X150015362Y-94853447D01*
X150842857Y-94853447D01*
X150799483Y-94666466D01*
X150741892Y-94522480D01*
X150671716Y-94413425D01*
X150583695Y-94328848D01*
X150487763Y-94279334D01*
X150380749Y-94262575D01*
X150275552Y-94279610D01*
X150188395Y-94328533D01*
X150114903Y-94410458D01*
X150061468Y-94515340D01*
X150027576Y-94645902D01*
X150015362Y-94808934D01*
X149714508Y-94808934D01*
X149716941Y-94759683D01*
X149754482Y-94538807D01*
X149811445Y-94365116D01*
X149885462Y-94229767D01*
X149983806Y-94115028D01*
X150095175Y-94033997D01*
X150222196Y-93984399D01*
X150368794Y-93967139D01*
X150516383Y-93983569D01*
G37*
G36*
X148668400Y-96010132D02*
G01*
X149446057Y-94019895D01*
X149128358Y-94019895D01*
X148513782Y-95556262D01*
X147999284Y-94019895D01*
X147708989Y-94019895D01*
X148362119Y-95954903D01*
X148479626Y-96268751D01*
X148583379Y-96495259D01*
X148674685Y-96652129D01*
X148755045Y-96754823D01*
X148852319Y-96839584D01*
X148963396Y-96901220D01*
X149090819Y-96939669D01*
X149237840Y-96953154D01*
X149362784Y-96945688D01*
X149470505Y-96924633D01*
X149470505Y-96612215D01*
X149351189Y-96646878D01*
X149245228Y-96657718D01*
X149116392Y-96641364D01*
X149006786Y-96594575D01*
X148942485Y-96544705D01*
X148879002Y-96471450D01*
X148815898Y-96370195D01*
X148738504Y-96212157D01*
X148693251Y-96091410D01*
X148668400Y-96010132D01*
G37*
G36*
X165363549Y-107219644D02*
G01*
X165499030Y-107267310D01*
X165618360Y-107344953D01*
X165724231Y-107454211D01*
X165817960Y-107599318D01*
X165904897Y-107799592D01*
X165970798Y-108039146D01*
X166013253Y-108324993D01*
X166028461Y-108665219D01*
X166013236Y-109006508D01*
X165970754Y-109292971D01*
X165904850Y-109532781D01*
X165817960Y-109733024D01*
X165724231Y-109878132D01*
X165618360Y-109987389D01*
X165499030Y-110065032D01*
X165363549Y-110112698D01*
X165208086Y-110129284D01*
X165051954Y-110112662D01*
X164916114Y-110064930D01*
X164796687Y-109987245D01*
X164690940Y-109878013D01*
X164597540Y-109733024D01*
X164510944Y-109532829D01*
X164445246Y-109293037D01*
X164402891Y-109006556D01*
X164387752Y-108666171D01*
X164699902Y-108666171D01*
X164711256Y-108974773D01*
X164741974Y-109218156D01*
X164787775Y-109407589D01*
X164845519Y-109552993D01*
X164928931Y-109688746D01*
X165015983Y-109777355D01*
X165107986Y-109827956D01*
X165208086Y-109844789D01*
X165308185Y-109827956D01*
X165400188Y-109777355D01*
X165487240Y-109688746D01*
X165570652Y-109552993D01*
X165628396Y-109407589D01*
X165674197Y-109218156D01*
X165704915Y-108974773D01*
X165716269Y-108666171D01*
X165704913Y-108357560D01*
X165674192Y-108114209D01*
X165628392Y-107924835D01*
X165570652Y-107779509D01*
X165487232Y-107643671D01*
X165400177Y-107555016D01*
X165308178Y-107504392D01*
X165208086Y-107487553D01*
X165107994Y-107504392D01*
X165015994Y-107555016D01*
X164928939Y-107643671D01*
X164845519Y-107779509D01*
X164787779Y-107924835D01*
X164741979Y-108114209D01*
X164711258Y-108357560D01*
X164699902Y-108666171D01*
X164387752Y-108666171D01*
X164387710Y-108665219D01*
X164402874Y-108324944D01*
X164445203Y-108039081D01*
X164510897Y-107799543D01*
X164597540Y-107599318D01*
X164690940Y-107454330D01*
X164796687Y-107345097D01*
X164916114Y-107267413D01*
X165051954Y-107219680D01*
X165208086Y-107203059D01*
X165363549Y-107219644D01*
G37*
G36*
X162634657Y-109985131D02*
G01*
X162826345Y-110049720D01*
X163005577Y-110086836D01*
X163174007Y-110098802D01*
X163339836Y-110082839D01*
X163489115Y-110036479D01*
X163624830Y-109960524D01*
X163746913Y-109857084D01*
X163848833Y-109732818D01*
X163932185Y-109585855D01*
X163992610Y-109423676D01*
X164029597Y-109245527D01*
X164042339Y-109048143D01*
X164031787Y-108868443D01*
X164001175Y-108705678D01*
X163951335Y-108557227D01*
X163882108Y-108420954D01*
X163792344Y-108295313D01*
X163659321Y-108162909D01*
X163516195Y-108070365D01*
X163360544Y-108014627D01*
X163188918Y-107995578D01*
X163016573Y-108007811D01*
X162832407Y-108045825D01*
X162634657Y-108112106D01*
X162634657Y-108440894D01*
X162837538Y-108347100D01*
X163012208Y-108295878D01*
X163163394Y-108280072D01*
X163262918Y-108289962D01*
X163357943Y-108319423D01*
X163449794Y-108368976D01*
X163530982Y-108437816D01*
X163599869Y-108529198D01*
X163657070Y-108646644D01*
X163697930Y-108774613D01*
X163722105Y-108903536D01*
X163730148Y-109034648D01*
X163714886Y-109207288D01*
X163668727Y-109375533D01*
X163589232Y-109542515D01*
X163510838Y-109645928D01*
X163413897Y-109720288D01*
X163294555Y-109767067D01*
X163146871Y-109783826D01*
X162967267Y-109768903D01*
X162860577Y-109739971D01*
X162634657Y-109655709D01*
X162634657Y-109985131D01*
G37*
G36*
X160797377Y-109962588D02*
G01*
X160984959Y-110047525D01*
X161086463Y-110080069D01*
X161258544Y-110098802D01*
X161374870Y-110089585D01*
X161482275Y-110062642D01*
X161582154Y-110018471D01*
X161673135Y-109955438D01*
X161746432Y-109876619D01*
X161804073Y-109780810D01*
X161842195Y-109671532D01*
X161868801Y-109514793D01*
X161879031Y-109296122D01*
X161879031Y-108503603D01*
X162298286Y-108503603D01*
X162298286Y-108219109D01*
X161879031Y-108219109D01*
X161879031Y-107436750D01*
X161590886Y-107436750D01*
X161590886Y-108219109D01*
X160843991Y-108219109D01*
X160843991Y-108503603D01*
X161590886Y-108503603D01*
X161590886Y-109291042D01*
X161584088Y-109451056D01*
X161566969Y-109558036D01*
X161543466Y-109626180D01*
X161487404Y-109710974D01*
X161416655Y-109768744D01*
X161332393Y-109802306D01*
X161228454Y-109814308D01*
X161096949Y-109798611D01*
X160954282Y-109749003D01*
X160797377Y-109659995D01*
X160797377Y-109962588D01*
G37*
G36*
X157106294Y-110048000D02*
G01*
X158526065Y-110048000D01*
X158526065Y-109739215D01*
X158516350Y-109619988D01*
X158485228Y-109486155D01*
X158430115Y-109351232D01*
X158329938Y-109183881D01*
X158087466Y-108862078D01*
X157928147Y-108670616D01*
X157718049Y-108399617D01*
X157573102Y-108195919D01*
X157504459Y-108074481D01*
X157465346Y-107960510D01*
X157453009Y-107853172D01*
X157466582Y-107744147D01*
X157505577Y-107655860D01*
X157571760Y-107583125D01*
X157654048Y-107530147D01*
X157742670Y-107498370D01*
X157839486Y-107487553D01*
X157926858Y-107492959D01*
X158030374Y-107510573D01*
X158215352Y-107564550D01*
X158479452Y-107694414D01*
X158479452Y-107390869D01*
X158285299Y-107299072D01*
X158096601Y-107243066D01*
X157913706Y-107211941D01*
X157782260Y-107203059D01*
X157604836Y-107221128D01*
X157446158Y-107273547D01*
X157350393Y-107330757D01*
X157275102Y-107403486D01*
X157217388Y-107492474D01*
X157175428Y-107594372D01*
X157150605Y-107699360D01*
X157142295Y-107809038D01*
X157152343Y-107931291D01*
X157183480Y-108058371D01*
X157238209Y-108192438D01*
X157309637Y-108317936D01*
X157425488Y-108482610D01*
X157599029Y-108695541D01*
X157770439Y-108895894D01*
X157914579Y-109062590D01*
X158041262Y-109227447D01*
X158134752Y-109377089D01*
X158181520Y-109482025D01*
X158212506Y-109599826D01*
X158227173Y-109733024D01*
X157106294Y-109733024D01*
X157106294Y-110048000D01*
G37*
G36*
X156132146Y-107219644D02*
G01*
X156267627Y-107267310D01*
X156386957Y-107344953D01*
X156492829Y-107454211D01*
X156586557Y-107599318D01*
X156673495Y-107799592D01*
X156739395Y-108039146D01*
X156781851Y-108324993D01*
X156797058Y-108665219D01*
X156781834Y-109006508D01*
X156739352Y-109292971D01*
X156673448Y-109532781D01*
X156586557Y-109733024D01*
X156492829Y-109878132D01*
X156386957Y-109987389D01*
X156267627Y-110065032D01*
X156132146Y-110112698D01*
X155976683Y-110129284D01*
X155820551Y-110112662D01*
X155684712Y-110064930D01*
X155565284Y-109987245D01*
X155459538Y-109878013D01*
X155366137Y-109733024D01*
X155279541Y-109532829D01*
X155213844Y-109293037D01*
X155171488Y-109006556D01*
X155156308Y-108665219D01*
X155157574Y-108636801D01*
X155467021Y-108636801D01*
X155480937Y-108939909D01*
X155521284Y-109216594D01*
X155586578Y-109470121D01*
X155645377Y-109613638D01*
X155714172Y-109716917D01*
X155792798Y-109787620D01*
X155883090Y-109830081D01*
X155988639Y-109844789D01*
X156086578Y-109828675D01*
X156174288Y-109780810D01*
X156250351Y-109703917D01*
X156320308Y-109591094D01*
X155525859Y-108103057D01*
X155482036Y-108359082D01*
X155467021Y-108636801D01*
X155157574Y-108636801D01*
X155171471Y-108324944D01*
X155213800Y-108039081D01*
X155279494Y-107799543D01*
X155295652Y-107762204D01*
X155629968Y-107762204D01*
X156430193Y-109241192D01*
X156465284Y-109035659D01*
X156478956Y-108893671D01*
X156484867Y-108645850D01*
X156475599Y-108389071D01*
X156449502Y-108167839D01*
X156408753Y-107977688D01*
X156354966Y-107814594D01*
X156293684Y-107689245D01*
X156226008Y-107598760D01*
X156151791Y-107536952D01*
X156069561Y-107500147D01*
X155976683Y-107487553D01*
X155883918Y-107501606D01*
X155793318Y-107544547D01*
X155739976Y-107589598D01*
X155685653Y-107659928D01*
X155629968Y-107762204D01*
X155295652Y-107762204D01*
X155366137Y-107599318D01*
X155459538Y-107454330D01*
X155565284Y-107345097D01*
X155684712Y-107267413D01*
X155820551Y-107219680D01*
X155976683Y-107203059D01*
X156132146Y-107219644D01*
G37*
G36*
X153413733Y-110048000D02*
G01*
X154833504Y-110048000D01*
X154833504Y-109739215D01*
X154823789Y-109619988D01*
X154792667Y-109486155D01*
X154737554Y-109351232D01*
X154637377Y-109183881D01*
X154394905Y-108862078D01*
X154235586Y-108670616D01*
X154025488Y-108399617D01*
X153880541Y-108195919D01*
X153811897Y-108074481D01*
X153772784Y-107960510D01*
X153760448Y-107853172D01*
X153774021Y-107744147D01*
X153813016Y-107655860D01*
X153879199Y-107583125D01*
X153961487Y-107530147D01*
X154050109Y-107498370D01*
X154146925Y-107487553D01*
X154234296Y-107492959D01*
X154337813Y-107510573D01*
X154522791Y-107564550D01*
X154786891Y-107694414D01*
X154786891Y-107390869D01*
X154592738Y-107299072D01*
X154404040Y-107243066D01*
X154221145Y-107211941D01*
X154089699Y-107203059D01*
X153912275Y-107221128D01*
X153753597Y-107273547D01*
X153657832Y-107330757D01*
X153582541Y-107403486D01*
X153524827Y-107492474D01*
X153482866Y-107594372D01*
X153458044Y-107699360D01*
X153449734Y-107809038D01*
X153459782Y-107931291D01*
X153490919Y-108058371D01*
X153545648Y-108192438D01*
X153617076Y-108317936D01*
X153732927Y-108482610D01*
X153906468Y-108695541D01*
X154077878Y-108895894D01*
X154222018Y-109062590D01*
X154348701Y-109227447D01*
X154442191Y-109377089D01*
X154488959Y-109482025D01*
X154519945Y-109599826D01*
X154534612Y-109733024D01*
X153413733Y-109733024D01*
X153413733Y-110048000D01*
G37*
G36*
X152928654Y-108625529D02*
G01*
X152928654Y-107284343D01*
X151614066Y-107284343D01*
X151614066Y-107609479D01*
X152640509Y-107609479D01*
X152640509Y-108280072D01*
X152596716Y-108280072D01*
X152387828Y-108291870D01*
X152209420Y-108325012D01*
X152057379Y-108376709D01*
X151928063Y-108445033D01*
X151818387Y-108529004D01*
X151719041Y-108636578D01*
X151643475Y-108755435D01*
X151589489Y-108887069D01*
X151556357Y-109033968D01*
X151544884Y-109199439D01*
X151557492Y-109373407D01*
X151594332Y-109531777D01*
X151655172Y-109677617D01*
X151737976Y-109807494D01*
X151840928Y-109917661D01*
X151966423Y-110009263D01*
X152103375Y-110075995D01*
X152245294Y-110115870D01*
X152393872Y-110129284D01*
X152543484Y-110117177D01*
X152734421Y-110076245D01*
X152975268Y-109998626D01*
X152975268Y-109626656D01*
X152837013Y-109702282D01*
X152684302Y-109762712D01*
X152529232Y-109802078D01*
X152393872Y-109814308D01*
X152263692Y-109795910D01*
X152134474Y-109739533D01*
X152055888Y-109681631D01*
X151990719Y-109609236D01*
X151937676Y-109521082D01*
X151898111Y-109422742D01*
X151875119Y-109325467D01*
X151867553Y-109227856D01*
X151879253Y-109107991D01*
X151913866Y-108998626D01*
X151972626Y-108896762D01*
X152059247Y-108800639D01*
X152156210Y-108733075D01*
X152294062Y-108678037D01*
X152484791Y-108639982D01*
X152742468Y-108625529D01*
X152928654Y-108625529D01*
G37*
G36*
X169888865Y-85920000D02*
G01*
X169432851Y-85920000D01*
X169271749Y-85910040D01*
X169145133Y-85883038D01*
X169046642Y-85842431D01*
X168970902Y-85790307D01*
X168882109Y-85694990D01*
X168805647Y-85573172D01*
X168741742Y-85420279D01*
X168698057Y-85257573D01*
X168670517Y-85072742D01*
X168660848Y-84862550D01*
X168662733Y-84817365D01*
X168914959Y-84817365D01*
X168921057Y-85025889D01*
X168937289Y-85185145D01*
X168960901Y-85304141D01*
X168999644Y-85416091D01*
X169050547Y-85506587D01*
X169113455Y-85578914D01*
X169168060Y-85617977D01*
X169242226Y-85648932D01*
X169341145Y-85669874D01*
X169470990Y-85677711D01*
X169633436Y-85677711D01*
X169633436Y-84012951D01*
X169451316Y-84012951D01*
X169299709Y-84024891D01*
X169194080Y-84055756D01*
X169122577Y-84100268D01*
X169062897Y-84164502D01*
X169011583Y-84246887D01*
X168968814Y-84350617D01*
X168941280Y-84461468D01*
X168922196Y-84613600D01*
X168914959Y-84817365D01*
X168662733Y-84817365D01*
X168670132Y-84640049D01*
X168696320Y-84447961D01*
X168737345Y-84282351D01*
X168782642Y-84162399D01*
X168836110Y-84062990D01*
X168897371Y-83981417D01*
X168966616Y-83915621D01*
X169043951Y-83866867D01*
X169143854Y-83828771D01*
X169271483Y-83803438D01*
X169432851Y-83794110D01*
X169888865Y-83794110D01*
X169888865Y-85920000D01*
G37*
G36*
X167874632Y-84353385D02*
G01*
X167986035Y-84389206D01*
X168090199Y-84448925D01*
X168182490Y-84529369D01*
X168260534Y-84628927D01*
X168325076Y-84749954D01*
X168371939Y-84881395D01*
X168399755Y-85015215D01*
X168409046Y-85152833D01*
X168399143Y-85295783D01*
X168369762Y-85431628D01*
X168320679Y-85562062D01*
X168253786Y-85681858D01*
X168175492Y-85779025D01*
X168085254Y-85856130D01*
X167983695Y-85912916D01*
X167873136Y-85947302D01*
X167751349Y-85959078D01*
X167590270Y-85944106D01*
X167417047Y-85897204D01*
X167228950Y-85814242D01*
X167228950Y-85572686D01*
X167371201Y-85650436D01*
X167499461Y-85702037D01*
X167615686Y-85731043D01*
X167721784Y-85740237D01*
X167802249Y-85732726D01*
X167874963Y-85710858D01*
X167941382Y-85674902D01*
X168000157Y-85625333D01*
X168051913Y-85560627D01*
X168096904Y-85478531D01*
X168129577Y-85389258D01*
X168149325Y-85294542D01*
X168156035Y-85193133D01*
X167209277Y-85193133D01*
X167209277Y-85134759D01*
X167218552Y-84964766D01*
X167464706Y-84964766D01*
X167464706Y-84997739D01*
X168141747Y-84997739D01*
X168106259Y-84859234D01*
X168059139Y-84752578D01*
X168001722Y-84671796D01*
X167929705Y-84609146D01*
X167851216Y-84572470D01*
X167763659Y-84560055D01*
X167677588Y-84572674D01*
X167606278Y-84608913D01*
X167546148Y-84669598D01*
X167502429Y-84747289D01*
X167474699Y-84844001D01*
X167464706Y-84964766D01*
X167218552Y-84964766D01*
X167220543Y-84928283D01*
X167251259Y-84764672D01*
X167297864Y-84636012D01*
X167358423Y-84535753D01*
X167438887Y-84450761D01*
X167530007Y-84390738D01*
X167633933Y-84353999D01*
X167753877Y-84341214D01*
X167874632Y-84353385D01*
G37*
G36*
X166851632Y-85835369D02*
G01*
X166851632Y-85557177D01*
X166754019Y-85619573D01*
X166655614Y-85666961D01*
X166555866Y-85700181D01*
X166407652Y-85731226D01*
X166296040Y-85740237D01*
X166181551Y-85731801D01*
X166102173Y-85710088D01*
X166048854Y-85679054D01*
X166006112Y-85633395D01*
X165981886Y-85583338D01*
X165973786Y-85526769D01*
X165982567Y-85470762D01*
X166008518Y-85424064D01*
X166058480Y-85383053D01*
X166184263Y-85317208D01*
X166262958Y-85281671D01*
X166421557Y-85211939D01*
X166592313Y-85128017D01*
X166692792Y-85060189D01*
X166745130Y-85005676D01*
X166782724Y-84939531D01*
X166805638Y-84863992D01*
X166813603Y-84776577D01*
X166805165Y-84684700D01*
X166780640Y-84603345D01*
X166739995Y-84530211D01*
X166681602Y-84463824D01*
X166613860Y-84414837D01*
X166523945Y-84376457D01*
X166406295Y-84350756D01*
X166254275Y-84341214D01*
X166108056Y-84348416D01*
X165968162Y-84369689D01*
X165833872Y-84404717D01*
X165833872Y-84647616D01*
X165989138Y-84597597D01*
X166131580Y-84569144D01*
X166262848Y-84560055D01*
X166358046Y-84567252D01*
X166431439Y-84586681D01*
X166487502Y-84615987D01*
X166534120Y-84658524D01*
X166559621Y-84703979D01*
X166567956Y-84754351D01*
X166560428Y-84803422D01*
X166538029Y-84845395D01*
X166498273Y-84882334D01*
X166416487Y-84930050D01*
X166270322Y-84995418D01*
X166115349Y-85058311D01*
X165975064Y-85124181D01*
X165878377Y-85186994D01*
X165815187Y-85246500D01*
X165767184Y-85319504D01*
X165738200Y-85403507D01*
X165728139Y-85501734D01*
X165736983Y-85598297D01*
X165762682Y-85683792D01*
X165805261Y-85760630D01*
X165866405Y-85830362D01*
X165937333Y-85882015D01*
X166030603Y-85922288D01*
X166151688Y-85949141D01*
X166307141Y-85959078D01*
X166481108Y-85945904D01*
X166662039Y-85905389D01*
X166851632Y-85835369D01*
G37*
G36*
X164972183Y-85920000D02*
G01*
X164972183Y-84599134D01*
X165353348Y-84599134D01*
X165353348Y-84380293D01*
X164736428Y-84380293D01*
X164736428Y-85701158D01*
X164354053Y-85701158D01*
X164354053Y-85920000D01*
X164972183Y-85920000D01*
G37*
G36*
X165010322Y-83841737D02*
G01*
X165003842Y-83786768D01*
X164985781Y-83744540D01*
X164956246Y-83711922D01*
X164901562Y-83678877D01*
X164854360Y-83669057D01*
X164806007Y-83678953D01*
X164751155Y-83711922D01*
X164721620Y-83744540D01*
X164703559Y-83786768D01*
X164697080Y-83841737D01*
X164703519Y-83895727D01*
X164721543Y-83937559D01*
X164751155Y-83970209D01*
X164806000Y-84003081D01*
X164854360Y-84012951D01*
X164901568Y-84003157D01*
X164956246Y-83970209D01*
X164985859Y-83937559D01*
X165003883Y-83895727D01*
X165010322Y-83841737D01*
G37*
G36*
X163328702Y-84379095D02*
G01*
X163453767Y-84420096D01*
X163560838Y-84486050D01*
X163654856Y-84575115D01*
X163736309Y-84684272D01*
X163805606Y-84816022D01*
X163855524Y-84958383D01*
X163886300Y-85115493D01*
X163896941Y-85289975D01*
X163886727Y-85460630D01*
X163858680Y-85597386D01*
X163815642Y-85706493D01*
X163758894Y-85792993D01*
X163684523Y-85868239D01*
X163608619Y-85919265D01*
X163530034Y-85949111D01*
X163447082Y-85959078D01*
X163366412Y-85949555D01*
X163276633Y-85919064D01*
X163175386Y-85863579D01*
X163083488Y-85791923D01*
X163001618Y-85701849D01*
X162929189Y-85591371D01*
X162929189Y-85791894D01*
X162935057Y-85935617D01*
X162949962Y-86033939D01*
X162979757Y-86119137D01*
X163027778Y-86193185D01*
X163092451Y-86252516D01*
X163177804Y-86297843D01*
X163272711Y-86325015D01*
X163374542Y-86334235D01*
X163506809Y-86320493D01*
X163648216Y-86277449D01*
X163782894Y-86213681D01*
X163891995Y-86142627D01*
X163891995Y-86410073D01*
X163716267Y-86491128D01*
X163547353Y-86537864D01*
X163383115Y-86553077D01*
X163219734Y-86539032D01*
X163079186Y-86499083D01*
X162957546Y-86435108D01*
X162875617Y-86369100D01*
X162811845Y-86293963D01*
X162764177Y-86208953D01*
X162731682Y-86112463D01*
X162701457Y-85939417D01*
X162695417Y-85818248D01*
X162692225Y-85469249D01*
X162692225Y-84618429D01*
X162929189Y-84618429D01*
X162929189Y-85272878D01*
X163002595Y-85403712D01*
X163079189Y-85510618D01*
X163158900Y-85596500D01*
X163248934Y-85667873D01*
X163325764Y-85705408D01*
X163392897Y-85716789D01*
X163452480Y-85705093D01*
X163509284Y-85668755D01*
X163565564Y-85601995D01*
X163605073Y-85520781D01*
X163631559Y-85409778D01*
X163641511Y-85260177D01*
X163631683Y-85103268D01*
X163604056Y-84971085D01*
X163560525Y-84859504D01*
X163501707Y-84765219D01*
X163426058Y-84684578D01*
X163343732Y-84628629D01*
X163253173Y-84595016D01*
X163151975Y-84583503D01*
X163046574Y-84591871D01*
X162929189Y-84618429D01*
X162692225Y-84618429D01*
X162692225Y-84388108D01*
X162925452Y-84388108D01*
X162984254Y-84380781D01*
X163181431Y-84364661D01*
X163328702Y-84379095D01*
G37*
G36*
X162335899Y-85920000D02*
G01*
X162335899Y-84380293D01*
X162100144Y-84380293D01*
X162100144Y-84708066D01*
X162032587Y-84603844D01*
X161955430Y-84515538D01*
X161868125Y-84441842D01*
X161771892Y-84384501D01*
X161679227Y-84351816D01*
X161588406Y-84341214D01*
X161508568Y-84349383D01*
X161434625Y-84373478D01*
X161365180Y-84413754D01*
X161304109Y-84467877D01*
X161257653Y-84530774D01*
X161224386Y-84603531D01*
X161205110Y-84685834D01*
X161190183Y-84830028D01*
X161184050Y-85062219D01*
X161184050Y-85920000D01*
X161419805Y-85920000D01*
X161419805Y-85031078D01*
X161425906Y-84829904D01*
X161438710Y-84741772D01*
X161465425Y-84678335D01*
X161507623Y-84627833D01*
X161560455Y-84594366D01*
X161616763Y-84583503D01*
X161692698Y-84595765D01*
X161777185Y-84635596D01*
X161873511Y-84710143D01*
X161958966Y-84800457D01*
X162034426Y-84905451D01*
X162100144Y-85026559D01*
X162100144Y-85920000D01*
X162335899Y-85920000D01*
G37*
G36*
X159331968Y-85920000D02*
G01*
X159099950Y-85920000D01*
X159041148Y-85927327D01*
X158843861Y-85943447D01*
X158696620Y-85928958D01*
X158571596Y-85887798D01*
X158464564Y-85821570D01*
X158370537Y-85732120D01*
X158288892Y-85622443D01*
X158219247Y-85490010D01*
X158168964Y-85346889D01*
X158137968Y-85188970D01*
X158129066Y-85043290D01*
X158382682Y-85043290D01*
X158392625Y-85202035D01*
X158420544Y-85335444D01*
X158464486Y-85447765D01*
X158523805Y-85542400D01*
X158600045Y-85623550D01*
X158682202Y-85679623D01*
X158771757Y-85713162D01*
X158871009Y-85724605D01*
X158976689Y-85716224D01*
X159096213Y-85689434D01*
X159096213Y-85030467D01*
X159022089Y-84898595D01*
X158945312Y-84790979D01*
X158865953Y-84704647D01*
X158776229Y-84632757D01*
X158699583Y-84594964D01*
X158632506Y-84583503D01*
X158572911Y-84595206D01*
X158515924Y-84631607D01*
X158459289Y-84698541D01*
X158419499Y-84779855D01*
X158392755Y-84891716D01*
X158382682Y-85043290D01*
X158129066Y-85043290D01*
X158127253Y-85013614D01*
X158137517Y-84842085D01*
X158165701Y-84704657D01*
X158208945Y-84595038D01*
X158265958Y-84508154D01*
X158340647Y-84432463D01*
X158416747Y-84381182D01*
X158495408Y-84351214D01*
X158578320Y-84341214D01*
X158658972Y-84350770D01*
X158748573Y-84381345D01*
X158849467Y-84436957D01*
X158941011Y-84508686D01*
X159023081Y-84598990D01*
X159096213Y-84709898D01*
X159096213Y-83708136D01*
X159331968Y-83708136D01*
X159331968Y-85920000D01*
G37*
G36*
X157299086Y-85854542D02*
G01*
X157935351Y-84380293D01*
X157675416Y-84380293D01*
X157172581Y-85518342D01*
X156751628Y-84380293D01*
X156514114Y-84380293D01*
X157048493Y-85813632D01*
X157144635Y-86046111D01*
X157229524Y-86213896D01*
X157304229Y-86330095D01*
X157369978Y-86406165D01*
X157449566Y-86468951D01*
X157540447Y-86514607D01*
X157644703Y-86543088D01*
X157764992Y-86553077D01*
X157867219Y-86547547D01*
X157955355Y-86531950D01*
X157955355Y-86300530D01*
X157857733Y-86326206D01*
X157771037Y-86334235D01*
X157665626Y-86322121D01*
X157575948Y-86287463D01*
X157523338Y-86250522D01*
X157471398Y-86196259D01*
X157419767Y-86121256D01*
X157356445Y-86004190D01*
X157319420Y-85914748D01*
X157299086Y-85854542D01*
G37*
G36*
X154697204Y-85920000D02*
G01*
X154904603Y-85920000D01*
X154904603Y-83794110D01*
X154648954Y-83794110D01*
X154211295Y-85182630D01*
X153773636Y-83794110D01*
X153524142Y-83794110D01*
X153524142Y-85920000D01*
X153759898Y-85920000D01*
X153759898Y-84569214D01*
X153753853Y-84388108D01*
X153807159Y-84570680D01*
X154103034Y-85497948D01*
X154356485Y-85497948D01*
X154656098Y-84570680D01*
X154703359Y-84388108D01*
X154703249Y-84388108D01*
X154697204Y-84569214D01*
X154697204Y-85920000D01*
G37*
G36*
X152831636Y-83744342D02*
G01*
X152942484Y-83781008D01*
X153040118Y-83840733D01*
X153126740Y-83924777D01*
X153203427Y-84036399D01*
X153274557Y-84190455D01*
X153328476Y-84374728D01*
X153363212Y-84594610D01*
X153375655Y-84856322D01*
X153363199Y-85118852D01*
X153328440Y-85339208D01*
X153274519Y-85523677D01*
X153203427Y-85677711D01*
X153126740Y-85789332D01*
X153040118Y-85873376D01*
X152942484Y-85933101D01*
X152831636Y-85969768D01*
X152704439Y-85982526D01*
X152576695Y-85969740D01*
X152465553Y-85933023D01*
X152367840Y-85873266D01*
X152281320Y-85789240D01*
X152204901Y-85677711D01*
X152134050Y-85523715D01*
X152080298Y-85339259D01*
X152045643Y-85118889D01*
X152033223Y-84856322D01*
X152034259Y-84834462D01*
X152287443Y-84834462D01*
X152298829Y-85067622D01*
X152331839Y-85280457D01*
X152385262Y-85475478D01*
X152433371Y-85585875D01*
X152489657Y-85665320D01*
X152553987Y-85719708D01*
X152627862Y-85752370D01*
X152714221Y-85763684D01*
X152794353Y-85751288D01*
X152866115Y-85714469D01*
X152928349Y-85655321D01*
X152985587Y-85568534D01*
X152335583Y-84423890D01*
X152299727Y-84620832D01*
X152287443Y-84834462D01*
X152034259Y-84834462D01*
X152045629Y-84594572D01*
X152080262Y-84374677D01*
X152134011Y-84190418D01*
X152147231Y-84161695D01*
X152420763Y-84161695D01*
X153075493Y-85299378D01*
X153104204Y-85141276D01*
X153115390Y-85032055D01*
X153120226Y-84841423D01*
X153112643Y-84643901D01*
X153091291Y-84473722D01*
X153057951Y-84327452D01*
X153013943Y-84201995D01*
X152963804Y-84105573D01*
X152908432Y-84035969D01*
X152847709Y-83988425D01*
X152780430Y-83960113D01*
X152704439Y-83950425D01*
X152628540Y-83961235D01*
X152554413Y-83994267D01*
X152510769Y-84028922D01*
X152466324Y-84083022D01*
X152420763Y-84161695D01*
X152147231Y-84161695D01*
X152204901Y-84036399D01*
X152281320Y-83924869D01*
X152367840Y-83840844D01*
X152465553Y-83781086D01*
X152576695Y-83744369D01*
X152704439Y-83731584D01*
X152831636Y-83744342D01*
G37*
G36*
X151797357Y-83794110D02*
G01*
X151541928Y-83794110D01*
X151541928Y-85187882D01*
X151535834Y-85373190D01*
X151520855Y-85490902D01*
X151501152Y-85560474D01*
X151468812Y-85621783D01*
X151427326Y-85671817D01*
X151375855Y-85711782D01*
X151287374Y-85750482D01*
X151187691Y-85763684D01*
X151082800Y-85749358D01*
X150992272Y-85707752D01*
X150941077Y-85664373D01*
X150898985Y-85606642D01*
X150865657Y-85532020D01*
X150845972Y-85448328D01*
X150830908Y-85305616D01*
X150824770Y-85080170D01*
X150824770Y-83794110D01*
X150589015Y-83794110D01*
X150589015Y-85179455D01*
X150599375Y-85376676D01*
X150627233Y-85528666D01*
X150668809Y-85644371D01*
X150728961Y-85749418D01*
X150798275Y-85832894D01*
X150877197Y-85897407D01*
X150966140Y-85943071D01*
X151072876Y-85972137D01*
X151201210Y-85982526D01*
X151319873Y-85973796D01*
X151425085Y-85948729D01*
X151518847Y-85908398D01*
X151603444Y-85850373D01*
X151672225Y-85776754D01*
X151726796Y-85686015D01*
X151761324Y-85582066D01*
X151787022Y-85412570D01*
X151797357Y-85152222D01*
X151797357Y-83794110D01*
G37*
G36*
X150248736Y-85920000D02*
G01*
X150248736Y-83794110D01*
X149993307Y-83794110D01*
X149993307Y-84823838D01*
X149289008Y-83794110D01*
X149017092Y-83794110D01*
X149704685Y-84802833D01*
X148921032Y-85920000D01*
X149241087Y-85920000D01*
X149993307Y-84844965D01*
X149993307Y-85920000D01*
X150248736Y-85920000D01*
G37*
G36*
X148740561Y-85920000D02*
G01*
X148284547Y-85920000D01*
X148123445Y-85910040D01*
X147996829Y-85883038D01*
X147898338Y-85842431D01*
X147822598Y-85790307D01*
X147733805Y-85694990D01*
X147657343Y-85573172D01*
X147593437Y-85420279D01*
X147549753Y-85257573D01*
X147522213Y-85072742D01*
X147512544Y-84862550D01*
X147514429Y-84817365D01*
X147766654Y-84817365D01*
X147772753Y-85025889D01*
X147788985Y-85185145D01*
X147812596Y-85304141D01*
X147851339Y-85416091D01*
X147902243Y-85506587D01*
X147965151Y-85578914D01*
X148019756Y-85617977D01*
X148093922Y-85648932D01*
X148192840Y-85669874D01*
X148322685Y-85677711D01*
X148485131Y-85677711D01*
X148485131Y-84012951D01*
X148303012Y-84012951D01*
X148151405Y-84024891D01*
X148045776Y-84055756D01*
X147974273Y-84100268D01*
X147914592Y-84164502D01*
X147863279Y-84246887D01*
X147820510Y-84350617D01*
X147792976Y-84461468D01*
X147773891Y-84613600D01*
X147766654Y-84817365D01*
X147514429Y-84817365D01*
X147521828Y-84640049D01*
X147548016Y-84447961D01*
X147589041Y-84282351D01*
X147634338Y-84162399D01*
X147687805Y-84062990D01*
X147749067Y-83981417D01*
X147818312Y-83915621D01*
X147895647Y-83866867D01*
X147995550Y-83828771D01*
X148123179Y-83803438D01*
X148284547Y-83794110D01*
X148740561Y-83794110D01*
X148740561Y-85920000D01*
G37*
M02*
