%TF.GenerationSoftware,KiCad,Pcbnew,9.0.4+dfsg-1*%
%TF.CreationDate,2025-10-04T19:22:21+02:00*%
%TF.ProjectId,CWSensorKey,43575365-6e73-46f7-924b-65792e6b6963,rev?*%
%TF.SameCoordinates,Original*%
%TF.FileFunction,Copper,L1,Top*%
%TF.FilePolarity,Positive*%
%FSLAX46Y46*%
G04 Gerber Fmt 4.6, Leading zero omitted, Abs format (unit mm)*
G04 Created by KiCad (PCBNEW 9.0.4+dfsg-1) date 2025-10-04 19:22:21*
%MOMM*%
%LPD*%
G01*
G04 APERTURE LIST*
G04 Aperture macros list*
%AMRoundRect*
0 Rectangle with rounded corners*
0 $1 Rounding radius*
0 $2 $3 $4 $5 $6 $7 $8 $9 X,Y pos of 4 corners*
0 Add a 4 corners polygon primitive as box body*
4,1,4,$2,$3,$4,$5,$6,$7,$8,$9,$2,$3,0*
0 Add four circle primitives for the rounded corners*
1,1,$1+$1,$2,$3*
1,1,$1+$1,$4,$5*
1,1,$1+$1,$6,$7*
1,1,$1+$1,$8,$9*
0 Add four rect primitives between the rounded corners*
20,1,$1+$1,$2,$3,$4,$5,0*
20,1,$1+$1,$4,$5,$6,$7,0*
20,1,$1+$1,$6,$7,$8,$9,0*
20,1,$1+$1,$8,$9,$2,$3,0*%
G04 Aperture macros list end*
%ADD10C,0.300000*%
%TA.AperFunction,NonConductor*%
%ADD11C,0.300000*%
%TD*%
%ADD12C,0.220000*%
%ADD13C,0.150000*%
%ADD14C,0.200000*%
%TA.AperFunction,NonConductor*%
%ADD15C,0.200000*%
%TD*%
%ADD16C,0.160000*%
%TA.AperFunction,SMDPad,CuDef*%
%ADD17RoundRect,0.250000X0.475000X-0.337500X0.475000X0.337500X-0.475000X0.337500X-0.475000X-0.337500X0*%
%TD*%
%TA.AperFunction,SMDPad,CuDef*%
%ADD18RoundRect,0.250000X-0.337500X-0.475000X0.337500X-0.475000X0.337500X0.475000X-0.337500X0.475000X0*%
%TD*%
%TA.AperFunction,SMDPad,CuDef*%
%ADD19RoundRect,0.162500X-0.617500X-0.162500X0.617500X-0.162500X0.617500X0.162500X-0.617500X0.162500X0*%
%TD*%
%TA.AperFunction,SMDPad,CuDef*%
%ADD20RoundRect,0.200000X-0.750000X-0.200000X0.750000X-0.200000X0.750000X0.200000X-0.750000X0.200000X0*%
%TD*%
%TA.AperFunction,SMDPad,CuDef*%
%ADD21RoundRect,0.250000X-0.350000X-0.450000X0.350000X-0.450000X0.350000X0.450000X-0.350000X0.450000X0*%
%TD*%
%TA.AperFunction,ComponentPad*%
%ADD22R,1.700000X1.700000*%
%TD*%
%TA.AperFunction,ViaPad*%
%ADD23C,1.100000*%
%TD*%
%TA.AperFunction,Conductor*%
%ADD24C,0.450000*%
%TD*%
%TA.AperFunction,Conductor*%
%ADD25C,0.250000*%
%TD*%
G04 APERTURE END LIST*
D10*
D11*
X174688571Y-103611900D02*
X175831429Y-103611900D01*
X175260000Y-104183328D02*
X175260000Y-103040471D01*
D10*
D11*
X144843571Y-104246900D02*
X145986429Y-104246900D01*
D12*
G36*
X153539731Y-108576719D02*
G01*
X153610636Y-108589385D01*
X153666137Y-108608433D01*
X153709101Y-108632810D01*
X153747571Y-108665708D01*
X153781605Y-108706495D01*
X153811309Y-108756199D01*
X153836474Y-108816175D01*
X153859266Y-108898980D01*
X153873814Y-108995024D01*
X153878972Y-109106275D01*
X153873601Y-109211371D01*
X153858301Y-109303786D01*
X153834031Y-109385139D01*
X153798528Y-109461586D01*
X153756049Y-109522495D01*
X153706720Y-109570153D01*
X153664642Y-109596215D01*
X153609925Y-109616519D01*
X153539583Y-109630020D01*
X153450082Y-109635000D01*
X153196741Y-109635000D01*
X153196741Y-109513855D01*
X153338646Y-109513855D01*
X153428894Y-109513855D01*
X153501030Y-109509937D01*
X153555984Y-109499466D01*
X153597188Y-109483988D01*
X153627524Y-109464457D01*
X153662473Y-109428293D01*
X153690752Y-109383045D01*
X153712276Y-109327070D01*
X153725394Y-109267572D01*
X153734412Y-109187944D01*
X153737800Y-109083682D01*
X153733779Y-108981800D01*
X153723177Y-108905734D01*
X153707880Y-108850308D01*
X153684119Y-108798443D01*
X153655612Y-108757251D01*
X153622456Y-108725134D01*
X153582732Y-108702878D01*
X153524049Y-108687445D01*
X153439823Y-108681475D01*
X153338646Y-108681475D01*
X153338646Y-109513855D01*
X153196741Y-109513855D01*
X153196741Y-108572055D01*
X153450082Y-108572055D01*
X153539731Y-108576719D01*
G37*
G36*
X154449480Y-108855907D02*
G01*
X154507217Y-108874277D01*
X154557840Y-108904288D01*
X154602542Y-108946784D01*
X154636186Y-108996914D01*
X154662078Y-109061243D01*
X154679142Y-109143049D01*
X154685401Y-109246287D01*
X154685401Y-109275474D01*
X154159424Y-109275474D01*
X154163148Y-109325396D01*
X154174113Y-109372063D01*
X154192275Y-109416097D01*
X154217237Y-109456524D01*
X154245984Y-109488422D01*
X154278676Y-109512878D01*
X154315550Y-109530612D01*
X154355949Y-109541408D01*
X154400675Y-109545118D01*
X154459654Y-109540580D01*
X154524248Y-109526265D01*
X154595497Y-109500817D01*
X154674471Y-109462503D01*
X154674471Y-109582121D01*
X154569973Y-109623602D01*
X154473738Y-109647053D01*
X154384249Y-109654539D01*
X154316577Y-109648676D01*
X154255154Y-109631562D01*
X154198747Y-109603309D01*
X154148597Y-109564921D01*
X154105103Y-109516556D01*
X154067955Y-109456946D01*
X154040683Y-109392050D01*
X154024362Y-109324474D01*
X154018862Y-109253370D01*
X154024023Y-109184891D01*
X154025674Y-109177777D01*
X154167362Y-109177777D01*
X154543496Y-109177777D01*
X154543496Y-109161290D01*
X154537944Y-109100908D01*
X154522539Y-109052552D01*
X154498250Y-109013707D01*
X154464844Y-108983364D01*
X154425228Y-108965245D01*
X154377411Y-108958935D01*
X154328768Y-108965143D01*
X154285163Y-108983481D01*
X154245153Y-109014806D01*
X154213255Y-109055197D01*
X154187077Y-109108525D01*
X154167362Y-109177777D01*
X154025674Y-109177777D01*
X154039475Y-109118308D01*
X154065513Y-109052908D01*
X154101350Y-108992722D01*
X154144705Y-108943181D01*
X154195999Y-108903126D01*
X154253854Y-108873408D01*
X154315746Y-108855575D01*
X154382845Y-108849515D01*
X154449480Y-108855907D01*
G37*
G36*
X154884092Y-109592684D02*
G01*
X154884092Y-109453588D01*
X154938322Y-109484786D01*
X154992991Y-109508480D01*
X155048407Y-109525090D01*
X155130748Y-109540613D01*
X155192754Y-109545118D01*
X155256376Y-109540923D01*
X155300474Y-109530128D01*
X155330080Y-109514710D01*
X155353841Y-109492036D01*
X155367290Y-109467190D01*
X155371784Y-109439117D01*
X155366910Y-109411355D01*
X155352489Y-109388192D01*
X155324737Y-109367765D01*
X155254853Y-109335008D01*
X155211134Y-109317362D01*
X155123023Y-109282740D01*
X155028134Y-109241033D01*
X154972320Y-109207317D01*
X154943260Y-109180219D01*
X154922365Y-109147268D01*
X154909640Y-109109678D01*
X154905219Y-109066219D01*
X154909903Y-109020507D01*
X154923518Y-108980014D01*
X154946096Y-108943594D01*
X154978553Y-108910514D01*
X155016166Y-108886154D01*
X155066109Y-108867057D01*
X155131477Y-108854265D01*
X155215957Y-108849515D01*
X155297190Y-108853116D01*
X155374909Y-108863752D01*
X155449515Y-108881266D01*
X155449515Y-109002716D01*
X155363256Y-108977706D01*
X155284121Y-108963480D01*
X155211195Y-108958935D01*
X155158293Y-108962512D01*
X155117519Y-108972166D01*
X155086387Y-108986718D01*
X155060466Y-109007867D01*
X155046311Y-109030434D01*
X155041690Y-109055411D01*
X155045863Y-109079741D01*
X155058296Y-109100589D01*
X155080403Y-109118975D01*
X155125832Y-109142664D01*
X155207043Y-109175151D01*
X155293138Y-109206353D01*
X155371087Y-109239086D01*
X155424798Y-109270333D01*
X155459895Y-109299959D01*
X155486572Y-109336303D01*
X155502669Y-109378103D01*
X155508255Y-109426966D01*
X155503347Y-109474989D01*
X155489079Y-109517521D01*
X155465428Y-109555763D01*
X155431441Y-109590486D01*
X155392058Y-109616179D01*
X155340251Y-109636222D01*
X155272974Y-109649591D01*
X155186587Y-109654539D01*
X155089939Y-109647952D01*
X154989422Y-109627694D01*
X154884092Y-109592684D01*
G37*
G36*
X155928231Y-109635000D02*
G01*
X155928231Y-108978475D01*
X155716472Y-108978475D01*
X155716472Y-108869054D01*
X156059206Y-108869054D01*
X156059206Y-109525579D01*
X156271636Y-109525579D01*
X156271636Y-109635000D01*
X155928231Y-109635000D01*
G37*
G36*
X155907043Y-108595868D02*
G01*
X155910642Y-108568384D01*
X155920676Y-108547270D01*
X155937084Y-108530961D01*
X155967465Y-108514438D01*
X155993688Y-108509528D01*
X156020551Y-108514476D01*
X156051024Y-108530961D01*
X156067432Y-108547270D01*
X156077466Y-108568384D01*
X156081066Y-108595868D01*
X156077489Y-108622863D01*
X156067475Y-108643779D01*
X156051024Y-108660104D01*
X156020554Y-108676540D01*
X155993688Y-108681475D01*
X155967461Y-108676578D01*
X155937084Y-108660104D01*
X155920633Y-108643779D01*
X155910620Y-108622863D01*
X155907043Y-108595868D01*
G37*
G36*
X157032636Y-108865390D02*
G01*
X157065303Y-108869054D01*
X157194874Y-108869054D01*
X157194874Y-109409624D01*
X157193101Y-109584124D01*
X157189745Y-109644708D01*
X157172953Y-109731231D01*
X157154901Y-109779476D01*
X157128418Y-109821981D01*
X157092990Y-109859550D01*
X157047474Y-109892554D01*
X156979896Y-109924541D01*
X156901814Y-109944516D01*
X156811046Y-109951538D01*
X156719803Y-109943932D01*
X156625962Y-109920564D01*
X156528335Y-109880036D01*
X156528335Y-109746313D01*
X156588947Y-109781840D01*
X156663768Y-109813724D01*
X156742327Y-109835246D01*
X156815809Y-109842117D01*
X156872382Y-109837507D01*
X156925108Y-109823921D01*
X156972526Y-109801258D01*
X157008456Y-109771592D01*
X157035134Y-109734568D01*
X157051687Y-109691969D01*
X157059967Y-109642808D01*
X157063227Y-109570947D01*
X157063227Y-109470685D01*
X157022989Y-109525924D01*
X156977506Y-109570961D01*
X156926451Y-109606789D01*
X156870203Y-109634532D01*
X156820326Y-109649777D01*
X156775509Y-109654539D01*
X156729424Y-109649555D01*
X156685766Y-109634632D01*
X156643597Y-109609119D01*
X156602280Y-109571496D01*
X156570753Y-109528246D01*
X156546844Y-109473693D01*
X156531262Y-109405315D01*
X156525588Y-109319987D01*
X156526597Y-109305088D01*
X156667493Y-109305088D01*
X156673022Y-109379889D01*
X156687736Y-109435390D01*
X156709686Y-109475997D01*
X156740952Y-109509377D01*
X156772510Y-109527546D01*
X156805612Y-109533394D01*
X156842908Y-109527704D01*
X156885591Y-109508936D01*
X156935610Y-109473250D01*
X156979894Y-109430309D01*
X157022446Y-109376856D01*
X157063227Y-109311439D01*
X157063227Y-108984214D01*
X156998013Y-108970935D01*
X156939457Y-108966751D01*
X156883236Y-108972508D01*
X156832926Y-108989314D01*
X156787189Y-109017289D01*
X156745162Y-109057609D01*
X156712485Y-109104752D01*
X156688301Y-109160542D01*
X156672953Y-109226634D01*
X156667493Y-109305088D01*
X156526597Y-109305088D01*
X156531499Y-109232746D01*
X156548597Y-109154191D01*
X156576329Y-109083011D01*
X156614827Y-109017136D01*
X156660079Y-108962557D01*
X156712311Y-108918025D01*
X156771795Y-108885048D01*
X156841276Y-108864547D01*
X156923093Y-108857330D01*
X157032636Y-108865390D01*
G37*
G36*
X157392833Y-109635000D02*
G01*
X157392833Y-108869054D01*
X157523808Y-108869054D01*
X157523808Y-109032575D01*
X157561337Y-108980548D01*
X157604202Y-108936476D01*
X157652707Y-108899706D01*
X157706163Y-108871109D01*
X157757645Y-108854804D01*
X157808107Y-108849515D01*
X157852470Y-108853580D01*
X157893551Y-108865570D01*
X157932121Y-108885601D01*
X157966065Y-108912540D01*
X157991870Y-108943829D01*
X158010340Y-108980001D01*
X158021048Y-109020944D01*
X158029342Y-109092690D01*
X158032749Y-109208246D01*
X158032749Y-109635000D01*
X157901774Y-109635000D01*
X157901774Y-109193103D01*
X157898384Y-109093135D01*
X157891271Y-109049366D01*
X157876436Y-109017825D01*
X157852986Y-108992702D01*
X157823643Y-108976064D01*
X157792353Y-108970659D01*
X157750105Y-108976757D01*
X157703140Y-108996550D01*
X157649654Y-109033551D01*
X157602200Y-109078461D01*
X157560300Y-109130656D01*
X157523808Y-109190844D01*
X157523808Y-109635000D01*
X157392833Y-109635000D01*
G37*
G36*
X159192658Y-109033429D02*
G01*
X159233282Y-108978099D01*
X159278875Y-108933048D01*
X159329740Y-108897264D01*
X159385785Y-108869532D01*
X159435565Y-108854282D01*
X159480377Y-108849515D01*
X159526461Y-108854494D01*
X159570172Y-108869412D01*
X159612443Y-108894925D01*
X159653911Y-108932557D01*
X159685603Y-108975833D01*
X159709624Y-109030397D01*
X159725272Y-109098766D01*
X159730970Y-109184066D01*
X159725018Y-109271290D01*
X159707800Y-109349843D01*
X159679862Y-109421043D01*
X159641187Y-109486931D01*
X159595832Y-109541532D01*
X159543574Y-109586090D01*
X159484133Y-109619030D01*
X159414674Y-109639511D01*
X159332854Y-109646723D01*
X159223250Y-109638663D01*
X159190582Y-109635000D01*
X159061683Y-109635000D01*
X159061683Y-109192615D01*
X159192658Y-109192615D01*
X159192658Y-109519839D01*
X159259058Y-109533140D01*
X159317772Y-109537302D01*
X159372950Y-109531615D01*
X159422719Y-109514952D01*
X159468349Y-109487115D01*
X159510663Y-109446871D01*
X159543636Y-109399838D01*
X159568044Y-109344038D01*
X159583545Y-109277785D01*
X159589065Y-109198965D01*
X159583473Y-109123727D01*
X159568621Y-109068170D01*
X159546505Y-109027751D01*
X159515072Y-108994557D01*
X159483410Y-108976478D01*
X159450274Y-108970659D01*
X159412986Y-108976356D01*
X159370400Y-108995128D01*
X159320581Y-109030804D01*
X159276475Y-109073689D01*
X159233823Y-109127137D01*
X159192658Y-109192615D01*
X159061683Y-109192615D01*
X159061683Y-108529068D01*
X159192658Y-108529068D01*
X159192658Y-109033429D01*
G37*
G36*
X160191062Y-109602515D02*
G01*
X159837582Y-108869054D01*
X159981990Y-108869054D01*
X160261343Y-109435209D01*
X160495206Y-108869054D01*
X160627158Y-108869054D01*
X160330281Y-109582060D01*
X160276869Y-109698233D01*
X160229709Y-109782074D01*
X160188206Y-109840136D01*
X160151678Y-109878143D01*
X160107466Y-109909508D01*
X160056978Y-109932318D01*
X159999057Y-109946547D01*
X159932226Y-109951538D01*
X159875433Y-109948773D01*
X159826469Y-109940975D01*
X159826469Y-109825265D01*
X159880703Y-109838103D01*
X159928867Y-109842117D01*
X159987429Y-109836060D01*
X160037250Y-109818731D01*
X160066478Y-109800261D01*
X160095334Y-109773129D01*
X160124017Y-109735628D01*
X160159196Y-109677095D01*
X160179766Y-109632374D01*
X160191062Y-109602515D01*
G37*
G36*
X161636552Y-109635000D02*
G01*
X161521331Y-109635000D01*
X161521331Y-108572055D01*
X161663358Y-108572055D01*
X161906502Y-109266315D01*
X162149646Y-108572055D01*
X162288253Y-108572055D01*
X162288253Y-109635000D01*
X162157278Y-109635000D01*
X162157278Y-108959607D01*
X162160636Y-108869054D01*
X162131022Y-108960340D01*
X161966647Y-109423974D01*
X161825841Y-109423974D01*
X161659389Y-108960340D01*
X161633133Y-108869054D01*
X161633194Y-108869054D01*
X161636552Y-108959607D01*
X161636552Y-109635000D01*
G37*
G36*
X162814613Y-108547184D02*
G01*
X162876358Y-108565543D01*
X162930644Y-108595422D01*
X162978710Y-108637434D01*
X163021165Y-108693199D01*
X163060548Y-108770209D01*
X163090409Y-108862338D01*
X163109649Y-108972286D01*
X163116542Y-109103161D01*
X163109642Y-109234444D01*
X163090389Y-109344629D01*
X163060527Y-109436857D01*
X163021165Y-109513855D01*
X162978710Y-109569620D01*
X162930644Y-109611633D01*
X162876358Y-109641511D01*
X162814613Y-109659870D01*
X162743644Y-109666263D01*
X162672979Y-109659884D01*
X162611397Y-109641550D01*
X162557156Y-109611688D01*
X162509032Y-109569666D01*
X162466428Y-109513855D01*
X162438435Y-109459267D01*
X162587451Y-109459267D01*
X162619249Y-109502660D01*
X162653824Y-109532234D01*
X162693692Y-109550644D01*
X162738210Y-109556842D01*
X162786187Y-109551185D01*
X162827228Y-109534854D01*
X162862967Y-109507660D01*
X162894238Y-109467937D01*
X162920964Y-109412739D01*
X162950644Y-109315228D01*
X162968983Y-109208811D01*
X162975308Y-109092231D01*
X162968484Y-108985416D01*
X162948564Y-108886945D01*
X162587451Y-109459267D01*
X162438435Y-109459267D01*
X162426933Y-109436838D01*
X162396977Y-109344604D01*
X162377666Y-109234426D01*
X162370746Y-109103161D01*
X162371140Y-109095711D01*
X162512651Y-109095711D01*
X162515338Y-109191027D01*
X162521553Y-109245638D01*
X162537503Y-109324689D01*
X162901242Y-108755847D01*
X162875930Y-108716511D01*
X162851238Y-108689461D01*
X162826992Y-108672133D01*
X162785810Y-108655617D01*
X162743644Y-108650212D01*
X162701427Y-108655056D01*
X162664050Y-108669212D01*
X162630315Y-108692984D01*
X162599553Y-108727786D01*
X162571697Y-108775997D01*
X162547248Y-108838726D01*
X162528726Y-108911861D01*
X162516864Y-108996950D01*
X162512651Y-109095711D01*
X162371140Y-109095711D01*
X162377659Y-108972305D01*
X162396957Y-108862364D01*
X162426912Y-108770227D01*
X162466428Y-108693199D01*
X162509032Y-108637388D01*
X162557156Y-108595366D01*
X162611397Y-108565504D01*
X162672979Y-108547171D01*
X162743644Y-108540792D01*
X162814613Y-108547184D01*
G37*
G36*
X163247578Y-108572055D02*
G01*
X163389483Y-108572055D01*
X163389483Y-109268941D01*
X163392869Y-109361595D01*
X163401191Y-109420451D01*
X163412137Y-109455237D01*
X163430103Y-109485891D01*
X163453151Y-109510908D01*
X163481746Y-109530891D01*
X163530902Y-109550241D01*
X163586282Y-109556842D01*
X163644555Y-109549679D01*
X163694848Y-109528876D01*
X163723290Y-109507186D01*
X163746674Y-109478321D01*
X163765190Y-109441010D01*
X163776126Y-109399164D01*
X163784494Y-109327808D01*
X163787904Y-109215085D01*
X163787904Y-108572055D01*
X163918880Y-108572055D01*
X163918880Y-109264727D01*
X163913124Y-109363338D01*
X163897647Y-109439333D01*
X163874550Y-109497185D01*
X163841132Y-109549709D01*
X163802624Y-109591447D01*
X163758778Y-109623703D01*
X163709366Y-109646535D01*
X163650068Y-109661068D01*
X163578771Y-109666263D01*
X163512847Y-109661898D01*
X163454396Y-109649364D01*
X163402306Y-109629199D01*
X163355308Y-109600186D01*
X163317096Y-109563377D01*
X163286779Y-109518007D01*
X163267597Y-109466033D01*
X163253320Y-109381285D01*
X163247578Y-109251111D01*
X163247578Y-108572055D01*
G37*
G36*
X164107924Y-109635000D02*
G01*
X164107924Y-108572055D01*
X164249829Y-108572055D01*
X164249829Y-109086919D01*
X164641106Y-108572055D01*
X164792170Y-108572055D01*
X164410174Y-109076416D01*
X164845537Y-109635000D01*
X164667728Y-109635000D01*
X164249829Y-109097482D01*
X164249829Y-109635000D01*
X164107924Y-109635000D01*
G37*
G36*
X165288788Y-108576719D02*
G01*
X165359693Y-108589385D01*
X165415195Y-108608433D01*
X165458159Y-108632810D01*
X165496629Y-108665708D01*
X165530663Y-108706495D01*
X165560367Y-108756199D01*
X165585532Y-108816175D01*
X165608324Y-108898980D01*
X165622872Y-108995024D01*
X165628030Y-109106275D01*
X165622659Y-109211371D01*
X165607358Y-109303786D01*
X165583089Y-109385139D01*
X165547586Y-109461586D01*
X165505107Y-109522495D01*
X165455778Y-109570153D01*
X165413700Y-109596215D01*
X165358983Y-109616519D01*
X165288641Y-109630020D01*
X165199140Y-109635000D01*
X164945799Y-109635000D01*
X164945799Y-109513855D01*
X165087704Y-109513855D01*
X165177952Y-109513855D01*
X165250088Y-109509937D01*
X165305042Y-109499466D01*
X165346246Y-109483988D01*
X165376582Y-109464457D01*
X165411531Y-109428293D01*
X165439810Y-109383045D01*
X165461334Y-109327070D01*
X165474452Y-109267572D01*
X165483469Y-109187944D01*
X165486858Y-109083682D01*
X165482837Y-108981800D01*
X165472235Y-108905734D01*
X165456938Y-108850308D01*
X165433177Y-108798443D01*
X165404670Y-108757251D01*
X165371514Y-108725134D01*
X165331790Y-108702878D01*
X165273107Y-108687445D01*
X165188881Y-108681475D01*
X165087704Y-108681475D01*
X165087704Y-109513855D01*
X164945799Y-109513855D01*
X164945799Y-108572055D01*
X165199140Y-108572055D01*
X165288788Y-108576719D01*
G37*
D13*
G36*
X161899180Y-111457000D02*
G01*
X161810130Y-111457000D01*
X161810130Y-110609770D01*
X161921065Y-110609770D01*
X162116703Y-111168353D01*
X162312342Y-110609770D01*
X162420541Y-110609770D01*
X162420541Y-111457000D01*
X162318887Y-111457000D01*
X162318887Y-110918297D01*
X162321623Y-110844243D01*
X162318887Y-110844243D01*
X162294854Y-110918346D01*
X162163695Y-111288179D01*
X162053298Y-111288179D01*
X161920478Y-110918346D01*
X161899180Y-110844243D01*
X161896445Y-110844243D01*
X161899180Y-110918297D01*
X161899180Y-111457000D01*
G37*
G36*
X162910492Y-110844438D02*
G01*
X162936724Y-110847369D01*
X163038915Y-110847369D01*
X163038915Y-111279288D01*
X163041863Y-111352421D01*
X163049875Y-111410857D01*
X163061874Y-111457000D01*
X162955824Y-111457000D01*
X162945673Y-111401893D01*
X162936724Y-111319491D01*
X162902639Y-111367229D01*
X162865438Y-111405037D01*
X162824959Y-111434090D01*
X162780163Y-111456503D01*
X162740529Y-111468796D01*
X162704986Y-111472631D01*
X162668451Y-111468676D01*
X162633818Y-111456830D01*
X162600345Y-111436570D01*
X162567527Y-111406685D01*
X162542497Y-111372319D01*
X162523505Y-111328932D01*
X162511123Y-111274510D01*
X162506612Y-111206553D01*
X162507420Y-111194634D01*
X162617010Y-111194634D01*
X162621475Y-111254776D01*
X162633374Y-111299529D01*
X162651155Y-111332387D01*
X162676464Y-111359380D01*
X162702096Y-111374097D01*
X162729069Y-111378842D01*
X162759284Y-111374253D01*
X162793729Y-111359148D01*
X162833947Y-111330482D01*
X162869583Y-111295917D01*
X162903852Y-111252852D01*
X162936724Y-111200105D01*
X162936724Y-110936713D01*
X162883315Y-110925810D01*
X162836145Y-110922401D01*
X162790810Y-110927039D01*
X162750261Y-110940579D01*
X162713419Y-110963109D01*
X162679585Y-110995576D01*
X162653248Y-111033547D01*
X162633765Y-111078445D01*
X162621406Y-111131591D01*
X162617010Y-111194634D01*
X162507420Y-111194634D01*
X162511326Y-111136985D01*
X162524956Y-111074369D01*
X162547059Y-111017655D01*
X162577709Y-110965166D01*
X162613717Y-110921699D01*
X162655259Y-110886253D01*
X162702604Y-110860032D01*
X162757915Y-110843730D01*
X162823053Y-110837990D01*
X162910492Y-110844438D01*
G37*
G36*
X163431560Y-111432478D02*
G01*
X163149557Y-110847369D01*
X163261616Y-110847369D01*
X163486222Y-111302540D01*
X163674191Y-110847369D01*
X163776382Y-110847369D01*
X163539760Y-111415625D01*
X163497111Y-111508411D01*
X163459496Y-111575318D01*
X163426432Y-111621602D01*
X163397366Y-111651856D01*
X163362201Y-111676801D01*
X163322038Y-111694942D01*
X163275957Y-111706261D01*
X163222781Y-111710230D01*
X163177667Y-111708076D01*
X163139739Y-111702073D01*
X163139739Y-111612875D01*
X163181553Y-111622695D01*
X163220095Y-111625820D01*
X163267279Y-111620927D01*
X163307485Y-111606916D01*
X163331111Y-111592020D01*
X163354375Y-111570181D01*
X163377436Y-111540042D01*
X163405745Y-111492970D01*
X163422279Y-111457000D01*
X163431560Y-111432478D01*
G37*
G36*
X165059585Y-111457000D02*
G01*
X164546431Y-111457000D01*
X164546431Y-111363552D01*
X164549939Y-111327152D01*
X164561183Y-111286225D01*
X164581119Y-111244940D01*
X164617457Y-111193608D01*
X164705482Y-111094739D01*
X164763416Y-111035827D01*
X164839913Y-110952394D01*
X164892675Y-110889590D01*
X164917778Y-110851961D01*
X164932107Y-110816626D01*
X164936633Y-110783231D01*
X164931632Y-110749159D01*
X164917270Y-110721597D01*
X164892914Y-110698919D01*
X164862623Y-110682421D01*
X164830055Y-110672533D01*
X164794533Y-110669170D01*
X164762621Y-110670846D01*
X164724875Y-110676302D01*
X164657366Y-110692959D01*
X164563381Y-110731940D01*
X164563381Y-110641961D01*
X164633013Y-110614160D01*
X164701379Y-110597020D01*
X164767695Y-110587481D01*
X164815342Y-110584759D01*
X164879558Y-110590285D01*
X164936878Y-110606302D01*
X164971460Y-110623782D01*
X164998628Y-110645983D01*
X165019432Y-110673127D01*
X165034552Y-110704180D01*
X165043498Y-110736191D01*
X165046494Y-110769651D01*
X165042859Y-110806979D01*
X165031588Y-110845836D01*
X165011762Y-110886888D01*
X164985892Y-110925350D01*
X164943882Y-110975884D01*
X164880897Y-111041298D01*
X164818566Y-111102945D01*
X164766103Y-111154236D01*
X164719927Y-111205118D01*
X164685747Y-111251396D01*
X164668716Y-111283877D01*
X164657340Y-111320857D01*
X164651895Y-111363210D01*
X165059585Y-111363210D01*
X165059585Y-111457000D01*
G37*
G36*
X165528336Y-110589848D02*
G01*
X165577441Y-110604463D01*
X165620634Y-110628256D01*
X165658897Y-110661719D01*
X165692712Y-110706148D01*
X165724061Y-110767452D01*
X165747844Y-110840876D01*
X165763176Y-110928589D01*
X165768671Y-111033092D01*
X165763171Y-111137919D01*
X165747830Y-111225831D01*
X165724046Y-111299351D01*
X165692712Y-111360670D01*
X165658899Y-111405078D01*
X165620638Y-111438528D01*
X165577445Y-111462313D01*
X165528338Y-111476923D01*
X165471916Y-111482010D01*
X165415737Y-111476934D01*
X165366760Y-111462344D01*
X165323603Y-111438573D01*
X165285296Y-111405115D01*
X165251365Y-111360670D01*
X165229454Y-111317928D01*
X165345154Y-111317928D01*
X165371235Y-111353662D01*
X165399229Y-111377669D01*
X165431495Y-111392578D01*
X165467568Y-111397600D01*
X165506384Y-111393039D01*
X165539551Y-111379881D01*
X165568394Y-111357991D01*
X165593592Y-111326044D01*
X165615091Y-111281682D01*
X165638980Y-111203247D01*
X165653728Y-111117799D01*
X165658811Y-111024348D01*
X165653162Y-110938278D01*
X165636438Y-110856309D01*
X165345154Y-111317928D01*
X165229454Y-111317928D01*
X165219923Y-111299336D01*
X165196064Y-111225811D01*
X165180677Y-111137904D01*
X165175161Y-111033092D01*
X165175475Y-111027132D01*
X165285559Y-111027132D01*
X165287708Y-111103531D01*
X165292818Y-111147771D01*
X165306319Y-111214271D01*
X165599802Y-110755290D01*
X165579082Y-110723015D01*
X165558991Y-110700941D01*
X165539376Y-110686902D01*
X165506034Y-110673541D01*
X165471916Y-110669170D01*
X165437749Y-110673076D01*
X165407535Y-110684484D01*
X165380302Y-110703626D01*
X165355505Y-110731625D01*
X165333088Y-110770384D01*
X165313393Y-110820897D01*
X165298484Y-110879687D01*
X165288944Y-110947980D01*
X165285559Y-111027132D01*
X165175475Y-111027132D01*
X165180672Y-110928604D01*
X165196050Y-110840896D01*
X165219908Y-110767467D01*
X165251365Y-110706148D01*
X165285299Y-110661683D01*
X165323608Y-110628211D01*
X165366764Y-110604432D01*
X165415740Y-110589837D01*
X165471916Y-110584759D01*
X165528336Y-110589848D01*
G37*
G36*
X166402335Y-111457000D02*
G01*
X165889180Y-111457000D01*
X165889180Y-111363552D01*
X165892688Y-111327152D01*
X165903933Y-111286225D01*
X165923869Y-111244940D01*
X165960206Y-111193608D01*
X166048231Y-111094739D01*
X166106166Y-111035827D01*
X166182663Y-110952394D01*
X166235424Y-110889590D01*
X166260527Y-110851961D01*
X166274856Y-110816626D01*
X166279383Y-110783231D01*
X166274381Y-110749159D01*
X166260020Y-110721597D01*
X166235663Y-110698919D01*
X166205372Y-110682421D01*
X166172805Y-110672533D01*
X166137282Y-110669170D01*
X166105371Y-110670846D01*
X166067624Y-110676302D01*
X166000116Y-110692959D01*
X165906131Y-110731940D01*
X165906131Y-110641961D01*
X165975763Y-110614160D01*
X166044128Y-110597020D01*
X166110445Y-110587481D01*
X166158092Y-110584759D01*
X166222307Y-110590285D01*
X166279627Y-110606302D01*
X166314210Y-110623782D01*
X166341377Y-110645983D01*
X166362181Y-110673127D01*
X166377301Y-110704180D01*
X166386248Y-110736191D01*
X166389243Y-110769651D01*
X166385609Y-110806979D01*
X166374338Y-110845836D01*
X166354512Y-110886888D01*
X166328642Y-110925350D01*
X166286631Y-110975884D01*
X166223647Y-111041298D01*
X166161316Y-111102945D01*
X166108853Y-111154236D01*
X166062676Y-111205118D01*
X166028497Y-111251396D01*
X166011465Y-111283877D01*
X166000089Y-111320857D01*
X165994645Y-111363210D01*
X166402335Y-111363210D01*
X166402335Y-111457000D01*
G37*
G36*
X166581853Y-111019316D02*
G01*
X166581853Y-110609770D01*
X167056759Y-110609770D01*
X167056759Y-110706685D01*
X166683507Y-110706685D01*
X166683507Y-110916148D01*
X166700995Y-110916148D01*
X166793898Y-110921726D01*
X166870074Y-110937163D01*
X166932325Y-110960974D01*
X166982998Y-110992352D01*
X167018933Y-111025283D01*
X167046264Y-111061657D01*
X167065788Y-111101931D01*
X167077768Y-111146864D01*
X167081916Y-111197467D01*
X167077354Y-111250708D01*
X167064023Y-111299178D01*
X167042007Y-111343817D01*
X167012075Y-111383535D01*
X166974834Y-111417239D01*
X166929411Y-111445276D01*
X166879876Y-111465699D01*
X166828529Y-111477904D01*
X166774756Y-111482010D01*
X166720522Y-111478311D01*
X166651577Y-111465828D01*
X166564903Y-111442198D01*
X166564903Y-111331508D01*
X166613295Y-111353822D01*
X166668755Y-111372296D01*
X166725339Y-111384445D01*
X166774756Y-111388221D01*
X166822480Y-111382512D01*
X166869864Y-111365018D01*
X166898653Y-111347054D01*
X166922546Y-111324585D01*
X166942014Y-111297216D01*
X166956508Y-111266723D01*
X166964934Y-111236533D01*
X166967708Y-111206211D01*
X166963417Y-111168949D01*
X166950726Y-111134982D01*
X166929192Y-111103378D01*
X166897464Y-111073587D01*
X166861952Y-111052630D01*
X166811559Y-111035574D01*
X166741940Y-111023789D01*
X166647994Y-111019316D01*
X166581853Y-111019316D01*
G37*
D14*
D15*
X176347219Y-100528333D02*
X175871028Y-100861666D01*
X176347219Y-101099761D02*
X175347219Y-101099761D01*
X175347219Y-101099761D02*
X175347219Y-100718809D01*
X175347219Y-100718809D02*
X175394838Y-100623571D01*
X175394838Y-100623571D02*
X175442457Y-100575952D01*
X175442457Y-100575952D02*
X175537695Y-100528333D01*
X175537695Y-100528333D02*
X175680552Y-100528333D01*
X175680552Y-100528333D02*
X175775790Y-100575952D01*
X175775790Y-100575952D02*
X175823409Y-100623571D01*
X175823409Y-100623571D02*
X175871028Y-100718809D01*
X175871028Y-100718809D02*
X175871028Y-101099761D01*
X176347219Y-100099761D02*
X175680552Y-100099761D01*
X175347219Y-100099761D02*
X175394838Y-100147380D01*
X175394838Y-100147380D02*
X175442457Y-100099761D01*
X175442457Y-100099761D02*
X175394838Y-100052142D01*
X175394838Y-100052142D02*
X175347219Y-100099761D01*
X175347219Y-100099761D02*
X175442457Y-100099761D01*
X175680552Y-99623571D02*
X176347219Y-99623571D01*
X175775790Y-99623571D02*
X175728171Y-99575952D01*
X175728171Y-99575952D02*
X175680552Y-99480714D01*
X175680552Y-99480714D02*
X175680552Y-99337857D01*
X175680552Y-99337857D02*
X175728171Y-99242619D01*
X175728171Y-99242619D02*
X175823409Y-99195000D01*
X175823409Y-99195000D02*
X176347219Y-99195000D01*
X175680552Y-98290238D02*
X176490076Y-98290238D01*
X176490076Y-98290238D02*
X176585314Y-98337857D01*
X176585314Y-98337857D02*
X176632933Y-98385476D01*
X176632933Y-98385476D02*
X176680552Y-98480714D01*
X176680552Y-98480714D02*
X176680552Y-98623571D01*
X176680552Y-98623571D02*
X176632933Y-98718809D01*
X176299600Y-98290238D02*
X176347219Y-98385476D01*
X176347219Y-98385476D02*
X176347219Y-98575952D01*
X176347219Y-98575952D02*
X176299600Y-98671190D01*
X176299600Y-98671190D02*
X176251980Y-98718809D01*
X176251980Y-98718809D02*
X176156742Y-98766428D01*
X176156742Y-98766428D02*
X175871028Y-98766428D01*
X175871028Y-98766428D02*
X175775790Y-98718809D01*
X175775790Y-98718809D02*
X175728171Y-98671190D01*
X175728171Y-98671190D02*
X175680552Y-98575952D01*
X175680552Y-98575952D02*
X175680552Y-98385476D01*
X175680552Y-98385476D02*
X175728171Y-98290238D01*
D14*
D15*
X141932143Y-89444742D02*
X141932143Y-88244742D01*
X141932143Y-88244742D02*
X142217857Y-88244742D01*
X142217857Y-88244742D02*
X142389286Y-88301885D01*
X142389286Y-88301885D02*
X142503571Y-88416171D01*
X142503571Y-88416171D02*
X142560714Y-88530457D01*
X142560714Y-88530457D02*
X142617857Y-88759028D01*
X142617857Y-88759028D02*
X142617857Y-88930457D01*
X142617857Y-88930457D02*
X142560714Y-89159028D01*
X142560714Y-89159028D02*
X142503571Y-89273314D01*
X142503571Y-89273314D02*
X142389286Y-89387600D01*
X142389286Y-89387600D02*
X142217857Y-89444742D01*
X142217857Y-89444742D02*
X141932143Y-89444742D01*
X143132143Y-89444742D02*
X143132143Y-88644742D01*
X143132143Y-88244742D02*
X143075000Y-88301885D01*
X143075000Y-88301885D02*
X143132143Y-88359028D01*
X143132143Y-88359028D02*
X143189286Y-88301885D01*
X143189286Y-88301885D02*
X143132143Y-88244742D01*
X143132143Y-88244742D02*
X143132143Y-88359028D01*
X143532143Y-88644742D02*
X143989286Y-88644742D01*
X143703572Y-88244742D02*
X143703572Y-89273314D01*
X143703572Y-89273314D02*
X143760715Y-89387600D01*
X143760715Y-89387600D02*
X143875000Y-89444742D01*
X143875000Y-89444742D02*
X143989286Y-89444742D01*
D14*
D15*
X175347219Y-91146189D02*
X175347219Y-90574761D01*
X176347219Y-90860475D02*
X175347219Y-90860475D01*
X176347219Y-90241427D02*
X175680552Y-90241427D01*
X175347219Y-90241427D02*
X175394838Y-90289046D01*
X175394838Y-90289046D02*
X175442457Y-90241427D01*
X175442457Y-90241427D02*
X175394838Y-90193808D01*
X175394838Y-90193808D02*
X175347219Y-90241427D01*
X175347219Y-90241427D02*
X175442457Y-90241427D01*
X175680552Y-89765237D02*
X176680552Y-89765237D01*
X175728171Y-89765237D02*
X175680552Y-89669999D01*
X175680552Y-89669999D02*
X175680552Y-89479523D01*
X175680552Y-89479523D02*
X175728171Y-89384285D01*
X175728171Y-89384285D02*
X175775790Y-89336666D01*
X175775790Y-89336666D02*
X175871028Y-89289047D01*
X175871028Y-89289047D02*
X176156742Y-89289047D01*
X176156742Y-89289047D02*
X176251980Y-89336666D01*
X176251980Y-89336666D02*
X176299600Y-89384285D01*
X176299600Y-89384285D02*
X176347219Y-89479523D01*
X176347219Y-89479523D02*
X176347219Y-89669999D01*
X176347219Y-89669999D02*
X176299600Y-89765237D01*
D14*
D15*
X143380000Y-95794742D02*
X143380000Y-94594742D01*
X143380000Y-94594742D02*
X143665714Y-94594742D01*
X143665714Y-94594742D02*
X143837143Y-94651885D01*
X143837143Y-94651885D02*
X143951428Y-94766171D01*
X143951428Y-94766171D02*
X144008571Y-94880457D01*
X144008571Y-94880457D02*
X144065714Y-95109028D01*
X144065714Y-95109028D02*
X144065714Y-95280457D01*
X144065714Y-95280457D02*
X144008571Y-95509028D01*
X144008571Y-95509028D02*
X143951428Y-95623314D01*
X143951428Y-95623314D02*
X143837143Y-95737600D01*
X143837143Y-95737600D02*
X143665714Y-95794742D01*
X143665714Y-95794742D02*
X143380000Y-95794742D01*
X145094286Y-95794742D02*
X145094286Y-95166171D01*
X145094286Y-95166171D02*
X145037143Y-95051885D01*
X145037143Y-95051885D02*
X144922857Y-94994742D01*
X144922857Y-94994742D02*
X144694286Y-94994742D01*
X144694286Y-94994742D02*
X144580000Y-95051885D01*
X145094286Y-95737600D02*
X144980000Y-95794742D01*
X144980000Y-95794742D02*
X144694286Y-95794742D01*
X144694286Y-95794742D02*
X144580000Y-95737600D01*
X144580000Y-95737600D02*
X144522857Y-95623314D01*
X144522857Y-95623314D02*
X144522857Y-95509028D01*
X144522857Y-95509028D02*
X144580000Y-95394742D01*
X144580000Y-95394742D02*
X144694286Y-95337600D01*
X144694286Y-95337600D02*
X144980000Y-95337600D01*
X144980000Y-95337600D02*
X145094286Y-95280457D01*
X145665714Y-95794742D02*
X145665714Y-94594742D01*
X146180000Y-95794742D02*
X146180000Y-95166171D01*
X146180000Y-95166171D02*
X146122857Y-95051885D01*
X146122857Y-95051885D02*
X146008571Y-94994742D01*
X146008571Y-94994742D02*
X145837142Y-94994742D01*
X145837142Y-94994742D02*
X145722857Y-95051885D01*
X145722857Y-95051885D02*
X145665714Y-95109028D01*
D14*
D15*
X175394838Y-94741904D02*
X175347219Y-94837142D01*
X175347219Y-94837142D02*
X175347219Y-94979999D01*
X175347219Y-94979999D02*
X175394838Y-95122856D01*
X175394838Y-95122856D02*
X175490076Y-95218094D01*
X175490076Y-95218094D02*
X175585314Y-95265713D01*
X175585314Y-95265713D02*
X175775790Y-95313332D01*
X175775790Y-95313332D02*
X175918647Y-95313332D01*
X175918647Y-95313332D02*
X176109123Y-95265713D01*
X176109123Y-95265713D02*
X176204361Y-95218094D01*
X176204361Y-95218094D02*
X176299600Y-95122856D01*
X176299600Y-95122856D02*
X176347219Y-94979999D01*
X176347219Y-94979999D02*
X176347219Y-94884761D01*
X176347219Y-94884761D02*
X176299600Y-94741904D01*
X176299600Y-94741904D02*
X176251980Y-94694285D01*
X176251980Y-94694285D02*
X175918647Y-94694285D01*
X175918647Y-94694285D02*
X175918647Y-94884761D01*
X176347219Y-94265713D02*
X175347219Y-94265713D01*
X175347219Y-94265713D02*
X176347219Y-93694285D01*
X176347219Y-93694285D02*
X175347219Y-93694285D01*
X176347219Y-93218094D02*
X175347219Y-93218094D01*
X175347219Y-93218094D02*
X175347219Y-92979999D01*
X175347219Y-92979999D02*
X175394838Y-92837142D01*
X175394838Y-92837142D02*
X175490076Y-92741904D01*
X175490076Y-92741904D02*
X175585314Y-92694285D01*
X175585314Y-92694285D02*
X175775790Y-92646666D01*
X175775790Y-92646666D02*
X175918647Y-92646666D01*
X175918647Y-92646666D02*
X176109123Y-92694285D01*
X176109123Y-92694285D02*
X176204361Y-92741904D01*
X176204361Y-92741904D02*
X176299600Y-92837142D01*
X176299600Y-92837142D02*
X176347219Y-92979999D01*
X176347219Y-92979999D02*
X176347219Y-93218094D01*
D16*
G36*
X150149763Y-111360084D02*
G01*
X150149763Y-111457000D01*
X149688681Y-111457000D01*
X149688681Y-110606644D01*
X149802206Y-110606644D01*
X149802206Y-111360084D01*
X150149763Y-111360084D01*
G37*
G36*
X150701752Y-110841312D02*
G01*
X150727886Y-110844243D01*
X150831543Y-110844243D01*
X150831543Y-111277725D01*
X150834543Y-111350622D01*
X150842750Y-111409655D01*
X150855136Y-111457000D01*
X150745667Y-111457000D01*
X150735265Y-111401348D01*
X150726616Y-111322861D01*
X150694126Y-111368067D01*
X150657600Y-111404773D01*
X150616804Y-111433845D01*
X150571773Y-111456393D01*
X150531879Y-111468768D01*
X150496051Y-111472631D01*
X150459183Y-111468644D01*
X150424256Y-111456706D01*
X150390521Y-111436295D01*
X150357467Y-111406197D01*
X150332246Y-111371597D01*
X150313118Y-111327954D01*
X150300653Y-111273252D01*
X150296113Y-111204990D01*
X150296921Y-111193071D01*
X150409638Y-111193071D01*
X150414061Y-111252911D01*
X150425832Y-111297312D01*
X150443392Y-111329798D01*
X150468405Y-111356502D01*
X150493652Y-111371037D01*
X150520133Y-111375715D01*
X150549970Y-111371163D01*
X150584116Y-111356149D01*
X150624132Y-111327600D01*
X150659559Y-111293247D01*
X150693600Y-111250485D01*
X150726225Y-111198151D01*
X150726225Y-110936371D01*
X150674054Y-110925748D01*
X150627209Y-110922401D01*
X150582232Y-110927006D01*
X150541984Y-110940451D01*
X150505394Y-110962831D01*
X150471773Y-110995087D01*
X150445631Y-111032801D01*
X150426284Y-111077434D01*
X150414006Y-111130307D01*
X150409638Y-111193071D01*
X150296921Y-111193071D01*
X150300843Y-111135197D01*
X150314521Y-111072353D01*
X150336707Y-111015408D01*
X150367505Y-110962708D01*
X150403707Y-110919046D01*
X150445492Y-110883420D01*
X150493080Y-110857038D01*
X150548664Y-110840638D01*
X150614118Y-110834864D01*
X150701752Y-110841312D01*
G37*
G36*
X151220915Y-111430817D02*
G01*
X150938130Y-110841117D01*
X151053657Y-110841117D01*
X151277139Y-111296337D01*
X151464229Y-110841117D01*
X151569791Y-110841117D01*
X151332289Y-111414452D01*
X151289560Y-111507444D01*
X151251831Y-111574558D01*
X151218629Y-111621038D01*
X151189407Y-111651466D01*
X151154035Y-111676580D01*
X151113643Y-111694843D01*
X151067307Y-111706235D01*
X151013845Y-111710230D01*
X150968411Y-111708018D01*
X150929240Y-111701780D01*
X150929240Y-111609212D01*
X150972627Y-111619482D01*
X151011159Y-111622694D01*
X151058008Y-111617848D01*
X151097865Y-111603985D01*
X151121247Y-111589208D01*
X151144332Y-111567503D01*
X151167279Y-111537502D01*
X151195422Y-111490676D01*
X151211878Y-111454899D01*
X151220915Y-111430817D01*
G37*
G36*
X151972756Y-110829392D02*
G01*
X152018947Y-110840653D01*
X152060295Y-110858908D01*
X152097549Y-110884252D01*
X152131208Y-110917223D01*
X152165249Y-110965068D01*
X152189823Y-111018825D01*
X152205040Y-111079588D01*
X152210342Y-111148765D01*
X152205043Y-111217962D01*
X152189831Y-111278795D01*
X152165256Y-111332662D01*
X152131208Y-111380649D01*
X152097536Y-111413719D01*
X152060275Y-111439130D01*
X152018927Y-111457430D01*
X151972743Y-111468716D01*
X151920768Y-111472631D01*
X151868554Y-111468710D01*
X151822200Y-111457412D01*
X151780742Y-111439104D01*
X151743424Y-111413695D01*
X151709742Y-111380649D01*
X151675716Y-111332665D01*
X151651156Y-111278799D01*
X151635953Y-111217965D01*
X151630656Y-111148765D01*
X151744180Y-111148765D01*
X151747607Y-111204591D01*
X151757168Y-111251146D01*
X151772055Y-111289925D01*
X151791857Y-111322177D01*
X151818039Y-111349895D01*
X151847710Y-111369249D01*
X151881572Y-111381011D01*
X151920768Y-111385094D01*
X151959678Y-111381020D01*
X151993357Y-111369275D01*
X152022932Y-111349925D01*
X152049093Y-111322177D01*
X152068917Y-111289922D01*
X152083819Y-111251141D01*
X152093389Y-111204588D01*
X152096818Y-111148765D01*
X152093396Y-111093268D01*
X152083837Y-111046903D01*
X152068936Y-111008202D01*
X152049093Y-110975939D01*
X152022932Y-110948191D01*
X151993357Y-110928841D01*
X151959678Y-110917096D01*
X151920768Y-110913022D01*
X151881572Y-110917106D01*
X151847710Y-110928867D01*
X151818039Y-110948221D01*
X151791857Y-110975939D01*
X151772035Y-111008199D01*
X151757150Y-111046899D01*
X151747600Y-111093265D01*
X151744180Y-111148765D01*
X151630656Y-111148765D01*
X151635956Y-111079585D01*
X151651164Y-111018822D01*
X151675724Y-110965065D01*
X151709742Y-110917223D01*
X151743411Y-110884275D01*
X151780722Y-110858935D01*
X151822180Y-110840670D01*
X151868541Y-110829398D01*
X151920768Y-110825485D01*
X151972756Y-110829392D01*
G37*
G36*
X152844543Y-110841117D02*
G01*
X152844543Y-111457000D01*
X152739812Y-111457000D01*
X152739812Y-111325108D01*
X152706189Y-111370293D01*
X152670565Y-111406452D01*
X152632834Y-111434627D01*
X152591307Y-111456250D01*
X152551210Y-111468613D01*
X152511836Y-111472631D01*
X152476702Y-111469379D01*
X152443912Y-111459756D01*
X152412869Y-111443615D01*
X152385610Y-111421931D01*
X152364969Y-111396696D01*
X152350293Y-111367460D01*
X152341855Y-111334376D01*
X152335334Y-111276716D01*
X152332659Y-111184229D01*
X152332659Y-110841117D01*
X152437439Y-110841117D01*
X152437439Y-111196685D01*
X152440135Y-111277155D01*
X152445792Y-111312408D01*
X152457694Y-111337788D01*
X152476421Y-111357983D01*
X152499862Y-111371397D01*
X152524390Y-111375715D01*
X152558219Y-111370834D01*
X152595792Y-111354997D01*
X152638549Y-111325401D01*
X152676523Y-111289417D01*
X152710245Y-111247319D01*
X152739812Y-111198493D01*
X152739812Y-110841117D01*
X152844543Y-110841117D01*
G37*
G36*
X153524125Y-111430719D02*
G01*
X153455913Y-111456854D01*
X153419003Y-111466867D01*
X153356427Y-111472631D01*
X153314127Y-111469795D01*
X153275071Y-111461505D01*
X153238751Y-111447914D01*
X153205667Y-111428519D01*
X153179014Y-111404267D01*
X153158053Y-111374787D01*
X153144191Y-111341163D01*
X153134516Y-111292936D01*
X153130796Y-111225653D01*
X153130796Y-110981801D01*
X152978340Y-110981801D01*
X152978340Y-110894264D01*
X153130796Y-110894264D01*
X153130796Y-110653538D01*
X153235576Y-110653538D01*
X153235576Y-110894264D01*
X153507174Y-110894264D01*
X153507174Y-110981801D01*
X153235576Y-110981801D01*
X153235576Y-111224090D01*
X153238048Y-111273325D01*
X153244273Y-111306242D01*
X153252820Y-111327209D01*
X153273206Y-111353299D01*
X153298933Y-111371075D01*
X153329573Y-111381402D01*
X153367370Y-111385094D01*
X153415190Y-111380265D01*
X153467068Y-111365000D01*
X153524125Y-111337614D01*
X153524125Y-111430719D01*
G37*
G36*
X154450440Y-110972959D02*
G01*
X154482943Y-110928596D01*
X154519419Y-110892474D01*
X154560105Y-110863782D01*
X154604947Y-110841538D01*
X154644769Y-110829308D01*
X154680615Y-110825485D01*
X154717464Y-110829485D01*
X154752425Y-110841473D01*
X154786247Y-110861985D01*
X154819442Y-110892261D01*
X154844781Y-110927015D01*
X154864001Y-110970862D01*
X154876527Y-111025834D01*
X154881089Y-111094445D01*
X154876327Y-111164588D01*
X154862551Y-111227755D01*
X154840203Y-111285004D01*
X154809249Y-111337977D01*
X154772963Y-111381848D01*
X154731173Y-111417628D01*
X154683603Y-111444119D01*
X154628037Y-111460583D01*
X154562596Y-111466378D01*
X154474913Y-111459930D01*
X154448779Y-111457000D01*
X154345660Y-111457000D01*
X154345660Y-111101187D01*
X154450440Y-111101187D01*
X154450440Y-111364773D01*
X154503562Y-111375489D01*
X154550531Y-111378842D01*
X154594643Y-111374265D01*
X154634445Y-111360849D01*
X154670959Y-111338420D01*
X154704843Y-111305960D01*
X154731207Y-111268106D01*
X154750737Y-111223177D01*
X154763146Y-111169814D01*
X154767565Y-111106316D01*
X154763088Y-111045686D01*
X154751202Y-111000942D01*
X154733518Y-110968416D01*
X154708346Y-110941642D01*
X154683019Y-110927082D01*
X154656532Y-110922401D01*
X154626720Y-110926985D01*
X154592655Y-110942102D01*
X154552778Y-110970859D01*
X154517507Y-111005391D01*
X154483384Y-111048438D01*
X154450440Y-111101187D01*
X154345660Y-111101187D01*
X154345660Y-110572254D01*
X154450440Y-110572254D01*
X154450440Y-110972959D01*
G37*
G36*
X155249163Y-111430817D02*
G01*
X154966379Y-110841117D01*
X155081906Y-110841117D01*
X155305388Y-111296337D01*
X155492478Y-110841117D01*
X155598039Y-110841117D01*
X155360538Y-111414452D01*
X155317808Y-111507444D01*
X155280079Y-111574558D01*
X155246877Y-111621038D01*
X155217656Y-111651466D01*
X155182283Y-111676580D01*
X155141891Y-111694843D01*
X155095556Y-111706235D01*
X155042094Y-111710230D01*
X154996660Y-111708018D01*
X154957488Y-111701780D01*
X154957488Y-111609212D01*
X155000876Y-111619482D01*
X155039407Y-111622694D01*
X155086257Y-111617848D01*
X155126113Y-111603985D01*
X155149496Y-111589208D01*
X155172580Y-111567503D01*
X155195527Y-111537502D01*
X155223670Y-111490676D01*
X155240126Y-111454899D01*
X155249163Y-111430817D01*
G37*
G36*
X156641845Y-110610375D02*
G01*
X156698569Y-110620508D01*
X156742971Y-110635747D01*
X156777342Y-110655248D01*
X156808117Y-110681567D01*
X156835344Y-110714196D01*
X156859108Y-110753959D01*
X156879240Y-110801940D01*
X156897473Y-110868184D01*
X156909112Y-110945019D01*
X156913238Y-111034020D01*
X156908941Y-111118096D01*
X156896701Y-111192029D01*
X156877286Y-111257111D01*
X156848883Y-111318269D01*
X156814900Y-111366996D01*
X156775437Y-111405122D01*
X156741775Y-111425972D01*
X156698001Y-111442215D01*
X156641727Y-111453016D01*
X156570126Y-111457000D01*
X156367453Y-111457000D01*
X156367453Y-111360084D01*
X156480977Y-111360084D01*
X156553176Y-111360084D01*
X156610884Y-111356949D01*
X156654848Y-111348572D01*
X156687811Y-111336190D01*
X156712080Y-111320565D01*
X156740039Y-111291635D01*
X156762663Y-111255436D01*
X156779882Y-111210656D01*
X156790376Y-111163058D01*
X156797590Y-111099355D01*
X156800300Y-111015946D01*
X156797084Y-110934440D01*
X156788602Y-110873587D01*
X156776365Y-110829247D01*
X156757356Y-110787755D01*
X156734550Y-110754800D01*
X156708026Y-110729107D01*
X156676246Y-110711302D01*
X156629300Y-110698956D01*
X156561919Y-110694180D01*
X156480977Y-110694180D01*
X156480977Y-111360084D01*
X156367453Y-111360084D01*
X156367453Y-110606644D01*
X156570126Y-110606644D01*
X156641845Y-110610375D01*
G37*
G36*
X157534885Y-111360084D02*
G01*
X157534885Y-111457000D01*
X157073804Y-111457000D01*
X157073804Y-110606644D01*
X157187328Y-110606644D01*
X157187328Y-111360084D01*
X157534885Y-111360084D01*
G37*
G36*
X158023936Y-110584286D02*
G01*
X158061689Y-110591973D01*
X158096106Y-110604445D01*
X158127677Y-110622332D01*
X158153529Y-110644704D01*
X158174313Y-110671856D01*
X158189665Y-110702554D01*
X158198821Y-110734855D01*
X158201912Y-110769309D01*
X158198733Y-110805003D01*
X158189212Y-110839407D01*
X158173800Y-110872463D01*
X158151550Y-110906378D01*
X158119548Y-110941386D01*
X158054194Y-110998507D01*
X158098598Y-111033824D01*
X158151082Y-111079986D01*
X158185906Y-111117234D01*
X158207188Y-111147153D01*
X158222656Y-111179954D01*
X158232024Y-111215418D01*
X158235227Y-111254180D01*
X158231004Y-111298895D01*
X158218583Y-111339947D01*
X158197851Y-111378184D01*
X158168060Y-111414208D01*
X158132687Y-111442417D01*
X158088720Y-111463502D01*
X158034290Y-111477094D01*
X157967000Y-111482010D01*
X157899056Y-111477357D01*
X157844332Y-111464541D01*
X157800395Y-111444788D01*
X157765304Y-111418605D01*
X157735761Y-111384742D01*
X157715041Y-111347742D01*
X157702497Y-111306916D01*
X157698186Y-111261263D01*
X157698302Y-111260091D01*
X157811710Y-111260091D01*
X157816874Y-111295637D01*
X157832186Y-111327056D01*
X157858751Y-111355590D01*
X157891878Y-111377107D01*
X157928690Y-111390034D01*
X157970273Y-111394473D01*
X158008313Y-111390310D01*
X158043178Y-111378003D01*
X158075737Y-111357202D01*
X158101986Y-111329747D01*
X158117124Y-111299246D01*
X158122240Y-111264438D01*
X158116683Y-111230158D01*
X158098812Y-111193626D01*
X158065381Y-111153406D01*
X157986197Y-111079449D01*
X157954397Y-111054536D01*
X157896108Y-111104448D01*
X157855922Y-111149069D01*
X157830224Y-111189222D01*
X157816142Y-111225865D01*
X157811710Y-111260091D01*
X157698302Y-111260091D01*
X157702400Y-111218513D01*
X157715209Y-111176151D01*
X157737338Y-111133460D01*
X157770094Y-111089861D01*
X157815298Y-111044944D01*
X157875213Y-110998458D01*
X157858409Y-110986148D01*
X157821360Y-110953833D01*
X157782010Y-110905206D01*
X157761155Y-110868092D01*
X157748802Y-110829045D01*
X157744641Y-110787286D01*
X157745375Y-110780105D01*
X157845562Y-110780105D01*
X157848408Y-110804337D01*
X157857051Y-110827900D01*
X157872087Y-110851326D01*
X157903833Y-110884388D01*
X157957523Y-110926797D01*
X157982289Y-110944676D01*
X158031751Y-110903663D01*
X158061584Y-110872198D01*
X158077349Y-110848200D01*
X158092099Y-110809380D01*
X158096595Y-110775709D01*
X158092845Y-110750337D01*
X158081385Y-110726142D01*
X158060984Y-110702338D01*
X158035504Y-110684200D01*
X158005327Y-110673080D01*
X157969149Y-110669170D01*
X157930434Y-110673573D01*
X157900443Y-110685762D01*
X157877118Y-110705269D01*
X157859011Y-110730652D01*
X157848849Y-110755375D01*
X157845562Y-110780105D01*
X157745375Y-110780105D01*
X157748841Y-110746223D01*
X157761186Y-110708845D01*
X157781867Y-110674256D01*
X157811808Y-110641863D01*
X157846983Y-110615910D01*
X157886531Y-110597219D01*
X157931275Y-110585661D01*
X157982289Y-110581633D01*
X158023936Y-110584286D01*
G37*
G36*
X158954669Y-111457000D02*
G01*
X158835088Y-111457000D01*
X158777153Y-111275674D01*
X158480984Y-111275674D01*
X158423636Y-111457000D01*
X158314362Y-111457000D01*
X158397254Y-111188137D01*
X158508193Y-111188137D01*
X158751508Y-111188137D01*
X158649952Y-110862512D01*
X158627530Y-110781473D01*
X158607649Y-110862757D01*
X158508193Y-111188137D01*
X158397254Y-111188137D01*
X158576532Y-110606644D01*
X158690887Y-110606644D01*
X158954669Y-111457000D01*
G37*
G36*
X159331014Y-110610112D02*
G01*
X159393970Y-110618545D01*
X159429868Y-110629456D01*
X159461492Y-110647443D01*
X159486659Y-110669816D01*
X159506169Y-110696867D01*
X159520080Y-110727494D01*
X159528589Y-110761196D01*
X159531522Y-110798618D01*
X159527767Y-110842724D01*
X159516672Y-110884006D01*
X159498317Y-110922449D01*
X159472659Y-110957572D01*
X159439242Y-110988307D01*
X159391033Y-111018828D01*
X159453759Y-111049695D01*
X159497211Y-111082675D01*
X159525562Y-111117600D01*
X159546050Y-111158346D01*
X159557792Y-111197727D01*
X159561612Y-111236399D01*
X159558288Y-111273432D01*
X159548235Y-111309946D01*
X159531033Y-111346455D01*
X159507919Y-111379312D01*
X159479569Y-111406482D01*
X159445451Y-111428423D01*
X159407322Y-111442787D01*
X159350760Y-111453015D01*
X159269840Y-111457000D01*
X159062233Y-111457000D01*
X159062233Y-111369463D01*
X159175758Y-111369463D01*
X159278584Y-111369463D01*
X159335048Y-111364200D01*
X159376540Y-111350112D01*
X159406714Y-111328625D01*
X159429850Y-111299313D01*
X159443459Y-111266959D01*
X159448088Y-111230440D01*
X159442405Y-111189917D01*
X159425374Y-111152819D01*
X159408125Y-111131468D01*
X159384998Y-111112701D01*
X159354934Y-111096497D01*
X159322115Y-111086003D01*
X159273680Y-111078507D01*
X159204822Y-111075590D01*
X159175758Y-111075590D01*
X159175758Y-111369463D01*
X159062233Y-111369463D01*
X159062233Y-110988053D01*
X159175758Y-110988053D01*
X159289770Y-110988053D01*
X159340671Y-110962531D01*
X159371201Y-110939058D01*
X159393835Y-110911561D01*
X159409645Y-110881563D01*
X159419123Y-110848740D01*
X159422394Y-110811856D01*
X159418090Y-110773787D01*
X159406303Y-110745019D01*
X159387614Y-110723294D01*
X159362207Y-110708995D01*
X159319317Y-110698454D01*
X159251277Y-110694180D01*
X159175758Y-110694180D01*
X159175758Y-110988053D01*
X159062233Y-110988053D01*
X159062233Y-110606644D01*
X159229393Y-110606644D01*
X159331014Y-110610112D01*
G37*
G36*
X160237335Y-111455485D02*
G01*
X160176122Y-111470700D01*
X160121009Y-111479290D01*
X160071298Y-111482010D01*
X160018526Y-111478595D01*
X159969703Y-111468610D01*
X159924234Y-111452251D01*
X159881619Y-111429449D01*
X159843214Y-111400650D01*
X159808774Y-111365162D01*
X159778104Y-111322277D01*
X159751243Y-111271033D01*
X159725509Y-111199061D01*
X159709605Y-111119726D01*
X159704104Y-111031822D01*
X159709475Y-110944989D01*
X159725014Y-110866468D01*
X159750168Y-110795101D01*
X159776458Y-110744331D01*
X159806872Y-110701406D01*
X159841397Y-110665456D01*
X159880252Y-110635855D01*
X159938223Y-110605677D01*
X159999339Y-110587702D01*
X160064704Y-110581633D01*
X160114626Y-110585195D01*
X160171600Y-110596631D01*
X160236797Y-110617293D01*
X160236797Y-110721096D01*
X160175229Y-110691485D01*
X160116742Y-110674619D01*
X160060356Y-110669170D01*
X160018529Y-110674032D01*
X159979165Y-110688601D01*
X159941312Y-110713622D01*
X159909071Y-110746130D01*
X159880018Y-110788989D01*
X159854362Y-110844194D01*
X159836301Y-110902475D01*
X159825230Y-110965081D01*
X159821438Y-111032652D01*
X159825470Y-111100696D01*
X159837318Y-111164566D01*
X159856795Y-111224867D01*
X159883964Y-111282122D01*
X159912281Y-111323060D01*
X159945402Y-111353939D01*
X159983804Y-111376005D01*
X160028535Y-111389672D01*
X160081117Y-111394473D01*
X160123811Y-111391542D01*
X160123811Y-111122484D01*
X160039107Y-111122484D01*
X160039107Y-111034948D01*
X160237335Y-111034948D01*
X160237335Y-111455485D01*
G37*
D12*
G36*
X150481127Y-83586383D02*
G01*
X150399619Y-83612390D01*
X150328405Y-83626781D01*
X150266010Y-83631263D01*
X150184696Y-83623795D01*
X150108511Y-83601670D01*
X150036117Y-83564523D01*
X149987580Y-83528012D01*
X149944318Y-83483386D01*
X149906064Y-83429826D01*
X149872841Y-83366198D01*
X149841050Y-83276707D01*
X149821391Y-83177984D01*
X149814589Y-83068527D01*
X149821303Y-82959987D01*
X149840727Y-82861835D01*
X149872169Y-82772627D01*
X149905031Y-82709164D01*
X149943049Y-82655508D01*
X149986206Y-82610571D01*
X150034774Y-82573569D01*
X150088788Y-82543835D01*
X150144956Y-82522777D01*
X150203817Y-82510086D01*
X150266010Y-82505792D01*
X150328414Y-82510244D01*
X150399631Y-82524539D01*
X150481127Y-82550366D01*
X150481127Y-82680120D01*
X150404167Y-82643107D01*
X150331058Y-82622023D01*
X150260576Y-82615212D01*
X150208292Y-82621291D01*
X150159087Y-82639502D01*
X150111771Y-82670778D01*
X150071446Y-82711403D01*
X150035029Y-82764978D01*
X150002778Y-82833993D01*
X149979963Y-82906849D01*
X149966020Y-82984650D01*
X149961256Y-83068161D01*
X149966182Y-83153055D01*
X149980582Y-83231876D01*
X150004121Y-83305443D01*
X150037266Y-83375186D01*
X150073809Y-83428434D01*
X150113481Y-83467986D01*
X150160059Y-83498248D01*
X150208704Y-83515927D01*
X150260576Y-83521842D01*
X150330614Y-83515028D01*
X150403710Y-83493875D01*
X150481127Y-83456629D01*
X150481127Y-83586383D01*
G37*
G36*
X151149925Y-82830390D02*
G01*
X151182593Y-82834054D01*
X151312164Y-82834054D01*
X151312164Y-83375907D01*
X151315914Y-83467028D01*
X151326173Y-83540819D01*
X151341656Y-83600000D01*
X151204819Y-83600000D01*
X151191817Y-83530435D01*
X151181005Y-83432327D01*
X151140393Y-83488834D01*
X151094735Y-83534717D01*
X151043741Y-83571057D01*
X150987452Y-83599241D01*
X150937584Y-83614711D01*
X150892799Y-83619539D01*
X150846714Y-83614555D01*
X150803056Y-83599632D01*
X150760887Y-83574119D01*
X150719569Y-83536496D01*
X150688043Y-83493246D01*
X150664133Y-83438693D01*
X150648551Y-83370315D01*
X150642877Y-83284987D01*
X150643887Y-83270088D01*
X150784782Y-83270088D01*
X150790311Y-83344889D01*
X150805026Y-83400390D01*
X150826975Y-83440997D01*
X150858242Y-83474377D01*
X150889800Y-83492546D01*
X150922902Y-83498394D01*
X150960198Y-83492704D01*
X151002881Y-83473936D01*
X151052900Y-83438250D01*
X151097184Y-83395309D01*
X151139736Y-83341856D01*
X151180517Y-83276439D01*
X151180517Y-82949214D01*
X151115303Y-82935935D01*
X151056747Y-82931751D01*
X151000526Y-82937508D01*
X150950215Y-82954314D01*
X150904478Y-82982289D01*
X150862452Y-83022609D01*
X150829775Y-83069752D01*
X150805591Y-83125542D01*
X150790243Y-83191634D01*
X150784782Y-83270088D01*
X150643887Y-83270088D01*
X150648789Y-83197746D01*
X150665886Y-83119191D01*
X150693619Y-83048011D01*
X150732117Y-82982136D01*
X150777369Y-82927557D01*
X150829601Y-82883025D01*
X150889085Y-82850048D01*
X150958565Y-82829547D01*
X151040382Y-82822330D01*
X151149925Y-82830390D01*
G37*
G36*
X151973474Y-82815607D02*
G01*
X152017174Y-82830591D01*
X152059452Y-82856231D01*
X152100946Y-82894077D01*
X152132620Y-82937519D01*
X152156644Y-82992328D01*
X152172302Y-83061042D01*
X152178005Y-83146807D01*
X152172052Y-83234485D01*
X152154832Y-83313444D01*
X152126897Y-83385005D01*
X152088205Y-83451221D01*
X152042847Y-83506060D01*
X151990609Y-83550785D01*
X151931109Y-83583901D01*
X151861629Y-83604480D01*
X151779828Y-83611723D01*
X151670285Y-83603663D01*
X151639693Y-83600183D01*
X151639693Y-83896999D01*
X151508718Y-83896999D01*
X151508718Y-83155233D01*
X151639693Y-83155233D01*
X151639693Y-83484717D01*
X151706096Y-83498112D01*
X151764807Y-83502302D01*
X151819947Y-83496581D01*
X151869700Y-83479811D01*
X151915342Y-83451775D01*
X151957698Y-83411200D01*
X151990653Y-83363882D01*
X152015065Y-83307722D01*
X152030576Y-83241017D01*
X152036099Y-83161645D01*
X152030503Y-83085858D01*
X152015646Y-83029927D01*
X151993540Y-82989270D01*
X151962076Y-82955803D01*
X151930417Y-82937603D01*
X151897308Y-82931751D01*
X151860043Y-82937482D01*
X151817462Y-82956378D01*
X151767616Y-82992323D01*
X151723527Y-83035489D01*
X151680874Y-83089297D01*
X151639693Y-83155233D01*
X151508718Y-83155233D01*
X151508718Y-82830146D01*
X151639693Y-82830146D01*
X151639693Y-82994949D01*
X151680322Y-82939495D01*
X151725917Y-82894343D01*
X151776775Y-82858478D01*
X151832827Y-82830672D01*
X151882605Y-82815385D01*
X151927411Y-82810607D01*
X151973474Y-82815607D01*
G37*
G36*
X152828362Y-82830390D02*
G01*
X152861030Y-82834054D01*
X152990601Y-82834054D01*
X152990601Y-83375907D01*
X152994351Y-83467028D01*
X153004610Y-83540819D01*
X153020093Y-83600000D01*
X152883256Y-83600000D01*
X152870253Y-83530435D01*
X152859442Y-83432327D01*
X152818829Y-83488834D01*
X152773172Y-83534717D01*
X152722178Y-83571057D01*
X152665889Y-83599241D01*
X152616021Y-83614711D01*
X152571236Y-83619539D01*
X152525151Y-83614555D01*
X152481493Y-83599632D01*
X152439324Y-83574119D01*
X152398006Y-83536496D01*
X152366480Y-83493246D01*
X152342570Y-83438693D01*
X152326988Y-83370315D01*
X152321314Y-83284987D01*
X152322323Y-83270088D01*
X152463219Y-83270088D01*
X152468748Y-83344889D01*
X152483462Y-83400390D01*
X152505412Y-83440997D01*
X152536679Y-83474377D01*
X152568237Y-83492546D01*
X152601338Y-83498394D01*
X152638634Y-83492704D01*
X152681317Y-83473936D01*
X152731337Y-83438250D01*
X152775621Y-83395309D01*
X152818173Y-83341856D01*
X152858954Y-83276439D01*
X152858954Y-82949214D01*
X152793740Y-82935935D01*
X152735184Y-82931751D01*
X152678963Y-82937508D01*
X152628652Y-82954314D01*
X152582915Y-82982289D01*
X152540888Y-83022609D01*
X152508211Y-83069752D01*
X152484028Y-83125542D01*
X152468679Y-83191634D01*
X152463219Y-83270088D01*
X152322323Y-83270088D01*
X152327225Y-83197746D01*
X152344323Y-83119191D01*
X152372055Y-83048011D01*
X152410554Y-82982136D01*
X152455805Y-82927557D01*
X152508038Y-82883025D01*
X152567522Y-82850048D01*
X152637002Y-82829547D01*
X152718819Y-82822330D01*
X152828362Y-82830390D01*
G37*
G36*
X153842764Y-83575819D02*
G01*
X153755633Y-83600661D01*
X153674164Y-83614936D01*
X153597605Y-83619539D01*
X153522228Y-83613399D01*
X153454374Y-83595568D01*
X153392685Y-83566355D01*
X153337193Y-83526570D01*
X153290866Y-83478776D01*
X153252978Y-83422252D01*
X153225513Y-83359875D01*
X153208700Y-83291356D01*
X153202909Y-83215439D01*
X153207705Y-83146324D01*
X153221620Y-83083722D01*
X153244274Y-83026625D01*
X153275741Y-82974213D01*
X153316543Y-82925889D01*
X153377008Y-82874965D01*
X153442065Y-82839371D01*
X153512815Y-82817933D01*
X153590827Y-82810607D01*
X153669166Y-82815312D01*
X153752877Y-82829933D01*
X153842764Y-82855425D01*
X153842764Y-82981882D01*
X153750545Y-82945807D01*
X153671150Y-82926106D01*
X153602429Y-82920027D01*
X153557191Y-82923831D01*
X153513998Y-82935162D01*
X153472247Y-82954221D01*
X153435343Y-82980698D01*
X153404031Y-83015845D01*
X153378031Y-83061017D01*
X153359458Y-83110236D01*
X153348469Y-83159821D01*
X153344814Y-83210249D01*
X153351751Y-83276649D01*
X153372732Y-83341359D01*
X153408866Y-83405582D01*
X153444500Y-83445357D01*
X153488564Y-83473957D01*
X153542810Y-83491948D01*
X153609939Y-83498394D01*
X153691577Y-83492655D01*
X153740073Y-83481527D01*
X153842764Y-83449118D01*
X153842764Y-83575819D01*
G37*
G36*
X154249795Y-83600000D02*
G01*
X154249795Y-82943475D01*
X154038036Y-82943475D01*
X154038036Y-82834054D01*
X154380770Y-82834054D01*
X154380770Y-83490579D01*
X154593200Y-83490579D01*
X154593200Y-83600000D01*
X154249795Y-83600000D01*
G37*
G36*
X154228606Y-82560868D02*
G01*
X154232206Y-82533384D01*
X154242240Y-82512270D01*
X154258648Y-82495961D01*
X154289029Y-82479438D01*
X154315252Y-82474528D01*
X154342114Y-82479476D01*
X154372588Y-82495961D01*
X154388996Y-82512270D01*
X154399030Y-82533384D01*
X154402629Y-82560868D01*
X154399052Y-82587863D01*
X154389039Y-82608779D01*
X154372588Y-82625104D01*
X154342118Y-82641540D01*
X154315252Y-82646475D01*
X154289025Y-82641578D01*
X154258648Y-82625104D01*
X154242197Y-82608779D01*
X154232183Y-82587863D01*
X154228606Y-82560868D01*
G37*
G36*
X155517110Y-83567149D02*
G01*
X155431845Y-83599817D01*
X155385707Y-83612334D01*
X155307488Y-83619539D01*
X155254613Y-83615994D01*
X155205792Y-83605631D01*
X155160393Y-83588642D01*
X155119038Y-83564399D01*
X155085721Y-83534084D01*
X155059521Y-83497234D01*
X155042192Y-83455204D01*
X155030099Y-83394920D01*
X155025449Y-83310816D01*
X155025449Y-83006001D01*
X154834878Y-83006001D01*
X154834878Y-82896580D01*
X155025449Y-82896580D01*
X155025449Y-82595673D01*
X155156424Y-82595673D01*
X155156424Y-82896580D01*
X155495922Y-82896580D01*
X155495922Y-83006001D01*
X155156424Y-83006001D01*
X155156424Y-83308862D01*
X155159514Y-83370406D01*
X155167295Y-83411552D01*
X155177978Y-83437761D01*
X155203461Y-83470374D01*
X155235620Y-83492594D01*
X155273921Y-83505502D01*
X155321166Y-83510118D01*
X155380941Y-83504081D01*
X155445789Y-83485001D01*
X155517110Y-83450767D01*
X155517110Y-83567149D01*
G37*
G36*
X155928231Y-83600000D02*
G01*
X155928231Y-82943475D01*
X155716473Y-82943475D01*
X155716473Y-82834054D01*
X156059207Y-82834054D01*
X156059207Y-83490579D01*
X156271637Y-83490579D01*
X156271637Y-83600000D01*
X155928231Y-83600000D01*
G37*
G36*
X155907043Y-82560868D02*
G01*
X155910643Y-82533384D01*
X155920677Y-82512270D01*
X155937085Y-82495961D01*
X155967465Y-82479438D01*
X155993688Y-82474528D01*
X156020551Y-82479476D01*
X156051024Y-82495961D01*
X156067433Y-82512270D01*
X156077467Y-82533384D01*
X156081066Y-82560868D01*
X156077489Y-82587863D01*
X156067476Y-82608779D01*
X156051024Y-82625104D01*
X156020555Y-82641540D01*
X155993688Y-82646475D01*
X155967462Y-82641578D01*
X155937085Y-82625104D01*
X155920634Y-82608779D01*
X155910620Y-82587863D01*
X155907043Y-82560868D01*
G37*
G36*
X156802254Y-83600000D02*
G01*
X156469229Y-82830146D01*
X156612844Y-82830146D01*
X156873207Y-83434036D01*
X157139065Y-82830146D01*
X157270346Y-82830146D01*
X156934634Y-83600000D01*
X156802254Y-83600000D01*
G37*
G36*
X157806355Y-82820907D02*
G01*
X157864091Y-82839277D01*
X157914714Y-82869288D01*
X157959416Y-82911784D01*
X157993060Y-82961914D01*
X158018952Y-83026243D01*
X158036016Y-83108049D01*
X158042275Y-83211287D01*
X158042275Y-83240474D01*
X157516298Y-83240474D01*
X157520022Y-83290396D01*
X157530987Y-83337063D01*
X157549149Y-83381097D01*
X157574111Y-83421524D01*
X157602859Y-83453422D01*
X157635550Y-83477878D01*
X157672425Y-83495612D01*
X157712824Y-83506408D01*
X157757549Y-83510118D01*
X157816528Y-83505580D01*
X157881122Y-83491265D01*
X157952371Y-83465817D01*
X158031345Y-83427503D01*
X158031345Y-83547121D01*
X157926847Y-83588602D01*
X157830612Y-83612053D01*
X157741124Y-83619539D01*
X157673451Y-83613676D01*
X157612028Y-83596562D01*
X157555621Y-83568309D01*
X157505472Y-83529921D01*
X157461977Y-83481556D01*
X157424829Y-83421946D01*
X157397557Y-83357050D01*
X157381237Y-83289474D01*
X157375737Y-83218370D01*
X157380898Y-83149891D01*
X157382549Y-83142777D01*
X157524236Y-83142777D01*
X157900370Y-83142777D01*
X157900370Y-83126290D01*
X157894818Y-83065908D01*
X157879413Y-83017552D01*
X157855124Y-82978707D01*
X157821719Y-82948364D01*
X157782102Y-82930245D01*
X157734285Y-82923935D01*
X157685642Y-82930143D01*
X157642037Y-82948481D01*
X157602028Y-82979806D01*
X157570129Y-83020197D01*
X157543952Y-83073525D01*
X157524236Y-83142777D01*
X157382549Y-83142777D01*
X157396350Y-83083308D01*
X157422387Y-83017908D01*
X157458225Y-82957722D01*
X157501579Y-82908181D01*
X157552874Y-82868126D01*
X157610728Y-82838408D01*
X157672621Y-82820575D01*
X157739719Y-82814515D01*
X157806355Y-82820907D01*
G37*
G36*
X159712530Y-83586383D02*
G01*
X159631022Y-83612390D01*
X159559808Y-83626781D01*
X159497413Y-83631263D01*
X159416098Y-83623795D01*
X159339914Y-83601670D01*
X159267520Y-83564523D01*
X159218983Y-83528012D01*
X159175721Y-83483386D01*
X159137466Y-83429826D01*
X159104243Y-83366198D01*
X159072453Y-83276707D01*
X159052794Y-83177984D01*
X159045991Y-83068527D01*
X159052706Y-82959987D01*
X159072129Y-82861835D01*
X159103572Y-82772627D01*
X159136434Y-82709164D01*
X159174451Y-82655508D01*
X159217608Y-82610571D01*
X159266176Y-82573569D01*
X159320190Y-82543835D01*
X159376359Y-82522777D01*
X159435219Y-82510086D01*
X159497413Y-82505792D01*
X159559816Y-82510244D01*
X159631033Y-82524539D01*
X159712530Y-82550366D01*
X159712530Y-82680120D01*
X159635570Y-82643107D01*
X159562461Y-82622023D01*
X159491979Y-82615212D01*
X159439694Y-82621291D01*
X159390490Y-82639502D01*
X159343174Y-82670778D01*
X159302849Y-82711403D01*
X159266431Y-82764978D01*
X159234180Y-82833993D01*
X159211365Y-82906849D01*
X159197422Y-82984650D01*
X159192659Y-83068161D01*
X159197585Y-83153055D01*
X159211985Y-83231876D01*
X159235524Y-83305443D01*
X159268668Y-83375186D01*
X159305212Y-83428434D01*
X159344883Y-83467986D01*
X159391461Y-83498248D01*
X159440106Y-83515927D01*
X159491979Y-83521842D01*
X159562016Y-83515028D01*
X159635113Y-83493875D01*
X159712530Y-83456629D01*
X159712530Y-83586383D01*
G37*
G36*
X159946942Y-83600000D02*
G01*
X159823477Y-82537055D01*
X159953170Y-82537055D01*
X160025771Y-83183382D01*
X160035175Y-83288895D01*
X160035053Y-83288895D01*
X160048486Y-83183077D01*
X160160166Y-82537055D01*
X160289126Y-82537055D01*
X160416499Y-83209028D01*
X160429261Y-83309839D01*
X160429139Y-83309839D01*
X160437199Y-83208539D01*
X160517371Y-82537055D01*
X160629173Y-82537055D01*
X160500274Y-83600000D01*
X160366490Y-83600000D01*
X160229531Y-82879727D01*
X160215426Y-82773421D01*
X160202664Y-82879727D01*
X160079383Y-83600000D01*
X159946942Y-83600000D01*
G37*
G36*
X161833474Y-83600000D02*
G01*
X161833474Y-82658199D01*
X161515836Y-82658199D01*
X161515836Y-82537055D01*
X162293688Y-82537055D01*
X162293688Y-82658199D01*
X161975379Y-82658199D01*
X161975379Y-83600000D01*
X161833474Y-83600000D01*
G37*
G36*
X162809301Y-82815490D02*
G01*
X162867040Y-82829566D01*
X162918725Y-82852385D01*
X162965293Y-82884065D01*
X163007366Y-82925279D01*
X163049917Y-82985085D01*
X163080636Y-83052282D01*
X163099656Y-83128235D01*
X163106284Y-83214706D01*
X163099660Y-83301203D01*
X163080646Y-83377244D01*
X163049927Y-83444578D01*
X163007366Y-83504562D01*
X162965276Y-83545899D01*
X162918700Y-83577663D01*
X162867015Y-83600538D01*
X162809285Y-83614645D01*
X162744316Y-83619539D01*
X162679049Y-83614638D01*
X162621107Y-83600515D01*
X162569284Y-83577630D01*
X162522637Y-83545869D01*
X162480534Y-83504562D01*
X162438002Y-83444581D01*
X162407301Y-83377249D01*
X162388297Y-83301206D01*
X162381677Y-83214706D01*
X162523582Y-83214706D01*
X162527865Y-83284489D01*
X162539816Y-83342682D01*
X162558425Y-83391156D01*
X162583177Y-83431472D01*
X162615905Y-83466119D01*
X162652994Y-83490311D01*
X162695322Y-83505013D01*
X162744316Y-83510118D01*
X162792953Y-83505026D01*
X162835052Y-83490344D01*
X162872021Y-83466156D01*
X162904723Y-83431472D01*
X162929502Y-83391152D01*
X162948130Y-83342677D01*
X162960092Y-83284485D01*
X162964379Y-83214706D01*
X162960101Y-83145335D01*
X162948153Y-83087379D01*
X162929527Y-83039002D01*
X162904723Y-82998674D01*
X162872021Y-82963989D01*
X162835052Y-82939801D01*
X162792953Y-82925120D01*
X162744316Y-82920027D01*
X162695322Y-82925132D01*
X162652994Y-82939834D01*
X162615905Y-82964026D01*
X162583177Y-82998674D01*
X162558401Y-83038999D01*
X162539794Y-83087374D01*
X162527856Y-83145331D01*
X162523582Y-83214706D01*
X162381677Y-83214706D01*
X162388302Y-83128232D01*
X162407311Y-83052277D01*
X162438011Y-82985081D01*
X162480534Y-82925279D01*
X162522620Y-82884094D01*
X162569259Y-82852418D01*
X162621082Y-82829588D01*
X162679033Y-82815497D01*
X162744316Y-82810607D01*
X162809301Y-82815490D01*
G37*
G36*
X163899036Y-82830146D02*
G01*
X163899036Y-83600000D01*
X163768121Y-83600000D01*
X163768121Y-83435136D01*
X163726093Y-83491617D01*
X163681562Y-83536815D01*
X163634398Y-83572034D01*
X163582490Y-83599063D01*
X163532369Y-83614517D01*
X163483151Y-83619539D01*
X163439234Y-83615474D01*
X163398246Y-83603445D01*
X163359442Y-83583269D01*
X163325369Y-83556164D01*
X163299568Y-83524620D01*
X163281223Y-83488075D01*
X163270675Y-83446720D01*
X163262524Y-83374645D01*
X163259180Y-83259036D01*
X163259180Y-82830146D01*
X163390156Y-82830146D01*
X163390156Y-83274607D01*
X163393525Y-83375194D01*
X163400597Y-83419260D01*
X163415474Y-83450985D01*
X163438882Y-83476229D01*
X163468184Y-83492996D01*
X163498844Y-83498394D01*
X163541130Y-83492293D01*
X163588097Y-83472497D01*
X163641543Y-83435502D01*
X163689010Y-83390522D01*
X163731163Y-83337899D01*
X163768121Y-83276866D01*
X163768121Y-82830146D01*
X163899036Y-82830146D01*
G37*
G36*
X164752603Y-83575819D02*
G01*
X164665473Y-83600661D01*
X164584004Y-83614936D01*
X164507445Y-83619539D01*
X164432067Y-83613399D01*
X164364213Y-83595568D01*
X164302525Y-83566355D01*
X164247032Y-83526570D01*
X164200705Y-83478776D01*
X164162818Y-83422252D01*
X164135352Y-83359875D01*
X164118540Y-83291356D01*
X164112748Y-83215439D01*
X164117544Y-83146324D01*
X164131459Y-83083722D01*
X164154113Y-83026625D01*
X164185580Y-82974213D01*
X164226382Y-82925889D01*
X164286847Y-82874965D01*
X164351904Y-82839371D01*
X164422655Y-82817933D01*
X164500667Y-82810607D01*
X164579005Y-82815312D01*
X164662717Y-82829933D01*
X164752603Y-82855425D01*
X164752603Y-82981882D01*
X164660385Y-82945807D01*
X164580989Y-82926106D01*
X164512268Y-82920027D01*
X164467030Y-82923831D01*
X164423837Y-82935162D01*
X164382087Y-82954221D01*
X164345183Y-82980698D01*
X164313871Y-83015845D01*
X164287870Y-83061017D01*
X164269297Y-83110236D01*
X164258309Y-83159821D01*
X164254653Y-83210249D01*
X164261590Y-83276649D01*
X164282571Y-83341359D01*
X164318706Y-83405582D01*
X164354340Y-83445357D01*
X164398403Y-83473957D01*
X164452650Y-83491948D01*
X164519779Y-83498394D01*
X164601417Y-83492655D01*
X164649913Y-83481527D01*
X164752603Y-83449118D01*
X164752603Y-83575819D01*
G37*
G36*
X164945799Y-83600000D02*
G01*
X164945799Y-82494068D01*
X165076775Y-82494068D01*
X165076775Y-82994033D01*
X165114306Y-82941922D01*
X165157171Y-82897769D01*
X165205674Y-82860921D01*
X165259137Y-82832250D01*
X165310617Y-82815908D01*
X165361073Y-82810607D01*
X165403754Y-82814387D01*
X165443373Y-82825533D01*
X165480630Y-82844129D01*
X165514106Y-82868950D01*
X165538879Y-82895944D01*
X165556162Y-82925340D01*
X165570584Y-82962839D01*
X165579549Y-83002765D01*
X165583731Y-83054363D01*
X165585716Y-83171109D01*
X165585716Y-83600000D01*
X165454740Y-83600000D01*
X165454740Y-83155539D01*
X165451351Y-83054952D01*
X165444238Y-83010886D01*
X165429396Y-82979167D01*
X165405953Y-82953916D01*
X165376601Y-82937183D01*
X165345320Y-82931751D01*
X165303133Y-82937882D01*
X165256196Y-82957798D01*
X165202682Y-82995071D01*
X165155206Y-83040228D01*
X165113284Y-83092725D01*
X165076775Y-83153279D01*
X165076775Y-83600000D01*
X164945799Y-83600000D01*
G37*
G36*
X166625580Y-83600000D02*
G01*
X166625580Y-82537055D01*
X166767485Y-82537055D01*
X166767485Y-83051919D01*
X167158762Y-82537055D01*
X167309826Y-82537055D01*
X166927830Y-83041416D01*
X167363193Y-83600000D01*
X167185384Y-83600000D01*
X166767485Y-83062482D01*
X166767485Y-83600000D01*
X166625580Y-83600000D01*
G37*
G36*
X167876976Y-82820907D02*
G01*
X167934713Y-82839277D01*
X167985335Y-82869288D01*
X168030037Y-82911784D01*
X168063681Y-82961914D01*
X168089573Y-83026243D01*
X168106637Y-83108049D01*
X168112896Y-83211287D01*
X168112896Y-83240474D01*
X167586919Y-83240474D01*
X167590643Y-83290396D01*
X167601608Y-83337063D01*
X167619770Y-83381097D01*
X167644732Y-83421524D01*
X167673480Y-83453422D01*
X167706171Y-83477878D01*
X167743046Y-83495612D01*
X167783445Y-83506408D01*
X167828170Y-83510118D01*
X167887150Y-83505580D01*
X167951743Y-83491265D01*
X168022992Y-83465817D01*
X168101967Y-83427503D01*
X168101967Y-83547121D01*
X167997468Y-83588602D01*
X167901233Y-83612053D01*
X167811745Y-83619539D01*
X167744073Y-83613676D01*
X167682649Y-83596562D01*
X167626243Y-83568309D01*
X167576093Y-83529921D01*
X167532599Y-83481556D01*
X167495450Y-83421946D01*
X167468178Y-83357050D01*
X167451858Y-83289474D01*
X167446358Y-83218370D01*
X167451519Y-83149891D01*
X167453170Y-83142777D01*
X167594857Y-83142777D01*
X167970991Y-83142777D01*
X167970991Y-83126290D01*
X167965440Y-83065908D01*
X167950034Y-83017552D01*
X167925745Y-82978707D01*
X167892340Y-82948364D01*
X167852723Y-82930245D01*
X167804906Y-82923935D01*
X167756263Y-82930143D01*
X167712658Y-82948481D01*
X167672649Y-82979806D01*
X167640751Y-83020197D01*
X167614573Y-83073525D01*
X167594857Y-83142777D01*
X167453170Y-83142777D01*
X167466971Y-83083308D01*
X167493008Y-83017908D01*
X167528846Y-82957722D01*
X167572200Y-82908181D01*
X167623495Y-82868126D01*
X167681350Y-82838408D01*
X167743242Y-82820575D01*
X167810341Y-82814515D01*
X167876976Y-82820907D01*
G37*
G36*
X168583247Y-83567515D02*
G01*
X168229767Y-82834054D01*
X168374175Y-82834054D01*
X168653528Y-83400209D01*
X168887390Y-82834054D01*
X169019343Y-82834054D01*
X168722465Y-83547060D01*
X168669054Y-83663233D01*
X168621894Y-83747074D01*
X168580391Y-83805136D01*
X168543863Y-83843143D01*
X168499651Y-83874508D01*
X168449163Y-83897318D01*
X168391242Y-83911547D01*
X168324411Y-83916538D01*
X168267618Y-83913773D01*
X168218654Y-83905975D01*
X168218654Y-83790265D01*
X168272888Y-83803103D01*
X168321052Y-83807117D01*
X168379614Y-83801060D01*
X168429435Y-83783731D01*
X168458663Y-83765261D01*
X168487519Y-83738129D01*
X168516202Y-83700628D01*
X168551381Y-83642095D01*
X168571951Y-83597374D01*
X168583247Y-83567515D01*
G37*
D17*
%TO.P,C1,1*%
%TO.N,GND*%
X159152500Y-90340000D03*
%TO.P,C1,2*%
%TO.N,+3.3V*%
X159152500Y-88265000D03*
%TD*%
D18*
%TO.P,C2,1*%
%TO.N,Net-(U1-SNSK)*%
X153267500Y-92710000D03*
%TO.P,C2,2*%
%TO.N,Net-(U1-SNS)*%
X155342500Y-92710000D03*
%TD*%
D17*
%TO.P,C3,1*%
%TO.N,GND*%
X159152500Y-101135000D03*
%TO.P,C3,2*%
%TO.N,+3.3V*%
X159152500Y-99060000D03*
%TD*%
D18*
%TO.P,C4,1*%
%TO.N,Net-(U2-SNSK)*%
X153267500Y-103505000D03*
%TO.P,C4,2*%
%TO.N,Net-(U2-SNS)*%
X155342500Y-103505000D03*
%TD*%
D19*
%TO.P,U1,1,OUT*%
%TO.N,Net-(Q1-G)*%
X152955000Y-87950000D03*
%TO.P,U1,2,VSS*%
%TO.N,GND*%
X152955000Y-88900000D03*
%TO.P,U1,3,SNSK*%
%TO.N,Net-(U1-SNSK)*%
X152955000Y-89850000D03*
%TO.P,U1,4,SNS*%
%TO.N,Net-(U1-SNS)*%
X155655000Y-89850000D03*
%TO.P,U1,5,VDD*%
%TO.N,+3.3V*%
X155655000Y-88900000D03*
%TO.P,U1,6,SYNC*%
X155655000Y-87950000D03*
%TD*%
%TO.P,U2,1,OUT*%
%TO.N,Net-(Q2-G)*%
X152955000Y-98745000D03*
%TO.P,U2,2,VSS*%
%TO.N,GND*%
X152955000Y-99695000D03*
%TO.P,U2,3,SNSK*%
%TO.N,Net-(U2-SNSK)*%
X152955000Y-100645000D03*
%TO.P,U2,4,SNS*%
%TO.N,Net-(U2-SNS)*%
X155655000Y-100645000D03*
%TO.P,U2,5,VDD*%
%TO.N,+3.3V*%
X155655000Y-99695000D03*
%TO.P,U2,6,SYNC*%
X155655000Y-98745000D03*
%TD*%
D20*
%TO.P,Q1,1,G*%
%TO.N,Net-(Q1-G)*%
X164870000Y-88585000D03*
%TO.P,Q1,2,S*%
%TO.N,GND*%
X164870000Y-90485000D03*
%TO.P,Q1,3,D*%
%TO.N,Net-(J1-Pin_1)*%
X167870000Y-89535000D03*
%TD*%
D21*
%TO.P,R1,1*%
%TO.N,Net-(J4-Pin_1)*%
X146955000Y-91440000D03*
%TO.P,R1,2*%
%TO.N,Net-(U1-SNSK)*%
X148955000Y-91440000D03*
%TD*%
%TO.P,R2,1*%
%TO.N,Net-(J5-Pin_1)*%
X146955000Y-101600000D03*
%TO.P,R2,2*%
%TO.N,Net-(U2-SNSK)*%
X148955000Y-101600000D03*
%TD*%
D22*
%TO.P,J4,1,Pin_1*%
%TO.N,Net-(J4-Pin_1)*%
X142875000Y-91440000D03*
%TD*%
%TO.P,J2,1,Pin_1*%
%TO.N,GND*%
X172085000Y-94615000D03*
%TD*%
%TO.P,J3,1,Pin_1*%
%TO.N,Net-(J3-Pin_1)*%
X172085000Y-99060000D03*
%TD*%
D20*
%TO.P,Q2,1,G*%
%TO.N,Net-(Q2-G)*%
X164870000Y-99380000D03*
%TO.P,Q2,2,S*%
%TO.N,GND*%
X164870000Y-101280000D03*
%TO.P,Q2,3,D*%
%TO.N,Net-(J3-Pin_1)*%
X167870000Y-100330000D03*
%TD*%
D22*
%TO.P,J7,1,Pin_1*%
%TO.N,GND*%
X142875000Y-103505000D03*
%TD*%
%TO.P,J6,1,Pin_1*%
%TO.N,+3.3V*%
X172085000Y-103505000D03*
%TD*%
%TO.P,J1,1,Pin_1*%
%TO.N,Net-(J1-Pin_1)*%
X172085000Y-90170000D03*
%TD*%
%TO.P,J5,1,Pin_1*%
%TO.N,Net-(J5-Pin_1)*%
X144780000Y-97790000D03*
%TD*%
D23*
%TO.N,GND*%
X162560000Y-101600000D03*
X168910000Y-94615000D03*
X162560000Y-91440000D03*
X151130000Y-97155000D03*
X147955000Y-105410000D03*
X151130000Y-86360000D03*
%TD*%
D24*
%TO.N,+3.3V*%
X163830000Y-93345000D02*
X165100000Y-94615000D01*
X158920000Y-99060000D02*
X159152500Y-99292500D01*
X173990000Y-96520000D02*
X174625000Y-97155000D01*
X158115000Y-93345000D02*
X163830000Y-93345000D01*
X174625000Y-97155000D02*
X174625000Y-101600000D01*
X157480000Y-88900000D02*
X157480000Y-92710000D01*
X159385000Y-104140000D02*
X157480000Y-102235000D01*
X157480000Y-99060000D02*
X157480000Y-99695000D01*
X157165000Y-98745000D02*
X157480000Y-99060000D01*
X157480000Y-102235000D02*
X157480000Y-99695000D01*
X157480000Y-88265000D02*
X157480000Y-88900000D01*
X155655000Y-88900000D02*
X157480000Y-88900000D01*
X165100000Y-94615000D02*
X165100000Y-95885000D01*
X155655000Y-98745000D02*
X157165000Y-98745000D01*
X165100000Y-95885000D02*
X165735000Y-96520000D01*
X173990000Y-102235000D02*
X172085000Y-102235000D01*
X155655000Y-99695000D02*
X157480000Y-99695000D01*
X157480000Y-99060000D02*
X158920000Y-99060000D01*
X172085000Y-102235000D02*
X172085000Y-102870000D01*
X168275000Y-104140000D02*
X159385000Y-104140000D01*
X170180000Y-102235000D02*
X168275000Y-104140000D01*
X172085000Y-102235000D02*
X170180000Y-102235000D01*
X174625000Y-101600000D02*
X173990000Y-102235000D01*
X157480000Y-92710000D02*
X158115000Y-93345000D01*
X155655000Y-87950000D02*
X157165000Y-87950000D01*
X165735000Y-96520000D02*
X173990000Y-96520000D01*
X157480000Y-88265000D02*
X159152500Y-88265000D01*
X172085000Y-104140000D02*
X172085000Y-102870000D01*
X157165000Y-87950000D02*
X157480000Y-88265000D01*
D25*
%TO.N,Net-(U1-SNS)*%
X155655000Y-92397500D02*
X155342500Y-92710000D01*
X155655000Y-89850000D02*
X155655000Y-92397500D01*
X155575000Y-89930000D02*
X155655000Y-89850000D01*
%TO.N,Net-(U1-SNSK)*%
X152955000Y-89850000D02*
X152955000Y-92397500D01*
X152320000Y-89850000D02*
X149545000Y-89850000D01*
X153035000Y-89930000D02*
X152955000Y-89850000D01*
X152955000Y-92397500D02*
X153267500Y-92710000D01*
X149545000Y-89850000D02*
X148955000Y-90440000D01*
X148955000Y-90440000D02*
X148955000Y-91440000D01*
%TO.N,Net-(U2-SNS)*%
X155655000Y-100645000D02*
X155655000Y-103192500D01*
X155655000Y-103192500D02*
X155342500Y-103505000D01*
%TO.N,Net-(U2-SNSK)*%
X152955000Y-100645000D02*
X151450000Y-100645000D01*
X152955000Y-100645000D02*
X152955000Y-103192500D01*
X150495000Y-101600000D02*
X148955000Y-101600000D01*
X152955000Y-103192500D02*
X153267500Y-103505000D01*
X151450000Y-100645000D02*
X150495000Y-101600000D01*
%TO.N,Net-(J1-Pin_1)*%
X169545000Y-90170000D02*
X172085000Y-90170000D01*
X167307500Y-89535000D02*
X168910000Y-89535000D01*
X168910000Y-89535000D02*
X169545000Y-90170000D01*
%TO.N,Net-(J3-Pin_1)*%
X169545000Y-99695000D02*
X172085000Y-99695000D01*
X167307500Y-100330000D02*
X168910000Y-100330000D01*
X168910000Y-100330000D02*
X169545000Y-99695000D01*
%TO.N,Net-(J4-Pin_1)*%
X142875000Y-91440000D02*
X146955000Y-91440000D01*
%TO.N,Net-(J5-Pin_1)*%
X145415000Y-101600000D02*
X144780000Y-100965000D01*
X146955000Y-101600000D02*
X145415000Y-101600000D01*
X144780000Y-100965000D02*
X144780000Y-97790000D01*
%TO.N,Net-(Q1-G)*%
X165432500Y-88585000D02*
X162245000Y-88585000D01*
X152955000Y-87710000D02*
X152955000Y-87950000D01*
X154305000Y-86360000D02*
X152955000Y-87710000D01*
X161925000Y-86995000D02*
X161290000Y-86360000D01*
X162245000Y-88585000D02*
X161925000Y-88265000D01*
X161290000Y-86360000D02*
X154305000Y-86360000D01*
X161925000Y-88265000D02*
X161925000Y-86995000D01*
%TO.N,Net-(Q2-G)*%
X154305000Y-97155000D02*
X152955000Y-98505000D01*
X161925000Y-99060000D02*
X161925000Y-97790000D01*
X152955000Y-98505000D02*
X152955000Y-98745000D01*
X161925000Y-97790000D02*
X161290000Y-97155000D01*
X165432500Y-99380000D02*
X162245000Y-99380000D01*
X162245000Y-99380000D02*
X161925000Y-99060000D01*
X161290000Y-97155000D02*
X154305000Y-97155000D01*
%TD*%
%TA.AperFunction,Conductor*%
%TO.N,GND*%
G36*
X143511336Y-96429072D02*
G01*
X143557091Y-96481876D01*
X143567035Y-96551034D01*
X143543564Y-96607695D01*
X143512949Y-96648592D01*
X143479111Y-96693795D01*
X143428011Y-96830795D01*
X143428011Y-96830797D01*
X143421500Y-96891345D01*
X143421500Y-98688654D01*
X143428011Y-98749202D01*
X143428011Y-98749204D01*
X143472599Y-98868746D01*
X143479111Y-98886204D01*
X143566739Y-99003261D01*
X143683796Y-99090889D01*
X143820799Y-99141989D01*
X143848050Y-99144918D01*
X143881345Y-99148499D01*
X143881362Y-99148500D01*
X144022500Y-99148500D01*
X144089539Y-99168185D01*
X144135294Y-99220989D01*
X144146500Y-99272500D01*
X144146500Y-101027398D01*
X144170843Y-101149777D01*
X144170845Y-101149785D01*
X144218598Y-101265072D01*
X144218603Y-101265081D01*
X144287928Y-101368832D01*
X144287931Y-101368836D01*
X145011163Y-102092069D01*
X145011167Y-102092072D01*
X145114921Y-102161399D01*
X145114923Y-102161399D01*
X145114925Y-102161401D01*
X145196447Y-102195168D01*
X145230215Y-102209155D01*
X145230217Y-102209155D01*
X145230222Y-102209157D01*
X145352601Y-102233499D01*
X145352605Y-102233500D01*
X145352606Y-102233500D01*
X145352607Y-102233500D01*
X145477394Y-102233500D01*
X145777205Y-102233500D01*
X145844244Y-102253185D01*
X145889999Y-102305989D01*
X145894911Y-102318497D01*
X145912882Y-102372733D01*
X145912884Y-102372737D01*
X145912885Y-102372738D01*
X146005970Y-102523652D01*
X146131348Y-102649030D01*
X146282262Y-102742115D01*
X146450574Y-102797887D01*
X146554455Y-102808500D01*
X147355544Y-102808499D01*
X147459426Y-102797887D01*
X147627738Y-102742115D01*
X147778652Y-102649030D01*
X147867319Y-102560363D01*
X147928642Y-102526878D01*
X147998334Y-102531862D01*
X148042681Y-102560363D01*
X148131348Y-102649030D01*
X148282262Y-102742115D01*
X148450574Y-102797887D01*
X148554455Y-102808500D01*
X149355544Y-102808499D01*
X149459426Y-102797887D01*
X149627738Y-102742115D01*
X149778652Y-102649030D01*
X149904030Y-102523652D01*
X149997115Y-102372738D01*
X149997117Y-102372733D01*
X150015089Y-102318497D01*
X150054861Y-102261052D01*
X150119376Y-102234228D01*
X150132795Y-102233500D01*
X150557395Y-102233500D01*
X150557396Y-102233499D01*
X150679785Y-102209155D01*
X150795075Y-102161400D01*
X150898833Y-102092071D01*
X151676085Y-101314819D01*
X151703012Y-101300115D01*
X151728831Y-101283523D01*
X151735031Y-101282631D01*
X151737408Y-101281334D01*
X151763766Y-101278500D01*
X151808200Y-101278500D01*
X151875239Y-101298185D01*
X151895881Y-101314819D01*
X151920638Y-101339576D01*
X151920640Y-101339577D01*
X151920642Y-101339579D01*
X152060090Y-101423879D01*
X152215661Y-101472356D01*
X152215668Y-101472356D01*
X152221687Y-101473554D01*
X152283599Y-101505937D01*
X152318175Y-101566651D01*
X152321500Y-101595172D01*
X152321500Y-102536534D01*
X152303039Y-102601631D01*
X152237882Y-102707266D01*
X152182113Y-102875570D01*
X152182113Y-102875571D01*
X152171500Y-102979447D01*
X152171500Y-104030537D01*
X152171501Y-104030553D01*
X152182113Y-104134426D01*
X152237885Y-104302738D01*
X152330970Y-104453652D01*
X152456348Y-104579030D01*
X152607262Y-104672115D01*
X152775574Y-104727887D01*
X152879455Y-104738500D01*
X153655544Y-104738499D01*
X153759426Y-104727887D01*
X153927738Y-104672115D01*
X154078652Y-104579030D01*
X154204030Y-104453652D01*
X154204032Y-104453647D01*
X154207732Y-104448970D01*
X154264753Y-104408591D01*
X154334552Y-104405451D01*
X154394968Y-104440545D01*
X154402268Y-104448970D01*
X154405969Y-104453651D01*
X154405970Y-104453652D01*
X154531348Y-104579030D01*
X154682262Y-104672115D01*
X154850574Y-104727887D01*
X154954455Y-104738500D01*
X155730544Y-104738499D01*
X155834426Y-104727887D01*
X156002738Y-104672115D01*
X156153652Y-104579030D01*
X156279030Y-104453652D01*
X156372115Y-104302738D01*
X156427887Y-104134426D01*
X156438500Y-104030545D01*
X156438499Y-102979456D01*
X156427887Y-102875574D01*
X156405849Y-102809067D01*
X156372117Y-102707266D01*
X156369227Y-102702581D01*
X156306960Y-102601630D01*
X156288500Y-102536534D01*
X156288500Y-101595173D01*
X156295315Y-101571963D01*
X156297861Y-101547909D01*
X156304981Y-101539042D01*
X156308185Y-101528134D01*
X156326463Y-101512295D01*
X156341612Y-101493434D01*
X156354622Y-101487895D01*
X156360989Y-101482379D01*
X156373147Y-101477583D01*
X156386688Y-101473051D01*
X156394339Y-101472356D01*
X156549910Y-101423879D01*
X156570115Y-101411664D01*
X156583147Y-101407303D01*
X156604878Y-101406490D01*
X156625902Y-101400940D01*
X156639100Y-101405212D01*
X156652968Y-101404694D01*
X156671689Y-101415760D01*
X156692376Y-101422456D01*
X156701170Y-101433186D01*
X156713115Y-101440247D01*
X156722881Y-101459677D01*
X156736665Y-101476496D01*
X156740282Y-101494298D01*
X156744493Y-101502675D01*
X156743634Y-101510790D01*
X156746500Y-101524893D01*
X156746500Y-102307247D01*
X156774686Y-102448946D01*
X156774688Y-102448954D01*
X156805176Y-102522558D01*
X156805176Y-102522559D01*
X156829978Y-102582438D01*
X156829981Y-102582443D01*
X156849249Y-102611280D01*
X156910254Y-102702581D01*
X157016740Y-102809067D01*
X157016762Y-102809087D01*
X158812127Y-104604452D01*
X158812156Y-104604483D01*
X158917415Y-104709742D01*
X158917422Y-104709748D01*
X159037556Y-104790018D01*
X159037557Y-104790018D01*
X159037558Y-104790019D01*
X159171046Y-104845312D01*
X159312751Y-104873499D01*
X159312754Y-104873500D01*
X159312756Y-104873500D01*
X168347244Y-104873500D01*
X168370755Y-104868823D01*
X168488954Y-104845312D01*
X168584129Y-104805889D01*
X168622443Y-104790019D01*
X168670562Y-104757866D01*
X168742579Y-104709747D01*
X168844747Y-104607579D01*
X168844748Y-104607577D01*
X168851808Y-104600517D01*
X168851813Y-104600510D01*
X170447506Y-103004819D01*
X170474433Y-102990115D01*
X170500252Y-102973523D01*
X170506452Y-102972631D01*
X170508829Y-102971334D01*
X170535187Y-102968500D01*
X170602500Y-102968500D01*
X170669539Y-102988185D01*
X170715294Y-103040989D01*
X170726500Y-103092500D01*
X170726500Y-104403654D01*
X170733011Y-104464202D01*
X170733011Y-104464204D01*
X170775840Y-104579028D01*
X170784111Y-104601204D01*
X170871739Y-104718261D01*
X170988796Y-104805889D01*
X171094492Y-104845312D01*
X171120463Y-104854999D01*
X171125799Y-104856989D01*
X171153050Y-104859918D01*
X171186345Y-104863499D01*
X171186362Y-104863500D01*
X171950272Y-104863500D01*
X171974462Y-104865882D01*
X172012755Y-104873499D01*
X172012756Y-104873500D01*
X172012757Y-104873500D01*
X172157244Y-104873500D01*
X172157244Y-104873499D01*
X172195537Y-104865882D01*
X172219728Y-104863500D01*
X172983638Y-104863500D01*
X172983654Y-104863499D01*
X173010692Y-104860591D01*
X173044201Y-104856989D01*
X173049537Y-104854999D01*
X173075508Y-104845312D01*
X173181204Y-104805889D01*
X173298261Y-104718261D01*
X173385889Y-104601204D01*
X173436989Y-104464201D01*
X173442968Y-104408591D01*
X173443499Y-104403654D01*
X173443500Y-104403637D01*
X173443500Y-103092500D01*
X173463185Y-103025461D01*
X173515989Y-102979706D01*
X173567500Y-102968500D01*
X173901071Y-102968500D01*
X173968110Y-102988185D01*
X174013865Y-103040989D01*
X174025071Y-103092500D01*
X174025071Y-104846828D01*
X176494929Y-104846828D01*
X176494929Y-102376971D01*
X175184718Y-102376971D01*
X175117679Y-102357286D01*
X175071924Y-102304482D01*
X175061980Y-102235324D01*
X175091005Y-102171768D01*
X175097037Y-102165290D01*
X175194742Y-102067584D01*
X175194747Y-102067579D01*
X175275019Y-101947442D01*
X175330312Y-101813954D01*
X175330358Y-101813721D01*
X175330490Y-101813062D01*
X175330710Y-101812640D01*
X175332082Y-101808120D01*
X175332939Y-101808380D01*
X175362879Y-101751153D01*
X175423597Y-101716583D01*
X175452106Y-101713261D01*
X176800500Y-101713261D01*
X176867539Y-101732946D01*
X176913294Y-101785750D01*
X176924500Y-101837261D01*
X176924500Y-111800500D01*
X176904815Y-111867539D01*
X176852011Y-111913294D01*
X176800500Y-111924500D01*
X167719399Y-111924500D01*
X167652360Y-111904815D01*
X167606605Y-111852011D01*
X167595399Y-111800500D01*
X167595399Y-110071267D01*
X166265525Y-110071267D01*
X166198486Y-110051582D01*
X166152731Y-109998778D01*
X166141525Y-109947267D01*
X166141525Y-108885258D01*
X172249500Y-108885258D01*
X172249500Y-109114741D01*
X172274446Y-109304215D01*
X172279452Y-109342238D01*
X172279453Y-109342240D01*
X172338842Y-109563887D01*
X172426650Y-109775876D01*
X172426657Y-109775890D01*
X172541392Y-109974617D01*
X172681081Y-110156661D01*
X172681089Y-110156670D01*
X172843330Y-110318911D01*
X172843338Y-110318918D01*
X173025382Y-110458607D01*
X173025385Y-110458608D01*
X173025388Y-110458611D01*
X173224112Y-110573344D01*
X173224117Y-110573346D01*
X173224123Y-110573349D01*
X173315480Y-110611190D01*
X173436113Y-110661158D01*
X173657762Y-110720548D01*
X173885266Y-110750500D01*
X173885273Y-110750500D01*
X174114727Y-110750500D01*
X174114734Y-110750500D01*
X174342238Y-110720548D01*
X174563887Y-110661158D01*
X174775888Y-110573344D01*
X174974612Y-110458611D01*
X175156661Y-110318919D01*
X175156665Y-110318914D01*
X175156670Y-110318911D01*
X175318911Y-110156670D01*
X175318914Y-110156665D01*
X175318919Y-110156661D01*
X175458611Y-109974612D01*
X175573344Y-109775888D01*
X175661158Y-109563887D01*
X175720548Y-109342238D01*
X175750500Y-109114734D01*
X175750500Y-108885266D01*
X175720548Y-108657762D01*
X175661158Y-108436113D01*
X175573344Y-108224112D01*
X175458611Y-108025388D01*
X175458608Y-108025385D01*
X175458607Y-108025382D01*
X175318918Y-107843338D01*
X175318911Y-107843330D01*
X175156670Y-107681089D01*
X175156661Y-107681081D01*
X174974617Y-107541392D01*
X174775890Y-107426657D01*
X174775876Y-107426650D01*
X174563887Y-107338842D01*
X174342238Y-107279452D01*
X174304215Y-107274446D01*
X174114741Y-107249500D01*
X174114734Y-107249500D01*
X173885266Y-107249500D01*
X173885258Y-107249500D01*
X173668715Y-107278009D01*
X173657762Y-107279452D01*
X173564076Y-107304554D01*
X173436112Y-107338842D01*
X173224123Y-107426650D01*
X173224109Y-107426657D01*
X173025382Y-107541392D01*
X172843338Y-107681081D01*
X172681081Y-107843338D01*
X172541392Y-108025382D01*
X172426657Y-108224109D01*
X172426650Y-108224123D01*
X172338842Y-108436112D01*
X172279453Y-108657759D01*
X172279451Y-108657770D01*
X172249500Y-108885258D01*
X166141525Y-108885258D01*
X166141525Y-107996111D01*
X152683241Y-107996111D01*
X152683241Y-109934754D01*
X152663556Y-110001793D01*
X152610752Y-110047548D01*
X152559241Y-110058754D01*
X149175181Y-110058754D01*
X149175181Y-111800500D01*
X149155496Y-111867539D01*
X149102692Y-111913294D01*
X149051181Y-111924500D01*
X140199500Y-111924500D01*
X140132461Y-111904815D01*
X140086706Y-111852011D01*
X140075500Y-111800500D01*
X140075500Y-108885258D01*
X141249500Y-108885258D01*
X141249500Y-109114741D01*
X141274446Y-109304215D01*
X141279452Y-109342238D01*
X141279453Y-109342240D01*
X141338842Y-109563887D01*
X141426650Y-109775876D01*
X141426657Y-109775890D01*
X141541392Y-109974617D01*
X141681081Y-110156661D01*
X141681089Y-110156670D01*
X141843330Y-110318911D01*
X141843338Y-110318918D01*
X142025382Y-110458607D01*
X142025385Y-110458608D01*
X142025388Y-110458611D01*
X142224112Y-110573344D01*
X142224117Y-110573346D01*
X142224123Y-110573349D01*
X142315480Y-110611190D01*
X142436113Y-110661158D01*
X142657762Y-110720548D01*
X142885266Y-110750500D01*
X142885273Y-110750500D01*
X143114727Y-110750500D01*
X143114734Y-110750500D01*
X143342238Y-110720548D01*
X143563887Y-110661158D01*
X143775888Y-110573344D01*
X143974612Y-110458611D01*
X144156661Y-110318919D01*
X144156665Y-110318914D01*
X144156670Y-110318911D01*
X144318911Y-110156670D01*
X144318914Y-110156665D01*
X144318919Y-110156661D01*
X144458611Y-109974612D01*
X144573344Y-109775888D01*
X144661158Y-109563887D01*
X144720548Y-109342238D01*
X144750500Y-109114734D01*
X144750500Y-108885266D01*
X144720548Y-108657762D01*
X144661158Y-108436113D01*
X144573344Y-108224112D01*
X144458611Y-108025388D01*
X144458608Y-108025385D01*
X144458607Y-108025382D01*
X144318918Y-107843338D01*
X144318911Y-107843330D01*
X144156670Y-107681089D01*
X144156661Y-107681081D01*
X143974617Y-107541392D01*
X143775890Y-107426657D01*
X143775876Y-107426650D01*
X143563887Y-107338842D01*
X143342238Y-107279452D01*
X143304215Y-107274446D01*
X143114741Y-107249500D01*
X143114734Y-107249500D01*
X142885266Y-107249500D01*
X142885258Y-107249500D01*
X142668715Y-107278009D01*
X142657762Y-107279452D01*
X142564076Y-107304554D01*
X142436112Y-107338842D01*
X142224123Y-107426650D01*
X142224109Y-107426657D01*
X142025382Y-107541392D01*
X141843338Y-107681081D01*
X141681081Y-107843338D01*
X141541392Y-108025382D01*
X141426657Y-108224109D01*
X141426650Y-108224123D01*
X141338842Y-108436112D01*
X141279453Y-108657759D01*
X141279451Y-108657770D01*
X141249500Y-108885258D01*
X140075500Y-108885258D01*
X140075500Y-102607155D01*
X141525000Y-102607155D01*
X141525000Y-103255000D01*
X142441988Y-103255000D01*
X142409075Y-103312007D01*
X142375000Y-103439174D01*
X142375000Y-103570826D01*
X142409075Y-103697993D01*
X142441988Y-103755000D01*
X141525000Y-103755000D01*
X141525000Y-104402844D01*
X141531401Y-104462372D01*
X141531403Y-104462379D01*
X141581645Y-104597086D01*
X141581649Y-104597093D01*
X141667809Y-104712187D01*
X141667812Y-104712190D01*
X141782906Y-104798350D01*
X141782913Y-104798354D01*
X141917620Y-104848596D01*
X141917627Y-104848598D01*
X141977155Y-104854999D01*
X141977172Y-104855000D01*
X142625000Y-104855000D01*
X142625000Y-103938012D01*
X142682007Y-103970925D01*
X142809174Y-104005000D01*
X142940826Y-104005000D01*
X143067993Y-103970925D01*
X143125000Y-103938012D01*
X143125000Y-104855000D01*
X143772828Y-104855000D01*
X143772844Y-104854999D01*
X143832372Y-104848598D01*
X143832379Y-104848596D01*
X143967086Y-104798354D01*
X143967089Y-104798352D01*
X143981759Y-104787371D01*
X144047223Y-104762953D01*
X144115496Y-104777804D01*
X144164902Y-104827209D01*
X144180071Y-104886637D01*
X144180071Y-104910400D01*
X146649929Y-104910400D01*
X146649929Y-103583400D01*
X144180071Y-103583400D01*
X144180071Y-103631000D01*
X144160386Y-103698039D01*
X144107582Y-103743794D01*
X144056071Y-103755000D01*
X143308012Y-103755000D01*
X143340925Y-103697993D01*
X143375000Y-103570826D01*
X143375000Y-103439174D01*
X143340925Y-103312007D01*
X143308012Y-103255000D01*
X144225000Y-103255000D01*
X144225000Y-102607172D01*
X144224999Y-102607155D01*
X144218598Y-102547627D01*
X144218596Y-102547620D01*
X144168354Y-102412913D01*
X144168350Y-102412906D01*
X144082190Y-102297812D01*
X144082187Y-102297809D01*
X143967093Y-102211649D01*
X143967086Y-102211645D01*
X143832379Y-102161403D01*
X143832372Y-102161401D01*
X143772844Y-102155000D01*
X143125000Y-102155000D01*
X143125000Y-103071988D01*
X143067993Y-103039075D01*
X142940826Y-103005000D01*
X142809174Y-103005000D01*
X142682007Y-103039075D01*
X142625000Y-103071988D01*
X142625000Y-102155000D01*
X141977155Y-102155000D01*
X141917627Y-102161401D01*
X141917620Y-102161403D01*
X141782913Y-102211645D01*
X141782906Y-102211649D01*
X141667812Y-102297809D01*
X141667809Y-102297812D01*
X141581649Y-102412906D01*
X141581645Y-102412913D01*
X141531403Y-102547620D01*
X141531401Y-102547627D01*
X141525000Y-102607155D01*
X140075500Y-102607155D01*
X140075500Y-99199500D01*
X140095185Y-99132461D01*
X140147989Y-99086706D01*
X140199500Y-99075500D01*
X142094092Y-99075500D01*
X142094094Y-99075500D01*
X142279423Y-99042821D01*
X142456262Y-98978457D01*
X142619238Y-98884363D01*
X142763398Y-98763398D01*
X142884363Y-98619238D01*
X142978457Y-98456262D01*
X143042821Y-98279423D01*
X143075500Y-98094094D01*
X143075500Y-98000000D01*
X143075500Y-97975469D01*
X143075500Y-96533387D01*
X143095185Y-96466348D01*
X143147989Y-96420593D01*
X143199500Y-96409387D01*
X143444297Y-96409387D01*
X143511336Y-96429072D01*
G37*
%TD.AperFunction*%
%TA.AperFunction,Conductor*%
G36*
X149244138Y-82095185D02*
G01*
X149289893Y-82147989D01*
X149301099Y-82199500D01*
X149301099Y-84430032D01*
X169532843Y-84430032D01*
X169532843Y-82199500D01*
X169552528Y-82132461D01*
X169605332Y-82086706D01*
X169656843Y-82075500D01*
X176800500Y-82075500D01*
X176867539Y-82095185D01*
X176913294Y-82147989D01*
X176924500Y-82199500D01*
X176924500Y-88550402D01*
X176904815Y-88617441D01*
X176852011Y-88663196D01*
X176800500Y-88674402D01*
X174733719Y-88674402D01*
X174733719Y-91759689D01*
X176800500Y-91759689D01*
X176809185Y-91762239D01*
X176818147Y-91760951D01*
X176842187Y-91771929D01*
X176867539Y-91779374D01*
X176873466Y-91786214D01*
X176881703Y-91789976D01*
X176895992Y-91812210D01*
X176913294Y-91832178D01*
X176915581Y-91842692D01*
X176919477Y-91848754D01*
X176924500Y-91883689D01*
X176924500Y-91907381D01*
X176904815Y-91974420D01*
X176852011Y-92020175D01*
X176800500Y-92031381D01*
X174732049Y-92031381D01*
X174732049Y-95928617D01*
X176800500Y-95928617D01*
X176867539Y-95948302D01*
X176913294Y-96001106D01*
X176924500Y-96052617D01*
X176924500Y-97551593D01*
X176904815Y-97618632D01*
X176852011Y-97664387D01*
X176800500Y-97675593D01*
X175482500Y-97675593D01*
X175415461Y-97655908D01*
X175369706Y-97603104D01*
X175358500Y-97551593D01*
X175358500Y-97233378D01*
X175358501Y-97233357D01*
X175358501Y-97082754D01*
X175330313Y-96941051D01*
X175330312Y-96941047D01*
X175275018Y-96807556D01*
X175275018Y-96807555D01*
X175194748Y-96687422D01*
X175194742Y-96687415D01*
X174647625Y-96140300D01*
X174559748Y-96052423D01*
X174559747Y-96052421D01*
X174520367Y-96013041D01*
X174520367Y-96013040D01*
X174457581Y-95950254D01*
X174425198Y-95928617D01*
X174385562Y-95902133D01*
X174337443Y-95869981D01*
X174298344Y-95853786D01*
X174203954Y-95814688D01*
X174203952Y-95814687D01*
X174203948Y-95814686D01*
X174085753Y-95791175D01*
X174085753Y-95791174D01*
X174062249Y-95786500D01*
X174062244Y-95786500D01*
X174062243Y-95786500D01*
X173527328Y-95786500D01*
X173460289Y-95766815D01*
X173414534Y-95714011D01*
X173404590Y-95644853D01*
X173411146Y-95619166D01*
X173428597Y-95572376D01*
X173428598Y-95572372D01*
X173434999Y-95512844D01*
X173435000Y-95512827D01*
X173435000Y-94865000D01*
X172518012Y-94865000D01*
X172550925Y-94807993D01*
X172585000Y-94680826D01*
X172585000Y-94549174D01*
X172550925Y-94422007D01*
X172518012Y-94365000D01*
X173435000Y-94365000D01*
X173435000Y-93717172D01*
X173434999Y-93717155D01*
X173428598Y-93657627D01*
X173428596Y-93657620D01*
X173378354Y-93522913D01*
X173378350Y-93522906D01*
X173292190Y-93407812D01*
X173292187Y-93407809D01*
X173177093Y-93321649D01*
X173177086Y-93321645D01*
X173042379Y-93271403D01*
X173042372Y-93271401D01*
X172982844Y-93265000D01*
X172335000Y-93265000D01*
X172335000Y-94181988D01*
X172277993Y-94149075D01*
X172150826Y-94115000D01*
X172019174Y-94115000D01*
X171892007Y-94149075D01*
X171835000Y-94181988D01*
X171835000Y-93265000D01*
X171187155Y-93265000D01*
X171127627Y-93271401D01*
X171127620Y-93271403D01*
X170992913Y-93321645D01*
X170992906Y-93321649D01*
X170877812Y-93407809D01*
X170877809Y-93407812D01*
X170791649Y-93522906D01*
X170791645Y-93522913D01*
X170741403Y-93657620D01*
X170741401Y-93657627D01*
X170735000Y-93717155D01*
X170735000Y-94365000D01*
X171651988Y-94365000D01*
X171619075Y-94422007D01*
X171585000Y-94549174D01*
X171585000Y-94680826D01*
X171619075Y-94807993D01*
X171651988Y-94865000D01*
X170735000Y-94865000D01*
X170735000Y-95512844D01*
X170741401Y-95572372D01*
X170741402Y-95572376D01*
X170758854Y-95619166D01*
X170763838Y-95688858D01*
X170730353Y-95750181D01*
X170669030Y-95783666D01*
X170642672Y-95786500D01*
X166090188Y-95786500D01*
X166060747Y-95777855D01*
X166030761Y-95771332D01*
X166025745Y-95767577D01*
X166023149Y-95766815D01*
X166002507Y-95750181D01*
X165869819Y-95617493D01*
X165836334Y-95556170D01*
X165833500Y-95529812D01*
X165833500Y-94542756D01*
X165833499Y-94542752D01*
X165805313Y-94401053D01*
X165805312Y-94401046D01*
X165750019Y-94267558D01*
X165750019Y-94267557D01*
X165717866Y-94219437D01*
X165714835Y-94214901D01*
X165669745Y-94147418D01*
X165564483Y-94042156D01*
X165564452Y-94042127D01*
X164404087Y-92881762D01*
X164404067Y-92881740D01*
X164297581Y-92775254D01*
X164246149Y-92740889D01*
X164225562Y-92727133D01*
X164177443Y-92694981D01*
X164138344Y-92678786D01*
X164076722Y-92653261D01*
X164043952Y-92639687D01*
X164043948Y-92639686D01*
X163925753Y-92616175D01*
X163925753Y-92616174D01*
X163902249Y-92611500D01*
X163902244Y-92611500D01*
X163902243Y-92611500D01*
X158470188Y-92611500D01*
X158440747Y-92602855D01*
X158410761Y-92596332D01*
X158405745Y-92592577D01*
X158403149Y-92591815D01*
X158382507Y-92575181D01*
X158249819Y-92442493D01*
X158216334Y-92381170D01*
X158213500Y-92354812D01*
X158213500Y-91485569D01*
X158233185Y-91418530D01*
X158285989Y-91372775D01*
X158355147Y-91362831D01*
X158376505Y-91367863D01*
X158524805Y-91417005D01*
X158524809Y-91417006D01*
X158627519Y-91427499D01*
X158902499Y-91427499D01*
X159402500Y-91427499D01*
X159677472Y-91427499D01*
X159677486Y-91427498D01*
X159780197Y-91417005D01*
X159946619Y-91361858D01*
X159946624Y-91361856D01*
X160095845Y-91269815D01*
X160219815Y-91145845D01*
X160311856Y-90996624D01*
X160311858Y-90996619D01*
X160367005Y-90830197D01*
X160367006Y-90830190D01*
X160376059Y-90741582D01*
X163420001Y-90741582D01*
X163426408Y-90812102D01*
X163426409Y-90812107D01*
X163476981Y-90974396D01*
X163564927Y-91119877D01*
X163685122Y-91240072D01*
X163830604Y-91328019D01*
X163830603Y-91328019D01*
X163992894Y-91378590D01*
X163992893Y-91378590D01*
X164063427Y-91384999D01*
X164619999Y-91384999D01*
X165120000Y-91384999D01*
X165676581Y-91384999D01*
X165747102Y-91378591D01*
X165747107Y-91378590D01*
X165909396Y-91328018D01*
X166054877Y-91240072D01*
X166175072Y-91119877D01*
X166263019Y-90974395D01*
X166313590Y-90812106D01*
X166320000Y-90741572D01*
X166320000Y-90735000D01*
X165120000Y-90735000D01*
X165120000Y-91384999D01*
X164619999Y-91384999D01*
X164620000Y-91384998D01*
X164620000Y-90735000D01*
X163420001Y-90735000D01*
X163420001Y-90741582D01*
X160376059Y-90741582D01*
X160377499Y-90727486D01*
X160377500Y-90727473D01*
X160377500Y-90590000D01*
X159402500Y-90590000D01*
X159402500Y-91427499D01*
X158902499Y-91427499D01*
X158902500Y-91427498D01*
X158902500Y-90464000D01*
X158922185Y-90396961D01*
X158974989Y-90351206D01*
X159026500Y-90340000D01*
X159152500Y-90340000D01*
X159152500Y-90214000D01*
X159172185Y-90146961D01*
X159224989Y-90101206D01*
X159276500Y-90090000D01*
X160377499Y-90090000D01*
X160377499Y-89952528D01*
X160377498Y-89952513D01*
X160367005Y-89849802D01*
X160311858Y-89683380D01*
X160311856Y-89683375D01*
X160219815Y-89534154D01*
X160095844Y-89410183D01*
X160090177Y-89405702D01*
X160091904Y-89403516D01*
X160053740Y-89361089D01*
X160042515Y-89292127D01*
X160070355Y-89228043D01*
X160095606Y-89206164D01*
X160095485Y-89206011D01*
X160098901Y-89203309D01*
X160100469Y-89201951D01*
X160101152Y-89201530D01*
X160226530Y-89076152D01*
X160319615Y-88925238D01*
X160375387Y-88756926D01*
X160386000Y-88653045D01*
X160385999Y-87876956D01*
X160375387Y-87773074D01*
X160319615Y-87604762D01*
X160226530Y-87453848D01*
X160101152Y-87328470D01*
X159950238Y-87235385D01*
X159949695Y-87235205D01*
X159949375Y-87234983D01*
X159943695Y-87232335D01*
X159944147Y-87231364D01*
X159892252Y-87195435D01*
X159865428Y-87130919D01*
X159877742Y-87062143D01*
X159925284Y-87010943D01*
X159988700Y-86993500D01*
X160976234Y-86993500D01*
X161043273Y-87013185D01*
X161063915Y-87029819D01*
X161255181Y-87221085D01*
X161288666Y-87282408D01*
X161291500Y-87308766D01*
X161291500Y-88327398D01*
X161315843Y-88449777D01*
X161315845Y-88449785D01*
X161363598Y-88565072D01*
X161363603Y-88565081D01*
X161432928Y-88668832D01*
X161432931Y-88668836D01*
X161841163Y-89077068D01*
X161841167Y-89077071D01*
X161944918Y-89146396D01*
X161944924Y-89146399D01*
X161944925Y-89146400D01*
X162060215Y-89194155D01*
X162151678Y-89212348D01*
X162182601Y-89218499D01*
X162182605Y-89218500D01*
X162182606Y-89218500D01*
X162307393Y-89218500D01*
X163500167Y-89218500D01*
X163567206Y-89238185D01*
X163587843Y-89254814D01*
X163679845Y-89346816D01*
X163823817Y-89433850D01*
X163871003Y-89485377D01*
X163882842Y-89554236D01*
X163855573Y-89618565D01*
X163823817Y-89646082D01*
X163685125Y-89729925D01*
X163685121Y-89729928D01*
X163564927Y-89850122D01*
X163476980Y-89995604D01*
X163426409Y-90157893D01*
X163420000Y-90228427D01*
X163420000Y-90235000D01*
X166319999Y-90235000D01*
X166319999Y-90225957D01*
X166339684Y-90158918D01*
X166392488Y-90113163D01*
X166461646Y-90103219D01*
X166525202Y-90132244D01*
X166550113Y-90161805D01*
X166558184Y-90175155D01*
X166558186Y-90175158D01*
X166679841Y-90296813D01*
X166679843Y-90296814D01*
X166679845Y-90296816D01*
X166827087Y-90385827D01*
X166991351Y-90437013D01*
X167062735Y-90443500D01*
X168677264Y-90443499D01*
X168677271Y-90443499D01*
X168748641Y-90437014D01*
X168748643Y-90437013D01*
X168748649Y-90437013D01*
X168804756Y-90419528D01*
X168874615Y-90418377D01*
X168929327Y-90450233D01*
X169141163Y-90662069D01*
X169141167Y-90662072D01*
X169244921Y-90731399D01*
X169244923Y-90731399D01*
X169244925Y-90731401D01*
X169326447Y-90765168D01*
X169360215Y-90779155D01*
X169360217Y-90779155D01*
X169360222Y-90779157D01*
X169482601Y-90803499D01*
X169482605Y-90803500D01*
X169482606Y-90803500D01*
X169482607Y-90803500D01*
X169607394Y-90803500D01*
X170602500Y-90803500D01*
X170669539Y-90823185D01*
X170715294Y-90875989D01*
X170726500Y-90927500D01*
X170726500Y-91068654D01*
X170733011Y-91129202D01*
X170733011Y-91129204D01*
X170774364Y-91240072D01*
X170784111Y-91266204D01*
X170871739Y-91383261D01*
X170988796Y-91470889D01*
X171125799Y-91521989D01*
X171153050Y-91524918D01*
X171186345Y-91528499D01*
X171186362Y-91528500D01*
X172983638Y-91528500D01*
X172983654Y-91528499D01*
X173010692Y-91525591D01*
X173044201Y-91521989D01*
X173181204Y-91470889D01*
X173298261Y-91383261D01*
X173385889Y-91266204D01*
X173436989Y-91129201D01*
X173440591Y-91095692D01*
X173443499Y-91068654D01*
X173443500Y-91068637D01*
X173443500Y-89271362D01*
X173443499Y-89271345D01*
X173438843Y-89228043D01*
X173436989Y-89210799D01*
X173435752Y-89207483D01*
X173401902Y-89116728D01*
X173385889Y-89073796D01*
X173298261Y-88956739D01*
X173181204Y-88869111D01*
X173178617Y-88868146D01*
X173044203Y-88818011D01*
X172983654Y-88811500D01*
X172983638Y-88811500D01*
X171186362Y-88811500D01*
X171186345Y-88811500D01*
X171125797Y-88818011D01*
X171125795Y-88818011D01*
X170988795Y-88869111D01*
X170871739Y-88956739D01*
X170784111Y-89073795D01*
X170733011Y-89210795D01*
X170733011Y-89210797D01*
X170726500Y-89271345D01*
X170726500Y-89412500D01*
X170706815Y-89479539D01*
X170654011Y-89525294D01*
X170602500Y-89536500D01*
X169858767Y-89536500D01*
X169791728Y-89516815D01*
X169771086Y-89500181D01*
X169313836Y-89042931D01*
X169313832Y-89042928D01*
X169265485Y-89010623D01*
X169228259Y-88971671D01*
X169181818Y-88894848D01*
X169181817Y-88894847D01*
X169181816Y-88894845D01*
X169060155Y-88773184D01*
X168912913Y-88684173D01*
X168748649Y-88632987D01*
X168748647Y-88632986D01*
X168748645Y-88632986D01*
X168698667Y-88628444D01*
X168677265Y-88626500D01*
X168677262Y-88626500D01*
X167062727Y-88626500D01*
X166991355Y-88632985D01*
X166991344Y-88632988D01*
X166827090Y-88684171D01*
X166679841Y-88773186D01*
X166558187Y-88894840D01*
X166553562Y-88900745D01*
X166552395Y-88899831D01*
X166507068Y-88941326D01*
X166438206Y-88953153D01*
X166373883Y-88925872D01*
X166334519Y-88868146D01*
X166328499Y-88829985D01*
X166328499Y-88327736D01*
X166328499Y-88327727D01*
X166322014Y-88256354D01*
X166322011Y-88256344D01*
X166270828Y-88092090D01*
X166270827Y-88092089D01*
X166270827Y-88092087D01*
X166181816Y-87944845D01*
X166181814Y-87944843D01*
X166181813Y-87944841D01*
X166060158Y-87823186D01*
X165912913Y-87734173D01*
X165910018Y-87733271D01*
X165748649Y-87682987D01*
X165748647Y-87682986D01*
X165748645Y-87682986D01*
X165698667Y-87678444D01*
X165677265Y-87676500D01*
X165677262Y-87676500D01*
X164062727Y-87676500D01*
X163991355Y-87682985D01*
X163991344Y-87682988D01*
X163827090Y-87734171D01*
X163679843Y-87823185D01*
X163633846Y-87869183D01*
X163587846Y-87915182D01*
X163526526Y-87948666D01*
X163500167Y-87951500D01*
X162682500Y-87951500D01*
X162615461Y-87931815D01*
X162569706Y-87879011D01*
X162558500Y-87827500D01*
X162558500Y-86932605D01*
X162558499Y-86932601D01*
X162534156Y-86810222D01*
X162534155Y-86810215D01*
X162509420Y-86750500D01*
X162486401Y-86694925D01*
X162463838Y-86661157D01*
X162417072Y-86591166D01*
X162417069Y-86591163D01*
X161693836Y-85867931D01*
X161693832Y-85867928D01*
X161590081Y-85798603D01*
X161590072Y-85798598D01*
X161474785Y-85750845D01*
X161474777Y-85750843D01*
X161352398Y-85726500D01*
X161352394Y-85726500D01*
X154367393Y-85726500D01*
X154242606Y-85726500D01*
X154242601Y-85726500D01*
X154120222Y-85750843D01*
X154120214Y-85750845D01*
X154004927Y-85798598D01*
X154004918Y-85798603D01*
X153901167Y-85867928D01*
X153901163Y-85867931D01*
X152688913Y-87080181D01*
X152627590Y-87113666D01*
X152601232Y-87116500D01*
X152283263Y-87116500D01*
X152215665Y-87122642D01*
X152060089Y-87171121D01*
X151920638Y-87255423D01*
X151805423Y-87370638D01*
X151721121Y-87510089D01*
X151672643Y-87665663D01*
X151666500Y-87733273D01*
X151666500Y-88166736D01*
X151672642Y-88234334D01*
X151672644Y-88234339D01*
X151721121Y-88389910D01*
X151721122Y-88389911D01*
X151723353Y-88397071D01*
X151721420Y-88397673D01*
X151729564Y-88456649D01*
X151725313Y-88475207D01*
X151681065Y-88617205D01*
X151681064Y-88617207D01*
X151678085Y-88649999D01*
X151678085Y-88650000D01*
X151895041Y-88650000D01*
X151959191Y-88667883D01*
X151969975Y-88674402D01*
X152060090Y-88728879D01*
X152215661Y-88777356D01*
X152215673Y-88777357D01*
X152220816Y-88778380D01*
X152282729Y-88810763D01*
X152317306Y-88871477D01*
X152313570Y-88941246D01*
X152272706Y-88997920D01*
X152220828Y-89021615D01*
X152215671Y-89022640D01*
X152060089Y-89071121D01*
X151959191Y-89132117D01*
X151895041Y-89150000D01*
X151678085Y-89150000D01*
X151654231Y-89176120D01*
X151594487Y-89212348D01*
X151562669Y-89216500D01*
X149482601Y-89216500D01*
X149360222Y-89240843D01*
X149360214Y-89240845D01*
X149244927Y-89288598D01*
X149244918Y-89288603D01*
X149141167Y-89357928D01*
X149141163Y-89357931D01*
X148649294Y-89849802D01*
X148551167Y-89947929D01*
X148507047Y-89992049D01*
X148462927Y-90036168D01*
X148393603Y-90139918D01*
X148393600Y-90139925D01*
X148357182Y-90227844D01*
X148313340Y-90282247D01*
X148288681Y-90294570D01*
X148288805Y-90294835D01*
X148282259Y-90297886D01*
X148131346Y-90390971D01*
X148042681Y-90479637D01*
X147981358Y-90513122D01*
X147911666Y-90508138D01*
X147867319Y-90479637D01*
X147778653Y-90390971D01*
X147778652Y-90390970D01*
X147627738Y-90297885D01*
X147568754Y-90278340D01*
X147459427Y-90242113D01*
X147355546Y-90231500D01*
X146554462Y-90231500D01*
X146554446Y-90231501D01*
X146450572Y-90242113D01*
X146282264Y-90297884D01*
X146282259Y-90297886D01*
X146131346Y-90390971D01*
X146005971Y-90516346D01*
X145912882Y-90667266D01*
X145894911Y-90721503D01*
X145855139Y-90778948D01*
X145790624Y-90805772D01*
X145777205Y-90806500D01*
X144357500Y-90806500D01*
X144290461Y-90786815D01*
X144244706Y-90734011D01*
X144233500Y-90682500D01*
X144233500Y-90541362D01*
X144233499Y-90541345D01*
X144229928Y-90508138D01*
X144226989Y-90480799D01*
X144220723Y-90464000D01*
X144195719Y-90396961D01*
X144175889Y-90343796D01*
X144111435Y-90257696D01*
X144087019Y-90192234D01*
X144101870Y-90123961D01*
X144151275Y-90074555D01*
X144210703Y-90059387D01*
X144602786Y-90059387D01*
X144602786Y-87630097D01*
X141318643Y-87630097D01*
X141318643Y-90059387D01*
X141539297Y-90059387D01*
X141606336Y-90079072D01*
X141652091Y-90131876D01*
X141662035Y-90201034D01*
X141638564Y-90257695D01*
X141614450Y-90289910D01*
X141574111Y-90343795D01*
X141523011Y-90480795D01*
X141523011Y-90480797D01*
X141516500Y-90541345D01*
X141516500Y-92338654D01*
X141523011Y-92399202D01*
X141523011Y-92399204D01*
X141574111Y-92536204D01*
X141661739Y-92653261D01*
X141778796Y-92740889D01*
X141915799Y-92791989D01*
X141943050Y-92794918D01*
X141976345Y-92798499D01*
X141976362Y-92798500D01*
X143773638Y-92798500D01*
X143773654Y-92798499D01*
X143800692Y-92795591D01*
X143834201Y-92791989D01*
X143971204Y-92740889D01*
X144088261Y-92653261D01*
X144175889Y-92536204D01*
X144226989Y-92399201D01*
X144231761Y-92354812D01*
X144233499Y-92338654D01*
X144233500Y-92338637D01*
X144233500Y-92197500D01*
X144253185Y-92130461D01*
X144305989Y-92084706D01*
X144357500Y-92073500D01*
X145777205Y-92073500D01*
X145844244Y-92093185D01*
X145889999Y-92145989D01*
X145894911Y-92158497D01*
X145912882Y-92212733D01*
X145912884Y-92212737D01*
X145912885Y-92212738D01*
X146005970Y-92363652D01*
X146131348Y-92489030D01*
X146282262Y-92582115D01*
X146450574Y-92637887D01*
X146554455Y-92648500D01*
X147355544Y-92648499D01*
X147459426Y-92637887D01*
X147627738Y-92582115D01*
X147778652Y-92489030D01*
X147867319Y-92400363D01*
X147928642Y-92366878D01*
X147998334Y-92371862D01*
X148042681Y-92400363D01*
X148131348Y-92489030D01*
X148282262Y-92582115D01*
X148450574Y-92637887D01*
X148554455Y-92648500D01*
X149355544Y-92648499D01*
X149459426Y-92637887D01*
X149627738Y-92582115D01*
X149778652Y-92489030D01*
X149904030Y-92363652D01*
X149997115Y-92212738D01*
X150052887Y-92044426D01*
X150063500Y-91940545D01*
X150063499Y-90939456D01*
X150052887Y-90835574D01*
X149997115Y-90667262D01*
X149997111Y-90667255D01*
X149994061Y-90660714D01*
X149996806Y-90659433D01*
X149981965Y-90605221D01*
X150002878Y-90538555D01*
X150056514Y-90493778D01*
X150105944Y-90483500D01*
X151808200Y-90483500D01*
X151875239Y-90503185D01*
X151895881Y-90519819D01*
X151920638Y-90544576D01*
X151920640Y-90544577D01*
X151920642Y-90544579D01*
X152060090Y-90628879D01*
X152215661Y-90677356D01*
X152215668Y-90677356D01*
X152221687Y-90678554D01*
X152283599Y-90710937D01*
X152318175Y-90771651D01*
X152321500Y-90800172D01*
X152321500Y-91741534D01*
X152303039Y-91806631D01*
X152237882Y-91912266D01*
X152182113Y-92080570D01*
X152182113Y-92080571D01*
X152171500Y-92184447D01*
X152171500Y-93235537D01*
X152171501Y-93235553D01*
X152180297Y-93321649D01*
X152182113Y-93339426D01*
X152237885Y-93507738D01*
X152330970Y-93658652D01*
X152456348Y-93784030D01*
X152607262Y-93877115D01*
X152775574Y-93932887D01*
X152879455Y-93943500D01*
X153655544Y-93943499D01*
X153759426Y-93932887D01*
X153927738Y-93877115D01*
X154078652Y-93784030D01*
X154204030Y-93658652D01*
X154204032Y-93658647D01*
X154207732Y-93653970D01*
X154264753Y-93613591D01*
X154334552Y-93610451D01*
X154394968Y-93645545D01*
X154402268Y-93653970D01*
X154405969Y-93658651D01*
X154405970Y-93658652D01*
X154531348Y-93784030D01*
X154682262Y-93877115D01*
X154850574Y-93932887D01*
X154954455Y-93943500D01*
X155730544Y-93943499D01*
X155834426Y-93932887D01*
X156002738Y-93877115D01*
X156153652Y-93784030D01*
X156279030Y-93658652D01*
X156372115Y-93507738D01*
X156427887Y-93339426D01*
X156438500Y-93235545D01*
X156438499Y-92184456D01*
X156427887Y-92080574D01*
X156415909Y-92044426D01*
X156372117Y-91912266D01*
X156322718Y-91832178D01*
X156306960Y-91806630D01*
X156288500Y-91741534D01*
X156288500Y-90800173D01*
X156295315Y-90776963D01*
X156297861Y-90752909D01*
X156304981Y-90744042D01*
X156308185Y-90733134D01*
X156326463Y-90717295D01*
X156341612Y-90698434D01*
X156354622Y-90692895D01*
X156360989Y-90687379D01*
X156373147Y-90682583D01*
X156386688Y-90678051D01*
X156394339Y-90677356D01*
X156549910Y-90628879D01*
X156570115Y-90616664D01*
X156583147Y-90612303D01*
X156604878Y-90611490D01*
X156625902Y-90605940D01*
X156639100Y-90610212D01*
X156652968Y-90609694D01*
X156671689Y-90620760D01*
X156692376Y-90627456D01*
X156701170Y-90638186D01*
X156713115Y-90645247D01*
X156722881Y-90664677D01*
X156736665Y-90681496D01*
X156740282Y-90699298D01*
X156744493Y-90707675D01*
X156743634Y-90715790D01*
X156746500Y-90729893D01*
X156746500Y-92637756D01*
X156746500Y-92782244D01*
X156749734Y-92798500D01*
X156774688Y-92923954D01*
X156805176Y-92997557D01*
X156807995Y-93004363D01*
X156807996Y-93004366D01*
X156829977Y-93057435D01*
X156829984Y-93057448D01*
X156862129Y-93105557D01*
X156862130Y-93105558D01*
X156862133Y-93105562D01*
X156910253Y-93177579D01*
X157012421Y-93279747D01*
X157012422Y-93279747D01*
X157019489Y-93286814D01*
X157019488Y-93286814D01*
X157019492Y-93286817D01*
X157647415Y-93914742D01*
X157647422Y-93914748D01*
X157767556Y-93995018D01*
X157767557Y-93995018D01*
X157767558Y-93995019D01*
X157901046Y-94050312D01*
X157901050Y-94050312D01*
X157901051Y-94050313D01*
X158042754Y-94078501D01*
X158042757Y-94078501D01*
X158193358Y-94078501D01*
X158193378Y-94078500D01*
X163474813Y-94078500D01*
X163541852Y-94098185D01*
X163562494Y-94114819D01*
X164330181Y-94882506D01*
X164363666Y-94943829D01*
X164366500Y-94970187D01*
X164366500Y-95957247D01*
X164394686Y-96098946D01*
X164394688Y-96098954D01*
X164422953Y-96167192D01*
X164422956Y-96167198D01*
X164425176Y-96172557D01*
X164449981Y-96232443D01*
X164482133Y-96280562D01*
X164530253Y-96352579D01*
X164632421Y-96454747D01*
X164632422Y-96454747D01*
X164639489Y-96461814D01*
X164639488Y-96461814D01*
X164639492Y-96461817D01*
X165267415Y-97089742D01*
X165267422Y-97089748D01*
X165387556Y-97170018D01*
X165387557Y-97170018D01*
X165387558Y-97170019D01*
X165521046Y-97225312D01*
X165521050Y-97225312D01*
X165521051Y-97225313D01*
X165662754Y-97253501D01*
X165662757Y-97253501D01*
X165813358Y-97253501D01*
X165813378Y-97253500D01*
X173634813Y-97253500D01*
X173664253Y-97262144D01*
X173694240Y-97268668D01*
X173699255Y-97272422D01*
X173701852Y-97273185D01*
X173722494Y-97289819D01*
X173855181Y-97422506D01*
X173888666Y-97483829D01*
X173891500Y-97510187D01*
X173891500Y-101244812D01*
X173871815Y-101311851D01*
X173855185Y-101332488D01*
X173722492Y-101465182D01*
X173661172Y-101498666D01*
X173634813Y-101501500D01*
X170107754Y-101501500D01*
X170024302Y-101518100D01*
X169982576Y-101526400D01*
X169975945Y-101527718D01*
X169966048Y-101529687D01*
X169966045Y-101529688D01*
X169832556Y-101584981D01*
X169832555Y-101584981D01*
X169712422Y-101665251D01*
X169712421Y-101665252D01*
X169664413Y-101713261D01*
X169610253Y-101767421D01*
X169610250Y-101767424D01*
X168795232Y-102582443D01*
X168007494Y-103370181D01*
X167946171Y-103403666D01*
X167919813Y-103406500D01*
X159740187Y-103406500D01*
X159673148Y-103386815D01*
X159652506Y-103370181D01*
X158716505Y-102434180D01*
X158683020Y-102372857D01*
X158688004Y-102303165D01*
X158729876Y-102247232D01*
X158795340Y-102222815D01*
X158804186Y-102222499D01*
X158902499Y-102222499D01*
X159402500Y-102222499D01*
X159677472Y-102222499D01*
X159677486Y-102222498D01*
X159780197Y-102212005D01*
X159946619Y-102156858D01*
X159946624Y-102156856D01*
X160095845Y-102064815D01*
X160219815Y-101940845D01*
X160311856Y-101791624D01*
X160311858Y-101791619D01*
X160367005Y-101625197D01*
X160367006Y-101625190D01*
X160376059Y-101536582D01*
X163420001Y-101536582D01*
X163426408Y-101607102D01*
X163426409Y-101607107D01*
X163476981Y-101769396D01*
X163564927Y-101914877D01*
X163685122Y-102035072D01*
X163830604Y-102123019D01*
X163830603Y-102123019D01*
X163992894Y-102173590D01*
X163992893Y-102173590D01*
X164063427Y-102179999D01*
X164619999Y-102179999D01*
X165120000Y-102179999D01*
X165676581Y-102179999D01*
X165747102Y-102173591D01*
X165747107Y-102173590D01*
X165909396Y-102123018D01*
X166054877Y-102035072D01*
X166175072Y-101914877D01*
X166263019Y-101769395D01*
X166313590Y-101607106D01*
X166320000Y-101536572D01*
X166320000Y-101530000D01*
X165120000Y-101530000D01*
X165120000Y-102179999D01*
X164619999Y-102179999D01*
X164620000Y-102179998D01*
X164620000Y-101530000D01*
X163420001Y-101530000D01*
X163420001Y-101536582D01*
X160376059Y-101536582D01*
X160377499Y-101522486D01*
X160377500Y-101522473D01*
X160377500Y-101385000D01*
X159402500Y-101385000D01*
X159402500Y-102222499D01*
X158902499Y-102222499D01*
X158902500Y-102222498D01*
X158902500Y-101259000D01*
X158922185Y-101191961D01*
X158974989Y-101146206D01*
X159026500Y-101135000D01*
X159152500Y-101135000D01*
X159152500Y-101009000D01*
X159172185Y-100941961D01*
X159224989Y-100896206D01*
X159276500Y-100885000D01*
X160377499Y-100885000D01*
X160377499Y-100747528D01*
X160377498Y-100747513D01*
X160367005Y-100644802D01*
X160311858Y-100478380D01*
X160311856Y-100478375D01*
X160219815Y-100329154D01*
X160095844Y-100205183D01*
X160090177Y-100200702D01*
X160091904Y-100198516D01*
X160053740Y-100156089D01*
X160042515Y-100087127D01*
X160070355Y-100023043D01*
X160095606Y-100001164D01*
X160095485Y-100001011D01*
X160098901Y-99998309D01*
X160100469Y-99996951D01*
X160101152Y-99996530D01*
X160226530Y-99871152D01*
X160319615Y-99720238D01*
X160375387Y-99551926D01*
X160386000Y-99448045D01*
X160385999Y-98671956D01*
X160375387Y-98568074D01*
X160319615Y-98399762D01*
X160226530Y-98248848D01*
X160101152Y-98123470D01*
X159950238Y-98030385D01*
X159949695Y-98030205D01*
X159949375Y-98029983D01*
X159943695Y-98027335D01*
X159944147Y-98026364D01*
X159892252Y-97990435D01*
X159865428Y-97925919D01*
X159877742Y-97857143D01*
X159925284Y-97805943D01*
X159988700Y-97788500D01*
X160976234Y-97788500D01*
X161043273Y-97808185D01*
X161063915Y-97824819D01*
X161255181Y-98016085D01*
X161288666Y-98077408D01*
X161291500Y-98103766D01*
X161291500Y-99122398D01*
X161315843Y-99244777D01*
X161315845Y-99244785D01*
X161363598Y-99360072D01*
X161363603Y-99360081D01*
X161432928Y-99463832D01*
X161432931Y-99463836D01*
X161841163Y-99872068D01*
X161841167Y-99872071D01*
X161944918Y-99941396D01*
X161944924Y-99941399D01*
X161944925Y-99941400D01*
X162060215Y-99989155D01*
X162151678Y-100007348D01*
X162182601Y-100013499D01*
X162182605Y-100013500D01*
X162182606Y-100013500D01*
X162307393Y-100013500D01*
X163500167Y-100013500D01*
X163567206Y-100033185D01*
X163587843Y-100049814D01*
X163679845Y-100141816D01*
X163823817Y-100228850D01*
X163871003Y-100280377D01*
X163882842Y-100349236D01*
X163855573Y-100413565D01*
X163823817Y-100441082D01*
X163685125Y-100524925D01*
X163685121Y-100524928D01*
X163564927Y-100645122D01*
X163476980Y-100790604D01*
X163426409Y-100952893D01*
X163420000Y-101023427D01*
X163420000Y-101030000D01*
X166319999Y-101030000D01*
X166319999Y-101020957D01*
X166339684Y-100953918D01*
X166392488Y-100908163D01*
X166461646Y-100898219D01*
X166525202Y-100927244D01*
X166550113Y-100956805D01*
X166558184Y-100970155D01*
X166558186Y-100970158D01*
X166679841Y-101091813D01*
X166679843Y-101091814D01*
X166679845Y-101091816D01*
X166827087Y-101180827D01*
X166991351Y-101232013D01*
X167062735Y-101238500D01*
X168677264Y-101238499D01*
X168677271Y-101238499D01*
X168748644Y-101232014D01*
X168748647Y-101232013D01*
X168748649Y-101232013D01*
X168912913Y-101180827D01*
X169060155Y-101091816D01*
X169181816Y-100970155D01*
X169228260Y-100893325D01*
X169265482Y-100854377D01*
X169313833Y-100822071D01*
X169496267Y-100639637D01*
X169771086Y-100364819D01*
X169832409Y-100331334D01*
X169858767Y-100328500D01*
X170904259Y-100328500D01*
X170971298Y-100348185D01*
X170978552Y-100353220D01*
X170988796Y-100360889D01*
X171125799Y-100411989D01*
X171153050Y-100414918D01*
X171186345Y-100418499D01*
X171186362Y-100418500D01*
X172983638Y-100418500D01*
X172983654Y-100418499D01*
X173010692Y-100415591D01*
X173044201Y-100411989D01*
X173181204Y-100360889D01*
X173298261Y-100273261D01*
X173385889Y-100156204D01*
X173436989Y-100019201D01*
X173440591Y-99985692D01*
X173443499Y-99958654D01*
X173443500Y-99958637D01*
X173443500Y-98161362D01*
X173443499Y-98161345D01*
X173439426Y-98123470D01*
X173436989Y-98100799D01*
X173434488Y-98094094D01*
X173400039Y-98001733D01*
X173385889Y-97963796D01*
X173298261Y-97846739D01*
X173181204Y-97759111D01*
X173044203Y-97708011D01*
X172983654Y-97701500D01*
X172983638Y-97701500D01*
X171186362Y-97701500D01*
X171186345Y-97701500D01*
X171125797Y-97708011D01*
X171125795Y-97708011D01*
X170988795Y-97759111D01*
X170871739Y-97846739D01*
X170784111Y-97963795D01*
X170733011Y-98100795D01*
X170733011Y-98100797D01*
X170726500Y-98161345D01*
X170726500Y-98937500D01*
X170706815Y-99004539D01*
X170654011Y-99050294D01*
X170602500Y-99061500D01*
X169482602Y-99061500D01*
X169360219Y-99085843D01*
X169360214Y-99085845D01*
X169326448Y-99099829D01*
X169326449Y-99099830D01*
X169244926Y-99133598D01*
X169244922Y-99133600D01*
X169141171Y-99202924D01*
X169141163Y-99202930D01*
X168929327Y-99414766D01*
X168868004Y-99448251D01*
X168804758Y-99445471D01*
X168748649Y-99427987D01*
X168677265Y-99421500D01*
X168677262Y-99421500D01*
X167062727Y-99421500D01*
X166991355Y-99427985D01*
X166991344Y-99427988D01*
X166827090Y-99479171D01*
X166679841Y-99568186D01*
X166558187Y-99689840D01*
X166553562Y-99695745D01*
X166552395Y-99694831D01*
X166507068Y-99736326D01*
X166438206Y-99748153D01*
X166373883Y-99720872D01*
X166334519Y-99663146D01*
X166328499Y-99624985D01*
X166328499Y-99122736D01*
X166328499Y-99122727D01*
X166322014Y-99051354D01*
X166322011Y-99051344D01*
X166270828Y-98887090D01*
X166270827Y-98887089D01*
X166270827Y-98887087D01*
X166181816Y-98739845D01*
X166181814Y-98739843D01*
X166181813Y-98739841D01*
X166060158Y-98618186D01*
X165912913Y-98529173D01*
X165910018Y-98528271D01*
X165748649Y-98477987D01*
X165748647Y-98477986D01*
X165748645Y-98477986D01*
X165698667Y-98473444D01*
X165677265Y-98471500D01*
X165677262Y-98471500D01*
X164062727Y-98471500D01*
X163991355Y-98477985D01*
X163991344Y-98477988D01*
X163827090Y-98529171D01*
X163679843Y-98618185D01*
X163633846Y-98664183D01*
X163587846Y-98710182D01*
X163526526Y-98743666D01*
X163500167Y-98746500D01*
X162682500Y-98746500D01*
X162615461Y-98726815D01*
X162569706Y-98674011D01*
X162558500Y-98622500D01*
X162558500Y-97727605D01*
X162558499Y-97727601D01*
X162544238Y-97655908D01*
X162534155Y-97605215D01*
X162514943Y-97558833D01*
X162511944Y-97551593D01*
X162486404Y-97489932D01*
X162486403Y-97489931D01*
X162486401Y-97489925D01*
X162441353Y-97422506D01*
X162417072Y-97386166D01*
X162417069Y-97386163D01*
X161693836Y-96662931D01*
X161693832Y-96662928D01*
X161590081Y-96593603D01*
X161590072Y-96593598D01*
X161474785Y-96545845D01*
X161474777Y-96545843D01*
X161352398Y-96521500D01*
X161352394Y-96521500D01*
X154367393Y-96521500D01*
X154242606Y-96521500D01*
X154242601Y-96521500D01*
X154120222Y-96545843D01*
X154120214Y-96545845D01*
X154004927Y-96593598D01*
X154004918Y-96593603D01*
X153901167Y-96662928D01*
X153901163Y-96662931D01*
X152688913Y-97875181D01*
X152627590Y-97908666D01*
X152601232Y-97911500D01*
X152283263Y-97911500D01*
X152215665Y-97917642D01*
X152060089Y-97966121D01*
X151920638Y-98050423D01*
X151805423Y-98165638D01*
X151721121Y-98305089D01*
X151672643Y-98460663D01*
X151666500Y-98528273D01*
X151666500Y-98961736D01*
X151672642Y-99029334D01*
X151687028Y-99075499D01*
X151721121Y-99184910D01*
X151721122Y-99184911D01*
X151723353Y-99192071D01*
X151721420Y-99192673D01*
X151729564Y-99251649D01*
X151725313Y-99270207D01*
X151681065Y-99412205D01*
X151681064Y-99412207D01*
X151678085Y-99444999D01*
X151678085Y-99445000D01*
X151895041Y-99445000D01*
X151959191Y-99462883D01*
X151967277Y-99467771D01*
X152060090Y-99523879D01*
X152215661Y-99572356D01*
X152215673Y-99572357D01*
X152220816Y-99573380D01*
X152282729Y-99605763D01*
X152317306Y-99666477D01*
X152313570Y-99736246D01*
X152272706Y-99792920D01*
X152220828Y-99816615D01*
X152215671Y-99817640D01*
X152060089Y-99866121D01*
X151959191Y-99927117D01*
X151895041Y-99945000D01*
X151678085Y-99945000D01*
X151654231Y-99971120D01*
X151594487Y-100007348D01*
X151562669Y-100011500D01*
X151387601Y-100011500D01*
X151265222Y-100035843D01*
X151265214Y-100035845D01*
X151149927Y-100083598D01*
X151149918Y-100083603D01*
X151046167Y-100152928D01*
X151046163Y-100152931D01*
X150268915Y-100930181D01*
X150241987Y-100944884D01*
X150216169Y-100961477D01*
X150209968Y-100962368D01*
X150207592Y-100963666D01*
X150181234Y-100966500D01*
X150132795Y-100966500D01*
X150065756Y-100946815D01*
X150020001Y-100894011D01*
X150015089Y-100881503D01*
X149997117Y-100827266D01*
X149997115Y-100827262D01*
X149904030Y-100676348D01*
X149778652Y-100550970D01*
X149660966Y-100478380D01*
X149627740Y-100457886D01*
X149627735Y-100457884D01*
X149459427Y-100402113D01*
X149355546Y-100391500D01*
X148554462Y-100391500D01*
X148554446Y-100391501D01*
X148450572Y-100402113D01*
X148282264Y-100457884D01*
X148282259Y-100457886D01*
X148131346Y-100550971D01*
X148042681Y-100639637D01*
X147981358Y-100673122D01*
X147911666Y-100668138D01*
X147867319Y-100639637D01*
X147778653Y-100550971D01*
X147778652Y-100550970D01*
X147660966Y-100478380D01*
X147627740Y-100457886D01*
X147627735Y-100457884D01*
X147459427Y-100402113D01*
X147355546Y-100391500D01*
X146554462Y-100391500D01*
X146554446Y-100391501D01*
X146450572Y-100402113D01*
X146282264Y-100457884D01*
X146282259Y-100457886D01*
X146131346Y-100550971D01*
X146005971Y-100676346D01*
X145912882Y-100827266D01*
X145894911Y-100881503D01*
X145881041Y-100901535D01*
X145870918Y-100923703D01*
X145861506Y-100929751D01*
X145855139Y-100938948D01*
X145832639Y-100948302D01*
X145812140Y-100961477D01*
X145795040Y-100963935D01*
X145790624Y-100965772D01*
X145777205Y-100966500D01*
X145728767Y-100966500D01*
X145661728Y-100946815D01*
X145641086Y-100930181D01*
X145449819Y-100738914D01*
X145416334Y-100677591D01*
X145413500Y-100651233D01*
X145413500Y-99272500D01*
X145433185Y-99205461D01*
X145485989Y-99159706D01*
X145537500Y-99148500D01*
X145678638Y-99148500D01*
X145678654Y-99148499D01*
X145705692Y-99145591D01*
X145739201Y-99141989D01*
X145876204Y-99090889D01*
X145993261Y-99003261D01*
X146080889Y-98886204D01*
X146131989Y-98749201D01*
X146136396Y-98708208D01*
X146138499Y-98688654D01*
X146138500Y-98688637D01*
X146138500Y-96891362D01*
X146138499Y-96891345D01*
X146135157Y-96860270D01*
X146131989Y-96830799D01*
X146123320Y-96807558D01*
X146109522Y-96770564D01*
X146080889Y-96693796D01*
X146016435Y-96607696D01*
X145992019Y-96542234D01*
X146006870Y-96473961D01*
X146056275Y-96424555D01*
X146115703Y-96409387D01*
X146794646Y-96409387D01*
X146794646Y-93980097D01*
X142766500Y-93980097D01*
X142766500Y-94985884D01*
X142746815Y-95052923D01*
X142694011Y-95098678D01*
X142624853Y-95108622D01*
X142580501Y-95093272D01*
X142493023Y-95042767D01*
X142456262Y-95021543D01*
X142279423Y-94957179D01*
X142094094Y-94924500D01*
X140199500Y-94924500D01*
X140132461Y-94904815D01*
X140086706Y-94852011D01*
X140075500Y-94800500D01*
X140075500Y-84885258D01*
X141249500Y-84885258D01*
X141249500Y-85114741D01*
X141274446Y-85304215D01*
X141279452Y-85342238D01*
X141279453Y-85342240D01*
X141338842Y-85563887D01*
X141426650Y-85775876D01*
X141426657Y-85775890D01*
X141541392Y-85974617D01*
X141681081Y-86156661D01*
X141681089Y-86156670D01*
X141843330Y-86318911D01*
X141843338Y-86318918D01*
X142025382Y-86458607D01*
X142025385Y-86458608D01*
X142025388Y-86458611D01*
X142224112Y-86573344D01*
X142224117Y-86573346D01*
X142224123Y-86573349D01*
X142267140Y-86591167D01*
X142436113Y-86661158D01*
X142657762Y-86720548D01*
X142885266Y-86750500D01*
X142885273Y-86750500D01*
X143114727Y-86750500D01*
X143114734Y-86750500D01*
X143342238Y-86720548D01*
X143563887Y-86661158D01*
X143775888Y-86573344D01*
X143974612Y-86458611D01*
X144156661Y-86318919D01*
X144156665Y-86318914D01*
X144156670Y-86318911D01*
X144318911Y-86156670D01*
X144318914Y-86156665D01*
X144318919Y-86156661D01*
X144458611Y-85974612D01*
X144573344Y-85775888D01*
X144661158Y-85563887D01*
X144720548Y-85342238D01*
X144750500Y-85114734D01*
X144750500Y-84885266D01*
X144750499Y-84885258D01*
X172249500Y-84885258D01*
X172249500Y-85114741D01*
X172274446Y-85304215D01*
X172279452Y-85342238D01*
X172279453Y-85342240D01*
X172338842Y-85563887D01*
X172426650Y-85775876D01*
X172426657Y-85775890D01*
X172541392Y-85974617D01*
X172681081Y-86156661D01*
X172681089Y-86156670D01*
X172843330Y-86318911D01*
X172843338Y-86318918D01*
X173025382Y-86458607D01*
X173025385Y-86458608D01*
X173025388Y-86458611D01*
X173224112Y-86573344D01*
X173224117Y-86573346D01*
X173224123Y-86573349D01*
X173267140Y-86591167D01*
X173436113Y-86661158D01*
X173657762Y-86720548D01*
X173885266Y-86750500D01*
X173885273Y-86750500D01*
X174114727Y-86750500D01*
X174114734Y-86750500D01*
X174342238Y-86720548D01*
X174563887Y-86661158D01*
X174775888Y-86573344D01*
X174974612Y-86458611D01*
X175156661Y-86318919D01*
X175156665Y-86318914D01*
X175156670Y-86318911D01*
X175318911Y-86156670D01*
X175318914Y-86156665D01*
X175318919Y-86156661D01*
X175458611Y-85974612D01*
X175573344Y-85775888D01*
X175661158Y-85563887D01*
X175720548Y-85342238D01*
X175750500Y-85114734D01*
X175750500Y-84885266D01*
X175720548Y-84657762D01*
X175661158Y-84436113D01*
X175573344Y-84224112D01*
X175458611Y-84025388D01*
X175458608Y-84025385D01*
X175458607Y-84025382D01*
X175318918Y-83843338D01*
X175318911Y-83843330D01*
X175156670Y-83681089D01*
X175156661Y-83681081D01*
X174974617Y-83541392D01*
X174775890Y-83426657D01*
X174775876Y-83426650D01*
X174563887Y-83338842D01*
X174342238Y-83279452D01*
X174304215Y-83274446D01*
X174114741Y-83249500D01*
X174114734Y-83249500D01*
X173885266Y-83249500D01*
X173885258Y-83249500D01*
X173668715Y-83278009D01*
X173657762Y-83279452D01*
X173564076Y-83304554D01*
X173436112Y-83338842D01*
X173224123Y-83426650D01*
X173224109Y-83426657D01*
X173025382Y-83541392D01*
X172843338Y-83681081D01*
X172681081Y-83843338D01*
X172541392Y-84025382D01*
X172426657Y-84224109D01*
X172426650Y-84224123D01*
X172338842Y-84436112D01*
X172279453Y-84657759D01*
X172279451Y-84657770D01*
X172249500Y-84885258D01*
X144750499Y-84885258D01*
X144720548Y-84657762D01*
X144661158Y-84436113D01*
X144573344Y-84224112D01*
X144458611Y-84025388D01*
X144458608Y-84025385D01*
X144458607Y-84025382D01*
X144318918Y-83843338D01*
X144318911Y-83843330D01*
X144156670Y-83681089D01*
X144156661Y-83681081D01*
X143974617Y-83541392D01*
X143775890Y-83426657D01*
X143775876Y-83426650D01*
X143563887Y-83338842D01*
X143342238Y-83279452D01*
X143304215Y-83274446D01*
X143114741Y-83249500D01*
X143114734Y-83249500D01*
X142885266Y-83249500D01*
X142885258Y-83249500D01*
X142668715Y-83278009D01*
X142657762Y-83279452D01*
X142564076Y-83304554D01*
X142436112Y-83338842D01*
X142224123Y-83426650D01*
X142224109Y-83426657D01*
X142025382Y-83541392D01*
X141843338Y-83681081D01*
X141681081Y-83843338D01*
X141541392Y-84025382D01*
X141426657Y-84224109D01*
X141426650Y-84224123D01*
X141338842Y-84436112D01*
X141279453Y-84657759D01*
X141279451Y-84657770D01*
X141249500Y-84885258D01*
X140075500Y-84885258D01*
X140075500Y-82199500D01*
X140095185Y-82132461D01*
X140147989Y-82086706D01*
X140199500Y-82075500D01*
X149177099Y-82075500D01*
X149244138Y-82095185D01*
G37*
%TD.AperFunction*%
%TD*%
M02*
