%TF.GenerationSoftware,KiCad,Pcbnew,9.0.5+dfsg-1*%
%TF.CreationDate,2025-11-01T11:45:04+01:00*%
%TF.ProjectId,CWSensorKey,43575365-6e73-46f7-924b-65792e6b6963,rev?*%
%TF.SameCoordinates,Original*%
%TF.FileFunction,Legend,Top*%
%TF.FilePolarity,Positive*%
%FSLAX46Y46*%
G04 Gerber Fmt 4.6, Leading zero omitted, Abs format (unit mm)*
G04 Created by KiCad (PCBNEW 9.0.5+dfsg-1) date 2025-11-01 11:45:04*
%MOMM*%
%LPD*%
G01*
G04 APERTURE LIST*
%ADD10C,0.150000*%
%ADD11C,0.120000*%
G04 APERTURE END LIST*
D10*
X158079580Y-87454166D02*
X158127200Y-87501785D01*
X158127200Y-87501785D02*
X158174819Y-87644642D01*
X158174819Y-87644642D02*
X158174819Y-87739880D01*
X158174819Y-87739880D02*
X158127200Y-87882737D01*
X158127200Y-87882737D02*
X158031961Y-87977975D01*
X158031961Y-87977975D02*
X157936723Y-88025594D01*
X157936723Y-88025594D02*
X157746247Y-88073213D01*
X157746247Y-88073213D02*
X157603390Y-88073213D01*
X157603390Y-88073213D02*
X157412914Y-88025594D01*
X157412914Y-88025594D02*
X157317676Y-87977975D01*
X157317676Y-87977975D02*
X157222438Y-87882737D01*
X157222438Y-87882737D02*
X157174819Y-87739880D01*
X157174819Y-87739880D02*
X157174819Y-87644642D01*
X157174819Y-87644642D02*
X157222438Y-87501785D01*
X157222438Y-87501785D02*
X157270057Y-87454166D01*
X158174819Y-86501785D02*
X158174819Y-87073213D01*
X158174819Y-86787499D02*
X157174819Y-86787499D01*
X157174819Y-86787499D02*
X157317676Y-86882737D01*
X157317676Y-86882737D02*
X157412914Y-86977975D01*
X157412914Y-86977975D02*
X157460533Y-87073213D01*
X157839580Y-91264166D02*
X157887200Y-91311785D01*
X157887200Y-91311785D02*
X157934819Y-91454642D01*
X157934819Y-91454642D02*
X157934819Y-91549880D01*
X157934819Y-91549880D02*
X157887200Y-91692737D01*
X157887200Y-91692737D02*
X157791961Y-91787975D01*
X157791961Y-91787975D02*
X157696723Y-91835594D01*
X157696723Y-91835594D02*
X157506247Y-91883213D01*
X157506247Y-91883213D02*
X157363390Y-91883213D01*
X157363390Y-91883213D02*
X157172914Y-91835594D01*
X157172914Y-91835594D02*
X157077676Y-91787975D01*
X157077676Y-91787975D02*
X156982438Y-91692737D01*
X156982438Y-91692737D02*
X156934819Y-91549880D01*
X156934819Y-91549880D02*
X156934819Y-91454642D01*
X156934819Y-91454642D02*
X156982438Y-91311785D01*
X156982438Y-91311785D02*
X157030057Y-91264166D01*
X157030057Y-90883213D02*
X156982438Y-90835594D01*
X156982438Y-90835594D02*
X156934819Y-90740356D01*
X156934819Y-90740356D02*
X156934819Y-90502261D01*
X156934819Y-90502261D02*
X156982438Y-90407023D01*
X156982438Y-90407023D02*
X157030057Y-90359404D01*
X157030057Y-90359404D02*
X157125295Y-90311785D01*
X157125295Y-90311785D02*
X157220533Y-90311785D01*
X157220533Y-90311785D02*
X157363390Y-90359404D01*
X157363390Y-90359404D02*
X157934819Y-90930832D01*
X157934819Y-90930832D02*
X157934819Y-90311785D01*
X158079580Y-104649166D02*
X158127200Y-104696785D01*
X158127200Y-104696785D02*
X158174819Y-104839642D01*
X158174819Y-104839642D02*
X158174819Y-104934880D01*
X158174819Y-104934880D02*
X158127200Y-105077737D01*
X158127200Y-105077737D02*
X158031961Y-105172975D01*
X158031961Y-105172975D02*
X157936723Y-105220594D01*
X157936723Y-105220594D02*
X157746247Y-105268213D01*
X157746247Y-105268213D02*
X157603390Y-105268213D01*
X157603390Y-105268213D02*
X157412914Y-105220594D01*
X157412914Y-105220594D02*
X157317676Y-105172975D01*
X157317676Y-105172975D02*
X157222438Y-105077737D01*
X157222438Y-105077737D02*
X157174819Y-104934880D01*
X157174819Y-104934880D02*
X157174819Y-104839642D01*
X157174819Y-104839642D02*
X157222438Y-104696785D01*
X157222438Y-104696785D02*
X157270057Y-104649166D01*
X157174819Y-104315832D02*
X157174819Y-103696785D01*
X157174819Y-103696785D02*
X157555771Y-104030118D01*
X157555771Y-104030118D02*
X157555771Y-103887261D01*
X157555771Y-103887261D02*
X157603390Y-103792023D01*
X157603390Y-103792023D02*
X157651009Y-103744404D01*
X157651009Y-103744404D02*
X157746247Y-103696785D01*
X157746247Y-103696785D02*
X157984342Y-103696785D01*
X157984342Y-103696785D02*
X158079580Y-103744404D01*
X158079580Y-103744404D02*
X158127200Y-103792023D01*
X158127200Y-103792023D02*
X158174819Y-103887261D01*
X158174819Y-103887261D02*
X158174819Y-104172975D01*
X158174819Y-104172975D02*
X158127200Y-104268213D01*
X158127200Y-104268213D02*
X158079580Y-104315832D01*
X157839580Y-108459166D02*
X157887200Y-108506785D01*
X157887200Y-108506785D02*
X157934819Y-108649642D01*
X157934819Y-108649642D02*
X157934819Y-108744880D01*
X157934819Y-108744880D02*
X157887200Y-108887737D01*
X157887200Y-108887737D02*
X157791961Y-108982975D01*
X157791961Y-108982975D02*
X157696723Y-109030594D01*
X157696723Y-109030594D02*
X157506247Y-109078213D01*
X157506247Y-109078213D02*
X157363390Y-109078213D01*
X157363390Y-109078213D02*
X157172914Y-109030594D01*
X157172914Y-109030594D02*
X157077676Y-108982975D01*
X157077676Y-108982975D02*
X156982438Y-108887737D01*
X156982438Y-108887737D02*
X156934819Y-108744880D01*
X156934819Y-108744880D02*
X156934819Y-108649642D01*
X156934819Y-108649642D02*
X156982438Y-108506785D01*
X156982438Y-108506785D02*
X157030057Y-108459166D01*
X157268152Y-107602023D02*
X157934819Y-107602023D01*
X156887200Y-107840118D02*
X157601485Y-108078213D01*
X157601485Y-108078213D02*
X157601485Y-107459166D01*
X153543095Y-83207319D02*
X153543095Y-84016842D01*
X153543095Y-84016842D02*
X153590714Y-84112080D01*
X153590714Y-84112080D02*
X153638333Y-84159700D01*
X153638333Y-84159700D02*
X153733571Y-84207319D01*
X153733571Y-84207319D02*
X153924047Y-84207319D01*
X153924047Y-84207319D02*
X154019285Y-84159700D01*
X154019285Y-84159700D02*
X154066904Y-84112080D01*
X154066904Y-84112080D02*
X154114523Y-84016842D01*
X154114523Y-84016842D02*
X154114523Y-83207319D01*
X155114523Y-84207319D02*
X154543095Y-84207319D01*
X154828809Y-84207319D02*
X154828809Y-83207319D01*
X154828809Y-83207319D02*
X154733571Y-83350176D01*
X154733571Y-83350176D02*
X154638333Y-83445414D01*
X154638333Y-83445414D02*
X154543095Y-83493033D01*
X153543095Y-100762319D02*
X153543095Y-101571842D01*
X153543095Y-101571842D02*
X153590714Y-101667080D01*
X153590714Y-101667080D02*
X153638333Y-101714700D01*
X153638333Y-101714700D02*
X153733571Y-101762319D01*
X153733571Y-101762319D02*
X153924047Y-101762319D01*
X153924047Y-101762319D02*
X154019285Y-101714700D01*
X154019285Y-101714700D02*
X154066904Y-101667080D01*
X154066904Y-101667080D02*
X154114523Y-101571842D01*
X154114523Y-101571842D02*
X154114523Y-100762319D01*
X154543095Y-100857557D02*
X154590714Y-100809938D01*
X154590714Y-100809938D02*
X154685952Y-100762319D01*
X154685952Y-100762319D02*
X154924047Y-100762319D01*
X154924047Y-100762319D02*
X155019285Y-100809938D01*
X155019285Y-100809938D02*
X155066904Y-100857557D01*
X155066904Y-100857557D02*
X155114523Y-100952795D01*
X155114523Y-100952795D02*
X155114523Y-101048033D01*
X155114523Y-101048033D02*
X155066904Y-101190890D01*
X155066904Y-101190890D02*
X154495476Y-101762319D01*
X154495476Y-101762319D02*
X155114523Y-101762319D01*
X166274761Y-85087557D02*
X166179523Y-85039938D01*
X166179523Y-85039938D02*
X166084285Y-84944700D01*
X166084285Y-84944700D02*
X165941428Y-84801842D01*
X165941428Y-84801842D02*
X165846190Y-84754223D01*
X165846190Y-84754223D02*
X165750952Y-84754223D01*
X165798571Y-84992319D02*
X165703333Y-84944700D01*
X165703333Y-84944700D02*
X165608095Y-84849461D01*
X165608095Y-84849461D02*
X165560476Y-84658985D01*
X165560476Y-84658985D02*
X165560476Y-84325652D01*
X165560476Y-84325652D02*
X165608095Y-84135176D01*
X165608095Y-84135176D02*
X165703333Y-84039938D01*
X165703333Y-84039938D02*
X165798571Y-83992319D01*
X165798571Y-83992319D02*
X165989047Y-83992319D01*
X165989047Y-83992319D02*
X166084285Y-84039938D01*
X166084285Y-84039938D02*
X166179523Y-84135176D01*
X166179523Y-84135176D02*
X166227142Y-84325652D01*
X166227142Y-84325652D02*
X166227142Y-84658985D01*
X166227142Y-84658985D02*
X166179523Y-84849461D01*
X166179523Y-84849461D02*
X166084285Y-84944700D01*
X166084285Y-84944700D02*
X165989047Y-84992319D01*
X165989047Y-84992319D02*
X165798571Y-84992319D01*
X167179523Y-84992319D02*
X166608095Y-84992319D01*
X166893809Y-84992319D02*
X166893809Y-83992319D01*
X166893809Y-83992319D02*
X166798571Y-84135176D01*
X166798571Y-84135176D02*
X166703333Y-84230414D01*
X166703333Y-84230414D02*
X166608095Y-84278033D01*
X147829819Y-89701666D02*
X147353628Y-90034999D01*
X147829819Y-90273094D02*
X146829819Y-90273094D01*
X146829819Y-90273094D02*
X146829819Y-89892142D01*
X146829819Y-89892142D02*
X146877438Y-89796904D01*
X146877438Y-89796904D02*
X146925057Y-89749285D01*
X146925057Y-89749285D02*
X147020295Y-89701666D01*
X147020295Y-89701666D02*
X147163152Y-89701666D01*
X147163152Y-89701666D02*
X147258390Y-89749285D01*
X147258390Y-89749285D02*
X147306009Y-89796904D01*
X147306009Y-89796904D02*
X147353628Y-89892142D01*
X147353628Y-89892142D02*
X147353628Y-90273094D01*
X147829819Y-88749285D02*
X147829819Y-89320713D01*
X147829819Y-89034999D02*
X146829819Y-89034999D01*
X146829819Y-89034999D02*
X146972676Y-89130237D01*
X146972676Y-89130237D02*
X147067914Y-89225475D01*
X147067914Y-89225475D02*
X147115533Y-89320713D01*
X147774819Y-101766666D02*
X147298628Y-102099999D01*
X147774819Y-102338094D02*
X146774819Y-102338094D01*
X146774819Y-102338094D02*
X146774819Y-101957142D01*
X146774819Y-101957142D02*
X146822438Y-101861904D01*
X146822438Y-101861904D02*
X146870057Y-101814285D01*
X146870057Y-101814285D02*
X146965295Y-101766666D01*
X146965295Y-101766666D02*
X147108152Y-101766666D01*
X147108152Y-101766666D02*
X147203390Y-101814285D01*
X147203390Y-101814285D02*
X147251009Y-101861904D01*
X147251009Y-101861904D02*
X147298628Y-101957142D01*
X147298628Y-101957142D02*
X147298628Y-102338094D01*
X146870057Y-101385713D02*
X146822438Y-101338094D01*
X146822438Y-101338094D02*
X146774819Y-101242856D01*
X146774819Y-101242856D02*
X146774819Y-101004761D01*
X146774819Y-101004761D02*
X146822438Y-100909523D01*
X146822438Y-100909523D02*
X146870057Y-100861904D01*
X146870057Y-100861904D02*
X146965295Y-100814285D01*
X146965295Y-100814285D02*
X147060533Y-100814285D01*
X147060533Y-100814285D02*
X147203390Y-100861904D01*
X147203390Y-100861904D02*
X147774819Y-101433332D01*
X147774819Y-101433332D02*
X147774819Y-100814285D01*
X166274761Y-102282557D02*
X166179523Y-102234938D01*
X166179523Y-102234938D02*
X166084285Y-102139700D01*
X166084285Y-102139700D02*
X165941428Y-101996842D01*
X165941428Y-101996842D02*
X165846190Y-101949223D01*
X165846190Y-101949223D02*
X165750952Y-101949223D01*
X165798571Y-102187319D02*
X165703333Y-102139700D01*
X165703333Y-102139700D02*
X165608095Y-102044461D01*
X165608095Y-102044461D02*
X165560476Y-101853985D01*
X165560476Y-101853985D02*
X165560476Y-101520652D01*
X165560476Y-101520652D02*
X165608095Y-101330176D01*
X165608095Y-101330176D02*
X165703333Y-101234938D01*
X165703333Y-101234938D02*
X165798571Y-101187319D01*
X165798571Y-101187319D02*
X165989047Y-101187319D01*
X165989047Y-101187319D02*
X166084285Y-101234938D01*
X166084285Y-101234938D02*
X166179523Y-101330176D01*
X166179523Y-101330176D02*
X166227142Y-101520652D01*
X166227142Y-101520652D02*
X166227142Y-101853985D01*
X166227142Y-101853985D02*
X166179523Y-102044461D01*
X166179523Y-102044461D02*
X166084285Y-102139700D01*
X166084285Y-102139700D02*
X165989047Y-102187319D01*
X165989047Y-102187319D02*
X165798571Y-102187319D01*
X166608095Y-101282557D02*
X166655714Y-101234938D01*
X166655714Y-101234938D02*
X166750952Y-101187319D01*
X166750952Y-101187319D02*
X166989047Y-101187319D01*
X166989047Y-101187319D02*
X167084285Y-101234938D01*
X167084285Y-101234938D02*
X167131904Y-101282557D01*
X167131904Y-101282557D02*
X167179523Y-101377795D01*
X167179523Y-101377795D02*
X167179523Y-101473033D01*
X167179523Y-101473033D02*
X167131904Y-101615890D01*
X167131904Y-101615890D02*
X166560476Y-102187319D01*
X166560476Y-102187319D02*
X167179523Y-102187319D01*
X142541666Y-100579819D02*
X142541666Y-101294104D01*
X142541666Y-101294104D02*
X142494047Y-101436961D01*
X142494047Y-101436961D02*
X142398809Y-101532200D01*
X142398809Y-101532200D02*
X142255952Y-101579819D01*
X142255952Y-101579819D02*
X142160714Y-101579819D01*
X142922619Y-100579819D02*
X143589285Y-100579819D01*
X143589285Y-100579819D02*
X143160714Y-101579819D01*
D11*
%TO.C,C1*%
X158660000Y-87998752D02*
X158660000Y-86576248D01*
X161380000Y-87998752D02*
X161380000Y-86576248D01*
%TO.C,C2*%
X153593748Y-89737500D02*
X155016252Y-89737500D01*
X153593748Y-92457500D02*
X155016252Y-92457500D01*
%TO.C,C3*%
X158660000Y-105193752D02*
X158660000Y-103771248D01*
X161380000Y-105193752D02*
X161380000Y-103771248D01*
%TO.C,C4*%
X153593748Y-106932500D02*
X155016252Y-106932500D01*
X153593748Y-109652500D02*
X155016252Y-109652500D01*
%TO.C,U1*%
X153405000Y-88262500D02*
X155205000Y-88262500D01*
X154405000Y-85042500D02*
X153605000Y-85042500D01*
X154405000Y-85042500D02*
X155205000Y-85042500D01*
X153105000Y-85092500D02*
X152865000Y-84762500D01*
X153345000Y-84762500D01*
X153105000Y-85092500D01*
G36*
X153105000Y-85092500D02*
G01*
X152865000Y-84762500D01*
X153345000Y-84762500D01*
X153105000Y-85092500D01*
G37*
%TO.C,U2*%
X153405000Y-105457500D02*
X155205000Y-105457500D01*
X154405000Y-102237500D02*
X153605000Y-102237500D01*
X154405000Y-102237500D02*
X155205000Y-102237500D01*
X153105000Y-102287500D02*
X152865000Y-101957500D01*
X153345000Y-101957500D01*
X153105000Y-102287500D01*
G36*
X153105000Y-102287500D02*
G01*
X152865000Y-101957500D01*
X153345000Y-101957500D01*
X153105000Y-102287500D01*
G37*
%TO.C,Q1*%
X166330000Y-85707500D02*
X165530000Y-85707500D01*
X166330000Y-85707500D02*
X167130000Y-85707500D01*
X167130000Y-85707500D02*
X167130000Y-86637500D01*
X167130000Y-88867500D02*
X165670000Y-88867500D01*
X167130000Y-88867500D02*
X167130000Y-87937500D01*
X165030000Y-85677500D02*
X164790000Y-85347500D01*
X165270000Y-85347500D01*
X165030000Y-85677500D01*
G36*
X165030000Y-85677500D02*
G01*
X164790000Y-85347500D01*
X165270000Y-85347500D01*
X165030000Y-85677500D01*
G37*
%TO.C,R1*%
X148315000Y-90246252D02*
X148315000Y-88823748D01*
X150135000Y-90246252D02*
X150135000Y-88823748D01*
%TO.C,R2*%
X148315000Y-100888748D02*
X148315000Y-102311252D01*
X150135000Y-100888748D02*
X150135000Y-102311252D01*
%TO.C,J4*%
X141495000Y-90060000D02*
X142875000Y-90060000D01*
X141495000Y-91440000D02*
X141495000Y-90060000D01*
X141495000Y-92710000D02*
X141495000Y-92820000D01*
X141495000Y-92710000D02*
X144255000Y-92710000D01*
X141495000Y-92820000D02*
X144255000Y-92820000D01*
X144255000Y-92710000D02*
X144255000Y-92820000D01*
%TO.C,J2*%
X170705000Y-93235000D02*
X172085000Y-93235000D01*
X170705000Y-94615000D02*
X170705000Y-93235000D01*
X170705000Y-95885000D02*
X170705000Y-95995000D01*
X170705000Y-95885000D02*
X173465000Y-95885000D01*
X170705000Y-95995000D02*
X173465000Y-95995000D01*
X173465000Y-95885000D02*
X173465000Y-95995000D01*
%TO.C,J3*%
X170705000Y-97680000D02*
X172085000Y-97680000D01*
X170705000Y-99060000D02*
X170705000Y-97680000D01*
X170705000Y-100330000D02*
X170705000Y-100440000D01*
X170705000Y-100330000D02*
X173465000Y-100330000D01*
X170705000Y-100440000D02*
X173465000Y-100440000D01*
X173465000Y-100330000D02*
X173465000Y-100440000D01*
%TO.C,Q2*%
X166330000Y-102902500D02*
X165530000Y-102902500D01*
X166330000Y-102902500D02*
X167130000Y-102902500D01*
X167130000Y-102902500D02*
X167130000Y-103832500D01*
X167130000Y-106062500D02*
X165670000Y-106062500D01*
X167130000Y-106062500D02*
X167130000Y-105132500D01*
X165030000Y-102872500D02*
X164790000Y-102542500D01*
X165270000Y-102542500D01*
X165030000Y-102872500D01*
G36*
X165030000Y-102872500D02*
G01*
X164790000Y-102542500D01*
X165270000Y-102542500D01*
X165030000Y-102872500D01*
G37*
%TO.C,J7*%
X141495000Y-102125000D02*
X142875000Y-102125000D01*
X141495000Y-103505000D02*
X141495000Y-102125000D01*
X141495000Y-104775000D02*
X141495000Y-104885000D01*
X141495000Y-104775000D02*
X144255000Y-104775000D01*
X141495000Y-104885000D02*
X144255000Y-104885000D01*
X144255000Y-104775000D02*
X144255000Y-104885000D01*
%TO.C,J6*%
X170705000Y-102125000D02*
X172085000Y-102125000D01*
X170705000Y-103505000D02*
X170705000Y-102125000D01*
X170705000Y-104775000D02*
X170705000Y-104885000D01*
X170705000Y-104775000D02*
X173465000Y-104775000D01*
X170705000Y-104885000D02*
X173465000Y-104885000D01*
X173465000Y-104775000D02*
X173465000Y-104885000D01*
%TO.C,J1*%
X170705000Y-88790000D02*
X172085000Y-88790000D01*
X170705000Y-90170000D02*
X170705000Y-88790000D01*
X170705000Y-91440000D02*
X170705000Y-91550000D01*
X170705000Y-91440000D02*
X173465000Y-91440000D01*
X170705000Y-91550000D02*
X173465000Y-91550000D01*
X173465000Y-91440000D02*
X173465000Y-91550000D01*
%TO.C,J5*%
X143400000Y-96410000D02*
X144780000Y-96410000D01*
X143400000Y-97790000D02*
X143400000Y-96410000D01*
X143400000Y-99060000D02*
X143400000Y-99170000D01*
X143400000Y-99060000D02*
X146160000Y-99060000D01*
X143400000Y-99170000D02*
X146160000Y-99170000D01*
X146160000Y-99060000D02*
X146160000Y-99170000D01*
%TD*%
M02*
