%TF.GenerationSoftware,KiCad,Pcbnew,9.0.5+dfsg-1*%
%TF.CreationDate,2025-11-01T11:45:04+01:00*%
%TF.ProjectId,CWSensorKey,43575365-6e73-46f7-924b-65792e6b6963,rev?*%
%TF.SameCoordinates,Original*%
%TF.FileFunction,Copper,L1,Top*%
%TF.FilePolarity,Positive*%
%FSLAX46Y46*%
G04 Gerber Fmt 4.6, Leading zero omitted, Abs format (unit mm)*
G04 Created by KiCad (PCBNEW 9.0.5+dfsg-1) date 2025-11-01 11:45:04*
%MOMM*%
%LPD*%
G01*
G04 APERTURE LIST*
G04 Aperture macros list*
%AMRoundRect*
0 Rectangle with rounded corners*
0 $1 Rounding radius*
0 $2 $3 $4 $5 $6 $7 $8 $9 X,Y pos of 4 corners*
0 Add a 4 corners polygon primitive as box body*
4,1,4,$2,$3,$4,$5,$6,$7,$8,$9,$2,$3,0*
0 Add four circle primitives for the rounded corners*
1,1,$1+$1,$2,$3*
1,1,$1+$1,$4,$5*
1,1,$1+$1,$6,$7*
1,1,$1+$1,$8,$9*
0 Add four rect primitives between the rounded corners*
20,1,$1+$1,$2,$3,$4,$5,0*
20,1,$1+$1,$4,$5,$6,$7,0*
20,1,$1+$1,$6,$7,$8,$9,0*
20,1,$1+$1,$8,$9,$2,$3,0*%
G04 Aperture macros list end*
%ADD10C,0.300000*%
%TA.AperFunction,NonConductor*%
%ADD11C,0.300000*%
%TD*%
%ADD12C,0.150000*%
%ADD13C,0.160000*%
%TA.AperFunction,SMDPad,CuDef*%
%ADD14RoundRect,0.250000X1.100000X-0.412500X1.100000X0.412500X-1.100000X0.412500X-1.100000X-0.412500X0*%
%TD*%
%TA.AperFunction,SMDPad,CuDef*%
%ADD15RoundRect,0.250000X-0.412500X-1.100000X0.412500X-1.100000X0.412500X1.100000X-0.412500X1.100000X0*%
%TD*%
%TA.AperFunction,SMDPad,CuDef*%
%ADD16RoundRect,0.162500X-0.617500X-0.162500X0.617500X-0.162500X0.617500X0.162500X-0.617500X0.162500X0*%
%TD*%
%TA.AperFunction,SMDPad,CuDef*%
%ADD17RoundRect,0.200000X-0.750000X-0.200000X0.750000X-0.200000X0.750000X0.200000X-0.750000X0.200000X0*%
%TD*%
%TA.AperFunction,SMDPad,CuDef*%
%ADD18RoundRect,0.250000X0.650000X-0.412500X0.650000X0.412500X-0.650000X0.412500X-0.650000X-0.412500X0*%
%TD*%
%TA.AperFunction,SMDPad,CuDef*%
%ADD19RoundRect,0.250000X-0.650000X0.412500X-0.650000X-0.412500X0.650000X-0.412500X0.650000X0.412500X0*%
%TD*%
%TA.AperFunction,ComponentPad*%
%ADD20R,1.700000X1.700000*%
%TD*%
%TA.AperFunction,ViaPad*%
%ADD21C,1.100000*%
%TD*%
%TA.AperFunction,Conductor*%
%ADD22C,0.450000*%
%TD*%
%TA.AperFunction,Conductor*%
%ADD23C,0.250000*%
%TD*%
G04 APERTURE END LIST*
D10*
D11*
X175323571Y-104246900D02*
X176466429Y-104246900D01*
X175895000Y-104818328D02*
X175895000Y-103675471D01*
D10*
D11*
X144843571Y-104246900D02*
X145986429Y-104246900D01*
D12*
G36*
X164816918Y-84359500D02*
G01*
X164677144Y-84359500D01*
X164677144Y-82982751D01*
X164813895Y-82982751D01*
X165226434Y-83899102D01*
X165271503Y-84034363D01*
X165275264Y-84034363D01*
X165271503Y-83897911D01*
X165271503Y-82982751D01*
X165411277Y-82982751D01*
X165411277Y-84359500D01*
X165271503Y-84359500D01*
X164870248Y-83458231D01*
X164813895Y-83313523D01*
X164816918Y-83456485D01*
X164816918Y-84359500D01*
G37*
G36*
X166038799Y-83349738D02*
G01*
X166101981Y-83367863D01*
X166158533Y-83397239D01*
X166209476Y-83438006D01*
X166255496Y-83491015D01*
X166302051Y-83568008D01*
X166335651Y-83654525D01*
X166356453Y-83752330D01*
X166363702Y-83863699D01*
X166356457Y-83975101D01*
X166335662Y-84073019D01*
X166302062Y-84159714D01*
X166255496Y-84236938D01*
X166209459Y-84290107D01*
X166158505Y-84330984D01*
X166101954Y-84360432D01*
X166038781Y-84378598D01*
X165967686Y-84384901D01*
X165896261Y-84378588D01*
X165832862Y-84360401D01*
X165776174Y-84330938D01*
X165725163Y-84290067D01*
X165679138Y-84236938D01*
X165632572Y-84159714D01*
X165598972Y-84073019D01*
X165578176Y-83975101D01*
X165570932Y-83863699D01*
X165722729Y-83863699D01*
X165727469Y-83954192D01*
X165740706Y-84029757D01*
X165761340Y-84092803D01*
X165788821Y-84145335D01*
X165825080Y-84190400D01*
X165866221Y-84221907D01*
X165913229Y-84241074D01*
X165967686Y-84247734D01*
X166021750Y-84241090D01*
X166068505Y-84221949D01*
X166109515Y-84190448D01*
X166145745Y-84145335D01*
X166173256Y-84092798D01*
X166193911Y-84029750D01*
X166207160Y-83954187D01*
X166211905Y-83863699D01*
X166207170Y-83773739D01*
X166193936Y-83698483D01*
X166173284Y-83635564D01*
X166145745Y-83583015D01*
X166109515Y-83537902D01*
X166068505Y-83506401D01*
X166021750Y-83487260D01*
X165967686Y-83480616D01*
X165913229Y-83487276D01*
X165866221Y-83506443D01*
X165825080Y-83537950D01*
X165788821Y-83583015D01*
X165761313Y-83635559D01*
X165740681Y-83698476D01*
X165727460Y-83773734D01*
X165722729Y-83863699D01*
X165570932Y-83863699D01*
X165578181Y-83752330D01*
X165598983Y-83654525D01*
X165632582Y-83568008D01*
X165679138Y-83491015D01*
X165725145Y-83438046D01*
X165776146Y-83397285D01*
X165832834Y-83367894D01*
X165896243Y-83349749D01*
X165967686Y-83343449D01*
X166038799Y-83349738D01*
G37*
G36*
X166817951Y-84359500D02*
G01*
X166453504Y-83368851D01*
X166606778Y-83368851D01*
X166894588Y-84153749D01*
X167188443Y-83368851D01*
X167328149Y-83368851D01*
X166960747Y-84359500D01*
X166817951Y-84359500D01*
G37*
G36*
X169092554Y-84359500D02*
G01*
X168386967Y-84359500D01*
X168386967Y-84207648D01*
X168391790Y-84148497D01*
X168407251Y-84081991D01*
X168434663Y-84014902D01*
X168484627Y-83931488D01*
X168605662Y-83770825D01*
X168685321Y-83675094D01*
X168790505Y-83539515D01*
X168863052Y-83437459D01*
X168897568Y-83376312D01*
X168917271Y-83318892D01*
X168923495Y-83264626D01*
X168916618Y-83209259D01*
X168896871Y-83164470D01*
X168863381Y-83127618D01*
X168821730Y-83100810D01*
X168776950Y-83084742D01*
X168728107Y-83079276D01*
X168684228Y-83081999D01*
X168632327Y-83090866D01*
X168539502Y-83117934D01*
X168410273Y-83181278D01*
X168410273Y-83035062D01*
X168506017Y-82989886D01*
X168600020Y-82962034D01*
X168691205Y-82946533D01*
X168756720Y-82942109D01*
X168845016Y-82951089D01*
X168923831Y-82977116D01*
X168971382Y-83005521D01*
X169008737Y-83041597D01*
X169037343Y-83085706D01*
X169058132Y-83136167D01*
X169070434Y-83188186D01*
X169074553Y-83242559D01*
X169069555Y-83303216D01*
X169054058Y-83366358D01*
X169026797Y-83433068D01*
X168991226Y-83495569D01*
X168933462Y-83577687D01*
X168846858Y-83683985D01*
X168761153Y-83784161D01*
X168689016Y-83867509D01*
X168625523Y-83950192D01*
X168578526Y-84025394D01*
X168555108Y-84078175D01*
X168539466Y-84138268D01*
X168531980Y-84207092D01*
X169092554Y-84207092D01*
X169092554Y-84359500D01*
G37*
G36*
X169737085Y-82950378D02*
G01*
X169804606Y-82974128D01*
X169863995Y-83012791D01*
X169916607Y-83067169D01*
X169963102Y-83139366D01*
X170006208Y-83238985D01*
X170038910Y-83358299D01*
X170059991Y-83500833D01*
X170067547Y-83670649D01*
X170059984Y-83840994D01*
X170038890Y-83983851D01*
X170006187Y-84103321D01*
X169963102Y-84202964D01*
X169916610Y-84275127D01*
X169864001Y-84329484D01*
X169804611Y-84368133D01*
X169737089Y-84391875D01*
X169659508Y-84400142D01*
X169582262Y-84391893D01*
X169514919Y-84368184D01*
X169455579Y-84329556D01*
X169402906Y-84275187D01*
X169356250Y-84202964D01*
X169326123Y-84133508D01*
X169485211Y-84133508D01*
X169521072Y-84191576D01*
X169559564Y-84230588D01*
X169603929Y-84254815D01*
X169653531Y-84262975D01*
X169706902Y-84255564D01*
X169752506Y-84234183D01*
X169792165Y-84198611D01*
X169826813Y-84146696D01*
X169856374Y-84074609D01*
X169889221Y-83947152D01*
X169909500Y-83808299D01*
X169916489Y-83656440D01*
X169908722Y-83516576D01*
X169885726Y-83383377D01*
X169485211Y-84133508D01*
X169326123Y-84133508D01*
X169313018Y-84103296D01*
X169280212Y-83983818D01*
X169259055Y-83840969D01*
X169251470Y-83670649D01*
X169251902Y-83660965D01*
X169403267Y-83660965D01*
X169406223Y-83785114D01*
X169413249Y-83857004D01*
X169431813Y-83965066D01*
X169835351Y-83219221D01*
X169806862Y-83166775D01*
X169779237Y-83130904D01*
X169752266Y-83108091D01*
X169706421Y-83086380D01*
X169659508Y-83079276D01*
X169612529Y-83085624D01*
X169570984Y-83104162D01*
X169533539Y-83135268D01*
X169499443Y-83180767D01*
X169468620Y-83243749D01*
X169441539Y-83325832D01*
X169421040Y-83421367D01*
X169407922Y-83532342D01*
X169403267Y-83660965D01*
X169251902Y-83660965D01*
X169259048Y-83500857D01*
X169280193Y-83358332D01*
X169312997Y-83239010D01*
X169356250Y-83139366D01*
X169402910Y-83067110D01*
X169455584Y-83012718D01*
X169514925Y-82974077D01*
X169582266Y-82950360D01*
X169659508Y-82942109D01*
X169737085Y-82950378D01*
G37*
G36*
X170938834Y-84359500D02*
G01*
X170233247Y-84359500D01*
X170233247Y-84207648D01*
X170238070Y-84148497D01*
X170253531Y-84081991D01*
X170280944Y-84014902D01*
X170330908Y-83931488D01*
X170451942Y-83770825D01*
X170531602Y-83675094D01*
X170636785Y-83539515D01*
X170709332Y-83437459D01*
X170743849Y-83376312D01*
X170763551Y-83318892D01*
X170769775Y-83264626D01*
X170762898Y-83209259D01*
X170743151Y-83164470D01*
X170709661Y-83127618D01*
X170668011Y-83100810D01*
X170623230Y-83084742D01*
X170574387Y-83079276D01*
X170530509Y-83081999D01*
X170478607Y-83090866D01*
X170385783Y-83117934D01*
X170256554Y-83181278D01*
X170256554Y-83035062D01*
X170352298Y-82989886D01*
X170446300Y-82962034D01*
X170537486Y-82946533D01*
X170603000Y-82942109D01*
X170691297Y-82951089D01*
X170770111Y-82977116D01*
X170817663Y-83005521D01*
X170855018Y-83041597D01*
X170883623Y-83085706D01*
X170904413Y-83136167D01*
X170916714Y-83188186D01*
X170920833Y-83242559D01*
X170915836Y-83303216D01*
X170900339Y-83366358D01*
X170873078Y-83433068D01*
X170837507Y-83495569D01*
X170779742Y-83577687D01*
X170693138Y-83683985D01*
X170607433Y-83784161D01*
X170535296Y-83867509D01*
X170471804Y-83950192D01*
X170424807Y-84025394D01*
X170401388Y-84078175D01*
X170385747Y-84138268D01*
X170378260Y-84207092D01*
X170938834Y-84207092D01*
X170938834Y-84359500D01*
G37*
G36*
X171185672Y-83648264D02*
G01*
X171185672Y-82982751D01*
X171838668Y-82982751D01*
X171838668Y-83140239D01*
X171325446Y-83140239D01*
X171325446Y-83480616D01*
X171349492Y-83480616D01*
X171477234Y-83489680D01*
X171581976Y-83514765D01*
X171667571Y-83553458D01*
X171737246Y-83604447D01*
X171786657Y-83657960D01*
X171824237Y-83717068D01*
X171851082Y-83782513D01*
X171867555Y-83855530D01*
X171873258Y-83937759D01*
X171866986Y-84024276D01*
X171848656Y-84103040D01*
X171818383Y-84175579D01*
X171777227Y-84240120D01*
X171726021Y-84294888D01*
X171663564Y-84340449D01*
X171595453Y-84373636D01*
X171524851Y-84393469D01*
X171450914Y-84400142D01*
X171376341Y-84394131D01*
X171281543Y-84373846D01*
X171162365Y-84335448D01*
X171162365Y-84155575D01*
X171228904Y-84191836D01*
X171305162Y-84221856D01*
X171382966Y-84241599D01*
X171450914Y-84247734D01*
X171516534Y-84238458D01*
X171581687Y-84210029D01*
X171621272Y-84180838D01*
X171654125Y-84144326D01*
X171680893Y-84099851D01*
X171700822Y-84050300D01*
X171712408Y-84001241D01*
X171716223Y-83951968D01*
X171710322Y-83891417D01*
X171692872Y-83836221D01*
X171663263Y-83784864D01*
X171619637Y-83736454D01*
X171570809Y-83702399D01*
X171501518Y-83674682D01*
X171405791Y-83655533D01*
X171276616Y-83648264D01*
X171185672Y-83648264D01*
G37*
G36*
X145911580Y-111029500D02*
G01*
X145751589Y-111029500D01*
X145671929Y-110734845D01*
X145261607Y-110734845D01*
X145182753Y-111029500D01*
X145036934Y-111029500D01*
X145149601Y-110597678D01*
X145297675Y-110597678D01*
X145638077Y-110597678D01*
X145497564Y-110065284D01*
X145464518Y-109924227D01*
X145435233Y-110065760D01*
X145297675Y-110597678D01*
X145149601Y-110597678D01*
X145396142Y-109652751D01*
X145550155Y-109652751D01*
X145911580Y-111029500D01*
G37*
G36*
X146053235Y-110999018D02*
G01*
X146053235Y-110831370D01*
X146146700Y-110878174D01*
X146231768Y-110909539D01*
X146309487Y-110927312D01*
X146380874Y-110932975D01*
X146441212Y-110925976D01*
X146498819Y-110905033D01*
X146549137Y-110870259D01*
X146584121Y-110824781D01*
X146605872Y-110770032D01*
X146613070Y-110711190D01*
X146608736Y-110664762D01*
X146595685Y-110620253D01*
X146573240Y-110576722D01*
X146543577Y-110538605D01*
X146495662Y-110493085D01*
X146423727Y-110438762D01*
X146347089Y-110386451D01*
X146269646Y-110334061D01*
X146190816Y-110270654D01*
X146134018Y-110204481D01*
X146095508Y-110135209D01*
X146072878Y-110061682D01*
X146065257Y-109982015D01*
X146071141Y-109905809D01*
X146088254Y-109837534D01*
X146116463Y-109775599D01*
X146156537Y-109718874D01*
X146204462Y-109675065D01*
X146265766Y-109641808D01*
X146343553Y-109620062D01*
X146441727Y-109612109D01*
X146524414Y-109616671D01*
X146604709Y-109630238D01*
X146682990Y-109652751D01*
X146682990Y-109805159D01*
X146596361Y-109773609D01*
X146513160Y-109755263D01*
X146432727Y-109749276D01*
X146369997Y-109756601D01*
X146318550Y-109777199D01*
X146276027Y-109810239D01*
X146242302Y-109854590D01*
X146222858Y-109902962D01*
X146216316Y-109957170D01*
X146221608Y-110011718D01*
X146236856Y-110058319D01*
X146262123Y-110098782D01*
X146312780Y-110151555D01*
X146379397Y-110202689D01*
X146437966Y-110241981D01*
X146510909Y-110292704D01*
X146572501Y-110335410D01*
X146645957Y-110397926D01*
X146699204Y-110463122D01*
X146735501Y-110531396D01*
X146756909Y-110603869D01*
X146764128Y-110682296D01*
X146757905Y-110759579D01*
X146739656Y-110829995D01*
X146709267Y-110895081D01*
X146665661Y-110955915D01*
X146614143Y-111002395D01*
X146547041Y-111038008D01*
X146460577Y-111061495D01*
X146350045Y-111070142D01*
X146281877Y-111066620D01*
X146218196Y-111056330D01*
X146151084Y-111037026D01*
X146053235Y-110999018D01*
G37*
G36*
X147489583Y-109616668D02*
G01*
X147565848Y-109630265D01*
X147640654Y-109652910D01*
X147640654Y-109819685D01*
X147555906Y-109779337D01*
X147477920Y-109756547D01*
X147405436Y-109749276D01*
X147345342Y-109756173D01*
X147292317Y-109776148D01*
X147244893Y-109809059D01*
X147202089Y-109855987D01*
X147163502Y-109919147D01*
X147127597Y-110005082D01*
X147100818Y-110104023D01*
X147083852Y-110218026D01*
X147077864Y-110349460D01*
X147077864Y-110385022D01*
X147116996Y-110325551D01*
X147161568Y-110274297D01*
X147211929Y-110230709D01*
X147267113Y-110197494D01*
X147325515Y-110177651D01*
X147388174Y-110170937D01*
X147447704Y-110176721D01*
X147504951Y-110193992D01*
X147560659Y-110223089D01*
X147611090Y-110262798D01*
X147652236Y-110311051D01*
X147684984Y-110368591D01*
X147708346Y-110432557D01*
X147722807Y-110504393D01*
X147727837Y-110585613D01*
X147721034Y-110681223D01*
X147701119Y-110768759D01*
X147668194Y-110849813D01*
X147621512Y-110925592D01*
X147564256Y-110988737D01*
X147499634Y-111033352D01*
X147426160Y-111060650D01*
X147341628Y-111070142D01*
X147261855Y-111061603D01*
X147193213Y-111037190D01*
X147133566Y-110997618D01*
X147081426Y-110942120D01*
X147036086Y-110868519D01*
X146993790Y-110766509D01*
X146962194Y-110648767D01*
X146959144Y-110628080D01*
X147133478Y-110628080D01*
X147141320Y-110714553D01*
X147163622Y-110786738D01*
X147199973Y-110847722D01*
X147247892Y-110896215D01*
X147298049Y-110923825D01*
X147352106Y-110932975D01*
X147407514Y-110923539D01*
X147465551Y-110893682D01*
X147500246Y-110863470D01*
X147530111Y-110823592D01*
X147555353Y-110772550D01*
X147573402Y-110716917D01*
X147584341Y-110657809D01*
X147588063Y-110594503D01*
X147581463Y-110513067D01*
X147562820Y-110445331D01*
X147532852Y-110388515D01*
X147502900Y-110353871D01*
X147467491Y-110329037D01*
X147425532Y-110313572D01*
X147375413Y-110308104D01*
X147324101Y-110314108D01*
X147278775Y-110331522D01*
X147238168Y-110360271D01*
X147201451Y-110401374D01*
X147163966Y-110467331D01*
X147141313Y-110542069D01*
X147133478Y-110628080D01*
X146959144Y-110628080D01*
X146942149Y-110512797D01*
X146935067Y-110355731D01*
X146940994Y-110214673D01*
X146957788Y-110091995D01*
X146984258Y-109985327D01*
X147019626Y-109892577D01*
X147063557Y-109811986D01*
X147119208Y-109739359D01*
X147180791Y-109684144D01*
X147249086Y-109644704D01*
X147325400Y-109620496D01*
X147411481Y-109612109D01*
X147489583Y-109616668D01*
G37*
G36*
X148326962Y-109616395D02*
G01*
X148378560Y-109628808D01*
X148425565Y-109648941D01*
X148468642Y-109677762D01*
X148503898Y-109713802D01*
X148532226Y-109757532D01*
X148553146Y-109806978D01*
X148565626Y-109859021D01*
X148569840Y-109914543D01*
X148565503Y-109972082D01*
X148552511Y-110027579D01*
X148531476Y-110080927D01*
X148501061Y-110135772D01*
X148456938Y-110192657D01*
X148365451Y-110286989D01*
X148428588Y-110346364D01*
X148500545Y-110421156D01*
X148548221Y-110481412D01*
X148577295Y-110529730D01*
X148598456Y-110582705D01*
X148611269Y-110639940D01*
X148615647Y-110702458D01*
X148609883Y-110774621D01*
X148592929Y-110840881D01*
X148564629Y-110902603D01*
X148523965Y-110960757D01*
X148475652Y-111006247D01*
X148415549Y-111040266D01*
X148341091Y-111062204D01*
X148248984Y-111070142D01*
X148155979Y-111062626D01*
X148081131Y-111041933D01*
X148021095Y-111010056D01*
X147973197Y-110967822D01*
X147932838Y-110913173D01*
X147904534Y-110853474D01*
X147887402Y-110787609D01*
X147881514Y-110713968D01*
X147881674Y-110712063D01*
X148033311Y-110712063D01*
X148040492Y-110770580D01*
X148061772Y-110822234D01*
X148098665Y-110869075D01*
X148144688Y-110904444D01*
X148195793Y-110925683D01*
X148253484Y-110932975D01*
X148306267Y-110926143D01*
X148354695Y-110905939D01*
X148399975Y-110871774D01*
X148436436Y-110826637D01*
X148457475Y-110776448D01*
X148464589Y-110719128D01*
X148456894Y-110662758D01*
X148432191Y-110602912D01*
X148386071Y-110537271D01*
X148276724Y-110416535D01*
X148231655Y-110374862D01*
X148150593Y-110456857D01*
X148094729Y-110530104D01*
X148059021Y-110595964D01*
X148039463Y-110656017D01*
X148033311Y-110712063D01*
X147881674Y-110712063D01*
X147887310Y-110645061D01*
X147904954Y-110576581D01*
X147935491Y-110507350D01*
X147980775Y-110436420D01*
X148043375Y-110363107D01*
X148126472Y-110286989D01*
X148100948Y-110264842D01*
X148050261Y-110212611D01*
X147996437Y-110134026D01*
X147967944Y-110074103D01*
X147951072Y-110011098D01*
X147945390Y-109943755D01*
X147946400Y-109932086D01*
X148079858Y-109932086D01*
X148083814Y-109972029D01*
X148095815Y-110010765D01*
X148116665Y-110049170D01*
X148160643Y-110103333D01*
X148234677Y-110172525D01*
X148270007Y-110202689D01*
X148339146Y-110134973D01*
X148380751Y-110083192D01*
X148402662Y-110043851D01*
X148423094Y-109980209D01*
X148429327Y-109924942D01*
X148424094Y-109883009D01*
X148408113Y-109843090D01*
X148379690Y-109803889D01*
X148344221Y-109774017D01*
X148302241Y-109755711D01*
X148251939Y-109749276D01*
X148198065Y-109756525D01*
X148156298Y-109776595D01*
X148123785Y-109808731D01*
X148098586Y-109850533D01*
X148084437Y-109891286D01*
X148079858Y-109932086D01*
X147946400Y-109932086D01*
X147951121Y-109877568D01*
X147967970Y-109817306D01*
X147996199Y-109761524D01*
X148037073Y-109709269D01*
X148085084Y-109667414D01*
X148139101Y-109637262D01*
X148200250Y-109618610D01*
X148270007Y-109612109D01*
X148326962Y-109616395D01*
G37*
G36*
X149335863Y-109616668D02*
G01*
X149412129Y-109630265D01*
X149486935Y-109652910D01*
X149486935Y-109819685D01*
X149402187Y-109779337D01*
X149324200Y-109756547D01*
X149251717Y-109749276D01*
X149191623Y-109756173D01*
X149138598Y-109776148D01*
X149091174Y-109809059D01*
X149048369Y-109855987D01*
X149009782Y-109919147D01*
X148973878Y-110005082D01*
X148947099Y-110104023D01*
X148930132Y-110218026D01*
X148924144Y-110349460D01*
X148924144Y-110385022D01*
X148963277Y-110325551D01*
X149007848Y-110274297D01*
X149058209Y-110230709D01*
X149113393Y-110197494D01*
X149171795Y-110177651D01*
X149234455Y-110170937D01*
X149293984Y-110176721D01*
X149351231Y-110193992D01*
X149406939Y-110223089D01*
X149457371Y-110262798D01*
X149498517Y-110311051D01*
X149531265Y-110368591D01*
X149554627Y-110432557D01*
X149569087Y-110504393D01*
X149574117Y-110585613D01*
X149567315Y-110681223D01*
X149547400Y-110768759D01*
X149514474Y-110849813D01*
X149467792Y-110925592D01*
X149410536Y-110988737D01*
X149345915Y-111033352D01*
X149272440Y-111060650D01*
X149187908Y-111070142D01*
X149108135Y-111061603D01*
X149039493Y-111037190D01*
X148979846Y-110997618D01*
X148927706Y-110942120D01*
X148882367Y-110868519D01*
X148840070Y-110766509D01*
X148808474Y-110648767D01*
X148805424Y-110628080D01*
X148979759Y-110628080D01*
X148987601Y-110714553D01*
X149009903Y-110786738D01*
X149046254Y-110847722D01*
X149094173Y-110896215D01*
X149144330Y-110923825D01*
X149198386Y-110932975D01*
X149253794Y-110923539D01*
X149311831Y-110893682D01*
X149346527Y-110863470D01*
X149376391Y-110823592D01*
X149401633Y-110772550D01*
X149419682Y-110716917D01*
X149430621Y-110657809D01*
X149434343Y-110594503D01*
X149427744Y-110513067D01*
X149409101Y-110445331D01*
X149379132Y-110388515D01*
X149349180Y-110353871D01*
X149313772Y-110329037D01*
X149271812Y-110313572D01*
X149221693Y-110308104D01*
X149170382Y-110314108D01*
X149125055Y-110331522D01*
X149084449Y-110360271D01*
X149047731Y-110401374D01*
X149010246Y-110467331D01*
X148987594Y-110542069D01*
X148979759Y-110628080D01*
X148805424Y-110628080D01*
X148788430Y-110512797D01*
X148781348Y-110355731D01*
X148787274Y-110214673D01*
X148804068Y-110091995D01*
X148830539Y-109985327D01*
X148865907Y-109892577D01*
X148909838Y-109811986D01*
X148965488Y-109739359D01*
X149027072Y-109684144D01*
X149095366Y-109644704D01*
X149171681Y-109620496D01*
X149257762Y-109612109D01*
X149335863Y-109616668D01*
G37*
D13*
G36*
X151699125Y-97382012D02*
G01*
X151699125Y-97539500D01*
X151065138Y-97539500D01*
X151065138Y-96157671D01*
X151221234Y-96157671D01*
X151221234Y-97382012D01*
X151699125Y-97382012D01*
G37*
G36*
X152458110Y-96539008D02*
G01*
X152494044Y-96543770D01*
X152636572Y-96543770D01*
X152636572Y-97248179D01*
X152640698Y-97366637D01*
X152651983Y-97462564D01*
X152669014Y-97539500D01*
X152518493Y-97539500D01*
X152504190Y-97449065D01*
X152492298Y-97321525D01*
X152447624Y-97394984D01*
X152397401Y-97454632D01*
X152341307Y-97501874D01*
X152279390Y-97538514D01*
X152224535Y-97558624D01*
X152175271Y-97564901D01*
X152124578Y-97558422D01*
X152076553Y-97539022D01*
X152030168Y-97505855D01*
X151984719Y-97456945D01*
X151950040Y-97400720D01*
X151923739Y-97329801D01*
X151906599Y-97240910D01*
X151900357Y-97129984D01*
X151901468Y-97110615D01*
X152056453Y-97110615D01*
X152062535Y-97207855D01*
X152078720Y-97280007D01*
X152102865Y-97332797D01*
X152137258Y-97376191D01*
X152171972Y-97399810D01*
X152208384Y-97407413D01*
X152249409Y-97400015D01*
X152296361Y-97375617D01*
X152351382Y-97329225D01*
X152400094Y-97273401D01*
X152446902Y-97203913D01*
X152491761Y-97118871D01*
X152491761Y-96693479D01*
X152420025Y-96676216D01*
X152355614Y-96670777D01*
X152293771Y-96678260D01*
X152238429Y-96700108D01*
X152188118Y-96736475D01*
X152141889Y-96788892D01*
X152105944Y-96850177D01*
X152079342Y-96922705D01*
X152062459Y-97008624D01*
X152056453Y-97110615D01*
X151901468Y-97110615D01*
X151906860Y-97016571D01*
X151925667Y-96914449D01*
X151956173Y-96821914D01*
X151998521Y-96736277D01*
X152048298Y-96665324D01*
X152105753Y-96607432D01*
X152171186Y-96564562D01*
X152247614Y-96537912D01*
X152337613Y-96528530D01*
X152458110Y-96539008D01*
G37*
G36*
X153171959Y-97497270D02*
G01*
X152783130Y-96543770D01*
X152941980Y-96543770D01*
X153249268Y-97279772D01*
X153506516Y-96543770D01*
X153651664Y-96543770D01*
X153325099Y-97470678D01*
X153266346Y-97621703D01*
X153214470Y-97730697D01*
X153168817Y-97806177D01*
X153128636Y-97855586D01*
X153080003Y-97896361D01*
X153024466Y-97926013D01*
X152960753Y-97944512D01*
X152887239Y-97951000D01*
X152824766Y-97947405D01*
X152770906Y-97937267D01*
X152770906Y-97786844D01*
X152830564Y-97803533D01*
X152883544Y-97808753D01*
X152947962Y-97800879D01*
X153002765Y-97778351D01*
X153034916Y-97754339D01*
X153066657Y-97719068D01*
X153098209Y-97670316D01*
X153136906Y-97594223D01*
X153159533Y-97536086D01*
X153171959Y-97497270D01*
G37*
G36*
X154205772Y-96524693D02*
G01*
X154269302Y-96542917D01*
X154326156Y-96572453D01*
X154377363Y-96613438D01*
X154423612Y-96666728D01*
X154470437Y-96744140D01*
X154504223Y-96831086D01*
X154525136Y-96929332D01*
X154532422Y-97041159D01*
X154525140Y-97153019D01*
X154504234Y-97251378D01*
X154470447Y-97338501D01*
X154423612Y-97416145D01*
X154377345Y-97469595D01*
X154326128Y-97510690D01*
X154269274Y-97540298D01*
X154205754Y-97558563D01*
X154134257Y-97564901D01*
X154062431Y-97558554D01*
X153998677Y-97540269D01*
X153941672Y-97510647D01*
X153890377Y-97469557D01*
X153844097Y-97416145D01*
X153797292Y-97338506D01*
X153763525Y-97251384D01*
X153742631Y-97153024D01*
X153735354Y-97041159D01*
X153891449Y-97041159D01*
X153896156Y-97131239D01*
X153909294Y-97206385D01*
X153929762Y-97269011D01*
X153957004Y-97321128D01*
X153992967Y-97365818D01*
X154033750Y-97397055D01*
X154080324Y-97416054D01*
X154134257Y-97422654D01*
X154187796Y-97416070D01*
X154234118Y-97397097D01*
X154274770Y-97365865D01*
X154310704Y-97321128D01*
X154337976Y-97269006D01*
X154358464Y-97206378D01*
X154371615Y-97131234D01*
X154376326Y-97041159D01*
X154371623Y-96951609D01*
X154358487Y-96876787D01*
X154338001Y-96814316D01*
X154310704Y-96762221D01*
X154274766Y-96717445D01*
X154234113Y-96686189D01*
X154187792Y-96667204D01*
X154134257Y-96660616D01*
X154080329Y-96667220D01*
X154033756Y-96686231D01*
X153992971Y-96717492D01*
X153957004Y-96762221D01*
X153929737Y-96814311D01*
X153909272Y-96876780D01*
X153896148Y-96951604D01*
X153891449Y-97041159D01*
X153735354Y-97041159D01*
X153742636Y-96929327D01*
X153763536Y-96831080D01*
X153797302Y-96744136D01*
X153844097Y-96666728D01*
X153890359Y-96613476D01*
X153941645Y-96572496D01*
X153998650Y-96542946D01*
X154062414Y-96524703D01*
X154134257Y-96518369D01*
X154205772Y-96524693D01*
G37*
G36*
X155404448Y-96543770D02*
G01*
X155404448Y-97539500D01*
X155260443Y-97539500D01*
X155260443Y-97325732D01*
X155214221Y-97398944D01*
X155165238Y-97457548D01*
X155113347Y-97503223D01*
X155056252Y-97538314D01*
X155001118Y-97558379D01*
X154946975Y-97564901D01*
X154898656Y-97559641D01*
X154853568Y-97544079D01*
X154810895Y-97517988D01*
X154773397Y-97482911D01*
X154745021Y-97442111D01*
X154724855Y-97394871D01*
X154713252Y-97341382D01*
X154704285Y-97248140D01*
X154700607Y-97098550D01*
X154700607Y-96543770D01*
X154844680Y-96543770D01*
X154844680Y-97118236D01*
X154848386Y-97248203D01*
X154856166Y-97305173D01*
X154872519Y-97346117D01*
X154898279Y-97378757D01*
X154930502Y-97400430D01*
X154964237Y-97407413D01*
X155010773Y-97399520D01*
X155062441Y-97373925D01*
X155121206Y-97326129D01*
X155173442Y-97267974D01*
X155219808Y-97199982D01*
X155260443Y-97121173D01*
X155260443Y-96543770D01*
X155404448Y-96543770D01*
G37*
G36*
X156338872Y-97496794D02*
G01*
X156245082Y-97539262D01*
X156194330Y-97555534D01*
X156108289Y-97564901D01*
X156050126Y-97560292D01*
X155996423Y-97546821D01*
X155946484Y-97524735D01*
X155900993Y-97493219D01*
X155864345Y-97453809D01*
X155835525Y-97405905D01*
X155816463Y-97351266D01*
X155803161Y-97272896D01*
X155798045Y-97163561D01*
X155798045Y-96767301D01*
X155588418Y-96767301D01*
X155588418Y-96625054D01*
X155798045Y-96625054D01*
X155798045Y-96233875D01*
X155942118Y-96233875D01*
X155942118Y-96625054D01*
X156315566Y-96625054D01*
X156315566Y-96767301D01*
X155942118Y-96767301D01*
X155942118Y-97161021D01*
X155945517Y-97241028D01*
X155954077Y-97294518D01*
X155965828Y-97328590D01*
X155993859Y-97370987D01*
X156029234Y-97399872D01*
X156071364Y-97416653D01*
X156123334Y-97422654D01*
X156189087Y-97414805D01*
X156260420Y-97390001D01*
X156338872Y-97345497D01*
X156338872Y-97496794D01*
G37*
G36*
X160919335Y-96163735D02*
G01*
X160997331Y-96180201D01*
X161058383Y-96204964D01*
X161105643Y-96236653D01*
X161147960Y-96279421D01*
X161185397Y-96332443D01*
X161218071Y-96397059D01*
X161245753Y-96475028D01*
X161270824Y-96582675D01*
X161286828Y-96707532D01*
X161292501Y-96852157D01*
X161286593Y-96988782D01*
X161269762Y-97108922D01*
X161243066Y-97214681D01*
X161204013Y-97314062D01*
X161157286Y-97393244D01*
X161103024Y-97455199D01*
X161056739Y-97489080D01*
X160996549Y-97515475D01*
X160919173Y-97533026D01*
X160820722Y-97539500D01*
X160542047Y-97539500D01*
X160542047Y-97382012D01*
X160698142Y-97382012D01*
X160797415Y-97382012D01*
X160876765Y-97376918D01*
X160937215Y-97363305D01*
X160982539Y-97343185D01*
X161015908Y-97317794D01*
X161054352Y-97270782D01*
X161085460Y-97211959D01*
X161109136Y-97139192D01*
X161123565Y-97061844D01*
X161133485Y-96958327D01*
X161137212Y-96822787D01*
X161132789Y-96690340D01*
X161121126Y-96591454D01*
X161104300Y-96519401D01*
X161078163Y-96451976D01*
X161046805Y-96398426D01*
X161010334Y-96356674D01*
X160966637Y-96327741D01*
X160902086Y-96307679D01*
X160809438Y-96299918D01*
X160698142Y-96299918D01*
X160698142Y-97382012D01*
X160542047Y-97382012D01*
X160542047Y-96157671D01*
X160820722Y-96157671D01*
X160919335Y-96163735D01*
G37*
G36*
X162147266Y-97382012D02*
G01*
X162147266Y-97539500D01*
X161513278Y-97539500D01*
X161513278Y-96157671D01*
X161669374Y-96157671D01*
X161669374Y-97382012D01*
X162147266Y-97382012D01*
G37*
G36*
X162819710Y-96121340D02*
G01*
X162871621Y-96133832D01*
X162918945Y-96154099D01*
X162962355Y-96183165D01*
X162997901Y-96219520D01*
X163026479Y-96263642D01*
X163047587Y-96313525D01*
X163060177Y-96366015D01*
X163064428Y-96422003D01*
X163060057Y-96480004D01*
X163046965Y-96535912D01*
X163025774Y-96589628D01*
X162995179Y-96644740D01*
X162951177Y-96701628D01*
X162861316Y-96794449D01*
X162922370Y-96851840D01*
X162994536Y-96926853D01*
X163042420Y-96987381D01*
X163071682Y-97035999D01*
X163092950Y-97089300D01*
X163105832Y-97146929D01*
X163110236Y-97209918D01*
X163104429Y-97282580D01*
X163087351Y-97349289D01*
X163058843Y-97411425D01*
X163017881Y-97469964D01*
X162969243Y-97515802D01*
X162908788Y-97550066D01*
X162833947Y-97572152D01*
X162741423Y-97580142D01*
X162648000Y-97572580D01*
X162572754Y-97551754D01*
X162512342Y-97519656D01*
X162464091Y-97477108D01*
X162423470Y-97422080D01*
X162394979Y-97361957D01*
X162377732Y-97295614D01*
X162371804Y-97221428D01*
X162371963Y-97219523D01*
X162527900Y-97219523D01*
X162535000Y-97277286D01*
X162556055Y-97328341D01*
X162592581Y-97374709D01*
X162638131Y-97409675D01*
X162688747Y-97430681D01*
X162745923Y-97437894D01*
X162798229Y-97431129D01*
X162846168Y-97411131D01*
X162890936Y-97377328D01*
X162927030Y-97332714D01*
X162947844Y-97283150D01*
X162954879Y-97226588D01*
X162947238Y-97170881D01*
X162922664Y-97111517D01*
X162876697Y-97046159D01*
X162767820Y-96925980D01*
X162724094Y-96885497D01*
X162643947Y-96966604D01*
X162588692Y-97039113D01*
X162553356Y-97104362D01*
X162533993Y-97163906D01*
X162527900Y-97219523D01*
X162371963Y-97219523D01*
X162377598Y-97151959D01*
X162395211Y-97083121D01*
X162425639Y-97013748D01*
X162470678Y-96942900D01*
X162532833Y-96869909D01*
X162615217Y-96794370D01*
X162592111Y-96774366D01*
X162541169Y-96721854D01*
X162487062Y-96642835D01*
X162458386Y-96582525D01*
X162441401Y-96519073D01*
X162435680Y-96451214D01*
X162436690Y-96439546D01*
X162574446Y-96439546D01*
X162578359Y-96478923D01*
X162590243Y-96517213D01*
X162610918Y-96555280D01*
X162654569Y-96609005D01*
X162728393Y-96677921D01*
X162762446Y-96706973D01*
X162830456Y-96640328D01*
X162871476Y-96589197D01*
X162893153Y-96550200D01*
X162913434Y-96487118D01*
X162919616Y-96432402D01*
X162914461Y-96391174D01*
X162898702Y-96351857D01*
X162870652Y-96313174D01*
X162835617Y-96283700D01*
X162794123Y-96265630D01*
X162744378Y-96259276D01*
X162691145Y-96266432D01*
X162649907Y-96286238D01*
X162617836Y-96317937D01*
X162592939Y-96359184D01*
X162578966Y-96399359D01*
X162574446Y-96439546D01*
X162436690Y-96439546D01*
X162441454Y-96384488D01*
X162458430Y-96323749D01*
X162486866Y-96267542D01*
X162528034Y-96214903D01*
X162576400Y-96172729D01*
X162630779Y-96142356D01*
X162692302Y-96123574D01*
X162762446Y-96117029D01*
X162819710Y-96121340D01*
G37*
G36*
X164099468Y-97539500D02*
G01*
X163935044Y-97539500D01*
X163855384Y-97244845D01*
X163448152Y-97244845D01*
X163369298Y-97539500D01*
X163219046Y-97539500D01*
X163333023Y-97102598D01*
X163485564Y-97102598D01*
X163820122Y-97102598D01*
X163680482Y-96573458D01*
X163649652Y-96441768D01*
X163622315Y-96573855D01*
X163485564Y-97102598D01*
X163333023Y-97102598D01*
X163579530Y-96157671D01*
X163736768Y-96157671D01*
X164099468Y-97539500D01*
G37*
G36*
X164616943Y-96163308D02*
G01*
X164703508Y-96177012D01*
X164752867Y-96194741D01*
X164796350Y-96223969D01*
X164830955Y-96260326D01*
X164857781Y-96304284D01*
X164876908Y-96354053D01*
X164888609Y-96408818D01*
X164892641Y-96469630D01*
X164887479Y-96541303D01*
X164872222Y-96608385D01*
X164846985Y-96670854D01*
X164811705Y-96727929D01*
X164765756Y-96777875D01*
X164699469Y-96827471D01*
X164785717Y-96877629D01*
X164845464Y-96931223D01*
X164884446Y-96987975D01*
X164912618Y-97054187D01*
X164928763Y-97118181D01*
X164934015Y-97181024D01*
X164929444Y-97241202D01*
X164915622Y-97300538D01*
X164891969Y-97359865D01*
X164860187Y-97413258D01*
X164821206Y-97457408D01*
X164774293Y-97493063D01*
X164721867Y-97516405D01*
X164644094Y-97533025D01*
X164532828Y-97539500D01*
X164247369Y-97539500D01*
X164247369Y-97397252D01*
X164403465Y-97397252D01*
X164544851Y-97397252D01*
X164622489Y-97388700D01*
X164679541Y-97365807D01*
X164721030Y-97330892D01*
X164752842Y-97283259D01*
X164771554Y-97230683D01*
X164777920Y-97171340D01*
X164770106Y-97105491D01*
X164746687Y-97045207D01*
X164722970Y-97010510D01*
X164691170Y-96980014D01*
X164649833Y-96953683D01*
X164604707Y-96936631D01*
X164538109Y-96924448D01*
X164443429Y-96919709D01*
X164403465Y-96919709D01*
X164403465Y-97397252D01*
X164247369Y-97397252D01*
X164247369Y-96777462D01*
X164403465Y-96777462D01*
X164560232Y-96777462D01*
X164630221Y-96735988D01*
X164672199Y-96697845D01*
X164703322Y-96653162D01*
X164725060Y-96604416D01*
X164738092Y-96551078D01*
X164742590Y-96491142D01*
X164736673Y-96429279D01*
X164720465Y-96382531D01*
X164694767Y-96347228D01*
X164659833Y-96323993D01*
X164600860Y-96306863D01*
X164507305Y-96299918D01*
X164403465Y-96299918D01*
X164403465Y-96777462D01*
X164247369Y-96777462D01*
X164247369Y-96157671D01*
X164477214Y-96157671D01*
X164616943Y-96163308D01*
G37*
G36*
X165863134Y-97537039D02*
G01*
X165778966Y-97561762D01*
X165703186Y-97575722D01*
X165634834Y-97580142D01*
X165562272Y-97574592D01*
X165495140Y-97558367D01*
X165432621Y-97531783D01*
X165374025Y-97494730D01*
X165321218Y-97447932D01*
X165273862Y-97390263D01*
X165231691Y-97320576D01*
X165194757Y-97237304D01*
X165159373Y-97120350D01*
X165137505Y-96991430D01*
X165129941Y-96848585D01*
X165137327Y-96707483D01*
X165158693Y-96579886D01*
X165193279Y-96463915D01*
X165229428Y-96381413D01*
X165271247Y-96311660D01*
X165318720Y-96253242D01*
X165372144Y-96205140D01*
X165451855Y-96156101D01*
X165535889Y-96126892D01*
X165625766Y-96117029D01*
X165694410Y-96122817D01*
X165772748Y-96141400D01*
X165862395Y-96174976D01*
X165862395Y-96343656D01*
X165777738Y-96295539D01*
X165697318Y-96268131D01*
X165619788Y-96259276D01*
X165562276Y-96267178D01*
X165508150Y-96290852D01*
X165456103Y-96331511D01*
X165411771Y-96384336D01*
X165371823Y-96453983D01*
X165336546Y-96543691D01*
X165311712Y-96638397D01*
X165296490Y-96740131D01*
X165291276Y-96849935D01*
X165296820Y-96960507D01*
X165313111Y-97064296D01*
X165339891Y-97162284D01*
X165377249Y-97255323D01*
X165416185Y-97321848D01*
X165461727Y-97372026D01*
X165514529Y-97407884D01*
X165576034Y-97430092D01*
X165648334Y-97437894D01*
X165707038Y-97433132D01*
X165707038Y-96995913D01*
X165590571Y-96995913D01*
X165590571Y-96853666D01*
X165863134Y-96853666D01*
X165863134Y-97537039D01*
G37*
D14*
%TO.P,C1,1*%
%TO.N,GND*%
X160020000Y-88850000D03*
%TO.P,C1,2*%
%TO.N,+3.3V*%
X160020000Y-85725000D03*
%TD*%
D15*
%TO.P,C2,1*%
%TO.N,Net-(U1-SNSK)*%
X152742500Y-91097500D03*
%TO.P,C2,2*%
%TO.N,Net-(U1-SNS)*%
X155867500Y-91097500D03*
%TD*%
D14*
%TO.P,C3,1*%
%TO.N,GND*%
X160020000Y-106045000D03*
%TO.P,C3,2*%
%TO.N,+3.3V*%
X160020000Y-102920000D03*
%TD*%
D15*
%TO.P,C4,1*%
%TO.N,Net-(U2-SNSK)*%
X152742500Y-108292500D03*
%TO.P,C4,2*%
%TO.N,Net-(U2-SNS)*%
X155867500Y-108292500D03*
%TD*%
D16*
%TO.P,U1,1,OUT*%
%TO.N,Net-(Q1-G)*%
X152955000Y-85702500D03*
%TO.P,U1,2,VSS*%
%TO.N,GND*%
X152955000Y-86652500D03*
%TO.P,U1,3,SNSK*%
%TO.N,Net-(U1-SNSK)*%
X152955000Y-87602500D03*
%TO.P,U1,4,SNS*%
%TO.N,Net-(U1-SNS)*%
X155655000Y-87602500D03*
%TO.P,U1,5,VDD*%
%TO.N,+3.3V*%
X155655000Y-86652500D03*
%TO.P,U1,6,SYNC*%
X155655000Y-85702500D03*
%TD*%
%TO.P,U2,1,OUT*%
%TO.N,Net-(Q2-G)*%
X152955000Y-102897500D03*
%TO.P,U2,2,VSS*%
%TO.N,GND*%
X152955000Y-103847500D03*
%TO.P,U2,3,SNSK*%
%TO.N,Net-(U2-SNSK)*%
X152955000Y-104797500D03*
%TO.P,U2,4,SNS*%
%TO.N,Net-(U2-SNS)*%
X155655000Y-104797500D03*
%TO.P,U2,5,VDD*%
%TO.N,+3.3V*%
X155655000Y-103847500D03*
%TO.P,U2,6,SYNC*%
X155655000Y-102897500D03*
%TD*%
D17*
%TO.P,Q1,1,G*%
%TO.N,Net-(Q1-G)*%
X164870000Y-86337500D03*
%TO.P,Q1,2,S*%
%TO.N,GND*%
X164870000Y-88237500D03*
%TO.P,Q1,3,D*%
%TO.N,Net-(J1-Pin_1)*%
X167870000Y-87287500D03*
%TD*%
D18*
%TO.P,R1,1*%
%TO.N,Net-(J4-Pin_1)*%
X149225000Y-91097500D03*
%TO.P,R1,2*%
%TO.N,Net-(U1-SNSK)*%
X149225000Y-87972500D03*
%TD*%
D19*
%TO.P,R2,1*%
%TO.N,Net-(J5-Pin_1)*%
X149225000Y-100037500D03*
%TO.P,R2,2*%
%TO.N,Net-(U2-SNSK)*%
X149225000Y-103162500D03*
%TD*%
D20*
%TO.P,J4,1,Pin_1*%
%TO.N,Net-(J4-Pin_1)*%
X142875000Y-91440000D03*
%TD*%
%TO.P,J2,1,Pin_1*%
%TO.N,GND*%
X172085000Y-94615000D03*
%TD*%
%TO.P,J3,1,Pin_1*%
%TO.N,Net-(J3-Pin_1)*%
X172085000Y-99060000D03*
%TD*%
D17*
%TO.P,Q2,1,G*%
%TO.N,Net-(Q2-G)*%
X164870000Y-103532500D03*
%TO.P,Q2,2,S*%
%TO.N,GND*%
X164870000Y-105432500D03*
%TO.P,Q2,3,D*%
%TO.N,Net-(J3-Pin_1)*%
X167870000Y-104482500D03*
%TD*%
D20*
%TO.P,J7,1,Pin_1*%
%TO.N,GND*%
X142875000Y-103505000D03*
%TD*%
%TO.P,J6,1,Pin_1*%
%TO.N,+3.3V*%
X172085000Y-103505000D03*
%TD*%
%TO.P,J1,1,Pin_1*%
%TO.N,Net-(J1-Pin_1)*%
X172085000Y-90170000D03*
%TD*%
%TO.P,J5,1,Pin_1*%
%TO.N,Net-(J5-Pin_1)*%
X144780000Y-97790000D03*
%TD*%
D21*
%TO.N,GND*%
X162560000Y-106045000D03*
X169545000Y-92710000D03*
X162560000Y-88900000D03*
X151765000Y-100965000D03*
X147320000Y-106045000D03*
X151765000Y-83820000D03*
%TD*%
D22*
%TO.N,+3.3V*%
X171450000Y-103505000D02*
X170815000Y-104140000D01*
X158920000Y-103212500D02*
X159152500Y-103445000D01*
X168275000Y-108292500D02*
X158750000Y-108292500D01*
X158115000Y-92075000D02*
X167005000Y-92075000D01*
X170815000Y-105752500D02*
X168275000Y-108292500D01*
X170815000Y-104140000D02*
X170815000Y-105752500D01*
X157480000Y-107022500D02*
X157480000Y-103847500D01*
X173990000Y-96520000D02*
X174625000Y-97155000D01*
X174625000Y-101600000D02*
X173990000Y-102235000D01*
X172085000Y-103505000D02*
X171450000Y-103505000D01*
X157480000Y-103212500D02*
X157480000Y-103847500D01*
X173990000Y-102235000D02*
X172720000Y-102235000D01*
X157165000Y-102897500D02*
X157480000Y-103212500D01*
X167640000Y-92710000D02*
X167640000Y-95885000D01*
X157480000Y-86017500D02*
X157480000Y-86652500D01*
X158750000Y-108292500D02*
X157480000Y-107022500D01*
X172720000Y-102235000D02*
X172085000Y-102870000D01*
X155655000Y-86652500D02*
X157480000Y-86652500D01*
X168275000Y-96520000D02*
X173990000Y-96520000D01*
X155655000Y-102897500D02*
X157165000Y-102897500D01*
X155655000Y-103847500D02*
X157480000Y-103847500D01*
X157480000Y-103212500D02*
X158920000Y-103212500D01*
X167005000Y-92075000D02*
X167640000Y-92710000D01*
X167640000Y-95885000D02*
X168275000Y-96520000D01*
X155655000Y-85702500D02*
X157165000Y-85702500D01*
X157480000Y-91440000D02*
X158115000Y-92075000D01*
X157480000Y-86017500D02*
X159152500Y-86017500D01*
X157480000Y-86652500D02*
X157480000Y-91440000D01*
X174625000Y-97155000D02*
X174625000Y-101600000D01*
X172085000Y-102870000D02*
X172085000Y-104140000D01*
X157165000Y-85702500D02*
X157480000Y-86017500D01*
D23*
%TO.N,Net-(U1-SNS)*%
X155655000Y-90150000D02*
X155342500Y-90462500D01*
X155655000Y-87602500D02*
X155655000Y-90150000D01*
X155575000Y-87682500D02*
X155655000Y-87602500D01*
%TO.N,Net-(U1-SNSK)*%
X149595000Y-87602500D02*
X149225000Y-87972500D01*
X152955000Y-87602500D02*
X149595000Y-87602500D01*
X152955000Y-87602500D02*
X152955000Y-90150000D01*
X153035000Y-87682500D02*
X152955000Y-87602500D01*
X152955000Y-90150000D02*
X153267500Y-90462500D01*
%TO.N,Net-(U2-SNS)*%
X155655000Y-104797500D02*
X155655000Y-107345000D01*
X155655000Y-107345000D02*
X155342500Y-107657500D01*
%TO.N,Net-(U2-SNSK)*%
X152955000Y-104797500D02*
X152955000Y-107345000D01*
X149882500Y-104797500D02*
X149225000Y-104140000D01*
X152955000Y-107345000D02*
X153267500Y-107657500D01*
X152955000Y-104797500D02*
X149882500Y-104797500D01*
X149225000Y-104140000D02*
X149225000Y-103162500D01*
%TO.N,Net-(J1-Pin_1)*%
X167307500Y-87287500D02*
X168910000Y-87287500D01*
X170180000Y-90170000D02*
X172085000Y-90170000D01*
X169545000Y-87922500D02*
X169545000Y-89535000D01*
X168910000Y-87287500D02*
X169545000Y-87922500D01*
X169545000Y-89535000D02*
X170180000Y-90170000D01*
%TO.N,Net-(J3-Pin_1)*%
X168275000Y-99695000D02*
X168275000Y-104077500D01*
X168910000Y-99060000D02*
X168275000Y-99695000D01*
X172085000Y-99060000D02*
X168910000Y-99060000D01*
X168275000Y-104077500D02*
X167870000Y-104482500D01*
%TO.N,Net-(J4-Pin_1)*%
X149225000Y-91097500D02*
X148932500Y-91097500D01*
X148590000Y-91440000D02*
X142875000Y-91440000D01*
X148932500Y-91097500D02*
X148590000Y-91440000D01*
%TO.N,Net-(J5-Pin_1)*%
X149225000Y-100037500D02*
X145122500Y-100037500D01*
X145122500Y-100037500D02*
X144780000Y-99695000D01*
X144780000Y-99695000D02*
X144780000Y-97790000D01*
%TO.N,Net-(Q1-G)*%
X152955000Y-85462500D02*
X152955000Y-85702500D01*
X162560000Y-86017500D02*
X162560000Y-84747500D01*
X161925000Y-84112500D02*
X154305000Y-84112500D01*
X165432500Y-86337500D02*
X162880000Y-86337500D01*
X154305000Y-84112500D02*
X152955000Y-85462500D01*
X162560000Y-84747500D02*
X161925000Y-84112500D01*
X162880000Y-86337500D02*
X162560000Y-86017500D01*
%TO.N,Net-(Q2-G)*%
X162885000Y-103532500D02*
X162560000Y-103207500D01*
X162560000Y-103207500D02*
X162560000Y-101942500D01*
X162560000Y-101942500D02*
X161925000Y-101307500D01*
X152955000Y-102657500D02*
X152955000Y-102897500D01*
X165432500Y-103532500D02*
X162885000Y-103532500D01*
X154305000Y-101307500D02*
X152955000Y-102657500D01*
X161925000Y-101307500D02*
X154305000Y-101307500D01*
%TD*%
%TA.AperFunction,Conductor*%
%TO.N,GND*%
G36*
X176867539Y-82095185D02*
G01*
X176913294Y-82147989D01*
X176924500Y-82199500D01*
X176924500Y-102887971D01*
X176904815Y-102955010D01*
X176852011Y-103000765D01*
X176800500Y-103011971D01*
X174660071Y-103011971D01*
X174660071Y-105481828D01*
X176800500Y-105481828D01*
X176867539Y-105501513D01*
X176913294Y-105554317D01*
X176924500Y-105605828D01*
X176924500Y-111800500D01*
X176904815Y-111867539D01*
X176852011Y-111913294D01*
X176800500Y-111924500D01*
X140199500Y-111924500D01*
X140132461Y-111904815D01*
X140086706Y-111852011D01*
X140075500Y-111800500D01*
X140075500Y-108885258D01*
X141249500Y-108885258D01*
X141249500Y-109114741D01*
X141274446Y-109304215D01*
X141279452Y-109342238D01*
X141279453Y-109342240D01*
X141338842Y-109563887D01*
X141426650Y-109775876D01*
X141426657Y-109775890D01*
X141541392Y-109974617D01*
X141681081Y-110156661D01*
X141681089Y-110156670D01*
X141843330Y-110318911D01*
X141843338Y-110318918D01*
X142025382Y-110458607D01*
X142025385Y-110458608D01*
X142025388Y-110458611D01*
X142224112Y-110573344D01*
X142224117Y-110573346D01*
X142224123Y-110573349D01*
X142315480Y-110611190D01*
X142436113Y-110661158D01*
X142657762Y-110720548D01*
X142885266Y-110750500D01*
X142885273Y-110750500D01*
X143114727Y-110750500D01*
X143114734Y-110750500D01*
X143342238Y-110720548D01*
X143563887Y-110661158D01*
X143775888Y-110573344D01*
X143974612Y-110458611D01*
X144156661Y-110318919D01*
X144156665Y-110318914D01*
X144156670Y-110318911D01*
X144311753Y-110163828D01*
X144373076Y-110130343D01*
X144442768Y-110135327D01*
X144498701Y-110177199D01*
X144523118Y-110242663D01*
X144523434Y-110251509D01*
X144523434Y-111583635D01*
X150087607Y-111583635D01*
X150087607Y-109098617D01*
X144874500Y-109098617D01*
X144807461Y-109078932D01*
X144761706Y-109026128D01*
X144750500Y-108974617D01*
X144750500Y-108885272D01*
X144750499Y-108885258D01*
X144738422Y-108793526D01*
X144720548Y-108657762D01*
X144661158Y-108436113D01*
X144573344Y-108224112D01*
X144458611Y-108025388D01*
X144458608Y-108025385D01*
X144458607Y-108025382D01*
X144357764Y-107893962D01*
X144318919Y-107843339D01*
X144318918Y-107843338D01*
X144318911Y-107843330D01*
X144156670Y-107681089D01*
X144156661Y-107681081D01*
X143974617Y-107541392D01*
X143972339Y-107540077D01*
X143775888Y-107426656D01*
X143775876Y-107426650D01*
X143563887Y-107338842D01*
X143342238Y-107279452D01*
X143304215Y-107274446D01*
X143114741Y-107249500D01*
X143114734Y-107249500D01*
X142885266Y-107249500D01*
X142885258Y-107249500D01*
X142668715Y-107278009D01*
X142657762Y-107279452D01*
X142564076Y-107304554D01*
X142436112Y-107338842D01*
X142224123Y-107426650D01*
X142224109Y-107426657D01*
X142025382Y-107541392D01*
X141843338Y-107681081D01*
X141681081Y-107843338D01*
X141541392Y-108025382D01*
X141426657Y-108224109D01*
X141426650Y-108224123D01*
X141338842Y-108436112D01*
X141279453Y-108657759D01*
X141279451Y-108657770D01*
X141249500Y-108885258D01*
X140075500Y-108885258D01*
X140075500Y-102607155D01*
X141525000Y-102607155D01*
X141525000Y-103255000D01*
X142441988Y-103255000D01*
X142409075Y-103312007D01*
X142375000Y-103439174D01*
X142375000Y-103570826D01*
X142409075Y-103697993D01*
X142441988Y-103755000D01*
X141525000Y-103755000D01*
X141525000Y-104402844D01*
X141531401Y-104462372D01*
X141531403Y-104462379D01*
X141581645Y-104597086D01*
X141581649Y-104597093D01*
X141667809Y-104712187D01*
X141667812Y-104712190D01*
X141782906Y-104798350D01*
X141782913Y-104798354D01*
X141917620Y-104848596D01*
X141917627Y-104848598D01*
X141977155Y-104854999D01*
X141977172Y-104855000D01*
X142625000Y-104855000D01*
X142625000Y-103938012D01*
X142682007Y-103970925D01*
X142809174Y-104005000D01*
X142940826Y-104005000D01*
X143067993Y-103970925D01*
X143125000Y-103938012D01*
X143125000Y-104855000D01*
X143772828Y-104855000D01*
X143772844Y-104854999D01*
X143832372Y-104848598D01*
X143832379Y-104848596D01*
X143967086Y-104798354D01*
X143967089Y-104798352D01*
X143981759Y-104787371D01*
X144047223Y-104762953D01*
X144115496Y-104777804D01*
X144164902Y-104827209D01*
X144180071Y-104886637D01*
X144180071Y-104910400D01*
X146649929Y-104910400D01*
X146649929Y-103583400D01*
X144180071Y-103583400D01*
X144180071Y-103631000D01*
X144160386Y-103698039D01*
X144107582Y-103743794D01*
X144056071Y-103755000D01*
X143308012Y-103755000D01*
X143340925Y-103697993D01*
X143375000Y-103570826D01*
X143375000Y-103439174D01*
X143340925Y-103312007D01*
X143308012Y-103255000D01*
X144225000Y-103255000D01*
X144225000Y-102607172D01*
X144224999Y-102607155D01*
X144218598Y-102547627D01*
X144218596Y-102547620D01*
X144168354Y-102412913D01*
X144168350Y-102412906D01*
X144082190Y-102297812D01*
X144082187Y-102297809D01*
X143967093Y-102211649D01*
X143967086Y-102211645D01*
X143832379Y-102161403D01*
X143832372Y-102161401D01*
X143772844Y-102155000D01*
X143125000Y-102155000D01*
X143125000Y-103071988D01*
X143067993Y-103039075D01*
X142940826Y-103005000D01*
X142809174Y-103005000D01*
X142682007Y-103039075D01*
X142625000Y-103071988D01*
X142625000Y-102155000D01*
X141977155Y-102155000D01*
X141917627Y-102161401D01*
X141917620Y-102161403D01*
X141782913Y-102211645D01*
X141782906Y-102211649D01*
X141667812Y-102297809D01*
X141667809Y-102297812D01*
X141581649Y-102412906D01*
X141581645Y-102412913D01*
X141531403Y-102547620D01*
X141531401Y-102547627D01*
X141525000Y-102607155D01*
X140075500Y-102607155D01*
X140075500Y-99699500D01*
X140095185Y-99632461D01*
X140147989Y-99586706D01*
X140199500Y-99575500D01*
X142094092Y-99575500D01*
X142094094Y-99575500D01*
X142279423Y-99542821D01*
X142456262Y-99478457D01*
X142619238Y-99384363D01*
X142763398Y-99263398D01*
X142884363Y-99119238D01*
X142978457Y-98956262D01*
X143042821Y-98779423D01*
X143075500Y-98594094D01*
X143075500Y-98500000D01*
X143075500Y-98475469D01*
X143075500Y-96891345D01*
X143421500Y-96891345D01*
X143421500Y-98688654D01*
X143428011Y-98749202D01*
X143428011Y-98749204D01*
X143471762Y-98866500D01*
X143479111Y-98886204D01*
X143566739Y-99003261D01*
X143683796Y-99090889D01*
X143820799Y-99141989D01*
X143848050Y-99144918D01*
X143881345Y-99148499D01*
X143881362Y-99148500D01*
X144022500Y-99148500D01*
X144089539Y-99168185D01*
X144135294Y-99220989D01*
X144146500Y-99272500D01*
X144146500Y-99757398D01*
X144170843Y-99879777D01*
X144170845Y-99879785D01*
X144218598Y-99995072D01*
X144218603Y-99995081D01*
X144287928Y-100098832D01*
X144287931Y-100098836D01*
X144718663Y-100529568D01*
X144718667Y-100529571D01*
X144822418Y-100598896D01*
X144822424Y-100598899D01*
X144822425Y-100598900D01*
X144937715Y-100646655D01*
X145060101Y-100670999D01*
X145060105Y-100671000D01*
X145060106Y-100671000D01*
X145184894Y-100671000D01*
X147759632Y-100671000D01*
X147826671Y-100690685D01*
X147872426Y-100743489D01*
X147877338Y-100755997D01*
X147882883Y-100772733D01*
X147882886Y-100772740D01*
X147909217Y-100815429D01*
X147975970Y-100923652D01*
X148101348Y-101049030D01*
X148252262Y-101142115D01*
X148420574Y-101197887D01*
X148524455Y-101208500D01*
X149925544Y-101208499D01*
X150029426Y-101197887D01*
X150197738Y-101142115D01*
X150348652Y-101049030D01*
X150474030Y-100923652D01*
X150567115Y-100772738D01*
X150622887Y-100604426D01*
X150633500Y-100500545D01*
X150633499Y-99574456D01*
X150622887Y-99470574D01*
X150567115Y-99302262D01*
X150474030Y-99151348D01*
X150348652Y-99025970D01*
X150245346Y-98962250D01*
X150197740Y-98932886D01*
X150197735Y-98932884D01*
X150029427Y-98877113D01*
X149925545Y-98866500D01*
X148524462Y-98866500D01*
X148524446Y-98866501D01*
X148420572Y-98877113D01*
X148252264Y-98932884D01*
X148252259Y-98932886D01*
X148101346Y-99025971D01*
X147975971Y-99151346D01*
X147882886Y-99302259D01*
X147882883Y-99302266D01*
X147877338Y-99319003D01*
X147837566Y-99376448D01*
X147773051Y-99403272D01*
X147759632Y-99404000D01*
X145537500Y-99404000D01*
X145528814Y-99401449D01*
X145519853Y-99402738D01*
X145495812Y-99391759D01*
X145470461Y-99384315D01*
X145464533Y-99377474D01*
X145456297Y-99373713D01*
X145442007Y-99351478D01*
X145424706Y-99331511D01*
X145422418Y-99320996D01*
X145418523Y-99314935D01*
X145413500Y-99280000D01*
X145413500Y-99272500D01*
X145433185Y-99205461D01*
X145485989Y-99159706D01*
X145537500Y-99148500D01*
X145678638Y-99148500D01*
X145678654Y-99148499D01*
X145705692Y-99145591D01*
X145739201Y-99141989D01*
X145876204Y-99090889D01*
X145993261Y-99003261D01*
X146080889Y-98886204D01*
X146126555Y-98763768D01*
X146131988Y-98749204D01*
X146131988Y-98749203D01*
X146131989Y-98749201D01*
X146135591Y-98715692D01*
X146138499Y-98688654D01*
X146138500Y-98688637D01*
X146138500Y-96891362D01*
X146138499Y-96891345D01*
X146135157Y-96860270D01*
X146131989Y-96830799D01*
X146123320Y-96807558D01*
X146109522Y-96770564D01*
X146080889Y-96693796D01*
X145993261Y-96576739D01*
X145876204Y-96489111D01*
X145739203Y-96438011D01*
X145678654Y-96431500D01*
X145678638Y-96431500D01*
X143881362Y-96431500D01*
X143881345Y-96431500D01*
X143820797Y-96438011D01*
X143820795Y-96438011D01*
X143683795Y-96489111D01*
X143566739Y-96576739D01*
X143479111Y-96693795D01*
X143428011Y-96830795D01*
X143428011Y-96830797D01*
X143421500Y-96891345D01*
X143075500Y-96891345D01*
X143075500Y-95644171D01*
X150551638Y-95644171D01*
X150551638Y-98464492D01*
X156852372Y-98464492D01*
X156852372Y-98093572D01*
X156872057Y-98026533D01*
X156924861Y-97980778D01*
X156994019Y-97970834D01*
X157057575Y-97999859D01*
X157074747Y-98018085D01*
X157181081Y-98156661D01*
X157181089Y-98156670D01*
X157343330Y-98318911D01*
X157343338Y-98318918D01*
X157525382Y-98458607D01*
X157525385Y-98458608D01*
X157525388Y-98458611D01*
X157724112Y-98573344D01*
X157724117Y-98573346D01*
X157724123Y-98573349D01*
X157815480Y-98611190D01*
X157936113Y-98661158D01*
X158157762Y-98720548D01*
X158385266Y-98750500D01*
X158385273Y-98750500D01*
X158614727Y-98750500D01*
X158614734Y-98750500D01*
X158842238Y-98720548D01*
X159063887Y-98661158D01*
X159275888Y-98573344D01*
X159474612Y-98458611D01*
X159656661Y-98318919D01*
X159656665Y-98318914D01*
X159656670Y-98318911D01*
X159818911Y-98156670D01*
X159818912Y-98156668D01*
X159818919Y-98156661D01*
X159851225Y-98114558D01*
X159907650Y-98073357D01*
X159977396Y-98069202D01*
X160021510Y-98093632D01*
X160028547Y-98093632D01*
X166376634Y-98093632D01*
X166376634Y-95603543D01*
X160028547Y-95603543D01*
X160028547Y-95753604D01*
X160008862Y-95820643D01*
X159956058Y-95866398D01*
X159886900Y-95876342D01*
X159823344Y-95847317D01*
X159816866Y-95841285D01*
X159656670Y-95681089D01*
X159656661Y-95681081D01*
X159474617Y-95541392D01*
X159474355Y-95541241D01*
X159376235Y-95484591D01*
X159275890Y-95426657D01*
X159275876Y-95426650D01*
X159063887Y-95338842D01*
X158842238Y-95279452D01*
X158804215Y-95274446D01*
X158614741Y-95249500D01*
X158614734Y-95249500D01*
X158385266Y-95249500D01*
X158385258Y-95249500D01*
X158168715Y-95278009D01*
X158157762Y-95279452D01*
X158064076Y-95304554D01*
X157936112Y-95338842D01*
X157724123Y-95426650D01*
X157724109Y-95426657D01*
X157525382Y-95541392D01*
X157343338Y-95681081D01*
X157181081Y-95843338D01*
X157074747Y-95981914D01*
X157018319Y-96023117D01*
X156948573Y-96027271D01*
X156887653Y-95993058D01*
X156854901Y-95931340D01*
X156852372Y-95906427D01*
X156852372Y-95644171D01*
X150551638Y-95644171D01*
X143075500Y-95644171D01*
X143075500Y-95543640D01*
X143075869Y-95541241D01*
X143075505Y-95500228D01*
X143075500Y-95499125D01*
X143075500Y-95475030D01*
X143075236Y-95472460D01*
X143074851Y-95426650D01*
X143074676Y-95405769D01*
X143040725Y-95221749D01*
X142975509Y-95046356D01*
X142880986Y-94884859D01*
X142880982Y-94884854D01*
X142760002Y-94742114D01*
X142759994Y-94742106D01*
X142616180Y-94622398D01*
X142616176Y-94622395D01*
X142549905Y-94584395D01*
X142453844Y-94529313D01*
X142453841Y-94529312D01*
X142453838Y-94529310D01*
X142277874Y-94465659D01*
X142093564Y-94433348D01*
X142061143Y-94433364D01*
X142027054Y-94426592D01*
X142026997Y-94426883D01*
X142015019Y-94424500D01*
X142015018Y-94424500D01*
X142015016Y-94424500D01*
X140199500Y-94424500D01*
X140132461Y-94404815D01*
X140086706Y-94352011D01*
X140075500Y-94300500D01*
X140075500Y-90541345D01*
X141516500Y-90541345D01*
X141516500Y-92338654D01*
X141523011Y-92399202D01*
X141523011Y-92399204D01*
X141568155Y-92520235D01*
X141574111Y-92536204D01*
X141661739Y-92653261D01*
X141778796Y-92740889D01*
X141884492Y-92780312D01*
X141906117Y-92788378D01*
X141915799Y-92791989D01*
X141943050Y-92794918D01*
X141976345Y-92798499D01*
X141976362Y-92798500D01*
X143773638Y-92798500D01*
X143773654Y-92798499D01*
X143800692Y-92795591D01*
X143834201Y-92791989D01*
X143971204Y-92740889D01*
X144088261Y-92653261D01*
X144175889Y-92536204D01*
X144226989Y-92399201D01*
X144230929Y-92362555D01*
X144233499Y-92338654D01*
X144233500Y-92338637D01*
X144233500Y-92197500D01*
X144253185Y-92130461D01*
X144305989Y-92084706D01*
X144357500Y-92073500D01*
X148014456Y-92073500D01*
X148081495Y-92093185D01*
X148095652Y-92104593D01*
X148095685Y-92104552D01*
X148101345Y-92109028D01*
X148101347Y-92109029D01*
X148101348Y-92109030D01*
X148252262Y-92202115D01*
X148420574Y-92257887D01*
X148524455Y-92268500D01*
X149925544Y-92268499D01*
X150029426Y-92257887D01*
X150197738Y-92202115D01*
X150348652Y-92109030D01*
X150474030Y-91983652D01*
X150567115Y-91832738D01*
X150622887Y-91664426D01*
X150633500Y-91560545D01*
X150633499Y-90634456D01*
X150622887Y-90530574D01*
X150567115Y-90362262D01*
X150474030Y-90211348D01*
X150348652Y-90085970D01*
X150229536Y-90012498D01*
X150197740Y-89992886D01*
X150197735Y-89992884D01*
X150029427Y-89937113D01*
X149925545Y-89926500D01*
X148524462Y-89926500D01*
X148524446Y-89926501D01*
X148420572Y-89937113D01*
X148252264Y-89992884D01*
X148252259Y-89992886D01*
X148101346Y-90085971D01*
X147975971Y-90211346D01*
X147882886Y-90362259D01*
X147882884Y-90362264D01*
X147827113Y-90530572D01*
X147816500Y-90634447D01*
X147816500Y-90682500D01*
X147796815Y-90749539D01*
X147744011Y-90795294D01*
X147692500Y-90806500D01*
X144357500Y-90806500D01*
X144290461Y-90786815D01*
X144244706Y-90734011D01*
X144233500Y-90682500D01*
X144233500Y-90541362D01*
X144233499Y-90541345D01*
X144230157Y-90510270D01*
X144226989Y-90480799D01*
X144175889Y-90343796D01*
X144088261Y-90226739D01*
X143971204Y-90139111D01*
X143834203Y-90088011D01*
X143773654Y-90081500D01*
X143773638Y-90081500D01*
X141976362Y-90081500D01*
X141976345Y-90081500D01*
X141915797Y-90088011D01*
X141915795Y-90088011D01*
X141778795Y-90139111D01*
X141661739Y-90226739D01*
X141574111Y-90343795D01*
X141523011Y-90480795D01*
X141523011Y-90480797D01*
X141516500Y-90541345D01*
X140075500Y-90541345D01*
X140075500Y-87509447D01*
X147816500Y-87509447D01*
X147816500Y-88435537D01*
X147816501Y-88435553D01*
X147827113Y-88539427D01*
X147835457Y-88564607D01*
X147882885Y-88707738D01*
X147975970Y-88858652D01*
X148101348Y-88984030D01*
X148252262Y-89077115D01*
X148420574Y-89132887D01*
X148524455Y-89143500D01*
X149925544Y-89143499D01*
X150029426Y-89132887D01*
X150197738Y-89077115D01*
X150348652Y-88984030D01*
X150474030Y-88858652D01*
X150567115Y-88707738D01*
X150622887Y-88539426D01*
X150633500Y-88435545D01*
X150633500Y-88360000D01*
X150653185Y-88292961D01*
X150705989Y-88247206D01*
X150757500Y-88236000D01*
X151808200Y-88236000D01*
X151875239Y-88255685D01*
X151895881Y-88272319D01*
X151920638Y-88297076D01*
X151920640Y-88297077D01*
X151920642Y-88297079D01*
X152060090Y-88381379D01*
X152215661Y-88429856D01*
X152215668Y-88429856D01*
X152221687Y-88431054D01*
X152283599Y-88463437D01*
X152318175Y-88524151D01*
X152321500Y-88552672D01*
X152321500Y-89122727D01*
X152301815Y-89189766D01*
X152249011Y-89235521D01*
X152210104Y-89246085D01*
X152175572Y-89249613D01*
X152007264Y-89305384D01*
X152007259Y-89305386D01*
X151856346Y-89398471D01*
X151730971Y-89523846D01*
X151637886Y-89674759D01*
X151637884Y-89674764D01*
X151582113Y-89843072D01*
X151571500Y-89946947D01*
X151571500Y-92248037D01*
X151571501Y-92248053D01*
X151580757Y-92338654D01*
X151582113Y-92351926D01*
X151637885Y-92520238D01*
X151730970Y-92671152D01*
X151856348Y-92796530D01*
X152007262Y-92889615D01*
X152175574Y-92945387D01*
X152279455Y-92956000D01*
X153205544Y-92955999D01*
X153309426Y-92945387D01*
X153477738Y-92889615D01*
X153628652Y-92796530D01*
X153754030Y-92671152D01*
X153847115Y-92520238D01*
X153902887Y-92351926D01*
X153913500Y-92248045D01*
X153913499Y-89946956D01*
X153902887Y-89843074D01*
X153847115Y-89674762D01*
X153754030Y-89523848D01*
X153628652Y-89398470D01*
X153628651Y-89398469D01*
X153624818Y-89394636D01*
X153591334Y-89333313D01*
X153588500Y-89306955D01*
X153588500Y-88552673D01*
X153608185Y-88485634D01*
X153660989Y-88439879D01*
X153688311Y-88431055D01*
X153694333Y-88429856D01*
X153694339Y-88429856D01*
X153849910Y-88381379D01*
X153989358Y-88297079D01*
X154104579Y-88181858D01*
X154188879Y-88042410D01*
X154188881Y-88042402D01*
X154191924Y-88035643D01*
X154237389Y-87982588D01*
X154304319Y-87962536D01*
X154371465Y-87981852D01*
X154417510Y-88034404D01*
X154418076Y-88035643D01*
X154421121Y-88042410D01*
X154505423Y-88181861D01*
X154620638Y-88297076D01*
X154620640Y-88297077D01*
X154620642Y-88297079D01*
X154760090Y-88381379D01*
X154915661Y-88429856D01*
X154915668Y-88429856D01*
X154921687Y-88431054D01*
X154983599Y-88463437D01*
X155018175Y-88524151D01*
X155021500Y-88552672D01*
X155021500Y-89306955D01*
X155001815Y-89373994D01*
X154985182Y-89394636D01*
X154855969Y-89523849D01*
X154762886Y-89674759D01*
X154762884Y-89674764D01*
X154707113Y-89843072D01*
X154696500Y-89946947D01*
X154696500Y-92248037D01*
X154696501Y-92248053D01*
X154705757Y-92338654D01*
X154707113Y-92351926D01*
X154762885Y-92520238D01*
X154855970Y-92671152D01*
X154981348Y-92796530D01*
X155132262Y-92889615D01*
X155300574Y-92945387D01*
X155404455Y-92956000D01*
X156330544Y-92955999D01*
X156434426Y-92945387D01*
X156602738Y-92889615D01*
X156753652Y-92796530D01*
X156879030Y-92671152D01*
X156972115Y-92520238D01*
X157027887Y-92351926D01*
X157031650Y-92315092D01*
X157058046Y-92250402D01*
X157115227Y-92210250D01*
X157185038Y-92207387D01*
X157242689Y-92240015D01*
X157647415Y-92644742D01*
X157647422Y-92644748D01*
X157767556Y-92725018D01*
X157767557Y-92725018D01*
X157767558Y-92725019D01*
X157901046Y-92780312D01*
X157901050Y-92780312D01*
X157901051Y-92780313D01*
X158042754Y-92808501D01*
X158042757Y-92808501D01*
X158193358Y-92808501D01*
X158193378Y-92808500D01*
X166649813Y-92808500D01*
X166679253Y-92817144D01*
X166709240Y-92823668D01*
X166714255Y-92827422D01*
X166716852Y-92828185D01*
X166737494Y-92844819D01*
X166870181Y-92977506D01*
X166903666Y-93038829D01*
X166906500Y-93065187D01*
X166906500Y-95957247D01*
X166934686Y-96098946D01*
X166934688Y-96098954D01*
X166962953Y-96167192D01*
X166962956Y-96167198D01*
X166965176Y-96172557D01*
X166989981Y-96232443D01*
X167022133Y-96280562D01*
X167070253Y-96352579D01*
X167172421Y-96454747D01*
X167172422Y-96454747D01*
X167179489Y-96461814D01*
X167179488Y-96461814D01*
X167179492Y-96461817D01*
X167807415Y-97089742D01*
X167807422Y-97089748D01*
X167927556Y-97170018D01*
X167927557Y-97170018D01*
X167927558Y-97170019D01*
X168061046Y-97225312D01*
X168061050Y-97225312D01*
X168061051Y-97225313D01*
X168202754Y-97253501D01*
X168202757Y-97253501D01*
X168353358Y-97253501D01*
X168353378Y-97253500D01*
X173634813Y-97253500D01*
X173664253Y-97262144D01*
X173694240Y-97268668D01*
X173699255Y-97272422D01*
X173701852Y-97273185D01*
X173722494Y-97289819D01*
X173855181Y-97422506D01*
X173888666Y-97483829D01*
X173891500Y-97510187D01*
X173891500Y-101244812D01*
X173871815Y-101311851D01*
X173855185Y-101332488D01*
X173722492Y-101465182D01*
X173661172Y-101498666D01*
X173634813Y-101501500D01*
X172798378Y-101501500D01*
X172798358Y-101501499D01*
X172792244Y-101501499D01*
X172647757Y-101501499D01*
X172647755Y-101501499D01*
X172506051Y-101529686D01*
X172506047Y-101529687D01*
X172372556Y-101584981D01*
X172372555Y-101584981D01*
X172252422Y-101665251D01*
X172252415Y-101665257D01*
X171807494Y-102110181D01*
X171746171Y-102143666D01*
X171719813Y-102146500D01*
X171186345Y-102146500D01*
X171125797Y-102153011D01*
X171125795Y-102153011D01*
X170988795Y-102204111D01*
X170871739Y-102291739D01*
X170784111Y-102408795D01*
X170733011Y-102545795D01*
X170733011Y-102545797D01*
X170726500Y-102606345D01*
X170726500Y-103139812D01*
X170706815Y-103206851D01*
X170690181Y-103227493D01*
X170350352Y-103567321D01*
X170350345Y-103567328D01*
X170347423Y-103570251D01*
X170347421Y-103570253D01*
X170245253Y-103672421D01*
X170207164Y-103729426D01*
X170202695Y-103736114D01*
X170202690Y-103736120D01*
X170164979Y-103792559D01*
X170164978Y-103792561D01*
X170148786Y-103831654D01*
X170148786Y-103831655D01*
X170109688Y-103926045D01*
X170109686Y-103926053D01*
X170081500Y-104067752D01*
X170081500Y-105397312D01*
X170061815Y-105464351D01*
X170045181Y-105484993D01*
X168007494Y-107522681D01*
X167946171Y-107556166D01*
X167919813Y-107559000D01*
X159105187Y-107559000D01*
X159075746Y-107550355D01*
X159045760Y-107543832D01*
X159040744Y-107540077D01*
X159038148Y-107539315D01*
X159017506Y-107522681D01*
X158914005Y-107419180D01*
X158880520Y-107357857D01*
X158885504Y-107288165D01*
X158927376Y-107232232D01*
X158992840Y-107207815D01*
X159001686Y-107207499D01*
X159769999Y-107207499D01*
X160270000Y-107207499D01*
X161169972Y-107207499D01*
X161169986Y-107207498D01*
X161272697Y-107197005D01*
X161439119Y-107141858D01*
X161439124Y-107141856D01*
X161588345Y-107049815D01*
X161712315Y-106925845D01*
X161804356Y-106776624D01*
X161804358Y-106776619D01*
X161859505Y-106610197D01*
X161859506Y-106610190D01*
X161869999Y-106507486D01*
X161870000Y-106507473D01*
X161870000Y-106295000D01*
X160270000Y-106295000D01*
X160270000Y-107207499D01*
X159769999Y-107207499D01*
X159770000Y-107207498D01*
X159770000Y-105795000D01*
X160270000Y-105795000D01*
X161869999Y-105795000D01*
X161869999Y-105689082D01*
X163420001Y-105689082D01*
X163426408Y-105759602D01*
X163426409Y-105759607D01*
X163476981Y-105921896D01*
X163564927Y-106067377D01*
X163685122Y-106187572D01*
X163830604Y-106275519D01*
X163830603Y-106275519D01*
X163992894Y-106326090D01*
X163992893Y-106326090D01*
X164063427Y-106332499D01*
X164619999Y-106332499D01*
X165120000Y-106332499D01*
X165676581Y-106332499D01*
X165747102Y-106326091D01*
X165747107Y-106326090D01*
X165909396Y-106275518D01*
X166054877Y-106187572D01*
X166175072Y-106067377D01*
X166263019Y-105921895D01*
X166313590Y-105759606D01*
X166320000Y-105689072D01*
X166320000Y-105682500D01*
X165120000Y-105682500D01*
X165120000Y-106332499D01*
X164619999Y-106332499D01*
X164620000Y-106332498D01*
X164620000Y-105682500D01*
X163420001Y-105682500D01*
X163420001Y-105689082D01*
X161869999Y-105689082D01*
X161869999Y-105582528D01*
X161869998Y-105582513D01*
X161859505Y-105479802D01*
X161804358Y-105313380D01*
X161804356Y-105313375D01*
X161712315Y-105164154D01*
X161588345Y-105040184D01*
X161439124Y-104948143D01*
X161439119Y-104948141D01*
X161272697Y-104892994D01*
X161272690Y-104892993D01*
X161169986Y-104882500D01*
X160270000Y-104882500D01*
X160270000Y-105795000D01*
X159770000Y-105795000D01*
X159770000Y-104882500D01*
X158870028Y-104882500D01*
X158870012Y-104882501D01*
X158767302Y-104892994D01*
X158600880Y-104948141D01*
X158600875Y-104948143D01*
X158451654Y-105040184D01*
X158425181Y-105066658D01*
X158363858Y-105100143D01*
X158294166Y-105095159D01*
X158238233Y-105053287D01*
X158213816Y-104987823D01*
X158213500Y-104978977D01*
X158213500Y-104070000D01*
X158216050Y-104061314D01*
X158214762Y-104052353D01*
X158225740Y-104028312D01*
X158233185Y-104002961D01*
X158240025Y-103997033D01*
X158243787Y-103988797D01*
X158266021Y-103974507D01*
X158285989Y-103957206D01*
X158296503Y-103954918D01*
X158302565Y-103951023D01*
X158337500Y-103946000D01*
X158434640Y-103946000D01*
X158499736Y-103964461D01*
X158562155Y-104002961D01*
X158597192Y-104024572D01*
X158597264Y-104024616D01*
X158759862Y-104078494D01*
X158765574Y-104080387D01*
X158765580Y-104080387D01*
X158768674Y-104081050D01*
X158801184Y-104092948D01*
X158805053Y-104095015D01*
X158805058Y-104095019D01*
X158938546Y-104150312D01*
X159057775Y-104174028D01*
X159080252Y-104178499D01*
X159080256Y-104178500D01*
X159080257Y-104178500D01*
X159224746Y-104178500D01*
X159224747Y-104178499D01*
X159366454Y-104150312D01*
X159424704Y-104126184D01*
X159486862Y-104100438D01*
X159534314Y-104090999D01*
X161170537Y-104090999D01*
X161170544Y-104090999D01*
X161274426Y-104080387D01*
X161442738Y-104024615D01*
X161593652Y-103931530D01*
X161719030Y-103806152D01*
X161812115Y-103655238D01*
X161826825Y-103610843D01*
X161866595Y-103553401D01*
X161931110Y-103526577D01*
X161999886Y-103538891D01*
X162047631Y-103580957D01*
X162067926Y-103611330D01*
X162067931Y-103611336D01*
X162392929Y-103936333D01*
X162445393Y-103988797D01*
X162481168Y-104024572D01*
X162584918Y-104093896D01*
X162584924Y-104093899D01*
X162584925Y-104093900D01*
X162700215Y-104141655D01*
X162791678Y-104159848D01*
X162822601Y-104165999D01*
X162822605Y-104166000D01*
X162822606Y-104166000D01*
X163500167Y-104166000D01*
X163567206Y-104185685D01*
X163587843Y-104202314D01*
X163679845Y-104294316D01*
X163823817Y-104381350D01*
X163871003Y-104432877D01*
X163882842Y-104501736D01*
X163855573Y-104566065D01*
X163823817Y-104593582D01*
X163685125Y-104677425D01*
X163685121Y-104677428D01*
X163564927Y-104797622D01*
X163476980Y-104943104D01*
X163426409Y-105105393D01*
X163420000Y-105175927D01*
X163420000Y-105182500D01*
X166319999Y-105182500D01*
X166319999Y-105173457D01*
X166339684Y-105106418D01*
X166392488Y-105060663D01*
X166461646Y-105050719D01*
X166525202Y-105079744D01*
X166550113Y-105109305D01*
X166558184Y-105122655D01*
X166558186Y-105122658D01*
X166679841Y-105244313D01*
X166679843Y-105244314D01*
X166679845Y-105244316D01*
X166827087Y-105333327D01*
X166991351Y-105384513D01*
X167062735Y-105391000D01*
X168677264Y-105390999D01*
X168677271Y-105390999D01*
X168748644Y-105384514D01*
X168748647Y-105384513D01*
X168748649Y-105384513D01*
X168912913Y-105333327D01*
X169060155Y-105244316D01*
X169181816Y-105122655D01*
X169270827Y-104975413D01*
X169322013Y-104811149D01*
X169328500Y-104739765D01*
X169328499Y-104225236D01*
X169328499Y-104225235D01*
X169328499Y-104225227D01*
X169322014Y-104153854D01*
X169322011Y-104153844D01*
X169270828Y-103989590D01*
X169270827Y-103989589D01*
X169270827Y-103989587D01*
X169181816Y-103842345D01*
X169181814Y-103842343D01*
X169181813Y-103842341D01*
X169060158Y-103720686D01*
X169022695Y-103698039D01*
X168968349Y-103665185D01*
X168921162Y-103613658D01*
X168908500Y-103559069D01*
X168908500Y-100008766D01*
X168928185Y-99941727D01*
X168944819Y-99921085D01*
X169136086Y-99729819D01*
X169197409Y-99696334D01*
X169223767Y-99693500D01*
X170602500Y-99693500D01*
X170669539Y-99713185D01*
X170715294Y-99765989D01*
X170726500Y-99817500D01*
X170726500Y-99958654D01*
X170733011Y-100019202D01*
X170733011Y-100019204D01*
X170784111Y-100156204D01*
X170871739Y-100273261D01*
X170988796Y-100360889D01*
X171125799Y-100411989D01*
X171153050Y-100414918D01*
X171186345Y-100418499D01*
X171186362Y-100418500D01*
X172983638Y-100418500D01*
X172983654Y-100418499D01*
X173010692Y-100415591D01*
X173044201Y-100411989D01*
X173181204Y-100360889D01*
X173298261Y-100273261D01*
X173385889Y-100156204D01*
X173436989Y-100019201D01*
X173440591Y-99985692D01*
X173443499Y-99958654D01*
X173443500Y-99958637D01*
X173443500Y-98161362D01*
X173443499Y-98161345D01*
X173440157Y-98130270D01*
X173436989Y-98100799D01*
X173434293Y-98093572D01*
X173389923Y-97974612D01*
X173385889Y-97963796D01*
X173298261Y-97846739D01*
X173181204Y-97759111D01*
X173044203Y-97708011D01*
X172983654Y-97701500D01*
X172983638Y-97701500D01*
X171186362Y-97701500D01*
X171186345Y-97701500D01*
X171125797Y-97708011D01*
X171125795Y-97708011D01*
X170988795Y-97759111D01*
X170871739Y-97846739D01*
X170784111Y-97963795D01*
X170733011Y-98100795D01*
X170733011Y-98100797D01*
X170726500Y-98161345D01*
X170726500Y-98302500D01*
X170706815Y-98369539D01*
X170654011Y-98415294D01*
X170602500Y-98426500D01*
X168847601Y-98426500D01*
X168725222Y-98450842D01*
X168725213Y-98450845D01*
X168692268Y-98464492D01*
X168609924Y-98498599D01*
X168609921Y-98498600D01*
X168506167Y-98567927D01*
X168506163Y-98567930D01*
X167954861Y-99119235D01*
X167871167Y-99202929D01*
X167827047Y-99247049D01*
X167782927Y-99291168D01*
X167713603Y-99394918D01*
X167713598Y-99394927D01*
X167665845Y-99510214D01*
X167665843Y-99510222D01*
X167641500Y-99632601D01*
X167641500Y-103450000D01*
X167621815Y-103517039D01*
X167569011Y-103562794D01*
X167517500Y-103574000D01*
X167062727Y-103574000D01*
X166991354Y-103580485D01*
X166991344Y-103580488D01*
X166827090Y-103631671D01*
X166679841Y-103720686D01*
X166558187Y-103842340D01*
X166553562Y-103848245D01*
X166552395Y-103847331D01*
X166507068Y-103888826D01*
X166438206Y-103900653D01*
X166373883Y-103873372D01*
X166334519Y-103815646D01*
X166328499Y-103777485D01*
X166328499Y-103275236D01*
X166328499Y-103275227D01*
X166322014Y-103203854D01*
X166322011Y-103203844D01*
X166270828Y-103039590D01*
X166270827Y-103039589D01*
X166270827Y-103039587D01*
X166181816Y-102892345D01*
X166181814Y-102892343D01*
X166181813Y-102892341D01*
X166060158Y-102770686D01*
X165912913Y-102681673D01*
X165910018Y-102680771D01*
X165748649Y-102630487D01*
X165748647Y-102630486D01*
X165748645Y-102630486D01*
X165698667Y-102625944D01*
X165677265Y-102624000D01*
X165677262Y-102624000D01*
X164062727Y-102624000D01*
X163991355Y-102630485D01*
X163991344Y-102630488D01*
X163827090Y-102681671D01*
X163679843Y-102770685D01*
X163645782Y-102804747D01*
X163587846Y-102862682D01*
X163560915Y-102877388D01*
X163535102Y-102893977D01*
X163528902Y-102894868D01*
X163526526Y-102896166D01*
X163500167Y-102899000D01*
X163317500Y-102899000D01*
X163250461Y-102879315D01*
X163204706Y-102826511D01*
X163193500Y-102775000D01*
X163193500Y-101880105D01*
X163193499Y-101880101D01*
X163169155Y-101757715D01*
X163149943Y-101711333D01*
X163130856Y-101665253D01*
X163121404Y-101642432D01*
X163121403Y-101642431D01*
X163121401Y-101642425D01*
X163083018Y-101584981D01*
X163052072Y-101538666D01*
X163052069Y-101538663D01*
X162328836Y-100815431D01*
X162328832Y-100815428D01*
X162225081Y-100746103D01*
X162225072Y-100746098D01*
X162109785Y-100698345D01*
X162109777Y-100698343D01*
X161987398Y-100674000D01*
X161987394Y-100674000D01*
X154367393Y-100674000D01*
X154242606Y-100674000D01*
X154242601Y-100674000D01*
X154120222Y-100698343D01*
X154120214Y-100698345D01*
X154004927Y-100746098D01*
X154004918Y-100746103D01*
X153901167Y-100815428D01*
X153901163Y-100815431D01*
X152688913Y-102027681D01*
X152627590Y-102061166D01*
X152601232Y-102064000D01*
X152283263Y-102064000D01*
X152215665Y-102070142D01*
X152060089Y-102118621D01*
X151920638Y-102202923D01*
X151805423Y-102318138D01*
X151721121Y-102457589D01*
X151672643Y-102613163D01*
X151666500Y-102680773D01*
X151666500Y-103114236D01*
X151672642Y-103181834D01*
X151679501Y-103203844D01*
X151721121Y-103337410D01*
X151721122Y-103337411D01*
X151723353Y-103344571D01*
X151721420Y-103345173D01*
X151729564Y-103404149D01*
X151725313Y-103422707D01*
X151681065Y-103564705D01*
X151681064Y-103564707D01*
X151678085Y-103597499D01*
X151678085Y-103597500D01*
X151895041Y-103597500D01*
X151959191Y-103615383D01*
X152060090Y-103676379D01*
X152215661Y-103724856D01*
X152215673Y-103724857D01*
X152220816Y-103725880D01*
X152282729Y-103758263D01*
X152317306Y-103818977D01*
X152313570Y-103888746D01*
X152272706Y-103945420D01*
X152220828Y-103969115D01*
X152215671Y-103970140D01*
X152060089Y-104018621D01*
X151959191Y-104079617D01*
X151895041Y-104097500D01*
X151678085Y-104097500D01*
X151654231Y-104123620D01*
X151594487Y-104159848D01*
X151562669Y-104164000D01*
X150625057Y-104164000D01*
X150558018Y-104144315D01*
X150512263Y-104091511D01*
X150502319Y-104022353D01*
X150519519Y-103974903D01*
X150567110Y-103897746D01*
X150567109Y-103897746D01*
X150567115Y-103897738D01*
X150622887Y-103729426D01*
X150633500Y-103625545D01*
X150633499Y-102699456D01*
X150622887Y-102595574D01*
X150567115Y-102427262D01*
X150474030Y-102276348D01*
X150348652Y-102150970D01*
X150217610Y-102070142D01*
X150197740Y-102057886D01*
X150197735Y-102057884D01*
X150029427Y-102002113D01*
X149925545Y-101991500D01*
X148524462Y-101991500D01*
X148524446Y-101991501D01*
X148420572Y-102002113D01*
X148252264Y-102057884D01*
X148252259Y-102057886D01*
X148101346Y-102150971D01*
X147975971Y-102276346D01*
X147882886Y-102427259D01*
X147882884Y-102427264D01*
X147827113Y-102595572D01*
X147816500Y-102699447D01*
X147816500Y-103625537D01*
X147816501Y-103625553D01*
X147827113Y-103729426D01*
X147882884Y-103897735D01*
X147882886Y-103897740D01*
X147900350Y-103926053D01*
X147975970Y-104048652D01*
X148101348Y-104174030D01*
X148252262Y-104267115D01*
X148420574Y-104322887D01*
X148524455Y-104333500D01*
X148536594Y-104333499D01*
X148603633Y-104353179D01*
X148649391Y-104405980D01*
X148651161Y-104410045D01*
X148663600Y-104440076D01*
X148663601Y-104440077D01*
X148732925Y-104543828D01*
X148732931Y-104543836D01*
X149390429Y-105201333D01*
X149478667Y-105289571D01*
X149478668Y-105289572D01*
X149582418Y-105358896D01*
X149582424Y-105358899D01*
X149582425Y-105358900D01*
X149697715Y-105406655D01*
X149820101Y-105430999D01*
X149820105Y-105431000D01*
X149820106Y-105431000D01*
X151808200Y-105431000D01*
X151875239Y-105450685D01*
X151895881Y-105467319D01*
X151920638Y-105492076D01*
X151920640Y-105492077D01*
X151920642Y-105492079D01*
X152060090Y-105576379D01*
X152215661Y-105624856D01*
X152215668Y-105624856D01*
X152221687Y-105626054D01*
X152283599Y-105658437D01*
X152318175Y-105719151D01*
X152321500Y-105747672D01*
X152321500Y-106317727D01*
X152301815Y-106384766D01*
X152249011Y-106430521D01*
X152210104Y-106441085D01*
X152175572Y-106444613D01*
X152007264Y-106500384D01*
X152007259Y-106500386D01*
X151856346Y-106593471D01*
X151730971Y-106718846D01*
X151637886Y-106869759D01*
X151637884Y-106869764D01*
X151582113Y-107038072D01*
X151571500Y-107141947D01*
X151571500Y-109443037D01*
X151571501Y-109443053D01*
X151582113Y-109546926D01*
X151637885Y-109715238D01*
X151730970Y-109866152D01*
X151856348Y-109991530D01*
X152007262Y-110084615D01*
X152175574Y-110140387D01*
X152279455Y-110151000D01*
X153205544Y-110150999D01*
X153309426Y-110140387D01*
X153477738Y-110084615D01*
X153628652Y-109991530D01*
X153754030Y-109866152D01*
X153847115Y-109715238D01*
X153902887Y-109546926D01*
X153913500Y-109443045D01*
X153913499Y-107141956D01*
X153902887Y-107038074D01*
X153847115Y-106869762D01*
X153754030Y-106718848D01*
X153628652Y-106593470D01*
X153628651Y-106593469D01*
X153624818Y-106589636D01*
X153591334Y-106528313D01*
X153588500Y-106501955D01*
X153588500Y-105747673D01*
X153608185Y-105680634D01*
X153660989Y-105634879D01*
X153688311Y-105626055D01*
X153694333Y-105624856D01*
X153694339Y-105624856D01*
X153849910Y-105576379D01*
X153989358Y-105492079D01*
X154104579Y-105376858D01*
X154188879Y-105237410D01*
X154188881Y-105237402D01*
X154191924Y-105230643D01*
X154237389Y-105177588D01*
X154304319Y-105157536D01*
X154371465Y-105176852D01*
X154417510Y-105229404D01*
X154418076Y-105230643D01*
X154421121Y-105237410D01*
X154494562Y-105358896D01*
X154505423Y-105376861D01*
X154620638Y-105492076D01*
X154620640Y-105492077D01*
X154620642Y-105492079D01*
X154760090Y-105576379D01*
X154915661Y-105624856D01*
X154915668Y-105624856D01*
X154921687Y-105626054D01*
X154983599Y-105658437D01*
X155018175Y-105719151D01*
X155021500Y-105747672D01*
X155021500Y-106501955D01*
X155001815Y-106568994D01*
X154985182Y-106589636D01*
X154855969Y-106718849D01*
X154762886Y-106869759D01*
X154762884Y-106869764D01*
X154707113Y-107038072D01*
X154696500Y-107141947D01*
X154696500Y-109443037D01*
X154696501Y-109443053D01*
X154707113Y-109546926D01*
X154762885Y-109715238D01*
X154855970Y-109866152D01*
X154981348Y-109991530D01*
X155132262Y-110084615D01*
X155300574Y-110140387D01*
X155404455Y-110151000D01*
X156330544Y-110150999D01*
X156434426Y-110140387D01*
X156602738Y-110084615D01*
X156753652Y-109991530D01*
X156879030Y-109866152D01*
X156972115Y-109715238D01*
X157027887Y-109546926D01*
X157038500Y-109443045D01*
X157038499Y-107917685D01*
X157058184Y-107850647D01*
X157110987Y-107804892D01*
X157180146Y-107794948D01*
X157243702Y-107823973D01*
X157250180Y-107830005D01*
X158177127Y-108756952D01*
X158177156Y-108756983D01*
X158282418Y-108862245D01*
X158354438Y-108910367D01*
X158402556Y-108942518D01*
X158402557Y-108942519D01*
X158441655Y-108958713D01*
X158536046Y-108997812D01*
X158654244Y-109021323D01*
X158677756Y-109026000D01*
X168347244Y-109026000D01*
X168370755Y-109021323D01*
X168488954Y-108997812D01*
X168583344Y-108958713D01*
X168622443Y-108942519D01*
X168670562Y-108910366D01*
X168708140Y-108885258D01*
X172249500Y-108885258D01*
X172249500Y-109114741D01*
X172274446Y-109304215D01*
X172279452Y-109342238D01*
X172279453Y-109342240D01*
X172338842Y-109563887D01*
X172426650Y-109775876D01*
X172426657Y-109775890D01*
X172541392Y-109974617D01*
X172681081Y-110156661D01*
X172681089Y-110156670D01*
X172843330Y-110318911D01*
X172843338Y-110318918D01*
X173025382Y-110458607D01*
X173025385Y-110458608D01*
X173025388Y-110458611D01*
X173224112Y-110573344D01*
X173224117Y-110573346D01*
X173224123Y-110573349D01*
X173315480Y-110611190D01*
X173436113Y-110661158D01*
X173657762Y-110720548D01*
X173885266Y-110750500D01*
X173885273Y-110750500D01*
X174114727Y-110750500D01*
X174114734Y-110750500D01*
X174342238Y-110720548D01*
X174563887Y-110661158D01*
X174775888Y-110573344D01*
X174974612Y-110458611D01*
X175156661Y-110318919D01*
X175156665Y-110318914D01*
X175156670Y-110318911D01*
X175318911Y-110156670D01*
X175318914Y-110156665D01*
X175318919Y-110156661D01*
X175458611Y-109974612D01*
X175573344Y-109775888D01*
X175661158Y-109563887D01*
X175720548Y-109342238D01*
X175750500Y-109114734D01*
X175750500Y-108885266D01*
X175720548Y-108657762D01*
X175661158Y-108436113D01*
X175573344Y-108224112D01*
X175458611Y-108025388D01*
X175458608Y-108025385D01*
X175458607Y-108025382D01*
X175357764Y-107893962D01*
X175318919Y-107843339D01*
X175318918Y-107843338D01*
X175318911Y-107843330D01*
X175156670Y-107681089D01*
X175156661Y-107681081D01*
X174974617Y-107541392D01*
X174972339Y-107540077D01*
X174775888Y-107426656D01*
X174775876Y-107426650D01*
X174563887Y-107338842D01*
X174342238Y-107279452D01*
X174304215Y-107274446D01*
X174114741Y-107249500D01*
X174114734Y-107249500D01*
X173885266Y-107249500D01*
X173885258Y-107249500D01*
X173668715Y-107278009D01*
X173657762Y-107279452D01*
X173564076Y-107304554D01*
X173436112Y-107338842D01*
X173224123Y-107426650D01*
X173224109Y-107426657D01*
X173025382Y-107541392D01*
X172843338Y-107681081D01*
X172681081Y-107843338D01*
X172541392Y-108025382D01*
X172426657Y-108224109D01*
X172426650Y-108224123D01*
X172338842Y-108436112D01*
X172279453Y-108657759D01*
X172279451Y-108657770D01*
X172249500Y-108885258D01*
X168708140Y-108885258D01*
X168742579Y-108862247D01*
X168844747Y-108760079D01*
X168844748Y-108760076D01*
X171384746Y-106220080D01*
X171465019Y-106099943D01*
X171487921Y-106044650D01*
X171520312Y-105966454D01*
X171548500Y-105824743D01*
X171548500Y-104987500D01*
X171568185Y-104920461D01*
X171620989Y-104874706D01*
X171672500Y-104863500D01*
X171950272Y-104863500D01*
X171974462Y-104865882D01*
X172012755Y-104873499D01*
X172012756Y-104873500D01*
X172012757Y-104873500D01*
X172157244Y-104873500D01*
X172157244Y-104873499D01*
X172195537Y-104865882D01*
X172219728Y-104863500D01*
X172983638Y-104863500D01*
X172983654Y-104863499D01*
X173010692Y-104860591D01*
X173044201Y-104856989D01*
X173049537Y-104854999D01*
X173086307Y-104841284D01*
X173181204Y-104805889D01*
X173298261Y-104718261D01*
X173385889Y-104601204D01*
X173436989Y-104464201D01*
X173440591Y-104430692D01*
X173443499Y-104403654D01*
X173443500Y-104403637D01*
X173443500Y-103092500D01*
X173463185Y-103025461D01*
X173515989Y-102979706D01*
X173567500Y-102968500D01*
X174062245Y-102968500D01*
X174067968Y-102967361D01*
X174105508Y-102959894D01*
X174203954Y-102940312D01*
X174319756Y-102892345D01*
X174337443Y-102885019D01*
X174385562Y-102852866D01*
X174457579Y-102804747D01*
X174559747Y-102702579D01*
X174559747Y-102702577D01*
X174569948Y-102692377D01*
X174569951Y-102692372D01*
X175194747Y-102067579D01*
X175264147Y-101963713D01*
X175275018Y-101947444D01*
X175275018Y-101947443D01*
X175275019Y-101947442D01*
X175330312Y-101813954D01*
X175350725Y-101711333D01*
X175358501Y-101672245D01*
X175358501Y-101522646D01*
X175358500Y-101522620D01*
X175358500Y-97233378D01*
X175358501Y-97233357D01*
X175358501Y-97082754D01*
X175330313Y-96941051D01*
X175330312Y-96941047D01*
X175275018Y-96807556D01*
X175275018Y-96807555D01*
X175194748Y-96687422D01*
X175194742Y-96687415D01*
X174566817Y-96059492D01*
X174566814Y-96059488D01*
X174566814Y-96059489D01*
X174559747Y-96052422D01*
X174559747Y-96052421D01*
X174457579Y-95950253D01*
X174385562Y-95902133D01*
X174337443Y-95869981D01*
X174298344Y-95853786D01*
X174203954Y-95814688D01*
X174203952Y-95814687D01*
X174203948Y-95814686D01*
X174085753Y-95791175D01*
X174085753Y-95791174D01*
X174062249Y-95786500D01*
X174062244Y-95786500D01*
X174062243Y-95786500D01*
X173527328Y-95786500D01*
X173460289Y-95766815D01*
X173414534Y-95714011D01*
X173404590Y-95644853D01*
X173411146Y-95619166D01*
X173428597Y-95572376D01*
X173428598Y-95572372D01*
X173434999Y-95512844D01*
X173435000Y-95512827D01*
X173435000Y-94865000D01*
X172518012Y-94865000D01*
X172550925Y-94807993D01*
X172585000Y-94680826D01*
X172585000Y-94549174D01*
X172550925Y-94422007D01*
X172518012Y-94365000D01*
X173435000Y-94365000D01*
X173435000Y-93717172D01*
X173434999Y-93717155D01*
X173428598Y-93657627D01*
X173428596Y-93657620D01*
X173378354Y-93522913D01*
X173378350Y-93522906D01*
X173292190Y-93407812D01*
X173292187Y-93407809D01*
X173177093Y-93321649D01*
X173177086Y-93321645D01*
X173042379Y-93271403D01*
X173042372Y-93271401D01*
X172982844Y-93265000D01*
X172335000Y-93265000D01*
X172335000Y-94181988D01*
X172277993Y-94149075D01*
X172150826Y-94115000D01*
X172019174Y-94115000D01*
X171892007Y-94149075D01*
X171835000Y-94181988D01*
X171835000Y-93265000D01*
X171187155Y-93265000D01*
X171127627Y-93271401D01*
X171127620Y-93271403D01*
X170992913Y-93321645D01*
X170992906Y-93321649D01*
X170877812Y-93407809D01*
X170877809Y-93407812D01*
X170791649Y-93522906D01*
X170791645Y-93522913D01*
X170741403Y-93657620D01*
X170741401Y-93657627D01*
X170735000Y-93717155D01*
X170735000Y-94365000D01*
X171651988Y-94365000D01*
X171619075Y-94422007D01*
X171585000Y-94549174D01*
X171585000Y-94680826D01*
X171619075Y-94807993D01*
X171651988Y-94865000D01*
X170735000Y-94865000D01*
X170735000Y-95512844D01*
X170741401Y-95572372D01*
X170741402Y-95572376D01*
X170758854Y-95619166D01*
X170763838Y-95688858D01*
X170730353Y-95750181D01*
X170669030Y-95783666D01*
X170642672Y-95786500D01*
X168630188Y-95786500D01*
X168600747Y-95777855D01*
X168570761Y-95771332D01*
X168565745Y-95767577D01*
X168563149Y-95766815D01*
X168542507Y-95750181D01*
X168409819Y-95617493D01*
X168376334Y-95556170D01*
X168373500Y-95529812D01*
X168373500Y-92788378D01*
X168373501Y-92788357D01*
X168373501Y-92637754D01*
X168345313Y-92496051D01*
X168345312Y-92496047D01*
X168305197Y-92399202D01*
X168290019Y-92362558D01*
X168290018Y-92362556D01*
X168290018Y-92362555D01*
X168209748Y-92242422D01*
X168209742Y-92242415D01*
X167581817Y-91614492D01*
X167581814Y-91614488D01*
X167581814Y-91614489D01*
X167574747Y-91607422D01*
X167574747Y-91607421D01*
X167472579Y-91505253D01*
X167400562Y-91457133D01*
X167352443Y-91424981D01*
X167313344Y-91408786D01*
X167251722Y-91383261D01*
X167218952Y-91369687D01*
X167218948Y-91369686D01*
X167100753Y-91346175D01*
X167100753Y-91346174D01*
X167077249Y-91341500D01*
X167077244Y-91341500D01*
X167077243Y-91341500D01*
X158470188Y-91341500D01*
X158440747Y-91332855D01*
X158410761Y-91326332D01*
X158405745Y-91322577D01*
X158403149Y-91321815D01*
X158382507Y-91305181D01*
X158249819Y-91172493D01*
X158216334Y-91111170D01*
X158213500Y-91084812D01*
X158213500Y-89916023D01*
X158233185Y-89848984D01*
X158285989Y-89803229D01*
X158355147Y-89793285D01*
X158418703Y-89822310D01*
X158425181Y-89828342D01*
X158451654Y-89854815D01*
X158600875Y-89946856D01*
X158600880Y-89946858D01*
X158767302Y-90002005D01*
X158767309Y-90002006D01*
X158870019Y-90012499D01*
X159769999Y-90012499D01*
X160270000Y-90012499D01*
X161169972Y-90012499D01*
X161169986Y-90012498D01*
X161272697Y-90002005D01*
X161439119Y-89946858D01*
X161439124Y-89946856D01*
X161588345Y-89854815D01*
X161712315Y-89730845D01*
X161804356Y-89581624D01*
X161804358Y-89581619D01*
X161859505Y-89415197D01*
X161859506Y-89415190D01*
X161869999Y-89312486D01*
X161870000Y-89312473D01*
X161870000Y-89100000D01*
X160270000Y-89100000D01*
X160270000Y-90012499D01*
X159769999Y-90012499D01*
X159770000Y-90012498D01*
X159770000Y-88600000D01*
X160270000Y-88600000D01*
X161869999Y-88600000D01*
X161869999Y-88494082D01*
X163420001Y-88494082D01*
X163426408Y-88564602D01*
X163426409Y-88564607D01*
X163476981Y-88726896D01*
X163564927Y-88872377D01*
X163685122Y-88992572D01*
X163830604Y-89080519D01*
X163830603Y-89080519D01*
X163992894Y-89131090D01*
X163992893Y-89131090D01*
X164063427Y-89137499D01*
X164619999Y-89137499D01*
X165120000Y-89137499D01*
X165676581Y-89137499D01*
X165747102Y-89131091D01*
X165747107Y-89131090D01*
X165909396Y-89080518D01*
X166054877Y-88992572D01*
X166175072Y-88872377D01*
X166263019Y-88726895D01*
X166313590Y-88564606D01*
X166320000Y-88494072D01*
X166320000Y-88487500D01*
X165120000Y-88487500D01*
X165120000Y-89137499D01*
X164619999Y-89137499D01*
X164620000Y-89137498D01*
X164620000Y-88487500D01*
X163420001Y-88487500D01*
X163420001Y-88494082D01*
X161869999Y-88494082D01*
X161869999Y-88387528D01*
X161869998Y-88387513D01*
X161859505Y-88284802D01*
X161804358Y-88118380D01*
X161804356Y-88118375D01*
X161712315Y-87969154D01*
X161588345Y-87845184D01*
X161439124Y-87753143D01*
X161439119Y-87753141D01*
X161272697Y-87697994D01*
X161272690Y-87697993D01*
X161169986Y-87687500D01*
X160270000Y-87687500D01*
X160270000Y-88600000D01*
X159770000Y-88600000D01*
X159770000Y-87687500D01*
X158870028Y-87687500D01*
X158870012Y-87687501D01*
X158767302Y-87697994D01*
X158600880Y-87753141D01*
X158600875Y-87753143D01*
X158451654Y-87845184D01*
X158425181Y-87871658D01*
X158363858Y-87905143D01*
X158294166Y-87900159D01*
X158238233Y-87858287D01*
X158213816Y-87792823D01*
X158213500Y-87783977D01*
X158213500Y-86875000D01*
X158216050Y-86866314D01*
X158214762Y-86857353D01*
X158225740Y-86833312D01*
X158233185Y-86807961D01*
X158240025Y-86802033D01*
X158243787Y-86793797D01*
X158266021Y-86779507D01*
X158285989Y-86762206D01*
X158296503Y-86759918D01*
X158302565Y-86756023D01*
X158337500Y-86751000D01*
X158434640Y-86751000D01*
X158499736Y-86769461D01*
X158597264Y-86829616D01*
X158762668Y-86884424D01*
X158765574Y-86885387D01*
X158869455Y-86896000D01*
X161170544Y-86895999D01*
X161274426Y-86885387D01*
X161442738Y-86829615D01*
X161593652Y-86736530D01*
X161719030Y-86611152D01*
X161812115Y-86460238D01*
X161825717Y-86419186D01*
X161865489Y-86361743D01*
X161930004Y-86334919D01*
X161998780Y-86347233D01*
X162046525Y-86389300D01*
X162067928Y-86421333D01*
X162476163Y-86829568D01*
X162476167Y-86829571D01*
X162579918Y-86898896D01*
X162579924Y-86898899D01*
X162579925Y-86898900D01*
X162695215Y-86946655D01*
X162767182Y-86960970D01*
X162817601Y-86970999D01*
X162817605Y-86971000D01*
X162817606Y-86971000D01*
X162942393Y-86971000D01*
X163500167Y-86971000D01*
X163567206Y-86990685D01*
X163587843Y-87007314D01*
X163679845Y-87099316D01*
X163823817Y-87186350D01*
X163871003Y-87237877D01*
X163882842Y-87306736D01*
X163855573Y-87371065D01*
X163823817Y-87398582D01*
X163685125Y-87482425D01*
X163685121Y-87482428D01*
X163564927Y-87602622D01*
X163476980Y-87748104D01*
X163426409Y-87910393D01*
X163420000Y-87980927D01*
X163420000Y-87987500D01*
X166319999Y-87987500D01*
X166319999Y-87978457D01*
X166339684Y-87911418D01*
X166392488Y-87865663D01*
X166461646Y-87855719D01*
X166525202Y-87884744D01*
X166550113Y-87914305D01*
X166558184Y-87927655D01*
X166558186Y-87927658D01*
X166679841Y-88049313D01*
X166679843Y-88049314D01*
X166679845Y-88049316D01*
X166827087Y-88138327D01*
X166991351Y-88189513D01*
X167062735Y-88196000D01*
X168677264Y-88195999D01*
X168677271Y-88195999D01*
X168748641Y-88189514D01*
X168748642Y-88189514D01*
X168748643Y-88189513D01*
X168748649Y-88189513D01*
X168750600Y-88188904D01*
X168751805Y-88188884D01*
X168755077Y-88188234D01*
X168755195Y-88188828D01*
X168820457Y-88187746D01*
X168879853Y-88224540D01*
X168909928Y-88287606D01*
X168911500Y-88307286D01*
X168911500Y-89597398D01*
X168935843Y-89719777D01*
X168935845Y-89719785D01*
X168983598Y-89835072D01*
X168983603Y-89835081D01*
X169052928Y-89938832D01*
X169052931Y-89938836D01*
X169776163Y-90662069D01*
X169776167Y-90662072D01*
X169879921Y-90731399D01*
X169879923Y-90731399D01*
X169879925Y-90731401D01*
X169961447Y-90765168D01*
X169995215Y-90779155D01*
X169995217Y-90779155D01*
X169995222Y-90779157D01*
X170117601Y-90803499D01*
X170117605Y-90803500D01*
X170117606Y-90803500D01*
X170117607Y-90803500D01*
X170242394Y-90803500D01*
X170602500Y-90803500D01*
X170669539Y-90823185D01*
X170715294Y-90875989D01*
X170726500Y-90927500D01*
X170726500Y-91068654D01*
X170733011Y-91129202D01*
X170733011Y-91129204D01*
X170784111Y-91266204D01*
X170871739Y-91383261D01*
X170988796Y-91470889D01*
X171125799Y-91521989D01*
X171153050Y-91524918D01*
X171186345Y-91528499D01*
X171186362Y-91528500D01*
X172983638Y-91528500D01*
X172983654Y-91528499D01*
X173010692Y-91525591D01*
X173044201Y-91521989D01*
X173181204Y-91470889D01*
X173298261Y-91383261D01*
X173385889Y-91266204D01*
X173436989Y-91129201D01*
X173441761Y-91084812D01*
X173443499Y-91068654D01*
X173443500Y-91068637D01*
X173443500Y-89271362D01*
X173443499Y-89271345D01*
X173439647Y-89235521D01*
X173436989Y-89210799D01*
X173385889Y-89073796D01*
X173298261Y-88956739D01*
X173181204Y-88869111D01*
X173044203Y-88818011D01*
X172983654Y-88811500D01*
X172983638Y-88811500D01*
X171186362Y-88811500D01*
X171186345Y-88811500D01*
X171125797Y-88818011D01*
X171125795Y-88818011D01*
X170988795Y-88869111D01*
X170871739Y-88956739D01*
X170784111Y-89073795D01*
X170733011Y-89210795D01*
X170733011Y-89210797D01*
X170726500Y-89271345D01*
X170726500Y-89412500D01*
X170723949Y-89421185D01*
X170725238Y-89430147D01*
X170714259Y-89454187D01*
X170706815Y-89479539D01*
X170699974Y-89485466D01*
X170696213Y-89493703D01*
X170673978Y-89507992D01*
X170654011Y-89525294D01*
X170643496Y-89527581D01*
X170637435Y-89531477D01*
X170602500Y-89536500D01*
X170493767Y-89536500D01*
X170426728Y-89516815D01*
X170406086Y-89500181D01*
X170214819Y-89308914D01*
X170181334Y-89247591D01*
X170178500Y-89221233D01*
X170178500Y-87860105D01*
X170178499Y-87860101D01*
X170170369Y-87819228D01*
X170154155Y-87737715D01*
X170133356Y-87687501D01*
X170127111Y-87672424D01*
X170106404Y-87622432D01*
X170106403Y-87622431D01*
X170106401Y-87622425D01*
X170093169Y-87602622D01*
X170037072Y-87518666D01*
X170037069Y-87518663D01*
X169313836Y-86795431D01*
X169313832Y-86795428D01*
X169265485Y-86763123D01*
X169228259Y-86724171D01*
X169181818Y-86647348D01*
X169181817Y-86647347D01*
X169181816Y-86647345D01*
X169060155Y-86525684D01*
X168912913Y-86436673D01*
X168748649Y-86385487D01*
X168748647Y-86385486D01*
X168748645Y-86385486D01*
X168698667Y-86380944D01*
X168677265Y-86379000D01*
X168677262Y-86379000D01*
X167062727Y-86379000D01*
X166991355Y-86385485D01*
X166991344Y-86385488D01*
X166827090Y-86436671D01*
X166679841Y-86525686D01*
X166558187Y-86647340D01*
X166553562Y-86653245D01*
X166552395Y-86652331D01*
X166507068Y-86693826D01*
X166438206Y-86705653D01*
X166373883Y-86678372D01*
X166334519Y-86620646D01*
X166328499Y-86582485D01*
X166328499Y-86080236D01*
X166328499Y-86080227D01*
X166322014Y-86008854D01*
X166322011Y-86008844D01*
X166270828Y-85844590D01*
X166270827Y-85844589D01*
X166270827Y-85844587D01*
X166181816Y-85697345D01*
X166181814Y-85697343D01*
X166181813Y-85697341D01*
X166060158Y-85575686D01*
X165912913Y-85486673D01*
X165910018Y-85485771D01*
X165748649Y-85435487D01*
X165748647Y-85435486D01*
X165748645Y-85435486D01*
X165698667Y-85430944D01*
X165677265Y-85429000D01*
X165677262Y-85429000D01*
X164062727Y-85429000D01*
X163991355Y-85435485D01*
X163991344Y-85435488D01*
X163827090Y-85486671D01*
X163679843Y-85575685D01*
X163633846Y-85621683D01*
X163587846Y-85667682D01*
X163560915Y-85682388D01*
X163535102Y-85698977D01*
X163528902Y-85699868D01*
X163526526Y-85701166D01*
X163500167Y-85704000D01*
X163317500Y-85704000D01*
X163250461Y-85684315D01*
X163204706Y-85631511D01*
X163193500Y-85580000D01*
X163193500Y-84913626D01*
X164163644Y-84913626D01*
X172125500Y-84913626D01*
X172192539Y-84933311D01*
X172238294Y-84986115D01*
X172249500Y-85037626D01*
X172249500Y-85114741D01*
X172271123Y-85278977D01*
X172279452Y-85342238D01*
X172317912Y-85485773D01*
X172338842Y-85563887D01*
X172426650Y-85775876D01*
X172426657Y-85775890D01*
X172541392Y-85974617D01*
X172681081Y-86156661D01*
X172681089Y-86156670D01*
X172843330Y-86318911D01*
X172843338Y-86318918D01*
X172843339Y-86318919D01*
X172880238Y-86347233D01*
X173025382Y-86458607D01*
X173025385Y-86458608D01*
X173025388Y-86458611D01*
X173224112Y-86573344D01*
X173224117Y-86573346D01*
X173224123Y-86573349D01*
X173315388Y-86611152D01*
X173436113Y-86661158D01*
X173657762Y-86720548D01*
X173885266Y-86750500D01*
X173885273Y-86750500D01*
X174114727Y-86750500D01*
X174114734Y-86750500D01*
X174342238Y-86720548D01*
X174563887Y-86661158D01*
X174775888Y-86573344D01*
X174974612Y-86458611D01*
X175156661Y-86318919D01*
X175156665Y-86318914D01*
X175156670Y-86318911D01*
X175318911Y-86156670D01*
X175318914Y-86156665D01*
X175318919Y-86156661D01*
X175458611Y-85974612D01*
X175573344Y-85775888D01*
X175661158Y-85563887D01*
X175720548Y-85342238D01*
X175750500Y-85114734D01*
X175750500Y-84885266D01*
X175720548Y-84657762D01*
X175661158Y-84436113D01*
X175573344Y-84224112D01*
X175458611Y-84025388D01*
X175458608Y-84025385D01*
X175458607Y-84025382D01*
X175318918Y-83843338D01*
X175318911Y-83843330D01*
X175156670Y-83681089D01*
X175156661Y-83681081D01*
X174974617Y-83541392D01*
X174775890Y-83426657D01*
X174775876Y-83426650D01*
X174563887Y-83338842D01*
X174342238Y-83279452D01*
X174304215Y-83274446D01*
X174114741Y-83249500D01*
X174114734Y-83249500D01*
X173885266Y-83249500D01*
X173885258Y-83249500D01*
X173668715Y-83278009D01*
X173657762Y-83279452D01*
X173564076Y-83304554D01*
X173436112Y-83338842D01*
X173224123Y-83426650D01*
X173224109Y-83426657D01*
X173025382Y-83541392D01*
X172843338Y-83681081D01*
X172681081Y-83843338D01*
X172609121Y-83937118D01*
X172552693Y-83978320D01*
X172482947Y-83982475D01*
X172422027Y-83948262D01*
X172389275Y-83886545D01*
X172386746Y-83861631D01*
X172386746Y-82428620D01*
X164163644Y-82428620D01*
X164163644Y-84913626D01*
X163193500Y-84913626D01*
X163193500Y-84685105D01*
X163193499Y-84685101D01*
X163169155Y-84562715D01*
X163149943Y-84516333D01*
X163121401Y-84447425D01*
X163113842Y-84436112D01*
X163052072Y-84343666D01*
X163052069Y-84343663D01*
X162328836Y-83620431D01*
X162328832Y-83620428D01*
X162225081Y-83551103D01*
X162225072Y-83551098D01*
X162109785Y-83503345D01*
X162109777Y-83503343D01*
X161987398Y-83479000D01*
X161987394Y-83479000D01*
X154367393Y-83479000D01*
X154242606Y-83479000D01*
X154242601Y-83479000D01*
X154120222Y-83503343D01*
X154120214Y-83503345D01*
X154004927Y-83551098D01*
X154004918Y-83551103D01*
X153901167Y-83620428D01*
X153901163Y-83620431D01*
X152688913Y-84832681D01*
X152627590Y-84866166D01*
X152601232Y-84869000D01*
X152283263Y-84869000D01*
X152215665Y-84875142D01*
X152060089Y-84923621D01*
X151920638Y-85007923D01*
X151805423Y-85123138D01*
X151721121Y-85262589D01*
X151672643Y-85418163D01*
X151666500Y-85485773D01*
X151666500Y-85919236D01*
X151672642Y-85986834D01*
X151672644Y-85986839D01*
X151721121Y-86142410D01*
X151721122Y-86142411D01*
X151723353Y-86149571D01*
X151721420Y-86150173D01*
X151729564Y-86209149D01*
X151725313Y-86227707D01*
X151681065Y-86369705D01*
X151681064Y-86369707D01*
X151678085Y-86402499D01*
X151678085Y-86402500D01*
X151895041Y-86402500D01*
X151959191Y-86420383D01*
X151981318Y-86433759D01*
X152060090Y-86481379D01*
X152215661Y-86529856D01*
X152215673Y-86529857D01*
X152220816Y-86530880D01*
X152282729Y-86563263D01*
X152317306Y-86623977D01*
X152313570Y-86693746D01*
X152272706Y-86750420D01*
X152220828Y-86774115D01*
X152215671Y-86775140D01*
X152060089Y-86823621D01*
X151959191Y-86884617D01*
X151895041Y-86902500D01*
X151678085Y-86902500D01*
X151654231Y-86928620D01*
X151594487Y-86964848D01*
X151562669Y-86969000D01*
X150396837Y-86969000D01*
X150331741Y-86950539D01*
X150226113Y-86885387D01*
X150197740Y-86867886D01*
X150197735Y-86867884D01*
X150029427Y-86812113D01*
X149925545Y-86801500D01*
X148524462Y-86801500D01*
X148524446Y-86801501D01*
X148420572Y-86812113D01*
X148252264Y-86867884D01*
X148252259Y-86867886D01*
X148101346Y-86960971D01*
X147975971Y-87086346D01*
X147882886Y-87237259D01*
X147882884Y-87237264D01*
X147827113Y-87405572D01*
X147816500Y-87509447D01*
X140075500Y-87509447D01*
X140075500Y-84885258D01*
X141249500Y-84885258D01*
X141249500Y-85114741D01*
X141271123Y-85278977D01*
X141279452Y-85342238D01*
X141317912Y-85485773D01*
X141338842Y-85563887D01*
X141426650Y-85775876D01*
X141426657Y-85775890D01*
X141541392Y-85974617D01*
X141681081Y-86156661D01*
X141681089Y-86156670D01*
X141843330Y-86318911D01*
X141843338Y-86318918D01*
X141843339Y-86318919D01*
X141880238Y-86347233D01*
X142025382Y-86458607D01*
X142025385Y-86458608D01*
X142025388Y-86458611D01*
X142224112Y-86573344D01*
X142224117Y-86573346D01*
X142224123Y-86573349D01*
X142315388Y-86611152D01*
X142436113Y-86661158D01*
X142657762Y-86720548D01*
X142885266Y-86750500D01*
X142885273Y-86750500D01*
X143114727Y-86750500D01*
X143114734Y-86750500D01*
X143342238Y-86720548D01*
X143563887Y-86661158D01*
X143775888Y-86573344D01*
X143974612Y-86458611D01*
X144156661Y-86318919D01*
X144156665Y-86318914D01*
X144156670Y-86318911D01*
X144318911Y-86156670D01*
X144318914Y-86156665D01*
X144318919Y-86156661D01*
X144458611Y-85974612D01*
X144573344Y-85775888D01*
X144661158Y-85563887D01*
X144720548Y-85342238D01*
X144750500Y-85114734D01*
X144750500Y-84885266D01*
X144720548Y-84657762D01*
X144661158Y-84436113D01*
X144573344Y-84224112D01*
X144458611Y-84025388D01*
X144458608Y-84025385D01*
X144458607Y-84025382D01*
X144318918Y-83843338D01*
X144318911Y-83843330D01*
X144156670Y-83681089D01*
X144156661Y-83681081D01*
X143974617Y-83541392D01*
X143775890Y-83426657D01*
X143775876Y-83426650D01*
X143563887Y-83338842D01*
X143342238Y-83279452D01*
X143304215Y-83274446D01*
X143114741Y-83249500D01*
X143114734Y-83249500D01*
X142885266Y-83249500D01*
X142885258Y-83249500D01*
X142668715Y-83278009D01*
X142657762Y-83279452D01*
X142564076Y-83304554D01*
X142436112Y-83338842D01*
X142224123Y-83426650D01*
X142224109Y-83426657D01*
X142025382Y-83541392D01*
X141843338Y-83681081D01*
X141681081Y-83843338D01*
X141541392Y-84025382D01*
X141426657Y-84224109D01*
X141426650Y-84224123D01*
X141338842Y-84436112D01*
X141279453Y-84657759D01*
X141279451Y-84657770D01*
X141249500Y-84885258D01*
X140075500Y-84885258D01*
X140075500Y-82199500D01*
X140095185Y-82132461D01*
X140147989Y-82086706D01*
X140199500Y-82075500D01*
X176800500Y-82075500D01*
X176867539Y-82095185D01*
G37*
%TD.AperFunction*%
%TD*%
M02*
