%TF.GenerationSoftware,KiCad,Pcbnew,9.0.4+dfsg-1*%
%TF.CreationDate,2025-10-04T19:22:22+02:00*%
%TF.ProjectId,CWSensorKey,43575365-6e73-46f7-924b-65792e6b6963,rev?*%
%TF.SameCoordinates,Original*%
%TF.FileFunction,Copper,L2,Bot*%
%TF.FilePolarity,Positive*%
%FSLAX46Y46*%
G04 Gerber Fmt 4.6, Leading zero omitted, Abs format (unit mm)*
G04 Created by KiCad (PCBNEW 9.0.4+dfsg-1) date 2025-10-04 19:22:22*
%MOMM*%
%LPD*%
G01*
G04 APERTURE LIST*
%ADD10C,0.300000*%
%TA.AperFunction,NonConductor*%
%ADD11C,0.300000*%
%TD*%
%TA.AperFunction,ComponentPad*%
%ADD12R,1.700000X1.700000*%
%TD*%
%TA.AperFunction,ViaPad*%
%ADD13C,1.100000*%
%TD*%
G04 APERTURE END LIST*
D10*
D11*
X147796190Y-98128209D02*
X146843809Y-98128209D01*
X147986666Y-98699638D02*
X147320000Y-96699638D01*
X147320000Y-96699638D02*
X146653333Y-98699638D01*
D10*
D11*
X146176904Y-104287733D02*
X144653095Y-104287733D01*
D10*
D11*
X175275952Y-100604638D02*
X175942619Y-99652257D01*
X176418809Y-100604638D02*
X176418809Y-98604638D01*
X176418809Y-98604638D02*
X175656904Y-98604638D01*
X175656904Y-98604638D02*
X175466428Y-98699876D01*
X175466428Y-98699876D02*
X175371190Y-98795114D01*
X175371190Y-98795114D02*
X175275952Y-98985590D01*
X175275952Y-98985590D02*
X175275952Y-99271304D01*
X175275952Y-99271304D02*
X175371190Y-99461780D01*
X175371190Y-99461780D02*
X175466428Y-99557019D01*
X175466428Y-99557019D02*
X175656904Y-99652257D01*
X175656904Y-99652257D02*
X176418809Y-99652257D01*
D10*
D11*
X145414999Y-92349638D02*
X145414999Y-90349638D01*
D10*
D11*
X176021904Y-103652733D02*
X174498095Y-103652733D01*
X175259999Y-104414638D02*
X175259999Y-102890828D01*
D10*
D11*
X175371190Y-94254876D02*
X175561666Y-94159638D01*
X175561666Y-94159638D02*
X175847380Y-94159638D01*
X175847380Y-94159638D02*
X176133095Y-94254876D01*
X176133095Y-94254876D02*
X176323571Y-94445352D01*
X176323571Y-94445352D02*
X176418809Y-94635828D01*
X176418809Y-94635828D02*
X176514047Y-95016780D01*
X176514047Y-95016780D02*
X176514047Y-95302495D01*
X176514047Y-95302495D02*
X176418809Y-95683447D01*
X176418809Y-95683447D02*
X176323571Y-95873923D01*
X176323571Y-95873923D02*
X176133095Y-96064400D01*
X176133095Y-96064400D02*
X175847380Y-96159638D01*
X175847380Y-96159638D02*
X175656904Y-96159638D01*
X175656904Y-96159638D02*
X175371190Y-96064400D01*
X175371190Y-96064400D02*
X175275952Y-95969161D01*
X175275952Y-95969161D02*
X175275952Y-95302495D01*
X175275952Y-95302495D02*
X175656904Y-95302495D01*
D10*
D11*
X176466428Y-89079638D02*
X175323571Y-89079638D01*
X175895000Y-91079638D02*
X175895000Y-89079638D01*
D12*
%TO.P,J4,1,Pin_1*%
%TO.N,Net-(J4-Pin_1)*%
X142875000Y-91440000D03*
%TD*%
%TO.P,J2,1,Pin_1*%
%TO.N,GND*%
X172085000Y-94615000D03*
%TD*%
%TO.P,J3,1,Pin_1*%
%TO.N,Net-(J3-Pin_1)*%
X172085000Y-99060000D03*
%TD*%
%TO.P,J7,1,Pin_1*%
%TO.N,GND*%
X142875000Y-103505000D03*
%TD*%
%TO.P,J6,1,Pin_1*%
%TO.N,+3.3V*%
X172085000Y-103505000D03*
%TD*%
%TO.P,J1,1,Pin_1*%
%TO.N,Net-(J1-Pin_1)*%
X172085000Y-90170000D03*
%TD*%
%TO.P,J5,1,Pin_1*%
%TO.N,Net-(J5-Pin_1)*%
X144780000Y-97790000D03*
%TD*%
D13*
%TO.N,GND*%
X162560000Y-101600000D03*
X168910000Y-94615000D03*
X162560000Y-91440000D03*
X151130000Y-97155000D03*
X147955000Y-105410000D03*
X151130000Y-86360000D03*
%TD*%
%TA.AperFunction,Conductor*%
%TO.N,GND*%
G36*
X176867539Y-82095185D02*
G01*
X176913294Y-82147989D01*
X176924500Y-82199500D01*
X176924500Y-88292138D01*
X176904815Y-88359177D01*
X176852011Y-88404932D01*
X176800500Y-88416138D01*
X174660071Y-88416138D01*
X174660071Y-91743138D01*
X176800500Y-91743138D01*
X176867539Y-91762823D01*
X176913294Y-91815627D01*
X176924500Y-91867138D01*
X176924500Y-93370413D01*
X176904815Y-93437452D01*
X176852011Y-93483207D01*
X176800500Y-93494413D01*
X174612452Y-93494413D01*
X174612452Y-96824863D01*
X176800500Y-96824863D01*
X176867539Y-96844548D01*
X176913294Y-96897352D01*
X176924500Y-96948863D01*
X176924500Y-97815413D01*
X176904815Y-97882452D01*
X176852011Y-97928207D01*
X176800500Y-97939413D01*
X174609625Y-97939413D01*
X174609625Y-101270965D01*
X176800500Y-101270965D01*
X176867539Y-101290650D01*
X176913294Y-101343454D01*
X176924500Y-101394965D01*
X176924500Y-102167062D01*
X176904815Y-102234101D01*
X176852011Y-102279856D01*
X176782853Y-102289800D01*
X176719297Y-102260775D01*
X176712819Y-102254743D01*
X176685404Y-102227328D01*
X173834595Y-102227328D01*
X173834595Y-105078138D01*
X176685404Y-105078138D01*
X176712819Y-105050723D01*
X176774142Y-105017238D01*
X176843834Y-105022222D01*
X176899767Y-105064094D01*
X176924184Y-105129558D01*
X176924500Y-105138404D01*
X176924500Y-111800500D01*
X176904815Y-111867539D01*
X176852011Y-111913294D01*
X176800500Y-111924500D01*
X140199500Y-111924500D01*
X140132461Y-111904815D01*
X140086706Y-111852011D01*
X140075500Y-111800500D01*
X140075500Y-108885258D01*
X141249500Y-108885258D01*
X141249500Y-109114741D01*
X141274446Y-109304215D01*
X141279452Y-109342238D01*
X141279453Y-109342240D01*
X141338842Y-109563887D01*
X141426650Y-109775876D01*
X141426657Y-109775890D01*
X141541392Y-109974617D01*
X141681081Y-110156661D01*
X141681089Y-110156670D01*
X141843330Y-110318911D01*
X141843338Y-110318918D01*
X142025382Y-110458607D01*
X142025385Y-110458608D01*
X142025388Y-110458611D01*
X142224112Y-110573344D01*
X142224117Y-110573346D01*
X142224123Y-110573349D01*
X142315480Y-110611190D01*
X142436113Y-110661158D01*
X142657762Y-110720548D01*
X142885266Y-110750500D01*
X142885273Y-110750500D01*
X143114727Y-110750500D01*
X143114734Y-110750500D01*
X143342238Y-110720548D01*
X143563887Y-110661158D01*
X143775888Y-110573344D01*
X143974612Y-110458611D01*
X144156661Y-110318919D01*
X144156665Y-110318914D01*
X144156670Y-110318911D01*
X144318911Y-110156670D01*
X144318914Y-110156665D01*
X144318919Y-110156661D01*
X144458611Y-109974612D01*
X144573344Y-109775888D01*
X144661158Y-109563887D01*
X144720548Y-109342238D01*
X144750500Y-109114734D01*
X144750500Y-108885266D01*
X144750499Y-108885258D01*
X172249500Y-108885258D01*
X172249500Y-109114741D01*
X172274446Y-109304215D01*
X172279452Y-109342238D01*
X172279453Y-109342240D01*
X172338842Y-109563887D01*
X172426650Y-109775876D01*
X172426657Y-109775890D01*
X172541392Y-109974617D01*
X172681081Y-110156661D01*
X172681089Y-110156670D01*
X172843330Y-110318911D01*
X172843338Y-110318918D01*
X173025382Y-110458607D01*
X173025385Y-110458608D01*
X173025388Y-110458611D01*
X173224112Y-110573344D01*
X173224117Y-110573346D01*
X173224123Y-110573349D01*
X173315480Y-110611190D01*
X173436113Y-110661158D01*
X173657762Y-110720548D01*
X173885266Y-110750500D01*
X173885273Y-110750500D01*
X174114727Y-110750500D01*
X174114734Y-110750500D01*
X174342238Y-110720548D01*
X174563887Y-110661158D01*
X174775888Y-110573344D01*
X174974612Y-110458611D01*
X175156661Y-110318919D01*
X175156665Y-110318914D01*
X175156670Y-110318911D01*
X175318911Y-110156670D01*
X175318914Y-110156665D01*
X175318919Y-110156661D01*
X175458611Y-109974612D01*
X175573344Y-109775888D01*
X175661158Y-109563887D01*
X175720548Y-109342238D01*
X175750500Y-109114734D01*
X175750500Y-108885266D01*
X175720548Y-108657762D01*
X175661158Y-108436113D01*
X175573344Y-108224112D01*
X175458611Y-108025388D01*
X175458608Y-108025385D01*
X175458607Y-108025382D01*
X175318918Y-107843338D01*
X175318911Y-107843330D01*
X175156670Y-107681089D01*
X175156661Y-107681081D01*
X174974617Y-107541392D01*
X174775890Y-107426657D01*
X174775876Y-107426650D01*
X174563887Y-107338842D01*
X174342238Y-107279452D01*
X174304215Y-107274446D01*
X174114741Y-107249500D01*
X174114734Y-107249500D01*
X173885266Y-107249500D01*
X173885258Y-107249500D01*
X173668715Y-107278009D01*
X173657762Y-107279452D01*
X173564076Y-107304554D01*
X173436112Y-107338842D01*
X173224123Y-107426650D01*
X173224109Y-107426657D01*
X173025382Y-107541392D01*
X172843338Y-107681081D01*
X172681081Y-107843338D01*
X172541392Y-108025382D01*
X172426657Y-108224109D01*
X172426650Y-108224123D01*
X172338842Y-108436112D01*
X172279453Y-108657759D01*
X172279451Y-108657770D01*
X172249500Y-108885258D01*
X144750499Y-108885258D01*
X144720548Y-108657762D01*
X144661158Y-108436113D01*
X144573344Y-108224112D01*
X144458611Y-108025388D01*
X144458608Y-108025385D01*
X144458607Y-108025382D01*
X144318918Y-107843338D01*
X144318911Y-107843330D01*
X144156670Y-107681089D01*
X144156661Y-107681081D01*
X143974617Y-107541392D01*
X143775890Y-107426657D01*
X143775876Y-107426650D01*
X143563887Y-107338842D01*
X143342238Y-107279452D01*
X143304215Y-107274446D01*
X143114741Y-107249500D01*
X143114734Y-107249500D01*
X142885266Y-107249500D01*
X142885258Y-107249500D01*
X142668715Y-107278009D01*
X142657762Y-107279452D01*
X142564076Y-107304554D01*
X142436112Y-107338842D01*
X142224123Y-107426650D01*
X142224109Y-107426657D01*
X142025382Y-107541392D01*
X141843338Y-107681081D01*
X141681081Y-107843338D01*
X141541392Y-108025382D01*
X141426657Y-108224109D01*
X141426650Y-108224123D01*
X141338842Y-108436112D01*
X141279453Y-108657759D01*
X141279451Y-108657770D01*
X141249500Y-108885258D01*
X140075500Y-108885258D01*
X140075500Y-102607155D01*
X141525000Y-102607155D01*
X141525000Y-103255000D01*
X142441988Y-103255000D01*
X142409075Y-103312007D01*
X142375000Y-103439174D01*
X142375000Y-103570826D01*
X142409075Y-103697993D01*
X142441988Y-103755000D01*
X141525000Y-103755000D01*
X141525000Y-104402844D01*
X141531401Y-104462372D01*
X141531403Y-104462379D01*
X141581645Y-104597086D01*
X141581649Y-104597093D01*
X141667809Y-104712187D01*
X141667812Y-104712190D01*
X141782906Y-104798350D01*
X141782913Y-104798354D01*
X141917620Y-104848596D01*
X141917627Y-104848598D01*
X141977155Y-104854999D01*
X141977172Y-104855000D01*
X142625000Y-104855000D01*
X142625000Y-103938012D01*
X142682007Y-103970925D01*
X142809174Y-104005000D01*
X142940826Y-104005000D01*
X143067993Y-103970925D01*
X143125000Y-103938012D01*
X143125000Y-104855000D01*
X143772828Y-104855000D01*
X143772844Y-104854999D01*
X143832371Y-104848598D01*
X143837080Y-104847486D01*
X143906850Y-104851227D01*
X143963521Y-104892094D01*
X143984968Y-104946606D01*
X143989595Y-104951233D01*
X146840404Y-104951233D01*
X146840404Y-103624233D01*
X143989595Y-103624233D01*
X143989595Y-103631000D01*
X143969910Y-103698039D01*
X143917106Y-103743794D01*
X143865595Y-103755000D01*
X143308012Y-103755000D01*
X143340925Y-103697993D01*
X143375000Y-103570826D01*
X143375000Y-103439174D01*
X143340925Y-103312007D01*
X143308012Y-103255000D01*
X144225000Y-103255000D01*
X144225000Y-102607164D01*
X144224912Y-102606345D01*
X170726500Y-102606345D01*
X170726500Y-104403654D01*
X170733011Y-104464202D01*
X170733011Y-104464204D01*
X170782575Y-104597086D01*
X170784111Y-104601204D01*
X170871739Y-104718261D01*
X170988796Y-104805889D01*
X171100321Y-104847486D01*
X171120463Y-104854999D01*
X171125799Y-104856989D01*
X171153050Y-104859918D01*
X171186345Y-104863499D01*
X171186362Y-104863500D01*
X172983638Y-104863500D01*
X172983654Y-104863499D01*
X173010692Y-104860591D01*
X173044201Y-104856989D01*
X173049537Y-104854999D01*
X173069679Y-104847486D01*
X173181204Y-104805889D01*
X173298261Y-104718261D01*
X173385889Y-104601204D01*
X173436989Y-104464201D01*
X173440591Y-104430692D01*
X173443499Y-104403654D01*
X173443500Y-104403637D01*
X173443500Y-102606362D01*
X173443499Y-102606345D01*
X173440157Y-102575270D01*
X173436989Y-102545799D01*
X173385889Y-102408796D01*
X173298261Y-102291739D01*
X173181204Y-102204111D01*
X173044203Y-102153011D01*
X172983654Y-102146500D01*
X172983638Y-102146500D01*
X171186362Y-102146500D01*
X171186345Y-102146500D01*
X171125797Y-102153011D01*
X171125795Y-102153011D01*
X170988795Y-102204111D01*
X170871739Y-102291739D01*
X170784111Y-102408795D01*
X170733011Y-102545795D01*
X170733011Y-102545797D01*
X170726500Y-102606345D01*
X144224912Y-102606345D01*
X144218598Y-102547627D01*
X144218596Y-102547620D01*
X144168354Y-102412913D01*
X144168350Y-102412906D01*
X144082190Y-102297812D01*
X144082187Y-102297809D01*
X143967093Y-102211649D01*
X143967086Y-102211645D01*
X143832379Y-102161403D01*
X143832372Y-102161401D01*
X143772844Y-102155000D01*
X143125000Y-102155000D01*
X143125000Y-103071988D01*
X143067993Y-103039075D01*
X142940826Y-103005000D01*
X142809174Y-103005000D01*
X142682007Y-103039075D01*
X142625000Y-103071988D01*
X142625000Y-102155000D01*
X141977155Y-102155000D01*
X141917627Y-102161401D01*
X141917620Y-102161403D01*
X141782913Y-102211645D01*
X141782906Y-102211649D01*
X141667812Y-102297809D01*
X141667809Y-102297812D01*
X141581649Y-102412906D01*
X141581645Y-102412913D01*
X141531403Y-102547620D01*
X141531401Y-102547627D01*
X141525000Y-102607155D01*
X140075500Y-102607155D01*
X140075500Y-99199500D01*
X140095185Y-99132461D01*
X140147989Y-99086706D01*
X140199500Y-99075500D01*
X142094092Y-99075500D01*
X142094094Y-99075500D01*
X142279423Y-99042821D01*
X142456262Y-98978457D01*
X142619238Y-98884363D01*
X142763398Y-98763398D01*
X142884363Y-98619238D01*
X142978457Y-98456262D01*
X143042821Y-98279423D01*
X143075500Y-98094094D01*
X143075500Y-98000000D01*
X143075500Y-97975469D01*
X143075500Y-96891345D01*
X143421500Y-96891345D01*
X143421500Y-98688654D01*
X143428011Y-98749202D01*
X143428011Y-98749204D01*
X143472599Y-98868746D01*
X143479111Y-98886204D01*
X143566739Y-99003261D01*
X143683796Y-99090889D01*
X143820799Y-99141989D01*
X143848050Y-99144918D01*
X143881345Y-99148499D01*
X143881362Y-99148500D01*
X145678638Y-99148500D01*
X145678654Y-99148499D01*
X145705692Y-99145591D01*
X145739201Y-99141989D01*
X145764747Y-99132461D01*
X145820773Y-99111564D01*
X145890465Y-99106579D01*
X145951788Y-99140063D01*
X145985274Y-99201386D01*
X145988108Y-99227745D01*
X145988108Y-99364863D01*
X148651891Y-99364863D01*
X148651891Y-98161345D01*
X170726500Y-98161345D01*
X170726500Y-99958654D01*
X170733011Y-100019202D01*
X170733011Y-100019204D01*
X170784111Y-100156204D01*
X170871739Y-100273261D01*
X170988796Y-100360889D01*
X171125799Y-100411989D01*
X171153050Y-100414918D01*
X171186345Y-100418499D01*
X171186362Y-100418500D01*
X172983638Y-100418500D01*
X172983654Y-100418499D01*
X173010692Y-100415591D01*
X173044201Y-100411989D01*
X173181204Y-100360889D01*
X173298261Y-100273261D01*
X173385889Y-100156204D01*
X173436989Y-100019201D01*
X173440591Y-99985692D01*
X173443499Y-99958654D01*
X173443500Y-99958637D01*
X173443500Y-98161362D01*
X173443499Y-98161345D01*
X173440157Y-98130270D01*
X173436989Y-98100799D01*
X173434488Y-98094094D01*
X173414522Y-98040564D01*
X173385889Y-97963796D01*
X173298261Y-97846739D01*
X173181204Y-97759111D01*
X173044203Y-97708011D01*
X172983654Y-97701500D01*
X172983638Y-97701500D01*
X171186362Y-97701500D01*
X171186345Y-97701500D01*
X171125797Y-97708011D01*
X171125795Y-97708011D01*
X170988795Y-97759111D01*
X170871739Y-97846739D01*
X170784111Y-97963795D01*
X170733011Y-98100795D01*
X170733011Y-98100797D01*
X170726500Y-98161345D01*
X148651891Y-98161345D01*
X148651891Y-96034413D01*
X145988108Y-96034413D01*
X145988108Y-96352254D01*
X145968423Y-96419293D01*
X145915619Y-96465048D01*
X145846461Y-96474992D01*
X145820774Y-96468436D01*
X145739201Y-96438010D01*
X145678654Y-96431500D01*
X145678638Y-96431500D01*
X143881362Y-96431500D01*
X143881345Y-96431500D01*
X143820797Y-96438011D01*
X143820795Y-96438011D01*
X143683795Y-96489111D01*
X143566739Y-96576739D01*
X143479111Y-96693795D01*
X143428011Y-96830795D01*
X143428011Y-96830797D01*
X143421500Y-96891345D01*
X143075500Y-96891345D01*
X143075500Y-95984982D01*
X143075500Y-95905906D01*
X143042821Y-95720577D01*
X142978457Y-95543738D01*
X142884363Y-95380762D01*
X142763398Y-95236602D01*
X142619238Y-95115637D01*
X142618135Y-95115000D01*
X142456266Y-95021545D01*
X142456263Y-95021544D01*
X142456262Y-95021543D01*
X142279423Y-94957179D01*
X142094094Y-94924500D01*
X140199500Y-94924500D01*
X140132461Y-94904815D01*
X140086706Y-94852011D01*
X140075500Y-94800500D01*
X140075500Y-93717155D01*
X170735000Y-93717155D01*
X170735000Y-94365000D01*
X171651988Y-94365000D01*
X171619075Y-94422007D01*
X171585000Y-94549174D01*
X171585000Y-94680826D01*
X171619075Y-94807993D01*
X171651988Y-94865000D01*
X170735000Y-94865000D01*
X170735000Y-95512844D01*
X170741401Y-95572372D01*
X170741403Y-95572379D01*
X170791645Y-95707086D01*
X170791649Y-95707093D01*
X170877809Y-95822187D01*
X170877812Y-95822190D01*
X170992906Y-95908350D01*
X170992913Y-95908354D01*
X171127620Y-95958596D01*
X171127627Y-95958598D01*
X171187155Y-95964999D01*
X171187172Y-95965000D01*
X171835000Y-95965000D01*
X171835000Y-95048012D01*
X171892007Y-95080925D01*
X172019174Y-95115000D01*
X172150826Y-95115000D01*
X172277993Y-95080925D01*
X172335000Y-95048012D01*
X172335000Y-95965000D01*
X172982828Y-95965000D01*
X172982844Y-95964999D01*
X173042372Y-95958598D01*
X173042379Y-95958596D01*
X173177086Y-95908354D01*
X173177093Y-95908350D01*
X173292187Y-95822190D01*
X173292190Y-95822187D01*
X173378350Y-95707093D01*
X173378354Y-95707086D01*
X173428596Y-95572379D01*
X173428598Y-95572372D01*
X173434999Y-95512844D01*
X173435000Y-95512827D01*
X173435000Y-94865000D01*
X172518012Y-94865000D01*
X172550925Y-94807993D01*
X172585000Y-94680826D01*
X172585000Y-94549174D01*
X172550925Y-94422007D01*
X172518012Y-94365000D01*
X173435000Y-94365000D01*
X173435000Y-93717172D01*
X173434999Y-93717155D01*
X173428598Y-93657627D01*
X173428596Y-93657620D01*
X173378354Y-93522913D01*
X173378350Y-93522906D01*
X173292190Y-93407812D01*
X173292187Y-93407809D01*
X173177093Y-93321649D01*
X173177086Y-93321645D01*
X173042379Y-93271403D01*
X173042372Y-93271401D01*
X172982844Y-93265000D01*
X172335000Y-93265000D01*
X172335000Y-94181988D01*
X172277993Y-94149075D01*
X172150826Y-94115000D01*
X172019174Y-94115000D01*
X171892007Y-94149075D01*
X171835000Y-94181988D01*
X171835000Y-93265000D01*
X171187155Y-93265000D01*
X171127627Y-93271401D01*
X171127620Y-93271403D01*
X170992913Y-93321645D01*
X170992906Y-93321649D01*
X170877812Y-93407809D01*
X170877809Y-93407812D01*
X170791649Y-93522906D01*
X170791645Y-93522913D01*
X170741403Y-93657620D01*
X170741401Y-93657627D01*
X170735000Y-93717155D01*
X140075500Y-93717155D01*
X140075500Y-93013138D01*
X144751499Y-93013138D01*
X146078499Y-93013138D01*
X146078499Y-89686138D01*
X144751499Y-89686138D01*
X144751499Y-93013138D01*
X140075500Y-93013138D01*
X140075500Y-90541345D01*
X141516500Y-90541345D01*
X141516500Y-92338654D01*
X141523011Y-92399202D01*
X141523011Y-92399204D01*
X141574111Y-92536204D01*
X141661739Y-92653261D01*
X141778796Y-92740889D01*
X141915799Y-92791989D01*
X141943050Y-92794918D01*
X141976345Y-92798499D01*
X141976362Y-92798500D01*
X143773638Y-92798500D01*
X143773654Y-92798499D01*
X143800692Y-92795591D01*
X143834201Y-92791989D01*
X143971204Y-92740889D01*
X144088261Y-92653261D01*
X144175889Y-92536204D01*
X144226989Y-92399201D01*
X144230591Y-92365692D01*
X144233499Y-92338654D01*
X144233500Y-92338637D01*
X144233500Y-90541362D01*
X144233499Y-90541345D01*
X144230157Y-90510270D01*
X144226989Y-90480799D01*
X144175889Y-90343796D01*
X144088261Y-90226739D01*
X143971204Y-90139111D01*
X143834203Y-90088011D01*
X143773654Y-90081500D01*
X143773638Y-90081500D01*
X141976362Y-90081500D01*
X141976345Y-90081500D01*
X141915797Y-90088011D01*
X141915795Y-90088011D01*
X141778795Y-90139111D01*
X141661739Y-90226739D01*
X141574111Y-90343795D01*
X141523011Y-90480795D01*
X141523011Y-90480797D01*
X141516500Y-90541345D01*
X140075500Y-90541345D01*
X140075500Y-89271345D01*
X170726500Y-89271345D01*
X170726500Y-91068654D01*
X170733011Y-91129202D01*
X170733011Y-91129204D01*
X170784111Y-91266204D01*
X170871739Y-91383261D01*
X170988796Y-91470889D01*
X171125799Y-91521989D01*
X171153050Y-91524918D01*
X171186345Y-91528499D01*
X171186362Y-91528500D01*
X172983638Y-91528500D01*
X172983654Y-91528499D01*
X173010692Y-91525591D01*
X173044201Y-91521989D01*
X173181204Y-91470889D01*
X173298261Y-91383261D01*
X173385889Y-91266204D01*
X173436989Y-91129201D01*
X173440591Y-91095692D01*
X173443499Y-91068654D01*
X173443500Y-91068637D01*
X173443500Y-89271362D01*
X173443499Y-89271345D01*
X173440157Y-89240270D01*
X173436989Y-89210799D01*
X173385889Y-89073796D01*
X173298261Y-88956739D01*
X173181204Y-88869111D01*
X173044203Y-88818011D01*
X172983654Y-88811500D01*
X172983638Y-88811500D01*
X171186362Y-88811500D01*
X171186345Y-88811500D01*
X171125797Y-88818011D01*
X171125795Y-88818011D01*
X170988795Y-88869111D01*
X170871739Y-88956739D01*
X170784111Y-89073795D01*
X170733011Y-89210795D01*
X170733011Y-89210797D01*
X170726500Y-89271345D01*
X140075500Y-89271345D01*
X140075500Y-84885258D01*
X141249500Y-84885258D01*
X141249500Y-85114741D01*
X141274446Y-85304215D01*
X141279452Y-85342238D01*
X141279453Y-85342240D01*
X141338842Y-85563887D01*
X141426650Y-85775876D01*
X141426657Y-85775890D01*
X141541392Y-85974617D01*
X141681081Y-86156661D01*
X141681089Y-86156670D01*
X141843330Y-86318911D01*
X141843338Y-86318918D01*
X142025382Y-86458607D01*
X142025385Y-86458608D01*
X142025388Y-86458611D01*
X142224112Y-86573344D01*
X142224117Y-86573346D01*
X142224123Y-86573349D01*
X142315480Y-86611190D01*
X142436113Y-86661158D01*
X142657762Y-86720548D01*
X142885266Y-86750500D01*
X142885273Y-86750500D01*
X143114727Y-86750500D01*
X143114734Y-86750500D01*
X143342238Y-86720548D01*
X143563887Y-86661158D01*
X143775888Y-86573344D01*
X143974612Y-86458611D01*
X144156661Y-86318919D01*
X144156665Y-86318914D01*
X144156670Y-86318911D01*
X144318911Y-86156670D01*
X144318914Y-86156665D01*
X144318919Y-86156661D01*
X144458611Y-85974612D01*
X144573344Y-85775888D01*
X144661158Y-85563887D01*
X144720548Y-85342238D01*
X144750500Y-85114734D01*
X144750500Y-84885266D01*
X144750499Y-84885258D01*
X172249500Y-84885258D01*
X172249500Y-85114741D01*
X172274446Y-85304215D01*
X172279452Y-85342238D01*
X172279453Y-85342240D01*
X172338842Y-85563887D01*
X172426650Y-85775876D01*
X172426657Y-85775890D01*
X172541392Y-85974617D01*
X172681081Y-86156661D01*
X172681089Y-86156670D01*
X172843330Y-86318911D01*
X172843338Y-86318918D01*
X173025382Y-86458607D01*
X173025385Y-86458608D01*
X173025388Y-86458611D01*
X173224112Y-86573344D01*
X173224117Y-86573346D01*
X173224123Y-86573349D01*
X173315480Y-86611190D01*
X173436113Y-86661158D01*
X173657762Y-86720548D01*
X173885266Y-86750500D01*
X173885273Y-86750500D01*
X174114727Y-86750500D01*
X174114734Y-86750500D01*
X174342238Y-86720548D01*
X174563887Y-86661158D01*
X174775888Y-86573344D01*
X174974612Y-86458611D01*
X175156661Y-86318919D01*
X175156665Y-86318914D01*
X175156670Y-86318911D01*
X175318911Y-86156670D01*
X175318914Y-86156665D01*
X175318919Y-86156661D01*
X175458611Y-85974612D01*
X175573344Y-85775888D01*
X175661158Y-85563887D01*
X175720548Y-85342238D01*
X175750500Y-85114734D01*
X175750500Y-84885266D01*
X175720548Y-84657762D01*
X175661158Y-84436113D01*
X175573344Y-84224112D01*
X175458611Y-84025388D01*
X175458608Y-84025385D01*
X175458607Y-84025382D01*
X175318918Y-83843338D01*
X175318911Y-83843330D01*
X175156670Y-83681089D01*
X175156661Y-83681081D01*
X174974617Y-83541392D01*
X174775890Y-83426657D01*
X174775876Y-83426650D01*
X174563887Y-83338842D01*
X174342238Y-83279452D01*
X174304215Y-83274446D01*
X174114741Y-83249500D01*
X174114734Y-83249500D01*
X173885266Y-83249500D01*
X173885258Y-83249500D01*
X173668715Y-83278009D01*
X173657762Y-83279452D01*
X173564076Y-83304554D01*
X173436112Y-83338842D01*
X173224123Y-83426650D01*
X173224109Y-83426657D01*
X173025382Y-83541392D01*
X172843338Y-83681081D01*
X172681081Y-83843338D01*
X172541392Y-84025382D01*
X172426657Y-84224109D01*
X172426650Y-84224123D01*
X172338842Y-84436112D01*
X172279453Y-84657759D01*
X172279451Y-84657770D01*
X172249500Y-84885258D01*
X144750499Y-84885258D01*
X144720548Y-84657762D01*
X144661158Y-84436113D01*
X144573344Y-84224112D01*
X144458611Y-84025388D01*
X144458608Y-84025385D01*
X144458607Y-84025382D01*
X144318918Y-83843338D01*
X144318911Y-83843330D01*
X144156670Y-83681089D01*
X144156661Y-83681081D01*
X143974617Y-83541392D01*
X143775890Y-83426657D01*
X143775876Y-83426650D01*
X143563887Y-83338842D01*
X143342238Y-83279452D01*
X143304215Y-83274446D01*
X143114741Y-83249500D01*
X143114734Y-83249500D01*
X142885266Y-83249500D01*
X142885258Y-83249500D01*
X142668715Y-83278009D01*
X142657762Y-83279452D01*
X142564076Y-83304554D01*
X142436112Y-83338842D01*
X142224123Y-83426650D01*
X142224109Y-83426657D01*
X142025382Y-83541392D01*
X141843338Y-83681081D01*
X141681081Y-83843338D01*
X141541392Y-84025382D01*
X141426657Y-84224109D01*
X141426650Y-84224123D01*
X141338842Y-84436112D01*
X141279453Y-84657759D01*
X141279451Y-84657770D01*
X141249500Y-84885258D01*
X140075500Y-84885258D01*
X140075500Y-82199500D01*
X140095185Y-82132461D01*
X140147989Y-82086706D01*
X140199500Y-82075500D01*
X176800500Y-82075500D01*
X176867539Y-82095185D01*
G37*
%TD.AperFunction*%
%TD*%
M02*
