%TF.GenerationSoftware,KiCad,Pcbnew,9.0.5+dfsg-1*%
%TF.CreationDate,2025-11-01T11:45:04+01:00*%
%TF.ProjectId,CWSensorKey,43575365-6e73-46f7-924b-65792e6b6963,rev?*%
%TF.SameCoordinates,Original*%
%TF.FileFunction,Legend,Bot*%
%TF.FilePolarity,Positive*%
%FSLAX46Y46*%
G04 Gerber Fmt 4.6, Leading zero omitted, Abs format (unit mm)*
G04 Created by KiCad (PCBNEW 9.0.5+dfsg-1) date 2025-11-01 11:45:04*
%MOMM*%
%LPD*%
G01*
G04 APERTURE LIST*
%ADD10C,0.300000*%
G04 APERTURE END LIST*
D10*
G36*
X168207937Y-102806253D02*
G01*
X168207937Y-103097000D01*
X169360641Y-103097000D01*
X169360641Y-100545932D01*
X169076831Y-100545932D01*
X169076831Y-102806253D01*
X168207937Y-102806253D01*
G37*
G36*
X167210685Y-101247915D02*
G01*
X167349646Y-101297115D01*
X167468614Y-101376260D01*
X167573078Y-101483138D01*
X167663582Y-101614126D01*
X167740578Y-101772226D01*
X167796043Y-101943060D01*
X167830238Y-102131592D01*
X167842061Y-102340970D01*
X167830713Y-102545756D01*
X167799549Y-102709863D01*
X167751729Y-102840791D01*
X167688677Y-102944592D01*
X167606042Y-103034887D01*
X167521704Y-103096118D01*
X167434387Y-103131934D01*
X167342218Y-103143894D01*
X167252648Y-103132306D01*
X167152911Y-103095180D01*
X167040334Y-103027537D01*
X166938346Y-102940321D01*
X166847030Y-102830202D01*
X166765805Y-102694585D01*
X166744182Y-102930044D01*
X166718178Y-103097000D01*
X166444504Y-103097000D01*
X166475469Y-102954965D01*
X166495987Y-102777868D01*
X166503488Y-102559177D01*
X166503488Y-101535115D01*
X166766782Y-101535115D01*
X166766782Y-102320454D01*
X166848344Y-102477455D01*
X166933448Y-102605741D01*
X167022016Y-102708800D01*
X167122054Y-102794448D01*
X167207420Y-102839489D01*
X167282012Y-102853147D01*
X167348216Y-102839111D01*
X167411332Y-102795507D01*
X167473865Y-102715394D01*
X167517764Y-102617937D01*
X167547193Y-102484733D01*
X167558251Y-102305213D01*
X167547330Y-102116922D01*
X167516634Y-101958302D01*
X167468266Y-101824404D01*
X167402912Y-101711263D01*
X167318859Y-101614493D01*
X167227385Y-101547355D01*
X167126764Y-101507019D01*
X167014322Y-101493203D01*
X166897210Y-101503246D01*
X166766782Y-101535115D01*
X166503488Y-101535115D01*
X166503488Y-101258730D01*
X166762630Y-101258730D01*
X166827965Y-101249937D01*
X167047051Y-101230593D01*
X167210685Y-101247915D01*
G37*
G36*
X165530058Y-103018451D02*
G01*
X166237019Y-101249351D01*
X165948202Y-101249351D01*
X165389497Y-102615011D01*
X164921772Y-101249351D01*
X164657867Y-101249351D01*
X165251621Y-102969358D01*
X165358446Y-103248334D01*
X165452767Y-103449675D01*
X165535773Y-103589114D01*
X165608827Y-103680398D01*
X165697258Y-103755741D01*
X165798237Y-103810529D01*
X165914076Y-103844706D01*
X166047731Y-103856692D01*
X166161317Y-103850056D01*
X166259245Y-103831340D01*
X166259245Y-103553636D01*
X166150776Y-103584447D01*
X166054448Y-103594083D01*
X165937324Y-103579545D01*
X165837682Y-103537956D01*
X165779227Y-103493626D01*
X165721515Y-103428511D01*
X165664148Y-103338507D01*
X165593790Y-103198028D01*
X165552651Y-103090698D01*
X165530058Y-103018451D01*
G37*
G36*
X163910991Y-101214195D02*
G01*
X164026894Y-101248012D01*
X164130539Y-101302805D01*
X164223817Y-101378827D01*
X164307989Y-101477669D01*
X164393035Y-101621195D01*
X164454435Y-101782466D01*
X164492454Y-101964757D01*
X164505704Y-102172296D01*
X164492463Y-102379896D01*
X164454455Y-102562398D01*
X164393054Y-102723996D01*
X164307989Y-102867949D01*
X164223785Y-102967086D01*
X164130489Y-103043312D01*
X164026844Y-103098237D01*
X163910959Y-103132131D01*
X163780425Y-103143894D01*
X163650488Y-103132149D01*
X163535028Y-103098291D01*
X163431658Y-103043392D01*
X163338505Y-102967157D01*
X163254326Y-102867949D01*
X163169204Y-102723987D01*
X163107766Y-102562386D01*
X163069737Y-102379888D01*
X163056489Y-102172296D01*
X163340299Y-102172296D01*
X163348873Y-102339764D01*
X163372798Y-102479425D01*
X163410053Y-102595766D01*
X163459612Y-102692533D01*
X163525016Y-102775775D01*
X163598953Y-102833827D01*
X163683151Y-102869062D01*
X163780425Y-102881284D01*
X163878414Y-102869033D01*
X163963071Y-102833748D01*
X164037248Y-102775687D01*
X164102703Y-102692533D01*
X164152207Y-102595776D01*
X164189425Y-102479438D01*
X164213327Y-102339773D01*
X164221894Y-102172296D01*
X164213345Y-102005795D01*
X164189470Y-101866698D01*
X164152256Y-101750597D01*
X164102703Y-101653817D01*
X164037248Y-101570664D01*
X163963071Y-101512603D01*
X163878414Y-101477318D01*
X163780425Y-101465066D01*
X163683151Y-101477289D01*
X163598953Y-101512524D01*
X163525016Y-101570575D01*
X163459612Y-101653817D01*
X163410004Y-101750607D01*
X163372752Y-101866711D01*
X163348856Y-102005805D01*
X163340299Y-102172296D01*
X163056489Y-102172296D01*
X163069745Y-101964766D01*
X163107786Y-101782477D01*
X163169223Y-101621204D01*
X163254326Y-101477669D01*
X163338472Y-101378756D01*
X163431608Y-101302725D01*
X163534978Y-101247959D01*
X163650456Y-101214177D01*
X163780425Y-101202457D01*
X163910991Y-101214195D01*
G37*
G36*
X161470986Y-101249351D02*
G01*
X161470986Y-103097000D01*
X161732815Y-103097000D01*
X161732815Y-102701326D01*
X161816871Y-102836880D01*
X161905933Y-102945357D01*
X162000261Y-103029882D01*
X162104078Y-103094752D01*
X162204320Y-103131841D01*
X162302755Y-103143894D01*
X162390590Y-103134138D01*
X162472565Y-103105268D01*
X162550173Y-103056846D01*
X162618320Y-102991795D01*
X162669922Y-102916088D01*
X162706611Y-102828381D01*
X162727707Y-102729129D01*
X162744010Y-102556150D01*
X162750697Y-102278688D01*
X162750697Y-101249351D01*
X162488746Y-101249351D01*
X162488746Y-102316057D01*
X162482007Y-102557467D01*
X162467864Y-102663224D01*
X162438111Y-102739364D01*
X162391293Y-102799951D01*
X162332689Y-102840192D01*
X162271370Y-102853147D01*
X162186798Y-102838504D01*
X162092864Y-102790993D01*
X161985972Y-102702205D01*
X161891038Y-102594253D01*
X161806731Y-102467958D01*
X161732815Y-102321480D01*
X161732815Y-101249351D01*
X161470986Y-101249351D01*
G37*
G36*
X159772033Y-103018158D02*
G01*
X159942562Y-103096562D01*
X160034839Y-103126602D01*
X160191276Y-103143894D01*
X160297027Y-103135386D01*
X160394668Y-103110515D01*
X160485467Y-103069742D01*
X160568177Y-103011558D01*
X160634811Y-102938803D01*
X160687211Y-102850363D01*
X160721868Y-102749491D01*
X160746054Y-102604809D01*
X160755355Y-102402959D01*
X160755355Y-101671403D01*
X161136496Y-101671403D01*
X161136496Y-101408793D01*
X160755355Y-101408793D01*
X160755355Y-100686616D01*
X160493404Y-100686616D01*
X160493404Y-101408793D01*
X159814409Y-101408793D01*
X159814409Y-101671403D01*
X160493404Y-101671403D01*
X160493404Y-102398270D01*
X160487225Y-102545975D01*
X160471662Y-102644726D01*
X160450296Y-102707628D01*
X160399330Y-102785899D01*
X160335013Y-102839226D01*
X160258411Y-102870206D01*
X160163921Y-102881284D01*
X160044371Y-102866795D01*
X159914674Y-102821002D01*
X159772033Y-102738842D01*
X159772033Y-103018158D01*
G37*
G36*
X157699022Y-103097000D02*
G01*
X157192340Y-103097000D01*
X157013338Y-103085049D01*
X156872654Y-103052646D01*
X156763219Y-103003917D01*
X156679064Y-102941368D01*
X156580405Y-102826989D01*
X156495447Y-102680807D01*
X156424441Y-102497334D01*
X156375902Y-102302088D01*
X156345302Y-102080290D01*
X156334559Y-101828060D01*
X156336654Y-101773838D01*
X156616904Y-101773838D01*
X156623680Y-102024066D01*
X156641715Y-102215174D01*
X156667951Y-102357969D01*
X156710999Y-102492310D01*
X156767558Y-102600905D01*
X156837455Y-102687697D01*
X156898128Y-102734572D01*
X156980535Y-102771718D01*
X157090444Y-102796849D01*
X157234716Y-102806253D01*
X157415212Y-102806253D01*
X157415212Y-100808542D01*
X157212857Y-100808542D01*
X157044405Y-100822869D01*
X156927039Y-100859908D01*
X156847591Y-100913322D01*
X156781280Y-100990402D01*
X156724265Y-101089265D01*
X156676744Y-101213741D01*
X156646150Y-101346761D01*
X156624945Y-101529320D01*
X156616904Y-101773838D01*
X156336654Y-101773838D01*
X156344875Y-101561059D01*
X156373972Y-101330553D01*
X156419556Y-101131822D01*
X156469886Y-100987879D01*
X156529294Y-100868588D01*
X156597362Y-100770701D01*
X156674301Y-100691745D01*
X156760229Y-100633241D01*
X156871232Y-100587525D01*
X157013043Y-100557126D01*
X157192340Y-100545932D01*
X157699022Y-100545932D01*
X157699022Y-103097000D01*
G37*
G36*
X154780442Y-102806253D02*
G01*
X154780442Y-103097000D01*
X155933146Y-103097000D01*
X155933146Y-100545932D01*
X155649336Y-100545932D01*
X155649336Y-102806253D01*
X154780442Y-102806253D01*
G37*
G36*
X153789467Y-100482983D02*
G01*
X153901327Y-100517658D01*
X154000198Y-100573731D01*
X154088136Y-100651591D01*
X154162988Y-100748770D01*
X154214690Y-100852537D01*
X154245554Y-100964671D01*
X154256053Y-101087858D01*
X154245651Y-101213136D01*
X154214768Y-101330276D01*
X154162630Y-101441619D01*
X154064255Y-101587501D01*
X153971632Y-101684445D01*
X153929622Y-101721375D01*
X154079411Y-101860832D01*
X154192421Y-101995585D01*
X154274309Y-102126381D01*
X154329632Y-102254455D01*
X154361656Y-102381540D01*
X154372190Y-102509791D01*
X154361413Y-102646750D01*
X154330054Y-102769228D01*
X154278252Y-102880226D01*
X154204395Y-102981815D01*
X154116667Y-103060365D01*
X154006826Y-103119623D01*
X153870015Y-103158072D01*
X153700156Y-103172031D01*
X153531931Y-103157282D01*
X153395856Y-103116507D01*
X153285937Y-103053251D01*
X153197504Y-102968625D01*
X153123028Y-102860554D01*
X153071197Y-102745842D01*
X153040145Y-102622686D01*
X153032009Y-102519316D01*
X153312054Y-102519316D01*
X153324845Y-102623739D01*
X153362689Y-102715241D01*
X153428314Y-102797607D01*
X153509711Y-102860011D01*
X153596872Y-102896932D01*
X153691974Y-102909421D01*
X153795931Y-102896103D01*
X153887960Y-102857323D01*
X153970777Y-102792771D01*
X154037189Y-102707169D01*
X154075471Y-102612913D01*
X154088380Y-102506274D01*
X154077301Y-102403597D01*
X154042095Y-102293668D01*
X153977849Y-102173208D01*
X153877386Y-102039346D01*
X153731663Y-101889609D01*
X153652162Y-101964348D01*
X153454203Y-102186218D01*
X153370626Y-102306879D01*
X153325947Y-102416474D01*
X153312054Y-102519316D01*
X153032009Y-102519316D01*
X153029587Y-102488542D01*
X153037594Y-102372255D01*
X153061016Y-102265863D01*
X153099685Y-102167460D01*
X153152889Y-102077703D01*
X153239950Y-101965960D01*
X153371161Y-101827474D01*
X153482169Y-101721521D01*
X153318786Y-101550160D01*
X153238781Y-101445136D01*
X153183155Y-101343391D01*
X153144626Y-101244222D01*
X153120822Y-101141009D01*
X153114299Y-101053127D01*
X153376168Y-101053127D01*
X153387409Y-101154141D01*
X153424284Y-101270600D01*
X153463696Y-101342594D01*
X153538278Y-101436991D01*
X153661932Y-101560028D01*
X153723848Y-101506392D01*
X153858073Y-101379164D01*
X153937438Y-101279979D01*
X153975029Y-101209702D01*
X153996635Y-101139013D01*
X154003750Y-101066316D01*
X153995532Y-100992125D01*
X153970127Y-100917956D01*
X153924859Y-100841808D01*
X153866548Y-100783286D01*
X153791570Y-100746720D01*
X153694783Y-100733510D01*
X153604338Y-100745240D01*
X153528895Y-100778600D01*
X153465194Y-100833015D01*
X153414193Y-100904428D01*
X153385542Y-100977013D01*
X153376168Y-101053127D01*
X153114299Y-101053127D01*
X153112874Y-101033929D01*
X153120603Y-100930567D01*
X153143494Y-100833662D01*
X153181873Y-100741570D01*
X153233832Y-100660114D01*
X153298462Y-100592998D01*
X153377389Y-100539337D01*
X153463433Y-100501920D01*
X153557816Y-100478859D01*
X153661932Y-100470900D01*
X153789467Y-100482983D01*
G37*
G36*
X152831751Y-103097000D02*
G01*
X152558565Y-103097000D01*
X152415194Y-102553022D01*
X151674772Y-102553022D01*
X151529936Y-103097000D01*
X151230983Y-103097000D01*
X151439488Y-102290412D01*
X151738886Y-102290412D01*
X152347173Y-102290412D01*
X152098534Y-101314271D01*
X152048830Y-101070419D01*
X151992776Y-101313538D01*
X151738886Y-102290412D01*
X151439488Y-102290412D01*
X151890439Y-100545932D01*
X152176325Y-100545932D01*
X152831751Y-103097000D01*
G37*
G36*
X150962072Y-103097000D02*
G01*
X150443056Y-103097000D01*
X150240755Y-103085047D01*
X150099350Y-103054363D01*
X150004029Y-103011270D01*
X149918733Y-102945446D01*
X149847857Y-102863938D01*
X149790072Y-102765367D01*
X149747068Y-102655840D01*
X149721935Y-102546297D01*
X149713624Y-102435199D01*
X149715096Y-102417321D01*
X149997434Y-102417321D01*
X150009008Y-102526877D01*
X150043031Y-102623940D01*
X150100871Y-102711877D01*
X150176305Y-102776337D01*
X150280036Y-102818600D01*
X150421196Y-102834390D01*
X150678261Y-102834390D01*
X150678261Y-101952771D01*
X150605599Y-101952771D01*
X150433455Y-101961521D01*
X150312368Y-101984011D01*
X150230320Y-102015492D01*
X150155161Y-102064103D01*
X150097342Y-102120404D01*
X150054221Y-102184459D01*
X150011642Y-102295752D01*
X149997434Y-102417321D01*
X149715096Y-102417321D01*
X149723175Y-102319181D01*
X149752529Y-102201038D01*
X149803750Y-102078800D01*
X149874627Y-101974027D01*
X149983258Y-101875085D01*
X150140072Y-101782484D01*
X150019551Y-101690923D01*
X149936007Y-101598716D01*
X149871862Y-101493347D01*
X149825976Y-101378018D01*
X149798237Y-101254174D01*
X149791668Y-101161570D01*
X150061670Y-101161570D01*
X150069848Y-101272222D01*
X150093544Y-101370691D01*
X150133068Y-101460684D01*
X150189654Y-101543175D01*
X150265977Y-101613594D01*
X150393230Y-101690161D01*
X150678261Y-101690161D01*
X150678261Y-100808542D01*
X150489462Y-100808542D01*
X150319362Y-100821363D01*
X150212137Y-100852987D01*
X150148621Y-100895883D01*
X150101898Y-100961057D01*
X150072429Y-101047361D01*
X150061670Y-101161570D01*
X149791668Y-101161570D01*
X149788851Y-101121856D01*
X149796182Y-101009588D01*
X149817456Y-100908483D01*
X149852232Y-100816602D01*
X149901007Y-100735448D01*
X149963924Y-100668329D01*
X150042986Y-100614369D01*
X150132730Y-100581637D01*
X150290119Y-100556337D01*
X150544172Y-100545932D01*
X150962072Y-100545932D01*
X150962072Y-103097000D01*
G37*
G36*
X148024319Y-103092457D02*
G01*
X148177351Y-103138100D01*
X148315133Y-103163872D01*
X148439409Y-103172031D01*
X148571340Y-103161786D01*
X148693398Y-103131832D01*
X148807070Y-103082754D01*
X148913607Y-103014348D01*
X149009620Y-102927952D01*
X149095721Y-102821486D01*
X149172395Y-102692833D01*
X149239549Y-102539100D01*
X149303883Y-102323185D01*
X149343643Y-102085178D01*
X149357396Y-101821466D01*
X149343968Y-101560969D01*
X149305120Y-101325406D01*
X149242236Y-101111305D01*
X149176511Y-100958993D01*
X149100476Y-100830219D01*
X149014162Y-100722370D01*
X148917026Y-100633566D01*
X148772098Y-100543033D01*
X148619309Y-100489108D01*
X148455896Y-100470900D01*
X148331089Y-100481586D01*
X148188655Y-100515893D01*
X148025662Y-100577879D01*
X148025662Y-100889288D01*
X148179583Y-100800457D01*
X148325801Y-100749857D01*
X148466765Y-100733510D01*
X148571333Y-100748098D01*
X148669743Y-100791805D01*
X148764374Y-100866867D01*
X148844978Y-100964390D01*
X148917611Y-101092969D01*
X148981751Y-101258584D01*
X149026903Y-101433426D01*
X149054580Y-101621243D01*
X149064060Y-101823957D01*
X149053980Y-102028090D01*
X149024360Y-102219700D01*
X148975668Y-102400602D01*
X148907745Y-102572366D01*
X148836952Y-102695182D01*
X148754149Y-102787818D01*
X148658146Y-102854017D01*
X148546317Y-102895016D01*
X148414863Y-102909421D01*
X148308129Y-102900628D01*
X148308129Y-102093454D01*
X148519887Y-102093454D01*
X148519887Y-101830845D01*
X148024319Y-101830845D01*
X148024319Y-103092457D01*
G37*
G36*
X162902372Y-110717000D02*
G01*
X162629186Y-110717000D01*
X162485816Y-110173022D01*
X161745394Y-110173022D01*
X161600558Y-110717000D01*
X161301604Y-110717000D01*
X161510109Y-109910412D01*
X161809507Y-109910412D01*
X162417794Y-109910412D01*
X162169155Y-108934271D01*
X162119452Y-108690419D01*
X162063398Y-108933538D01*
X161809507Y-109910412D01*
X161510109Y-109910412D01*
X161961060Y-108165932D01*
X162246946Y-108165932D01*
X162902372Y-110717000D01*
G37*
G36*
X161053209Y-110659260D02*
G01*
X161053209Y-110339058D01*
X160880559Y-110427006D01*
X160724440Y-110485736D01*
X160582783Y-110518894D01*
X160453593Y-110529421D01*
X160344628Y-110516605D01*
X160240736Y-110478277D01*
X160150122Y-110414691D01*
X160087229Y-110331731D01*
X160048231Y-110231901D01*
X160035327Y-110124662D01*
X160043132Y-110039998D01*
X160066650Y-109958700D01*
X160107135Y-109879051D01*
X160160646Y-109809232D01*
X160247300Y-109725694D01*
X160377634Y-109625820D01*
X160516974Y-109529247D01*
X160657780Y-109432526D01*
X160801814Y-109314875D01*
X160905620Y-109192013D01*
X160976024Y-109063321D01*
X161017409Y-108926650D01*
X161031350Y-108778493D01*
X161020575Y-108636885D01*
X160989235Y-108510008D01*
X160937569Y-108394902D01*
X160864165Y-108289470D01*
X160776437Y-108207950D01*
X160664331Y-108146100D01*
X160522203Y-108105677D01*
X160342951Y-108090900D01*
X160192206Y-108099419D01*
X160044906Y-108124823D01*
X159900383Y-108167104D01*
X159900383Y-108458730D01*
X160061041Y-108399143D01*
X160213570Y-108364692D01*
X160359316Y-108353510D01*
X160472440Y-108366889D01*
X160565085Y-108404484D01*
X160641538Y-108464739D01*
X160702190Y-108545744D01*
X160737134Y-108633941D01*
X160748883Y-108732624D01*
X160739353Y-108832091D01*
X160711884Y-108917164D01*
X160666329Y-108991131D01*
X160574953Y-109087776D01*
X160454326Y-109181787D01*
X160347836Y-109254327D01*
X160215212Y-109347969D01*
X160103227Y-109426958D01*
X159968953Y-109542967D01*
X159871601Y-109664011D01*
X159805225Y-109790832D01*
X159766067Y-109925513D01*
X159752861Y-110071319D01*
X159764243Y-110214922D01*
X159797627Y-110345782D01*
X159853220Y-110466752D01*
X159932990Y-110579833D01*
X160027300Y-110666221D01*
X160149991Y-110732375D01*
X160307924Y-110775984D01*
X160509647Y-110792031D01*
X160633956Y-110785530D01*
X160750104Y-110766532D01*
X160872709Y-110730583D01*
X161053209Y-110659260D01*
G37*
G36*
X158737051Y-108106455D02*
G01*
X158876471Y-108151350D01*
X159001215Y-108224485D01*
X159113678Y-108326864D01*
X159215282Y-108461515D01*
X159295515Y-108610912D01*
X159360094Y-108782761D01*
X159408414Y-108980306D01*
X159439064Y-109207404D01*
X159449877Y-109468430D01*
X159436952Y-109759005D01*
X159400354Y-110010729D01*
X159342643Y-110228880D01*
X159265352Y-110418046D01*
X159182537Y-110554536D01*
X159087257Y-110657474D01*
X158978219Y-110730886D01*
X158852693Y-110776184D01*
X158706768Y-110792031D01*
X158552177Y-110774409D01*
X158417836Y-110723730D01*
X158299712Y-110640911D01*
X158195080Y-110523706D01*
X158109712Y-110383032D01*
X158049508Y-110232604D01*
X158013098Y-110070187D01*
X158001813Y-109909240D01*
X158262613Y-109909240D01*
X158277593Y-110080525D01*
X158321597Y-110235743D01*
X158367187Y-110329253D01*
X158421041Y-110402240D01*
X158483530Y-110457467D01*
X158588046Y-110512150D01*
X158687717Y-110529421D01*
X158784918Y-110512697D01*
X158875188Y-110462209D01*
X158961514Y-110373496D01*
X159026986Y-110261945D01*
X159067175Y-110129751D01*
X159081315Y-109971228D01*
X159067176Y-109813569D01*
X159026311Y-109676659D01*
X158958705Y-109555918D01*
X158892535Y-109480670D01*
X158819378Y-109428048D01*
X158737738Y-109396179D01*
X158645341Y-109385192D01*
X158555113Y-109395189D01*
X158479596Y-109423461D01*
X158415889Y-109468855D01*
X158362020Y-109532177D01*
X158308088Y-109635956D01*
X158274510Y-109759928D01*
X158262613Y-109909240D01*
X158001813Y-109909240D01*
X158000662Y-109892826D01*
X158009861Y-109742117D01*
X158036313Y-109608715D01*
X158079064Y-109489826D01*
X158138988Y-109382881D01*
X158214283Y-109293215D01*
X158306576Y-109219449D01*
X158408528Y-109165400D01*
X158513262Y-109133323D01*
X158622138Y-109122582D01*
X158736784Y-109135045D01*
X158843617Y-109171876D01*
X158944539Y-109233517D01*
X159036904Y-109314134D01*
X159115847Y-109405159D01*
X159182431Y-109507118D01*
X159182431Y-109456853D01*
X159171593Y-109214812D01*
X159140899Y-109005049D01*
X159092473Y-108823170D01*
X159027581Y-108665360D01*
X158957801Y-108549365D01*
X158880455Y-108463207D01*
X158794822Y-108402807D01*
X158699136Y-108366159D01*
X158590753Y-108353510D01*
X158459565Y-108367094D01*
X158316559Y-108409934D01*
X158159176Y-108486281D01*
X158159176Y-108167397D01*
X158297380Y-108124868D01*
X158437351Y-108099412D01*
X158579762Y-108090900D01*
X158737051Y-108106455D01*
G37*
G36*
X157146342Y-108102983D02*
G01*
X157258201Y-108137658D01*
X157357072Y-108193731D01*
X157445010Y-108271591D01*
X157519862Y-108368770D01*
X157571564Y-108472537D01*
X157602428Y-108584671D01*
X157612927Y-108707858D01*
X157602525Y-108833136D01*
X157571642Y-108950276D01*
X157519504Y-109061619D01*
X157421129Y-109207501D01*
X157328506Y-109304445D01*
X157286496Y-109341375D01*
X157436285Y-109480832D01*
X157549295Y-109615585D01*
X157631183Y-109746381D01*
X157686506Y-109874455D01*
X157718530Y-110001540D01*
X157729064Y-110129791D01*
X157718287Y-110266750D01*
X157686928Y-110389228D01*
X157635126Y-110500226D01*
X157561269Y-110601815D01*
X157473541Y-110680365D01*
X157363700Y-110739623D01*
X157226889Y-110778072D01*
X157057030Y-110792031D01*
X156888805Y-110777282D01*
X156752731Y-110736507D01*
X156642811Y-110673251D01*
X156554378Y-110588625D01*
X156479902Y-110480554D01*
X156428071Y-110365842D01*
X156397019Y-110242686D01*
X156388883Y-110139316D01*
X156668928Y-110139316D01*
X156681719Y-110243739D01*
X156719563Y-110335241D01*
X156785188Y-110417607D01*
X156866585Y-110480011D01*
X156953746Y-110516932D01*
X157048848Y-110529421D01*
X157152805Y-110516103D01*
X157244834Y-110477323D01*
X157327651Y-110412771D01*
X157394063Y-110327169D01*
X157432345Y-110232913D01*
X157445254Y-110126274D01*
X157434175Y-110023597D01*
X157398969Y-109913668D01*
X157334723Y-109793208D01*
X157234260Y-109659346D01*
X157088537Y-109509609D01*
X157009036Y-109584348D01*
X156811078Y-109806218D01*
X156727500Y-109926879D01*
X156682821Y-110036474D01*
X156668928Y-110139316D01*
X156388883Y-110139316D01*
X156386461Y-110108542D01*
X156394468Y-109992255D01*
X156417890Y-109885863D01*
X156456559Y-109787460D01*
X156509763Y-109697703D01*
X156596825Y-109585960D01*
X156728035Y-109447474D01*
X156839043Y-109341521D01*
X156675660Y-109170160D01*
X156595655Y-109065136D01*
X156540029Y-108963391D01*
X156501500Y-108864222D01*
X156477696Y-108761009D01*
X156471173Y-108673127D01*
X156733042Y-108673127D01*
X156744283Y-108774141D01*
X156781158Y-108890600D01*
X156820571Y-108962594D01*
X156895152Y-109056991D01*
X157018806Y-109180028D01*
X157080722Y-109126392D01*
X157214947Y-108999164D01*
X157294312Y-108899979D01*
X157331903Y-108829702D01*
X157353509Y-108759013D01*
X157360624Y-108686316D01*
X157352406Y-108612125D01*
X157327002Y-108537956D01*
X157281734Y-108461808D01*
X157223422Y-108403286D01*
X157148444Y-108366720D01*
X157051657Y-108353510D01*
X156961212Y-108365240D01*
X156885769Y-108398600D01*
X156822068Y-108453015D01*
X156771067Y-108524428D01*
X156742416Y-108597013D01*
X156733042Y-108673127D01*
X156471173Y-108673127D01*
X156469748Y-108653929D01*
X156477477Y-108550567D01*
X156500368Y-108453662D01*
X156538747Y-108361570D01*
X156590706Y-108280114D01*
X156655336Y-108212998D01*
X156734263Y-108159337D01*
X156820307Y-108121920D01*
X156914690Y-108098859D01*
X157018806Y-108090900D01*
X157146342Y-108102983D01*
G37*
G36*
X155380178Y-108106455D02*
G01*
X155519597Y-108151350D01*
X155644341Y-108224485D01*
X155756804Y-108326864D01*
X155858408Y-108461515D01*
X155938642Y-108610912D01*
X156003220Y-108782761D01*
X156051541Y-108980306D01*
X156082190Y-109207404D01*
X156093004Y-109468430D01*
X156080078Y-109759005D01*
X156043481Y-110010729D01*
X155985769Y-110228880D01*
X155908478Y-110418046D01*
X155825663Y-110554536D01*
X155730384Y-110657474D01*
X155621346Y-110730886D01*
X155495820Y-110776184D01*
X155349895Y-110792031D01*
X155195303Y-110774409D01*
X155060963Y-110723730D01*
X154942839Y-110640911D01*
X154838206Y-110523706D01*
X154752838Y-110383032D01*
X154692634Y-110232604D01*
X154656224Y-110070187D01*
X154644940Y-109909240D01*
X154905739Y-109909240D01*
X154920720Y-110080525D01*
X154964724Y-110235743D01*
X155010313Y-110329253D01*
X155064168Y-110402240D01*
X155126657Y-110457467D01*
X155231172Y-110512150D01*
X155330844Y-110529421D01*
X155428044Y-110512697D01*
X155518314Y-110462209D01*
X155604640Y-110373496D01*
X155670112Y-110261945D01*
X155710302Y-110129751D01*
X155724441Y-109971228D01*
X155710303Y-109813569D01*
X155669437Y-109676659D01*
X155601831Y-109555918D01*
X155535661Y-109480670D01*
X155462504Y-109428048D01*
X155380865Y-109396179D01*
X155288468Y-109385192D01*
X155198239Y-109395189D01*
X155122722Y-109423461D01*
X155059015Y-109468855D01*
X155005146Y-109532177D01*
X154951214Y-109635956D01*
X154917636Y-109759928D01*
X154905739Y-109909240D01*
X154644940Y-109909240D01*
X154643789Y-109892826D01*
X154652987Y-109742117D01*
X154679439Y-109608715D01*
X154722191Y-109489826D01*
X154782115Y-109382881D01*
X154857410Y-109293215D01*
X154949703Y-109219449D01*
X155051654Y-109165400D01*
X155156389Y-109133323D01*
X155265265Y-109122582D01*
X155379911Y-109135045D01*
X155486743Y-109171876D01*
X155587665Y-109233517D01*
X155680030Y-109314134D01*
X155758974Y-109405159D01*
X155825558Y-109507118D01*
X155825558Y-109456853D01*
X155814720Y-109214812D01*
X155784025Y-109005049D01*
X155735600Y-108823170D01*
X155670708Y-108665360D01*
X155600928Y-108549365D01*
X155523581Y-108463207D01*
X155437948Y-108402807D01*
X155342262Y-108366159D01*
X155233879Y-108353510D01*
X155102691Y-108367094D01*
X154959686Y-108409934D01*
X154802302Y-108486281D01*
X154802302Y-108167397D01*
X154940506Y-108124868D01*
X155080477Y-108099412D01*
X155222888Y-108090900D01*
X155380178Y-108106455D01*
G37*
G36*
X166337696Y-90255735D02*
G01*
X166517014Y-90325954D01*
X166673685Y-90364810D01*
X166810953Y-90376910D01*
X166989846Y-90356749D01*
X167157451Y-90297009D01*
X167316719Y-90196714D01*
X167423500Y-90098134D01*
X167518676Y-89977644D01*
X167602836Y-89833031D01*
X167675927Y-89661236D01*
X167745866Y-89419610D01*
X167789115Y-89153057D01*
X167804081Y-88857524D01*
X167789310Y-88564466D01*
X167746577Y-88299457D01*
X167677405Y-88058593D01*
X167605108Y-87887242D01*
X167521469Y-87742371D01*
X167426524Y-87621041D01*
X167319674Y-87521137D01*
X167200843Y-87440854D01*
X167077273Y-87383998D01*
X166947779Y-87349732D01*
X166810953Y-87338138D01*
X166673666Y-87350159D01*
X166516989Y-87388755D01*
X166337696Y-87458489D01*
X166337696Y-87808825D01*
X166507009Y-87708889D01*
X166667849Y-87651964D01*
X166822909Y-87633574D01*
X166937934Y-87649986D01*
X167046185Y-87699155D01*
X167150280Y-87783600D01*
X167238995Y-87893289D01*
X167319113Y-88037941D01*
X167390065Y-88224282D01*
X167440258Y-88420992D01*
X167470933Y-88631056D01*
X167481412Y-88856535D01*
X167470576Y-89085748D01*
X167438896Y-89298565D01*
X167387110Y-89497196D01*
X167314192Y-89685504D01*
X167233796Y-89829274D01*
X167146518Y-89936064D01*
X167044047Y-90017770D01*
X166937028Y-90065504D01*
X166822909Y-90081474D01*
X166668826Y-90063076D01*
X166508014Y-90005965D01*
X166337696Y-89905399D01*
X166337696Y-90255735D01*
G37*
G36*
X165287332Y-88212279D02*
G01*
X165440189Y-88267630D01*
X165571054Y-88356667D01*
X165685965Y-88476905D01*
X165785519Y-88624267D01*
X165870215Y-88802130D01*
X165931227Y-88994318D01*
X165968841Y-89206416D01*
X165981846Y-89441967D01*
X165969363Y-89672351D01*
X165935083Y-89856971D01*
X165882481Y-90004265D01*
X165813123Y-90121041D01*
X165722225Y-90222622D01*
X165629454Y-90291508D01*
X165533405Y-90331800D01*
X165432019Y-90345256D01*
X165333491Y-90332220D01*
X165223781Y-90290452D01*
X165099947Y-90214354D01*
X164987759Y-90116237D01*
X164887313Y-89992352D01*
X164797965Y-89839783D01*
X164774180Y-90104675D01*
X164745575Y-90292500D01*
X164444533Y-90292500D01*
X164478595Y-90132711D01*
X164501165Y-89933477D01*
X164509416Y-89687449D01*
X164509416Y-88535380D01*
X164799039Y-88535380D01*
X164799039Y-89418886D01*
X164888757Y-89595511D01*
X164982372Y-89739834D01*
X165079796Y-89855775D01*
X165189839Y-89952129D01*
X165283742Y-90002800D01*
X165365793Y-90018166D01*
X165438616Y-90002375D01*
X165508044Y-89953320D01*
X165576831Y-89863194D01*
X165625120Y-89753554D01*
X165657491Y-89603700D01*
X165669655Y-89401740D01*
X165657643Y-89189912D01*
X165623877Y-89011465D01*
X165570672Y-88860830D01*
X165498783Y-88733546D01*
X165406324Y-88624680D01*
X165305703Y-88549149D01*
X165195019Y-88503772D01*
X165071333Y-88488229D01*
X164942510Y-88499527D01*
X164799039Y-88535380D01*
X164509416Y-88535380D01*
X164509416Y-88224446D01*
X164794472Y-88224446D01*
X164866340Y-88214555D01*
X165107335Y-88192793D01*
X165287332Y-88212279D01*
G37*
G36*
X163254445Y-88174040D02*
G01*
X163363958Y-88215316D01*
X163487272Y-88290392D01*
X163599160Y-88387227D01*
X163699467Y-88509136D01*
X163788851Y-88658863D01*
X163788851Y-88213895D01*
X164076996Y-88213895D01*
X164076996Y-91094398D01*
X163788851Y-91094398D01*
X163788851Y-90292994D01*
X163721550Y-90302391D01*
X163480555Y-90324153D01*
X163300592Y-90304596D01*
X163147737Y-90249034D01*
X163016836Y-90159619D01*
X162901913Y-90038863D01*
X162802125Y-89890798D01*
X162717003Y-89712014D01*
X162655546Y-89518800D01*
X162617663Y-89305609D01*
X162606782Y-89108941D01*
X162916757Y-89108941D01*
X162928910Y-89323247D01*
X162963033Y-89503349D01*
X163016740Y-89654983D01*
X163089242Y-89782740D01*
X163182423Y-89892292D01*
X163282837Y-89967991D01*
X163392294Y-90013269D01*
X163513601Y-90028717D01*
X163642766Y-90017402D01*
X163788851Y-89981236D01*
X163788851Y-89091631D01*
X163698254Y-88913603D01*
X163604416Y-88768322D01*
X163507422Y-88651774D01*
X163397759Y-88554722D01*
X163304081Y-88503702D01*
X163222098Y-88488229D01*
X163149259Y-88504029D01*
X163079609Y-88553169D01*
X163010388Y-88643531D01*
X162961756Y-88753304D01*
X162929069Y-88904316D01*
X162916757Y-89108941D01*
X162606782Y-89108941D01*
X162604566Y-89068879D01*
X162617112Y-88837316D01*
X162651559Y-88651787D01*
X162704412Y-88503801D01*
X162774095Y-88386508D01*
X162865382Y-88284326D01*
X162958392Y-88215096D01*
X163054534Y-88174639D01*
X163155871Y-88161139D01*
X163254445Y-88174040D01*
G37*
G36*
X161594771Y-88212279D02*
G01*
X161747628Y-88267630D01*
X161878493Y-88356667D01*
X161993404Y-88476905D01*
X162092958Y-88624267D01*
X162177654Y-88802130D01*
X162238665Y-88994318D01*
X162276280Y-89206416D01*
X162289285Y-89441967D01*
X162276802Y-89672351D01*
X162242522Y-89856971D01*
X162189920Y-90004265D01*
X162120562Y-90121041D01*
X162029664Y-90222622D01*
X161936893Y-90291508D01*
X161840844Y-90331800D01*
X161739458Y-90345256D01*
X161640930Y-90332220D01*
X161531220Y-90290452D01*
X161407385Y-90214354D01*
X161295198Y-90116237D01*
X161194752Y-89992352D01*
X161105404Y-89839783D01*
X161081619Y-90104675D01*
X161053014Y-90292500D01*
X160751972Y-90292500D01*
X160786034Y-90132711D01*
X160808604Y-89933477D01*
X160816855Y-89687449D01*
X160816855Y-88535380D01*
X161106478Y-88535380D01*
X161106478Y-89418886D01*
X161196196Y-89595511D01*
X161289811Y-89739834D01*
X161387235Y-89855775D01*
X161497278Y-89952129D01*
X161591181Y-90002800D01*
X161673232Y-90018166D01*
X161746055Y-90002375D01*
X161815483Y-89953320D01*
X161884270Y-89863194D01*
X161932559Y-89753554D01*
X161964930Y-89603700D01*
X161977094Y-89401740D01*
X161965082Y-89189912D01*
X161931315Y-89011465D01*
X161878111Y-88860830D01*
X161806222Y-88733546D01*
X161713763Y-88624680D01*
X161613142Y-88549149D01*
X161502458Y-88503772D01*
X161378772Y-88488229D01*
X161249949Y-88499527D01*
X161106478Y-88535380D01*
X160816855Y-88535380D01*
X160816855Y-88224446D01*
X161101911Y-88224446D01*
X161173779Y-88214555D01*
X161414774Y-88192793D01*
X161594771Y-88212279D01*
G37*
G36*
X158942096Y-90227213D02*
G01*
X159133783Y-90294286D01*
X159313015Y-90332829D01*
X159481445Y-90345256D01*
X159647275Y-90328679D01*
X159796553Y-90280536D01*
X159932269Y-90201659D01*
X160054352Y-90094241D01*
X160156272Y-89965196D01*
X160239624Y-89812581D01*
X160300048Y-89644164D01*
X160337035Y-89459162D01*
X160349777Y-89254187D01*
X160339226Y-89067575D01*
X160308613Y-88898550D01*
X160258774Y-88744389D01*
X160189546Y-88602875D01*
X160099783Y-88472402D01*
X159966759Y-88334906D01*
X159823633Y-88238802D01*
X159667982Y-88180921D01*
X159496356Y-88161139D01*
X159324011Y-88173842D01*
X159139846Y-88213319D01*
X158942096Y-88282149D01*
X158942096Y-88623582D01*
X159144977Y-88526181D01*
X159319647Y-88472988D01*
X159470833Y-88456575D01*
X159570357Y-88466845D01*
X159665382Y-88497439D01*
X159757232Y-88548899D01*
X159838421Y-88620386D01*
X159907307Y-88715283D01*
X159964509Y-88837246D01*
X160005369Y-88970137D01*
X160029543Y-89104018D01*
X160037586Y-89240173D01*
X160022324Y-89419453D01*
X159976166Y-89594169D01*
X159896670Y-89767573D01*
X159818276Y-89874964D01*
X159721336Y-89952184D01*
X159601993Y-90000762D01*
X159454310Y-90018166D01*
X159274706Y-90002669D01*
X159168015Y-89972624D01*
X158942096Y-89885121D01*
X158942096Y-90227213D01*
G37*
G36*
X158046628Y-90292500D02*
G01*
X158046628Y-88509331D01*
X158512497Y-88509331D01*
X158512497Y-88213895D01*
X157758483Y-88213895D01*
X157758483Y-89997063D01*
X157291136Y-89997063D01*
X157291136Y-90292500D01*
X158046628Y-90292500D01*
G37*
G36*
X158093242Y-87486845D02*
G01*
X158085323Y-87412637D01*
X158063248Y-87355630D01*
X158027150Y-87311595D01*
X157960313Y-87266984D01*
X157902623Y-87253728D01*
X157843524Y-87267087D01*
X157776483Y-87311595D01*
X157740385Y-87355630D01*
X157718311Y-87412637D01*
X157710391Y-87486845D01*
X157718261Y-87559732D01*
X157740290Y-87616205D01*
X157776483Y-87660282D01*
X157843516Y-87704660D01*
X157902623Y-87717984D01*
X157960322Y-87704762D01*
X158027150Y-87660282D01*
X158063343Y-87616205D01*
X158085373Y-87559732D01*
X158093242Y-87486845D01*
G37*
G36*
X155258535Y-90203803D02*
G01*
X155446117Y-90292007D01*
X155547621Y-90325802D01*
X155719702Y-90345256D01*
X155836028Y-90335684D01*
X155943433Y-90307705D01*
X156043312Y-90261835D01*
X156134293Y-90196378D01*
X156207590Y-90114528D01*
X156265231Y-90015034D01*
X156303353Y-89901552D01*
X156329958Y-89738785D01*
X156340189Y-89511704D01*
X156340189Y-88688703D01*
X156759444Y-88688703D01*
X156759444Y-88393267D01*
X156340189Y-88393267D01*
X156340189Y-87580818D01*
X156052044Y-87580818D01*
X156052044Y-88393267D01*
X155305149Y-88393267D01*
X155305149Y-88688703D01*
X156052044Y-88688703D01*
X156052044Y-89506428D01*
X156045246Y-89672597D01*
X156028127Y-89783692D01*
X156004624Y-89854456D01*
X155948562Y-89942512D01*
X155877813Y-90002504D01*
X155793551Y-90037357D01*
X155689612Y-90049820D01*
X155558107Y-90033519D01*
X155415440Y-89982003D01*
X155258535Y-89889572D01*
X155258535Y-90203803D01*
G37*
G36*
X154354067Y-90292500D02*
G01*
X154354067Y-88509331D01*
X154819936Y-88509331D01*
X154819936Y-88213895D01*
X154065922Y-88213895D01*
X154065922Y-89997063D01*
X153598575Y-89997063D01*
X153598575Y-90292500D01*
X154354067Y-90292500D01*
G37*
G36*
X154400681Y-87486845D02*
G01*
X154392762Y-87412637D01*
X154370687Y-87355630D01*
X154334589Y-87311595D01*
X154267752Y-87266984D01*
X154210062Y-87253728D01*
X154150963Y-87267087D01*
X154083922Y-87311595D01*
X154047824Y-87355630D01*
X154025750Y-87412637D01*
X154017830Y-87486845D01*
X154025700Y-87559732D01*
X154047729Y-87616205D01*
X154083922Y-87660282D01*
X154150955Y-87704660D01*
X154210062Y-87717984D01*
X154267761Y-87704762D01*
X154334589Y-87660282D01*
X154370782Y-87616205D01*
X154392812Y-87559732D01*
X154400681Y-87486845D01*
G37*
G36*
X152431217Y-90292500D02*
G01*
X153163872Y-88213895D01*
X152847919Y-88213895D01*
X152275121Y-89844399D01*
X151690233Y-88213895D01*
X151401415Y-88213895D01*
X152139981Y-90292500D01*
X152431217Y-90292500D01*
G37*
G36*
X150516383Y-88177569D02*
G01*
X150652542Y-88225929D01*
X150779854Y-88306549D01*
X150892653Y-88415148D01*
X150988041Y-88549551D01*
X151066925Y-88712938D01*
X151124202Y-88890383D01*
X151158200Y-89071041D01*
X151169556Y-89256824D01*
X151157452Y-89449807D01*
X151121542Y-89633198D01*
X151061552Y-89809283D01*
X150979793Y-89971009D01*
X150884100Y-90102184D01*
X150773809Y-90206276D01*
X150649683Y-90282936D01*
X150514555Y-90329358D01*
X150365704Y-90345256D01*
X150168829Y-90325043D01*
X149957113Y-90261726D01*
X149727216Y-90149727D01*
X149727216Y-89823627D01*
X149901079Y-89928589D01*
X150057840Y-89998250D01*
X150199893Y-90037409D01*
X150329568Y-90049820D01*
X150427915Y-90039680D01*
X150516787Y-90010159D01*
X150597966Y-89961618D01*
X150669803Y-89894699D01*
X150733060Y-89807347D01*
X150788048Y-89696516D01*
X150827983Y-89575999D01*
X150852118Y-89448132D01*
X150860320Y-89311229D01*
X149703171Y-89311229D01*
X149703171Y-89232424D01*
X149714508Y-89002934D01*
X150015362Y-89002934D01*
X150015362Y-89047447D01*
X150842856Y-89047447D01*
X150799483Y-88860466D01*
X150741891Y-88716480D01*
X150671716Y-88607425D01*
X150583695Y-88522848D01*
X150487763Y-88473334D01*
X150380749Y-88456575D01*
X150275551Y-88473610D01*
X150188395Y-88522533D01*
X150114903Y-88604458D01*
X150061468Y-88709340D01*
X150027576Y-88839902D01*
X150015362Y-89002934D01*
X149714508Y-89002934D01*
X149716941Y-88953683D01*
X149754482Y-88732807D01*
X149811444Y-88559116D01*
X149885461Y-88423767D01*
X149983805Y-88309028D01*
X150095175Y-88227997D01*
X150222196Y-88178399D01*
X150368793Y-88161139D01*
X150516383Y-88177569D01*
G37*
G36*
X168183977Y-94791735D02*
G01*
X168363295Y-94861954D01*
X168519966Y-94900810D01*
X168657234Y-94912910D01*
X168836127Y-94892749D01*
X169003732Y-94833009D01*
X169163000Y-94732714D01*
X169269781Y-94634134D01*
X169364957Y-94513644D01*
X169449117Y-94369031D01*
X169522208Y-94197236D01*
X169592147Y-93955610D01*
X169635396Y-93689057D01*
X169650362Y-93393524D01*
X169635591Y-93100466D01*
X169592858Y-92835457D01*
X169523686Y-92594593D01*
X169451389Y-92423242D01*
X169367750Y-92278371D01*
X169272805Y-92157041D01*
X169165955Y-92057137D01*
X169047124Y-91976854D01*
X168923554Y-91919998D01*
X168794060Y-91885732D01*
X168657234Y-91874138D01*
X168519947Y-91886159D01*
X168363270Y-91924755D01*
X168183977Y-91994489D01*
X168183977Y-92344825D01*
X168353290Y-92244889D01*
X168514130Y-92187964D01*
X168669190Y-92169574D01*
X168784215Y-92185986D01*
X168892466Y-92235155D01*
X168996561Y-92319600D01*
X169085276Y-92429289D01*
X169165394Y-92573941D01*
X169236346Y-92760282D01*
X169286539Y-92956992D01*
X169317214Y-93167056D01*
X169327693Y-93392535D01*
X169316857Y-93621748D01*
X169285177Y-93834565D01*
X169233391Y-94033196D01*
X169160473Y-94221504D01*
X169080077Y-94365274D01*
X168992799Y-94472064D01*
X168890328Y-94553770D01*
X168783309Y-94601504D01*
X168669190Y-94617474D01*
X168515107Y-94599076D01*
X168354295Y-94541965D01*
X168183977Y-94441399D01*
X168183977Y-94791735D01*
G37*
G36*
X167668270Y-94828500D02*
G01*
X167939893Y-91958548D01*
X167654568Y-91958548D01*
X167494846Y-93703633D01*
X167474158Y-93988518D01*
X167474427Y-93988518D01*
X167444874Y-93702809D01*
X167199178Y-91958548D01*
X166915465Y-91958548D01*
X166635245Y-93772876D01*
X166607170Y-94045066D01*
X166607438Y-94045066D01*
X166589706Y-93771557D01*
X166413326Y-91958548D01*
X166167361Y-91958548D01*
X166450940Y-94828500D01*
X166745264Y-94828500D01*
X167046575Y-92883765D01*
X167077606Y-92596737D01*
X167105681Y-92883765D01*
X167376901Y-94828500D01*
X167668270Y-94828500D01*
G37*
G36*
X163517901Y-94828500D02*
G01*
X163517901Y-92285638D01*
X164216704Y-92285638D01*
X164216704Y-91958548D01*
X162505428Y-91958548D01*
X162505428Y-92285638D01*
X163205709Y-92285638D01*
X163205709Y-94828500D01*
X163517901Y-94828500D01*
G37*
G36*
X161657670Y-92710344D02*
G01*
X161785163Y-92748389D01*
X161899173Y-92810031D01*
X162001778Y-92895555D01*
X162094368Y-93006753D01*
X162187918Y-93168220D01*
X162255458Y-93349649D01*
X162297279Y-93554727D01*
X162311854Y-93788208D01*
X162297289Y-94021758D01*
X162255480Y-94227072D01*
X162187939Y-94408870D01*
X162094368Y-94570817D01*
X162001743Y-94682347D01*
X161899118Y-94768101D01*
X161785108Y-94829892D01*
X161657634Y-94868022D01*
X161514047Y-94881256D01*
X161371116Y-94868042D01*
X161244110Y-94829953D01*
X161130403Y-94768191D01*
X161027935Y-94682427D01*
X160935338Y-94570817D01*
X160841704Y-94408861D01*
X160774122Y-94227059D01*
X160732290Y-94021749D01*
X160717717Y-93788208D01*
X161029909Y-93788208D01*
X161039340Y-93976609D01*
X161065657Y-94133728D01*
X161106638Y-94264612D01*
X161161152Y-94373475D01*
X161233097Y-94467122D01*
X161314428Y-94532431D01*
X161407045Y-94572070D01*
X161514047Y-94585820D01*
X161621835Y-94572037D01*
X161714957Y-94532342D01*
X161796552Y-94467023D01*
X161868553Y-94373475D01*
X161923007Y-94264623D01*
X161963947Y-94133742D01*
X161990240Y-93976620D01*
X161999663Y-93788208D01*
X161990259Y-93600895D01*
X161963997Y-93444410D01*
X161923061Y-93313797D01*
X161868553Y-93204920D01*
X161796552Y-93111372D01*
X161714957Y-93046053D01*
X161621835Y-93006358D01*
X161514047Y-92992575D01*
X161407045Y-93006325D01*
X161314428Y-93045964D01*
X161233097Y-93111272D01*
X161161152Y-93204920D01*
X161106584Y-93313808D01*
X161065607Y-93444425D01*
X161039321Y-93600906D01*
X161029909Y-93788208D01*
X160717717Y-93788208D01*
X160732300Y-93554736D01*
X160774144Y-93349662D01*
X160841725Y-93168230D01*
X160935338Y-93006753D01*
X161027899Y-92895475D01*
X161130348Y-92809940D01*
X161244056Y-92748328D01*
X161371081Y-92710324D01*
X161514047Y-92697139D01*
X161657670Y-92710344D01*
G37*
G36*
X158973665Y-92749895D02*
G01*
X158973665Y-94828500D01*
X159261676Y-94828500D01*
X159261676Y-94383367D01*
X159354138Y-94535865D01*
X159452106Y-94657902D01*
X159555866Y-94752992D01*
X159670065Y-94825971D01*
X159780331Y-94867696D01*
X159888611Y-94881256D01*
X159985228Y-94870280D01*
X160075401Y-94837802D01*
X160160770Y-94783327D01*
X160235732Y-94710144D01*
X160292494Y-94624974D01*
X160332852Y-94526304D01*
X160356057Y-94414645D01*
X160373991Y-94220044D01*
X160381346Y-93907899D01*
X160381346Y-92749895D01*
X160093201Y-92749895D01*
X160093201Y-93949940D01*
X160085788Y-94221525D01*
X160070230Y-94340502D01*
X160037501Y-94426160D01*
X159986002Y-94494320D01*
X159921538Y-94539591D01*
X159854087Y-94554166D01*
X159761057Y-94537692D01*
X159657730Y-94484242D01*
X159540149Y-94384356D01*
X159435721Y-94262910D01*
X159342984Y-94120828D01*
X159261676Y-93956040D01*
X159261676Y-92749895D01*
X158973665Y-92749895D01*
G37*
G36*
X157095816Y-94763213D02*
G01*
X157287503Y-94830286D01*
X157466735Y-94868829D01*
X157635165Y-94881256D01*
X157800995Y-94864679D01*
X157950273Y-94816536D01*
X158085989Y-94737659D01*
X158208072Y-94630241D01*
X158309992Y-94501196D01*
X158393344Y-94348581D01*
X158453768Y-94180164D01*
X158490755Y-93995162D01*
X158503497Y-93790187D01*
X158492945Y-93603575D01*
X158462333Y-93434550D01*
X158412494Y-93280389D01*
X158343266Y-93138875D01*
X158253502Y-93008402D01*
X158120479Y-92870906D01*
X157977353Y-92774802D01*
X157821702Y-92716921D01*
X157650076Y-92697139D01*
X157477731Y-92709842D01*
X157293566Y-92749319D01*
X157095816Y-92818149D01*
X157095816Y-93159582D01*
X157298697Y-93062181D01*
X157473367Y-93008988D01*
X157624553Y-92992575D01*
X157724077Y-93002845D01*
X157819101Y-93033439D01*
X157910952Y-93084899D01*
X157992141Y-93156386D01*
X158061027Y-93251283D01*
X158118229Y-93373246D01*
X158159089Y-93506137D01*
X158183263Y-93640018D01*
X158191306Y-93776173D01*
X158176044Y-93955453D01*
X158129886Y-94130169D01*
X158050390Y-94303573D01*
X157971996Y-94410964D01*
X157875056Y-94488184D01*
X157755713Y-94536762D01*
X157608030Y-94554166D01*
X157428426Y-94538669D01*
X157321735Y-94508624D01*
X157095816Y-94421121D01*
X157095816Y-94763213D01*
G37*
G36*
X156670784Y-94828500D02*
G01*
X156670784Y-91842484D01*
X156382639Y-91842484D01*
X156382639Y-93192390D01*
X156300070Y-93051690D01*
X156205766Y-92932476D01*
X156099061Y-92832987D01*
X155981443Y-92755577D01*
X155868185Y-92711452D01*
X155757182Y-92697139D01*
X155663284Y-92707345D01*
X155576123Y-92737440D01*
X155494157Y-92787649D01*
X155420509Y-92854666D01*
X155366009Y-92927549D01*
X155327986Y-93006918D01*
X155296258Y-93108166D01*
X155276536Y-93215965D01*
X155267336Y-93355282D01*
X155262969Y-93670495D01*
X155262969Y-94828500D01*
X155551114Y-94828500D01*
X155551114Y-93628455D01*
X155558570Y-93356870D01*
X155574219Y-93237892D01*
X155606871Y-93152252D01*
X155658447Y-93084074D01*
X155723020Y-93038894D01*
X155791840Y-93024229D01*
X155884649Y-93040783D01*
X155987912Y-93094555D01*
X156105643Y-93195193D01*
X156210089Y-93317117D01*
X156302317Y-93458859D01*
X156382639Y-93622355D01*
X156382639Y-94828500D01*
X156670784Y-94828500D01*
G37*
G36*
X152975268Y-94828500D02*
G01*
X152975268Y-91958548D01*
X152663077Y-91958548D01*
X152663077Y-93348681D01*
X151802267Y-91958548D01*
X151469926Y-91958548D01*
X152310317Y-93320324D01*
X151352519Y-94828500D01*
X151743698Y-94828500D01*
X152663077Y-93377202D01*
X152663077Y-94828500D01*
X152975268Y-94828500D01*
G37*
G36*
X150516383Y-92713569D02*
G01*
X150652542Y-92761929D01*
X150779855Y-92842549D01*
X150892654Y-92951148D01*
X150988042Y-93085551D01*
X151066925Y-93248938D01*
X151124203Y-93426383D01*
X151158200Y-93607041D01*
X151169556Y-93792824D01*
X151157453Y-93985807D01*
X151121542Y-94169198D01*
X151061552Y-94345283D01*
X150979794Y-94507009D01*
X150884101Y-94638184D01*
X150773810Y-94742276D01*
X150649683Y-94818936D01*
X150514555Y-94865358D01*
X150365704Y-94881256D01*
X150168829Y-94861043D01*
X149957113Y-94797726D01*
X149727217Y-94685727D01*
X149727217Y-94359627D01*
X149901079Y-94464589D01*
X150057841Y-94534250D01*
X150199893Y-94573409D01*
X150329568Y-94585820D01*
X150427916Y-94575680D01*
X150516788Y-94546159D01*
X150597967Y-94497618D01*
X150669803Y-94430699D01*
X150733060Y-94343347D01*
X150788049Y-94232516D01*
X150827983Y-94111999D01*
X150852119Y-93984132D01*
X150860320Y-93847229D01*
X149703171Y-93847229D01*
X149703171Y-93768424D01*
X149714508Y-93538934D01*
X150015362Y-93538934D01*
X150015362Y-93583447D01*
X150842857Y-93583447D01*
X150799483Y-93396466D01*
X150741892Y-93252480D01*
X150671716Y-93143425D01*
X150583695Y-93058848D01*
X150487763Y-93009334D01*
X150380749Y-92992575D01*
X150275552Y-93009610D01*
X150188395Y-93058533D01*
X150114903Y-93140458D01*
X150061468Y-93245340D01*
X150027576Y-93375902D01*
X150015362Y-93538934D01*
X149714508Y-93538934D01*
X149716941Y-93489683D01*
X149754482Y-93268807D01*
X149811445Y-93095116D01*
X149885462Y-92959767D01*
X149983806Y-92845028D01*
X150095175Y-92763997D01*
X150222196Y-92714399D01*
X150368794Y-92697139D01*
X150516383Y-92713569D01*
G37*
G36*
X148668400Y-94740132D02*
G01*
X149446057Y-92749895D01*
X149128358Y-92749895D01*
X148513782Y-94286262D01*
X147999284Y-92749895D01*
X147708989Y-92749895D01*
X148362119Y-94684903D01*
X148479626Y-94998751D01*
X148583379Y-95225259D01*
X148674685Y-95382129D01*
X148755045Y-95484823D01*
X148852319Y-95569584D01*
X148963396Y-95631220D01*
X149090819Y-95669669D01*
X149237840Y-95683154D01*
X149362784Y-95675688D01*
X149470505Y-95654633D01*
X149470505Y-95342215D01*
X149351189Y-95376878D01*
X149245228Y-95387718D01*
X149116392Y-95371364D01*
X149006786Y-95324575D01*
X148942485Y-95274705D01*
X148879002Y-95201450D01*
X148815898Y-95100195D01*
X148738504Y-94942157D01*
X148693251Y-94821410D01*
X148668400Y-94740132D01*
G37*
G36*
X165029605Y-106907000D02*
G01*
X165291555Y-106907000D01*
X165291555Y-104355932D01*
X165036688Y-104355932D01*
X164285397Y-106050440D01*
X164204308Y-106297369D01*
X164204186Y-106297369D01*
X164210903Y-106050293D01*
X164210903Y-104355932D01*
X163948952Y-104355932D01*
X163948952Y-106907000D01*
X164209315Y-106907000D01*
X164940090Y-105240482D01*
X165034612Y-104993845D01*
X165029605Y-105235206D01*
X165029605Y-106907000D01*
G37*
G36*
X163071773Y-105024195D02*
G01*
X163187676Y-105058012D01*
X163291321Y-105112805D01*
X163384599Y-105188827D01*
X163468771Y-105287669D01*
X163553817Y-105431195D01*
X163615217Y-105592466D01*
X163653236Y-105774757D01*
X163666486Y-105982296D01*
X163653245Y-106189896D01*
X163615237Y-106372398D01*
X163553836Y-106533996D01*
X163468771Y-106677949D01*
X163384566Y-106777086D01*
X163291271Y-106853312D01*
X163187626Y-106908237D01*
X163071741Y-106942131D01*
X162941206Y-106953894D01*
X162811270Y-106942149D01*
X162695810Y-106908291D01*
X162592439Y-106853392D01*
X162499286Y-106777157D01*
X162415107Y-106677949D01*
X162329985Y-106533987D01*
X162268548Y-106372386D01*
X162230519Y-106189888D01*
X162217271Y-105982296D01*
X162501081Y-105982296D01*
X162509655Y-106149764D01*
X162533579Y-106289425D01*
X162570835Y-106405766D01*
X162620393Y-106502533D01*
X162685797Y-106585775D01*
X162759735Y-106643827D01*
X162843932Y-106679062D01*
X162941206Y-106691284D01*
X163039196Y-106679033D01*
X163123852Y-106643748D01*
X163198029Y-106585687D01*
X163263485Y-106502533D01*
X163312989Y-106405776D01*
X163350207Y-106289438D01*
X163374109Y-106149773D01*
X163382675Y-105982296D01*
X163374126Y-105815795D01*
X163350252Y-105676698D01*
X163313038Y-105560597D01*
X163263485Y-105463817D01*
X163198029Y-105380664D01*
X163123852Y-105322603D01*
X163039196Y-105287318D01*
X162941206Y-105275066D01*
X162843932Y-105287289D01*
X162759735Y-105322524D01*
X162685797Y-105380575D01*
X162620393Y-105463817D01*
X162570786Y-105560607D01*
X162533534Y-105676711D01*
X162509637Y-105815805D01*
X162501081Y-105982296D01*
X162217271Y-105982296D01*
X162230527Y-105774766D01*
X162268568Y-105592477D01*
X162330004Y-105431204D01*
X162415107Y-105287669D01*
X162499254Y-105188756D01*
X162592390Y-105112725D01*
X162695760Y-105057959D01*
X162811238Y-105024177D01*
X162941206Y-105012457D01*
X163071773Y-105024195D01*
G37*
G36*
X161397836Y-106907000D02*
G01*
X162063886Y-105059351D01*
X161776656Y-105059351D01*
X161255931Y-106508688D01*
X160724214Y-105059351D01*
X160461653Y-105059351D01*
X161133077Y-106907000D01*
X161397836Y-106907000D01*
G37*
G36*
X157255721Y-106907000D02*
G01*
X158546423Y-106907000D01*
X158546423Y-106621968D01*
X158537590Y-106511912D01*
X158509298Y-106388374D01*
X158459196Y-106263829D01*
X158368125Y-106109351D01*
X158147696Y-105812303D01*
X158002860Y-105635569D01*
X157811862Y-105385415D01*
X157680093Y-105197387D01*
X157617689Y-105085290D01*
X157582132Y-104980086D01*
X157570917Y-104881005D01*
X157583256Y-104780366D01*
X157618706Y-104698871D01*
X157678872Y-104631731D01*
X157753680Y-104582828D01*
X157834245Y-104553495D01*
X157922260Y-104543510D01*
X158001688Y-104548500D01*
X158095795Y-104564759D01*
X158263956Y-104614585D01*
X158504047Y-104734459D01*
X158504047Y-104454264D01*
X158327544Y-104369528D01*
X158156001Y-104317830D01*
X157989732Y-104289100D01*
X157870236Y-104280900D01*
X157708942Y-104297580D01*
X157564689Y-104345967D01*
X157477630Y-104398776D01*
X157409183Y-104465910D01*
X157356716Y-104548053D01*
X157318570Y-104642113D01*
X157296004Y-104739024D01*
X157288450Y-104840265D01*
X157297585Y-104953114D01*
X157325890Y-105070419D01*
X157375645Y-105194173D01*
X157440579Y-105310018D01*
X157545898Y-105462025D01*
X157703663Y-105658577D01*
X157859490Y-105843517D01*
X157990526Y-105997390D01*
X158105692Y-106149567D01*
X158190683Y-106287697D01*
X158233200Y-106384561D01*
X158261369Y-106493301D01*
X158274703Y-106616253D01*
X157255721Y-106616253D01*
X157255721Y-106907000D01*
G37*
G36*
X156370132Y-104296210D02*
G01*
X156493297Y-104340210D01*
X156601779Y-104411880D01*
X156698026Y-104512733D01*
X156783234Y-104646678D01*
X156862267Y-104831546D01*
X156922177Y-105052673D01*
X156960773Y-105316532D01*
X156974598Y-105630586D01*
X156960758Y-105945622D01*
X156922138Y-106210050D01*
X156862225Y-106431413D01*
X156783234Y-106616253D01*
X156698026Y-106750199D01*
X156601779Y-106851052D01*
X156493297Y-106922722D01*
X156370132Y-106966721D01*
X156228802Y-106982031D01*
X156086864Y-106966688D01*
X155963374Y-106922627D01*
X155854803Y-106850919D01*
X155758670Y-106750088D01*
X155673760Y-106616253D01*
X155595037Y-106431458D01*
X155535312Y-106210111D01*
X155496807Y-105945667D01*
X155483007Y-105630586D01*
X155484158Y-105604355D01*
X155765474Y-105604355D01*
X155778125Y-105884147D01*
X155814803Y-106139548D01*
X155874162Y-106373573D01*
X155927615Y-106506050D01*
X155990156Y-106601385D01*
X156061634Y-106666650D01*
X156143718Y-106705844D01*
X156239671Y-106719421D01*
X156328707Y-106704546D01*
X156408443Y-106660363D01*
X156477592Y-106589385D01*
X156541189Y-106485241D01*
X155818963Y-105111668D01*
X155779123Y-105347999D01*
X155765474Y-105604355D01*
X155484158Y-105604355D01*
X155496792Y-105316487D01*
X155535273Y-105052613D01*
X155594994Y-104831502D01*
X155609683Y-104797034D01*
X155913607Y-104797034D01*
X156641084Y-106162254D01*
X156672985Y-105972531D01*
X156685414Y-105841466D01*
X156690788Y-105612708D01*
X156682362Y-105375681D01*
X156658638Y-105171467D01*
X156621594Y-104995943D01*
X156572696Y-104845394D01*
X156516985Y-104729687D01*
X156455461Y-104646163D01*
X156387991Y-104589110D01*
X156313237Y-104555136D01*
X156228802Y-104543510D01*
X156144470Y-104556483D01*
X156062107Y-104596120D01*
X156013614Y-104637706D01*
X155964230Y-104702626D01*
X155913607Y-104797034D01*
X155609683Y-104797034D01*
X155673760Y-104646678D01*
X155758670Y-104512843D01*
X155854803Y-104412013D01*
X155963374Y-104340304D01*
X156086864Y-104296243D01*
X156228802Y-104280900D01*
X156370132Y-104296210D01*
G37*
G36*
X153898848Y-106907000D02*
G01*
X155189549Y-106907000D01*
X155189549Y-106621968D01*
X155180717Y-106511912D01*
X155152424Y-106388374D01*
X155102322Y-106263829D01*
X155011252Y-106109351D01*
X154790823Y-105812303D01*
X154645987Y-105635569D01*
X154454989Y-105385415D01*
X154323219Y-105197387D01*
X154260816Y-105085290D01*
X154225258Y-104980086D01*
X154214043Y-104881005D01*
X154226382Y-104780366D01*
X154261832Y-104698871D01*
X154321998Y-104631731D01*
X154396806Y-104582828D01*
X154477371Y-104553495D01*
X154565386Y-104543510D01*
X154644815Y-104548500D01*
X154738921Y-104564759D01*
X154907082Y-104614585D01*
X155147173Y-104734459D01*
X155147173Y-104454264D01*
X154970671Y-104369528D01*
X154799127Y-104317830D01*
X154632858Y-104289100D01*
X154513363Y-104280900D01*
X154352068Y-104297580D01*
X154207815Y-104345967D01*
X154120756Y-104398776D01*
X154052310Y-104465910D01*
X153999842Y-104548053D01*
X153961696Y-104642113D01*
X153939131Y-104739024D01*
X153931576Y-104840265D01*
X153940711Y-104953114D01*
X153969017Y-105070419D01*
X154018771Y-105194173D01*
X154083705Y-105310018D01*
X154189024Y-105462025D01*
X154346789Y-105658577D01*
X154502616Y-105843517D01*
X154633652Y-105997390D01*
X154748819Y-106149567D01*
X154833809Y-106287697D01*
X154876326Y-106384561D01*
X154904495Y-106493301D01*
X154917829Y-106616253D01*
X153898848Y-106616253D01*
X153898848Y-106907000D01*
G37*
G36*
X153457867Y-105593950D02*
G01*
X153457867Y-104355932D01*
X152262787Y-104355932D01*
X152262787Y-104656057D01*
X153195917Y-104656057D01*
X153195917Y-105275066D01*
X153156105Y-105275066D01*
X152966207Y-105285957D01*
X152804018Y-105316550D01*
X152665799Y-105364270D01*
X152548238Y-105427338D01*
X152448534Y-105504850D01*
X152358219Y-105604149D01*
X152289522Y-105713863D01*
X152240444Y-105835371D01*
X152210324Y-105970970D01*
X152199894Y-106123713D01*
X152211356Y-106284299D01*
X152244847Y-106430486D01*
X152300156Y-106565108D01*
X152375432Y-106684994D01*
X152469025Y-106786687D01*
X152583111Y-106871242D01*
X152707614Y-106932841D01*
X152836631Y-106969649D01*
X152971702Y-106982031D01*
X153107712Y-106970856D01*
X153281291Y-106933072D01*
X153500243Y-106861424D01*
X153500243Y-106518067D01*
X153374557Y-106587876D01*
X153235728Y-106643657D01*
X153094756Y-106679995D01*
X152971702Y-106691284D01*
X152853356Y-106674301D01*
X152735885Y-106622261D01*
X152664444Y-106568813D01*
X152605199Y-106501987D01*
X152556977Y-106420614D01*
X152521010Y-106329839D01*
X152500108Y-106240047D01*
X152493230Y-106149944D01*
X152503866Y-106039299D01*
X152535332Y-105938347D01*
X152588751Y-105844319D01*
X152667497Y-105755590D01*
X152755645Y-105693223D01*
X152880966Y-105642419D01*
X153054355Y-105607291D01*
X153288607Y-105593950D01*
X153457867Y-105593950D01*
G37*
G36*
X169888865Y-85920000D02*
G01*
X169432851Y-85920000D01*
X169271749Y-85910040D01*
X169145133Y-85883038D01*
X169046642Y-85842431D01*
X168970902Y-85790307D01*
X168882109Y-85694990D01*
X168805647Y-85573172D01*
X168741742Y-85420279D01*
X168698057Y-85257573D01*
X168670517Y-85072742D01*
X168660848Y-84862550D01*
X168662733Y-84817365D01*
X168914959Y-84817365D01*
X168921057Y-85025889D01*
X168937289Y-85185145D01*
X168960901Y-85304141D01*
X168999644Y-85416091D01*
X169050547Y-85506587D01*
X169113455Y-85578914D01*
X169168060Y-85617977D01*
X169242226Y-85648932D01*
X169341145Y-85669874D01*
X169470990Y-85677711D01*
X169633436Y-85677711D01*
X169633436Y-84012951D01*
X169451316Y-84012951D01*
X169299709Y-84024891D01*
X169194080Y-84055756D01*
X169122577Y-84100268D01*
X169062897Y-84164502D01*
X169011583Y-84246887D01*
X168968814Y-84350617D01*
X168941280Y-84461468D01*
X168922196Y-84613600D01*
X168914959Y-84817365D01*
X168662733Y-84817365D01*
X168670132Y-84640049D01*
X168696320Y-84447961D01*
X168737345Y-84282351D01*
X168782642Y-84162399D01*
X168836110Y-84062990D01*
X168897371Y-83981417D01*
X168966616Y-83915621D01*
X169043951Y-83866867D01*
X169143854Y-83828771D01*
X169271483Y-83803438D01*
X169432851Y-83794110D01*
X169888865Y-83794110D01*
X169888865Y-85920000D01*
G37*
G36*
X167874632Y-84353385D02*
G01*
X167986035Y-84389206D01*
X168090199Y-84448925D01*
X168182490Y-84529369D01*
X168260534Y-84628927D01*
X168325076Y-84749954D01*
X168371939Y-84881395D01*
X168399755Y-85015215D01*
X168409046Y-85152833D01*
X168399143Y-85295783D01*
X168369762Y-85431628D01*
X168320679Y-85562062D01*
X168253786Y-85681858D01*
X168175492Y-85779025D01*
X168085254Y-85856130D01*
X167983695Y-85912916D01*
X167873136Y-85947302D01*
X167751349Y-85959078D01*
X167590270Y-85944106D01*
X167417047Y-85897204D01*
X167228950Y-85814242D01*
X167228950Y-85572686D01*
X167371201Y-85650436D01*
X167499461Y-85702037D01*
X167615686Y-85731043D01*
X167721784Y-85740237D01*
X167802249Y-85732726D01*
X167874963Y-85710858D01*
X167941382Y-85674902D01*
X168000157Y-85625333D01*
X168051913Y-85560627D01*
X168096904Y-85478531D01*
X168129577Y-85389258D01*
X168149325Y-85294542D01*
X168156035Y-85193133D01*
X167209277Y-85193133D01*
X167209277Y-85134759D01*
X167218552Y-84964766D01*
X167464706Y-84964766D01*
X167464706Y-84997739D01*
X168141747Y-84997739D01*
X168106259Y-84859234D01*
X168059139Y-84752578D01*
X168001722Y-84671796D01*
X167929705Y-84609146D01*
X167851216Y-84572470D01*
X167763659Y-84560055D01*
X167677588Y-84572674D01*
X167606278Y-84608913D01*
X167546148Y-84669598D01*
X167502429Y-84747289D01*
X167474699Y-84844001D01*
X167464706Y-84964766D01*
X167218552Y-84964766D01*
X167220543Y-84928283D01*
X167251259Y-84764672D01*
X167297864Y-84636012D01*
X167358423Y-84535753D01*
X167438887Y-84450761D01*
X167530007Y-84390738D01*
X167633933Y-84353999D01*
X167753877Y-84341214D01*
X167874632Y-84353385D01*
G37*
G36*
X166851632Y-85835369D02*
G01*
X166851632Y-85557177D01*
X166754019Y-85619573D01*
X166655614Y-85666961D01*
X166555866Y-85700181D01*
X166407652Y-85731226D01*
X166296040Y-85740237D01*
X166181551Y-85731801D01*
X166102173Y-85710088D01*
X166048854Y-85679054D01*
X166006112Y-85633395D01*
X165981886Y-85583338D01*
X165973786Y-85526769D01*
X165982567Y-85470762D01*
X166008518Y-85424064D01*
X166058480Y-85383053D01*
X166184263Y-85317208D01*
X166262958Y-85281671D01*
X166421557Y-85211939D01*
X166592313Y-85128017D01*
X166692792Y-85060189D01*
X166745130Y-85005676D01*
X166782724Y-84939531D01*
X166805638Y-84863992D01*
X166813603Y-84776577D01*
X166805165Y-84684700D01*
X166780640Y-84603345D01*
X166739995Y-84530211D01*
X166681602Y-84463824D01*
X166613860Y-84414837D01*
X166523945Y-84376457D01*
X166406295Y-84350756D01*
X166254275Y-84341214D01*
X166108056Y-84348416D01*
X165968162Y-84369689D01*
X165833872Y-84404717D01*
X165833872Y-84647616D01*
X165989138Y-84597597D01*
X166131580Y-84569144D01*
X166262848Y-84560055D01*
X166358046Y-84567252D01*
X166431439Y-84586681D01*
X166487502Y-84615987D01*
X166534120Y-84658524D01*
X166559621Y-84703979D01*
X166567956Y-84754351D01*
X166560428Y-84803422D01*
X166538029Y-84845395D01*
X166498273Y-84882334D01*
X166416487Y-84930050D01*
X166270322Y-84995418D01*
X166115349Y-85058311D01*
X165975064Y-85124181D01*
X165878377Y-85186994D01*
X165815187Y-85246500D01*
X165767184Y-85319504D01*
X165738200Y-85403507D01*
X165728139Y-85501734D01*
X165736983Y-85598297D01*
X165762682Y-85683792D01*
X165805261Y-85760630D01*
X165866405Y-85830362D01*
X165937333Y-85882015D01*
X166030603Y-85922288D01*
X166151688Y-85949141D01*
X166307141Y-85959078D01*
X166481108Y-85945904D01*
X166662039Y-85905389D01*
X166851632Y-85835369D01*
G37*
G36*
X164972183Y-85920000D02*
G01*
X164972183Y-84599134D01*
X165353348Y-84599134D01*
X165353348Y-84380293D01*
X164736428Y-84380293D01*
X164736428Y-85701158D01*
X164354053Y-85701158D01*
X164354053Y-85920000D01*
X164972183Y-85920000D01*
G37*
G36*
X165010322Y-83841737D02*
G01*
X165003842Y-83786768D01*
X164985781Y-83744540D01*
X164956246Y-83711922D01*
X164901562Y-83678877D01*
X164854360Y-83669057D01*
X164806007Y-83678953D01*
X164751155Y-83711922D01*
X164721620Y-83744540D01*
X164703559Y-83786768D01*
X164697080Y-83841737D01*
X164703519Y-83895727D01*
X164721543Y-83937559D01*
X164751155Y-83970209D01*
X164806000Y-84003081D01*
X164854360Y-84012951D01*
X164901568Y-84003157D01*
X164956246Y-83970209D01*
X164985859Y-83937559D01*
X165003883Y-83895727D01*
X165010322Y-83841737D01*
G37*
G36*
X163328702Y-84379095D02*
G01*
X163453767Y-84420096D01*
X163560838Y-84486050D01*
X163654856Y-84575115D01*
X163736309Y-84684272D01*
X163805606Y-84816022D01*
X163855524Y-84958383D01*
X163886300Y-85115493D01*
X163896941Y-85289975D01*
X163886727Y-85460630D01*
X163858680Y-85597386D01*
X163815642Y-85706493D01*
X163758894Y-85792993D01*
X163684523Y-85868239D01*
X163608619Y-85919265D01*
X163530034Y-85949111D01*
X163447082Y-85959078D01*
X163366412Y-85949555D01*
X163276633Y-85919064D01*
X163175386Y-85863579D01*
X163083488Y-85791923D01*
X163001618Y-85701849D01*
X162929189Y-85591371D01*
X162929189Y-85791894D01*
X162935057Y-85935617D01*
X162949962Y-86033939D01*
X162979757Y-86119137D01*
X163027778Y-86193185D01*
X163092451Y-86252516D01*
X163177804Y-86297843D01*
X163272711Y-86325015D01*
X163374542Y-86334235D01*
X163506809Y-86320493D01*
X163648216Y-86277449D01*
X163782894Y-86213681D01*
X163891995Y-86142627D01*
X163891995Y-86410073D01*
X163716267Y-86491128D01*
X163547353Y-86537864D01*
X163383115Y-86553077D01*
X163219734Y-86539032D01*
X163079186Y-86499083D01*
X162957546Y-86435108D01*
X162875617Y-86369100D01*
X162811845Y-86293963D01*
X162764177Y-86208953D01*
X162731682Y-86112463D01*
X162701457Y-85939417D01*
X162695417Y-85818248D01*
X162692225Y-85469249D01*
X162692225Y-84618429D01*
X162929189Y-84618429D01*
X162929189Y-85272878D01*
X163002595Y-85403712D01*
X163079189Y-85510618D01*
X163158900Y-85596500D01*
X163248934Y-85667873D01*
X163325764Y-85705408D01*
X163392897Y-85716789D01*
X163452480Y-85705093D01*
X163509284Y-85668755D01*
X163565564Y-85601995D01*
X163605073Y-85520781D01*
X163631559Y-85409778D01*
X163641511Y-85260177D01*
X163631683Y-85103268D01*
X163604056Y-84971085D01*
X163560525Y-84859504D01*
X163501707Y-84765219D01*
X163426058Y-84684578D01*
X163343732Y-84628629D01*
X163253173Y-84595016D01*
X163151975Y-84583503D01*
X163046574Y-84591871D01*
X162929189Y-84618429D01*
X162692225Y-84618429D01*
X162692225Y-84388108D01*
X162925452Y-84388108D01*
X162984254Y-84380781D01*
X163181431Y-84364661D01*
X163328702Y-84379095D01*
G37*
G36*
X162335899Y-85920000D02*
G01*
X162335899Y-84380293D01*
X162100144Y-84380293D01*
X162100144Y-84708066D01*
X162032587Y-84603844D01*
X161955430Y-84515538D01*
X161868125Y-84441842D01*
X161771892Y-84384501D01*
X161679227Y-84351816D01*
X161588406Y-84341214D01*
X161508568Y-84349383D01*
X161434625Y-84373478D01*
X161365180Y-84413754D01*
X161304109Y-84467877D01*
X161257653Y-84530774D01*
X161224386Y-84603531D01*
X161205110Y-84685834D01*
X161190183Y-84830028D01*
X161184050Y-85062219D01*
X161184050Y-85920000D01*
X161419805Y-85920000D01*
X161419805Y-85031078D01*
X161425906Y-84829904D01*
X161438710Y-84741772D01*
X161465425Y-84678335D01*
X161507623Y-84627833D01*
X161560455Y-84594366D01*
X161616763Y-84583503D01*
X161692698Y-84595765D01*
X161777185Y-84635596D01*
X161873511Y-84710143D01*
X161958966Y-84800457D01*
X162034426Y-84905451D01*
X162100144Y-85026559D01*
X162100144Y-85920000D01*
X162335899Y-85920000D01*
G37*
G36*
X159331968Y-85920000D02*
G01*
X159099950Y-85920000D01*
X159041148Y-85927327D01*
X158843861Y-85943447D01*
X158696620Y-85928958D01*
X158571596Y-85887798D01*
X158464564Y-85821570D01*
X158370537Y-85732120D01*
X158288892Y-85622443D01*
X158219247Y-85490010D01*
X158168964Y-85346889D01*
X158137968Y-85188970D01*
X158129066Y-85043290D01*
X158382682Y-85043290D01*
X158392625Y-85202035D01*
X158420544Y-85335444D01*
X158464486Y-85447765D01*
X158523805Y-85542400D01*
X158600045Y-85623550D01*
X158682202Y-85679623D01*
X158771757Y-85713162D01*
X158871009Y-85724605D01*
X158976689Y-85716224D01*
X159096213Y-85689434D01*
X159096213Y-85030467D01*
X159022089Y-84898595D01*
X158945312Y-84790979D01*
X158865953Y-84704647D01*
X158776229Y-84632757D01*
X158699583Y-84594964D01*
X158632506Y-84583503D01*
X158572911Y-84595206D01*
X158515924Y-84631607D01*
X158459289Y-84698541D01*
X158419499Y-84779855D01*
X158392755Y-84891716D01*
X158382682Y-85043290D01*
X158129066Y-85043290D01*
X158127253Y-85013614D01*
X158137517Y-84842085D01*
X158165701Y-84704657D01*
X158208945Y-84595038D01*
X158265958Y-84508154D01*
X158340647Y-84432463D01*
X158416747Y-84381182D01*
X158495408Y-84351214D01*
X158578320Y-84341214D01*
X158658972Y-84350770D01*
X158748573Y-84381345D01*
X158849467Y-84436957D01*
X158941011Y-84508686D01*
X159023081Y-84598990D01*
X159096213Y-84709898D01*
X159096213Y-83708136D01*
X159331968Y-83708136D01*
X159331968Y-85920000D01*
G37*
G36*
X157299086Y-85854542D02*
G01*
X157935351Y-84380293D01*
X157675416Y-84380293D01*
X157172581Y-85518342D01*
X156751628Y-84380293D01*
X156514114Y-84380293D01*
X157048493Y-85813632D01*
X157144635Y-86046111D01*
X157229524Y-86213896D01*
X157304229Y-86330095D01*
X157369978Y-86406165D01*
X157449566Y-86468951D01*
X157540447Y-86514607D01*
X157644703Y-86543088D01*
X157764992Y-86553077D01*
X157867219Y-86547547D01*
X157955355Y-86531950D01*
X157955355Y-86300530D01*
X157857733Y-86326206D01*
X157771037Y-86334235D01*
X157665626Y-86322121D01*
X157575948Y-86287463D01*
X157523338Y-86250522D01*
X157471398Y-86196259D01*
X157419767Y-86121256D01*
X157356445Y-86004190D01*
X157319420Y-85914748D01*
X157299086Y-85854542D01*
G37*
G36*
X154697204Y-85920000D02*
G01*
X154904603Y-85920000D01*
X154904603Y-83794110D01*
X154648954Y-83794110D01*
X154211295Y-85182630D01*
X153773636Y-83794110D01*
X153524142Y-83794110D01*
X153524142Y-85920000D01*
X153759898Y-85920000D01*
X153759898Y-84569214D01*
X153753853Y-84388108D01*
X153807159Y-84570680D01*
X154103034Y-85497948D01*
X154356485Y-85497948D01*
X154656098Y-84570680D01*
X154703359Y-84388108D01*
X154703249Y-84388108D01*
X154697204Y-84569214D01*
X154697204Y-85920000D01*
G37*
G36*
X152831636Y-83744342D02*
G01*
X152942484Y-83781008D01*
X153040118Y-83840733D01*
X153126740Y-83924777D01*
X153203427Y-84036399D01*
X153274557Y-84190455D01*
X153328476Y-84374728D01*
X153363212Y-84594610D01*
X153375655Y-84856322D01*
X153363199Y-85118852D01*
X153328440Y-85339208D01*
X153274519Y-85523677D01*
X153203427Y-85677711D01*
X153126740Y-85789332D01*
X153040118Y-85873376D01*
X152942484Y-85933101D01*
X152831636Y-85969768D01*
X152704439Y-85982526D01*
X152576695Y-85969740D01*
X152465553Y-85933023D01*
X152367840Y-85873266D01*
X152281320Y-85789240D01*
X152204901Y-85677711D01*
X152134050Y-85523715D01*
X152080298Y-85339259D01*
X152045643Y-85118889D01*
X152033223Y-84856322D01*
X152034259Y-84834462D01*
X152287443Y-84834462D01*
X152298829Y-85067622D01*
X152331839Y-85280457D01*
X152385262Y-85475478D01*
X152433371Y-85585875D01*
X152489657Y-85665320D01*
X152553987Y-85719708D01*
X152627862Y-85752370D01*
X152714221Y-85763684D01*
X152794353Y-85751288D01*
X152866115Y-85714469D01*
X152928349Y-85655321D01*
X152985587Y-85568534D01*
X152335583Y-84423890D01*
X152299727Y-84620832D01*
X152287443Y-84834462D01*
X152034259Y-84834462D01*
X152045629Y-84594572D01*
X152080262Y-84374677D01*
X152134011Y-84190418D01*
X152147231Y-84161695D01*
X152420763Y-84161695D01*
X153075493Y-85299378D01*
X153104204Y-85141276D01*
X153115390Y-85032055D01*
X153120226Y-84841423D01*
X153112643Y-84643901D01*
X153091291Y-84473722D01*
X153057951Y-84327452D01*
X153013943Y-84201995D01*
X152963804Y-84105573D01*
X152908432Y-84035969D01*
X152847709Y-83988425D01*
X152780430Y-83960113D01*
X152704439Y-83950425D01*
X152628540Y-83961235D01*
X152554413Y-83994267D01*
X152510769Y-84028922D01*
X152466324Y-84083022D01*
X152420763Y-84161695D01*
X152147231Y-84161695D01*
X152204901Y-84036399D01*
X152281320Y-83924869D01*
X152367840Y-83840844D01*
X152465553Y-83781086D01*
X152576695Y-83744369D01*
X152704439Y-83731584D01*
X152831636Y-83744342D01*
G37*
G36*
X151797357Y-83794110D02*
G01*
X151541928Y-83794110D01*
X151541928Y-85187882D01*
X151535834Y-85373190D01*
X151520855Y-85490902D01*
X151501152Y-85560474D01*
X151468812Y-85621783D01*
X151427326Y-85671817D01*
X151375855Y-85711782D01*
X151287374Y-85750482D01*
X151187691Y-85763684D01*
X151082800Y-85749358D01*
X150992272Y-85707752D01*
X150941077Y-85664373D01*
X150898985Y-85606642D01*
X150865657Y-85532020D01*
X150845972Y-85448328D01*
X150830908Y-85305616D01*
X150824770Y-85080170D01*
X150824770Y-83794110D01*
X150589015Y-83794110D01*
X150589015Y-85179455D01*
X150599375Y-85376676D01*
X150627233Y-85528666D01*
X150668809Y-85644371D01*
X150728961Y-85749418D01*
X150798275Y-85832894D01*
X150877197Y-85897407D01*
X150966140Y-85943071D01*
X151072876Y-85972137D01*
X151201210Y-85982526D01*
X151319873Y-85973796D01*
X151425085Y-85948729D01*
X151518847Y-85908398D01*
X151603444Y-85850373D01*
X151672225Y-85776754D01*
X151726796Y-85686015D01*
X151761324Y-85582066D01*
X151787022Y-85412570D01*
X151797357Y-85152222D01*
X151797357Y-83794110D01*
G37*
G36*
X150248736Y-85920000D02*
G01*
X150248736Y-83794110D01*
X149993307Y-83794110D01*
X149993307Y-84823838D01*
X149289008Y-83794110D01*
X149017092Y-83794110D01*
X149704685Y-84802833D01*
X148921032Y-85920000D01*
X149241087Y-85920000D01*
X149993307Y-84844965D01*
X149993307Y-85920000D01*
X150248736Y-85920000D01*
G37*
G36*
X148740561Y-85920000D02*
G01*
X148284547Y-85920000D01*
X148123445Y-85910040D01*
X147996829Y-85883038D01*
X147898338Y-85842431D01*
X147822598Y-85790307D01*
X147733805Y-85694990D01*
X147657343Y-85573172D01*
X147593437Y-85420279D01*
X147549753Y-85257573D01*
X147522213Y-85072742D01*
X147512544Y-84862550D01*
X147514429Y-84817365D01*
X147766654Y-84817365D01*
X147772753Y-85025889D01*
X147788985Y-85185145D01*
X147812596Y-85304141D01*
X147851339Y-85416091D01*
X147902243Y-85506587D01*
X147965151Y-85578914D01*
X148019756Y-85617977D01*
X148093922Y-85648932D01*
X148192840Y-85669874D01*
X148322685Y-85677711D01*
X148485131Y-85677711D01*
X148485131Y-84012951D01*
X148303012Y-84012951D01*
X148151405Y-84024891D01*
X148045776Y-84055756D01*
X147974273Y-84100268D01*
X147914592Y-84164502D01*
X147863279Y-84246887D01*
X147820510Y-84350617D01*
X147792976Y-84461468D01*
X147773891Y-84613600D01*
X147766654Y-84817365D01*
X147514429Y-84817365D01*
X147521828Y-84640049D01*
X147548016Y-84447961D01*
X147589041Y-84282351D01*
X147634338Y-84162399D01*
X147687805Y-84062990D01*
X147749067Y-83981417D01*
X147818312Y-83915621D01*
X147895647Y-83866867D01*
X147995550Y-83828771D01*
X148123179Y-83803438D01*
X148284547Y-83794110D01*
X148740561Y-83794110D01*
X148740561Y-85920000D01*
G37*
M02*
