%TF.GenerationSoftware,KiCad,Pcbnew,9.0.4+dfsg-1*%
%TF.CreationDate,2025-10-06T19:47:27+02:00*%
%TF.ProjectId,CWSensorKey,43575365-6e73-46f7-924b-65792e6b6963,rev?*%
%TF.SameCoordinates,Original*%
%TF.FileFunction,Copper,L1,Top*%
%TF.FilePolarity,Positive*%
%FSLAX46Y46*%
G04 Gerber Fmt 4.6, Leading zero omitted, Abs format (unit mm)*
G04 Created by KiCad (PCBNEW 9.0.4+dfsg-1) date 2025-10-06 19:47:27*
%MOMM*%
%LPD*%
G01*
G04 APERTURE LIST*
G04 Aperture macros list*
%AMRoundRect*
0 Rectangle with rounded corners*
0 $1 Rounding radius*
0 $2 $3 $4 $5 $6 $7 $8 $9 X,Y pos of 4 corners*
0 Add a 4 corners polygon primitive as box body*
4,1,4,$2,$3,$4,$5,$6,$7,$8,$9,$2,$3,0*
0 Add four circle primitives for the rounded corners*
1,1,$1+$1,$2,$3*
1,1,$1+$1,$4,$5*
1,1,$1+$1,$6,$7*
1,1,$1+$1,$8,$9*
0 Add four rect primitives between the rounded corners*
20,1,$1+$1,$2,$3,$4,$5,0*
20,1,$1+$1,$4,$5,$6,$7,0*
20,1,$1+$1,$6,$7,$8,$9,0*
20,1,$1+$1,$8,$9,$2,$3,0*%
G04 Aperture macros list end*
%ADD10C,0.300000*%
%TA.AperFunction,NonConductor*%
%ADD11C,0.300000*%
%TD*%
%ADD12C,0.220000*%
%ADD13C,0.150000*%
%ADD14C,0.200000*%
%TA.AperFunction,NonConductor*%
%ADD15C,0.200000*%
%TD*%
%ADD16C,0.160000*%
%TA.AperFunction,SMDPad,CuDef*%
%ADD17RoundRect,0.250000X0.475000X-0.337500X0.475000X0.337500X-0.475000X0.337500X-0.475000X-0.337500X0*%
%TD*%
%TA.AperFunction,SMDPad,CuDef*%
%ADD18RoundRect,0.250000X-0.337500X-0.475000X0.337500X-0.475000X0.337500X0.475000X-0.337500X0.475000X0*%
%TD*%
%TA.AperFunction,SMDPad,CuDef*%
%ADD19RoundRect,0.162500X-0.617500X-0.162500X0.617500X-0.162500X0.617500X0.162500X-0.617500X0.162500X0*%
%TD*%
%TA.AperFunction,SMDPad,CuDef*%
%ADD20RoundRect,0.200000X-0.750000X-0.200000X0.750000X-0.200000X0.750000X0.200000X-0.750000X0.200000X0*%
%TD*%
%TA.AperFunction,SMDPad,CuDef*%
%ADD21RoundRect,0.250000X-0.350000X-0.450000X0.350000X-0.450000X0.350000X0.450000X-0.350000X0.450000X0*%
%TD*%
%TA.AperFunction,ComponentPad*%
%ADD22R,1.700000X1.700000*%
%TD*%
%TA.AperFunction,ViaPad*%
%ADD23C,1.100000*%
%TD*%
%TA.AperFunction,Conductor*%
%ADD24C,0.450000*%
%TD*%
%TA.AperFunction,Conductor*%
%ADD25C,0.250000*%
%TD*%
G04 APERTURE END LIST*
D10*
D11*
X175323571Y-103611900D02*
X176466429Y-103611900D01*
X175895000Y-104183328D02*
X175895000Y-103040471D01*
D10*
D11*
X144843571Y-104246900D02*
X145986429Y-104246900D01*
D12*
G36*
X152654731Y-107306719D02*
G01*
X152725636Y-107319385D01*
X152781137Y-107338433D01*
X152824101Y-107362810D01*
X152862571Y-107395708D01*
X152896605Y-107436495D01*
X152926309Y-107486199D01*
X152951474Y-107546175D01*
X152974266Y-107628980D01*
X152988814Y-107725024D01*
X152993972Y-107836275D01*
X152988601Y-107941371D01*
X152973301Y-108033786D01*
X152949031Y-108115139D01*
X152913528Y-108191586D01*
X152871049Y-108252495D01*
X152821720Y-108300153D01*
X152779642Y-108326215D01*
X152724925Y-108346519D01*
X152654583Y-108360020D01*
X152565082Y-108365000D01*
X152311741Y-108365000D01*
X152311741Y-108243855D01*
X152453646Y-108243855D01*
X152543894Y-108243855D01*
X152616030Y-108239937D01*
X152670984Y-108229466D01*
X152712188Y-108213988D01*
X152742524Y-108194457D01*
X152777473Y-108158293D01*
X152805752Y-108113045D01*
X152827276Y-108057070D01*
X152840394Y-107997572D01*
X152849412Y-107917944D01*
X152852800Y-107813682D01*
X152848779Y-107711800D01*
X152838177Y-107635734D01*
X152822880Y-107580308D01*
X152799119Y-107528443D01*
X152770612Y-107487251D01*
X152737456Y-107455134D01*
X152697732Y-107432878D01*
X152639049Y-107417445D01*
X152554823Y-107411475D01*
X152453646Y-107411475D01*
X152453646Y-108243855D01*
X152311741Y-108243855D01*
X152311741Y-107302055D01*
X152565082Y-107302055D01*
X152654731Y-107306719D01*
G37*
G36*
X153564480Y-107585907D02*
G01*
X153622217Y-107604277D01*
X153672840Y-107634288D01*
X153717542Y-107676784D01*
X153751186Y-107726914D01*
X153777078Y-107791243D01*
X153794142Y-107873049D01*
X153800401Y-107976287D01*
X153800401Y-108005474D01*
X153274424Y-108005474D01*
X153278148Y-108055396D01*
X153289113Y-108102063D01*
X153307275Y-108146097D01*
X153332237Y-108186524D01*
X153360984Y-108218422D01*
X153393676Y-108242878D01*
X153430550Y-108260612D01*
X153470949Y-108271408D01*
X153515675Y-108275118D01*
X153574654Y-108270580D01*
X153639248Y-108256265D01*
X153710497Y-108230817D01*
X153789471Y-108192503D01*
X153789471Y-108312121D01*
X153684973Y-108353602D01*
X153588738Y-108377053D01*
X153499249Y-108384539D01*
X153431577Y-108378676D01*
X153370154Y-108361562D01*
X153313747Y-108333309D01*
X153263597Y-108294921D01*
X153220103Y-108246556D01*
X153182955Y-108186946D01*
X153155683Y-108122050D01*
X153139362Y-108054474D01*
X153133862Y-107983370D01*
X153139023Y-107914891D01*
X153140674Y-107907777D01*
X153282362Y-107907777D01*
X153658496Y-107907777D01*
X153658496Y-107891290D01*
X153652944Y-107830908D01*
X153637539Y-107782552D01*
X153613250Y-107743707D01*
X153579844Y-107713364D01*
X153540228Y-107695245D01*
X153492411Y-107688935D01*
X153443768Y-107695143D01*
X153400163Y-107713481D01*
X153360153Y-107744806D01*
X153328255Y-107785197D01*
X153302077Y-107838525D01*
X153282362Y-107907777D01*
X153140674Y-107907777D01*
X153154475Y-107848308D01*
X153180513Y-107782908D01*
X153216350Y-107722722D01*
X153259705Y-107673181D01*
X153310999Y-107633126D01*
X153368854Y-107603408D01*
X153430746Y-107585575D01*
X153497845Y-107579515D01*
X153564480Y-107585907D01*
G37*
G36*
X153999092Y-108322684D02*
G01*
X153999092Y-108183588D01*
X154053322Y-108214786D01*
X154107991Y-108238480D01*
X154163407Y-108255090D01*
X154245748Y-108270613D01*
X154307754Y-108275118D01*
X154371376Y-108270923D01*
X154415474Y-108260128D01*
X154445080Y-108244710D01*
X154468841Y-108222036D01*
X154482290Y-108197190D01*
X154486784Y-108169117D01*
X154481910Y-108141355D01*
X154467489Y-108118192D01*
X154439737Y-108097765D01*
X154369853Y-108065008D01*
X154326134Y-108047362D01*
X154238023Y-108012740D01*
X154143134Y-107971033D01*
X154087320Y-107937317D01*
X154058260Y-107910219D01*
X154037365Y-107877268D01*
X154024640Y-107839678D01*
X154020219Y-107796219D01*
X154024903Y-107750507D01*
X154038518Y-107710014D01*
X154061096Y-107673594D01*
X154093553Y-107640514D01*
X154131166Y-107616154D01*
X154181109Y-107597057D01*
X154246477Y-107584265D01*
X154330957Y-107579515D01*
X154412190Y-107583116D01*
X154489909Y-107593752D01*
X154564515Y-107611266D01*
X154564515Y-107732716D01*
X154478256Y-107707706D01*
X154399121Y-107693480D01*
X154326195Y-107688935D01*
X154273293Y-107692512D01*
X154232519Y-107702166D01*
X154201387Y-107716718D01*
X154175466Y-107737867D01*
X154161311Y-107760434D01*
X154156690Y-107785411D01*
X154160863Y-107809741D01*
X154173296Y-107830589D01*
X154195403Y-107848975D01*
X154240832Y-107872664D01*
X154322043Y-107905151D01*
X154408138Y-107936353D01*
X154486087Y-107969086D01*
X154539798Y-108000333D01*
X154574895Y-108029959D01*
X154601572Y-108066303D01*
X154617669Y-108108103D01*
X154623255Y-108156966D01*
X154618347Y-108204989D01*
X154604079Y-108247521D01*
X154580428Y-108285763D01*
X154546441Y-108320486D01*
X154507058Y-108346179D01*
X154455251Y-108366222D01*
X154387974Y-108379591D01*
X154301587Y-108384539D01*
X154204939Y-108377952D01*
X154104422Y-108357694D01*
X153999092Y-108322684D01*
G37*
G36*
X155043231Y-108365000D02*
G01*
X155043231Y-107708475D01*
X154831472Y-107708475D01*
X154831472Y-107599054D01*
X155174206Y-107599054D01*
X155174206Y-108255579D01*
X155386636Y-108255579D01*
X155386636Y-108365000D01*
X155043231Y-108365000D01*
G37*
G36*
X155022043Y-107325868D02*
G01*
X155025642Y-107298384D01*
X155035676Y-107277270D01*
X155052084Y-107260961D01*
X155082465Y-107244438D01*
X155108688Y-107239528D01*
X155135551Y-107244476D01*
X155166024Y-107260961D01*
X155182432Y-107277270D01*
X155192466Y-107298384D01*
X155196066Y-107325868D01*
X155192489Y-107352863D01*
X155182475Y-107373779D01*
X155166024Y-107390104D01*
X155135554Y-107406540D01*
X155108688Y-107411475D01*
X155082461Y-107406578D01*
X155052084Y-107390104D01*
X155035633Y-107373779D01*
X155025620Y-107352863D01*
X155022043Y-107325868D01*
G37*
G36*
X156147636Y-107595390D02*
G01*
X156180303Y-107599054D01*
X156309874Y-107599054D01*
X156309874Y-108139624D01*
X156308101Y-108314124D01*
X156304745Y-108374708D01*
X156287953Y-108461231D01*
X156269901Y-108509476D01*
X156243418Y-108551981D01*
X156207990Y-108589550D01*
X156162474Y-108622554D01*
X156094896Y-108654541D01*
X156016814Y-108674516D01*
X155926046Y-108681538D01*
X155834803Y-108673932D01*
X155740962Y-108650564D01*
X155643335Y-108610036D01*
X155643335Y-108476313D01*
X155703947Y-108511840D01*
X155778768Y-108543724D01*
X155857327Y-108565246D01*
X155930809Y-108572117D01*
X155987382Y-108567507D01*
X156040108Y-108553921D01*
X156087526Y-108531258D01*
X156123456Y-108501592D01*
X156150134Y-108464568D01*
X156166687Y-108421969D01*
X156174967Y-108372808D01*
X156178227Y-108300947D01*
X156178227Y-108200685D01*
X156137989Y-108255924D01*
X156092506Y-108300961D01*
X156041451Y-108336789D01*
X155985203Y-108364532D01*
X155935326Y-108379777D01*
X155890509Y-108384539D01*
X155844424Y-108379555D01*
X155800766Y-108364632D01*
X155758597Y-108339119D01*
X155717280Y-108301496D01*
X155685753Y-108258246D01*
X155661844Y-108203693D01*
X155646262Y-108135315D01*
X155640588Y-108049987D01*
X155641597Y-108035088D01*
X155782493Y-108035088D01*
X155788022Y-108109889D01*
X155802736Y-108165390D01*
X155824686Y-108205997D01*
X155855952Y-108239377D01*
X155887510Y-108257546D01*
X155920612Y-108263394D01*
X155957908Y-108257704D01*
X156000591Y-108238936D01*
X156050610Y-108203250D01*
X156094894Y-108160309D01*
X156137446Y-108106856D01*
X156178227Y-108041439D01*
X156178227Y-107714214D01*
X156113013Y-107700935D01*
X156054457Y-107696751D01*
X155998236Y-107702508D01*
X155947926Y-107719314D01*
X155902189Y-107747289D01*
X155860162Y-107787609D01*
X155827485Y-107834752D01*
X155803301Y-107890542D01*
X155787953Y-107956634D01*
X155782493Y-108035088D01*
X155641597Y-108035088D01*
X155646499Y-107962746D01*
X155663597Y-107884191D01*
X155691329Y-107813011D01*
X155729827Y-107747136D01*
X155775079Y-107692557D01*
X155827311Y-107648025D01*
X155886795Y-107615048D01*
X155956276Y-107594547D01*
X156038093Y-107587330D01*
X156147636Y-107595390D01*
G37*
G36*
X156507833Y-108365000D02*
G01*
X156507833Y-107599054D01*
X156638808Y-107599054D01*
X156638808Y-107762575D01*
X156676337Y-107710548D01*
X156719202Y-107666476D01*
X156767707Y-107629706D01*
X156821163Y-107601109D01*
X156872645Y-107584804D01*
X156923107Y-107579515D01*
X156967470Y-107583580D01*
X157008551Y-107595570D01*
X157047121Y-107615601D01*
X157081065Y-107642540D01*
X157106870Y-107673829D01*
X157125340Y-107710001D01*
X157136048Y-107750944D01*
X157144342Y-107822690D01*
X157147749Y-107938246D01*
X157147749Y-108365000D01*
X157016774Y-108365000D01*
X157016774Y-107923103D01*
X157013384Y-107823135D01*
X157006271Y-107779366D01*
X156991436Y-107747825D01*
X156967986Y-107722702D01*
X156938643Y-107706064D01*
X156907353Y-107700659D01*
X156865105Y-107706757D01*
X156818140Y-107726550D01*
X156764654Y-107763551D01*
X156717200Y-107808461D01*
X156675300Y-107860656D01*
X156638808Y-107920844D01*
X156638808Y-108365000D01*
X156507833Y-108365000D01*
G37*
G36*
X158307658Y-107763429D02*
G01*
X158348282Y-107708099D01*
X158393875Y-107663048D01*
X158444740Y-107627264D01*
X158500785Y-107599532D01*
X158550565Y-107584282D01*
X158595377Y-107579515D01*
X158641461Y-107584494D01*
X158685172Y-107599412D01*
X158727443Y-107624925D01*
X158768911Y-107662557D01*
X158800603Y-107705833D01*
X158824624Y-107760397D01*
X158840272Y-107828766D01*
X158845970Y-107914066D01*
X158840018Y-108001290D01*
X158822800Y-108079843D01*
X158794862Y-108151043D01*
X158756187Y-108216931D01*
X158710832Y-108271532D01*
X158658574Y-108316090D01*
X158599133Y-108349030D01*
X158529674Y-108369511D01*
X158447854Y-108376723D01*
X158338250Y-108368663D01*
X158305582Y-108365000D01*
X158176683Y-108365000D01*
X158176683Y-107922615D01*
X158307658Y-107922615D01*
X158307658Y-108249839D01*
X158374058Y-108263140D01*
X158432772Y-108267302D01*
X158487950Y-108261615D01*
X158537719Y-108244952D01*
X158583349Y-108217115D01*
X158625663Y-108176871D01*
X158658636Y-108129838D01*
X158683044Y-108074038D01*
X158698545Y-108007785D01*
X158704065Y-107928965D01*
X158698473Y-107853727D01*
X158683621Y-107798170D01*
X158661505Y-107757751D01*
X158630072Y-107724557D01*
X158598410Y-107706478D01*
X158565274Y-107700659D01*
X158527986Y-107706356D01*
X158485400Y-107725128D01*
X158435581Y-107760804D01*
X158391475Y-107803689D01*
X158348823Y-107857137D01*
X158307658Y-107922615D01*
X158176683Y-107922615D01*
X158176683Y-107259068D01*
X158307658Y-107259068D01*
X158307658Y-107763429D01*
G37*
G36*
X159306062Y-108332515D02*
G01*
X158952582Y-107599054D01*
X159096990Y-107599054D01*
X159376343Y-108165209D01*
X159610206Y-107599054D01*
X159742158Y-107599054D01*
X159445281Y-108312060D01*
X159391869Y-108428233D01*
X159344709Y-108512074D01*
X159303206Y-108570136D01*
X159266678Y-108608143D01*
X159222466Y-108639508D01*
X159171978Y-108662318D01*
X159114057Y-108676547D01*
X159047226Y-108681538D01*
X158990433Y-108678773D01*
X158941469Y-108670975D01*
X158941469Y-108555265D01*
X158995703Y-108568103D01*
X159043867Y-108572117D01*
X159102429Y-108566060D01*
X159152250Y-108548731D01*
X159181478Y-108530261D01*
X159210334Y-108503129D01*
X159239017Y-108465628D01*
X159274196Y-108407095D01*
X159294766Y-108362374D01*
X159306062Y-108332515D01*
G37*
G36*
X160751552Y-108365000D02*
G01*
X160636331Y-108365000D01*
X160636331Y-107302055D01*
X160778358Y-107302055D01*
X161021502Y-107996315D01*
X161264646Y-107302055D01*
X161403253Y-107302055D01*
X161403253Y-108365000D01*
X161272278Y-108365000D01*
X161272278Y-107689607D01*
X161275636Y-107599054D01*
X161246022Y-107690340D01*
X161081647Y-108153974D01*
X160940841Y-108153974D01*
X160774389Y-107690340D01*
X160748133Y-107599054D01*
X160748194Y-107599054D01*
X160751552Y-107689607D01*
X160751552Y-108365000D01*
G37*
G36*
X161929613Y-107277184D02*
G01*
X161991358Y-107295543D01*
X162045644Y-107325422D01*
X162093710Y-107367434D01*
X162136165Y-107423199D01*
X162175548Y-107500209D01*
X162205409Y-107592338D01*
X162224649Y-107702286D01*
X162231542Y-107833161D01*
X162224642Y-107964444D01*
X162205389Y-108074629D01*
X162175527Y-108166857D01*
X162136165Y-108243855D01*
X162093710Y-108299620D01*
X162045644Y-108341633D01*
X161991358Y-108371511D01*
X161929613Y-108389870D01*
X161858644Y-108396263D01*
X161787979Y-108389884D01*
X161726397Y-108371550D01*
X161672156Y-108341688D01*
X161624032Y-108299666D01*
X161581428Y-108243855D01*
X161553435Y-108189267D01*
X161702451Y-108189267D01*
X161734249Y-108232660D01*
X161768824Y-108262234D01*
X161808692Y-108280644D01*
X161853210Y-108286842D01*
X161901187Y-108281185D01*
X161942228Y-108264854D01*
X161977967Y-108237660D01*
X162009238Y-108197937D01*
X162035964Y-108142739D01*
X162065644Y-108045228D01*
X162083983Y-107938811D01*
X162090308Y-107822231D01*
X162083484Y-107715416D01*
X162063564Y-107616945D01*
X161702451Y-108189267D01*
X161553435Y-108189267D01*
X161541933Y-108166838D01*
X161511977Y-108074604D01*
X161492666Y-107964426D01*
X161485746Y-107833161D01*
X161486140Y-107825711D01*
X161627651Y-107825711D01*
X161630338Y-107921027D01*
X161636553Y-107975638D01*
X161652503Y-108054689D01*
X162016242Y-107485847D01*
X161990930Y-107446511D01*
X161966238Y-107419461D01*
X161941992Y-107402133D01*
X161900810Y-107385617D01*
X161858644Y-107380212D01*
X161816427Y-107385056D01*
X161779050Y-107399212D01*
X161745315Y-107422984D01*
X161714553Y-107457786D01*
X161686697Y-107505997D01*
X161662248Y-107568726D01*
X161643726Y-107641861D01*
X161631864Y-107726950D01*
X161627651Y-107825711D01*
X161486140Y-107825711D01*
X161492659Y-107702305D01*
X161511957Y-107592364D01*
X161541912Y-107500227D01*
X161581428Y-107423199D01*
X161624032Y-107367388D01*
X161672156Y-107325366D01*
X161726397Y-107295504D01*
X161787979Y-107277171D01*
X161858644Y-107270792D01*
X161929613Y-107277184D01*
G37*
G36*
X162362578Y-107302055D02*
G01*
X162504483Y-107302055D01*
X162504483Y-107998941D01*
X162507869Y-108091595D01*
X162516191Y-108150451D01*
X162527137Y-108185237D01*
X162545103Y-108215891D01*
X162568151Y-108240908D01*
X162596746Y-108260891D01*
X162645902Y-108280241D01*
X162701282Y-108286842D01*
X162759555Y-108279679D01*
X162809848Y-108258876D01*
X162838290Y-108237186D01*
X162861674Y-108208321D01*
X162880190Y-108171010D01*
X162891126Y-108129164D01*
X162899494Y-108057808D01*
X162902904Y-107945085D01*
X162902904Y-107302055D01*
X163033880Y-107302055D01*
X163033880Y-107994727D01*
X163028124Y-108093338D01*
X163012647Y-108169333D01*
X162989550Y-108227185D01*
X162956132Y-108279709D01*
X162917624Y-108321447D01*
X162873778Y-108353703D01*
X162824366Y-108376535D01*
X162765068Y-108391068D01*
X162693771Y-108396263D01*
X162627847Y-108391898D01*
X162569396Y-108379364D01*
X162517306Y-108359199D01*
X162470308Y-108330186D01*
X162432096Y-108293377D01*
X162401779Y-108248007D01*
X162382597Y-108196033D01*
X162368320Y-108111285D01*
X162362578Y-107981111D01*
X162362578Y-107302055D01*
G37*
G36*
X163222924Y-108365000D02*
G01*
X163222924Y-107302055D01*
X163364829Y-107302055D01*
X163364829Y-107816919D01*
X163756106Y-107302055D01*
X163907170Y-107302055D01*
X163525174Y-107806416D01*
X163960537Y-108365000D01*
X163782728Y-108365000D01*
X163364829Y-107827482D01*
X163364829Y-108365000D01*
X163222924Y-108365000D01*
G37*
G36*
X164403788Y-107306719D02*
G01*
X164474693Y-107319385D01*
X164530195Y-107338433D01*
X164573159Y-107362810D01*
X164611629Y-107395708D01*
X164645663Y-107436495D01*
X164675367Y-107486199D01*
X164700532Y-107546175D01*
X164723324Y-107628980D01*
X164737872Y-107725024D01*
X164743030Y-107836275D01*
X164737659Y-107941371D01*
X164722358Y-108033786D01*
X164698089Y-108115139D01*
X164662586Y-108191586D01*
X164620107Y-108252495D01*
X164570778Y-108300153D01*
X164528700Y-108326215D01*
X164473983Y-108346519D01*
X164403641Y-108360020D01*
X164314140Y-108365000D01*
X164060799Y-108365000D01*
X164060799Y-108243855D01*
X164202704Y-108243855D01*
X164292952Y-108243855D01*
X164365088Y-108239937D01*
X164420042Y-108229466D01*
X164461246Y-108213988D01*
X164491582Y-108194457D01*
X164526531Y-108158293D01*
X164554810Y-108113045D01*
X164576334Y-108057070D01*
X164589452Y-107997572D01*
X164598469Y-107917944D01*
X164601858Y-107813682D01*
X164597837Y-107711800D01*
X164587235Y-107635734D01*
X164571938Y-107580308D01*
X164548177Y-107528443D01*
X164519670Y-107487251D01*
X164486514Y-107455134D01*
X164446790Y-107432878D01*
X164388107Y-107417445D01*
X164303881Y-107411475D01*
X164202704Y-107411475D01*
X164202704Y-108243855D01*
X164060799Y-108243855D01*
X164060799Y-107302055D01*
X164314140Y-107302055D01*
X164403788Y-107306719D01*
G37*
D13*
G36*
X163331095Y-109620378D02*
G01*
X163398615Y-109644128D01*
X163458005Y-109682791D01*
X163510616Y-109737169D01*
X163557112Y-109809366D01*
X163600218Y-109908985D01*
X163632919Y-110028299D01*
X163654001Y-110170833D01*
X163661556Y-110340649D01*
X163653993Y-110510994D01*
X163632900Y-110653851D01*
X163600197Y-110773321D01*
X163557112Y-110872964D01*
X163510620Y-110945127D01*
X163458010Y-110999484D01*
X163398621Y-111038133D01*
X163331099Y-111061875D01*
X163253518Y-111070142D01*
X163176271Y-111061893D01*
X163108928Y-111038184D01*
X163049588Y-110999556D01*
X162996916Y-110945187D01*
X162950260Y-110872964D01*
X162907028Y-110773296D01*
X162874222Y-110653818D01*
X162853065Y-110510969D01*
X162845501Y-110341125D01*
X162997277Y-110341125D01*
X163002983Y-110495742D01*
X163018429Y-110617823D01*
X163041475Y-110712972D01*
X163070556Y-110786124D01*
X163112528Y-110854392D01*
X163156416Y-110898992D01*
X163202882Y-110924486D01*
X163253518Y-110932975D01*
X163304154Y-110924486D01*
X163350620Y-110898992D01*
X163394508Y-110854392D01*
X163436480Y-110786124D01*
X163465560Y-110712972D01*
X163488607Y-110617823D01*
X163504053Y-110495742D01*
X163509759Y-110341125D01*
X163504053Y-110186509D01*
X163488607Y-110064428D01*
X163465560Y-109969279D01*
X163436480Y-109896127D01*
X163394508Y-109827859D01*
X163350620Y-109783259D01*
X163304154Y-109757764D01*
X163253518Y-109749276D01*
X163202882Y-109757764D01*
X163156416Y-109783259D01*
X163112528Y-109827859D01*
X163070556Y-109896127D01*
X163041475Y-109969279D01*
X163018429Y-110064428D01*
X163002983Y-110186509D01*
X162997277Y-110341125D01*
X162845501Y-110341125D01*
X162845480Y-110340649D01*
X162853057Y-110170857D01*
X162874202Y-110028332D01*
X162907007Y-109909010D01*
X162950260Y-109809366D01*
X162996919Y-109737110D01*
X163049594Y-109682718D01*
X163108934Y-109644077D01*
X163176275Y-109620360D01*
X163253518Y-109612109D01*
X163331095Y-109620378D01*
G37*
G36*
X164538083Y-110998780D02*
G01*
X164443473Y-111030624D01*
X164354556Y-111048971D01*
X164270557Y-111054901D01*
X164188022Y-111046997D01*
X164113760Y-111024051D01*
X164046287Y-110986476D01*
X163985511Y-110935216D01*
X163934800Y-110873683D01*
X163893349Y-110800968D01*
X163863283Y-110720674D01*
X163844881Y-110632444D01*
X163838541Y-110534651D01*
X163846679Y-110424799D01*
X163870203Y-110327527D01*
X163908674Y-110240462D01*
X163962866Y-110161888D01*
X164029021Y-110096345D01*
X164100224Y-110050508D01*
X164177681Y-110022890D01*
X164263102Y-110013449D01*
X164349059Y-110019513D01*
X164440443Y-110038309D01*
X164538083Y-110070999D01*
X164538083Y-110229042D01*
X164438499Y-110183448D01*
X164351801Y-110158393D01*
X164275864Y-110150616D01*
X164225740Y-110155570D01*
X164177869Y-110170329D01*
X164131589Y-110195148D01*
X164090597Y-110229651D01*
X164055893Y-110275356D01*
X164027145Y-110333981D01*
X164006559Y-110397980D01*
X163994386Y-110462412D01*
X163990338Y-110527904D01*
X163998016Y-110614089D01*
X164021259Y-110698179D01*
X164061333Y-110781758D01*
X164100751Y-110833450D01*
X164149544Y-110870662D01*
X164209670Y-110894094D01*
X164284125Y-110902493D01*
X164374263Y-110895032D01*
X164427429Y-110880778D01*
X164538083Y-110839943D01*
X164538083Y-110998780D01*
G37*
G36*
X165456723Y-110987667D02*
G01*
X165364321Y-111029465D01*
X165313926Y-111045613D01*
X165228289Y-111054901D01*
X165170433Y-111050326D01*
X165117066Y-111036957D01*
X165067491Y-111015053D01*
X165022327Y-110983740D01*
X164985969Y-110944644D01*
X164957405Y-110897175D01*
X164938493Y-110842965D01*
X164925280Y-110765030D01*
X164920194Y-110656101D01*
X164920194Y-110257301D01*
X164710567Y-110257301D01*
X164710567Y-110120135D01*
X164920194Y-110120135D01*
X164920194Y-109728955D01*
X165059969Y-109728955D01*
X165059969Y-110120135D01*
X165433416Y-110120135D01*
X165433416Y-110257301D01*
X165059969Y-110257301D01*
X165059969Y-110653561D01*
X165063408Y-110734022D01*
X165072082Y-110787975D01*
X165084014Y-110822479D01*
X165112381Y-110865432D01*
X165148226Y-110894714D01*
X165190891Y-110911677D01*
X165243334Y-110917734D01*
X165309464Y-110909988D01*
X165380133Y-110885682D01*
X165456723Y-110842403D01*
X165456723Y-110987667D01*
G37*
G36*
X167302264Y-111029500D02*
G01*
X166596677Y-111029500D01*
X166596677Y-110877648D01*
X166601500Y-110818497D01*
X166616962Y-110751991D01*
X166644374Y-110684902D01*
X166694338Y-110601488D01*
X166815372Y-110440825D01*
X166895032Y-110345094D01*
X167000215Y-110209515D01*
X167072762Y-110107459D01*
X167107279Y-110046312D01*
X167126982Y-109988892D01*
X167133206Y-109934626D01*
X167126328Y-109879259D01*
X167106582Y-109834470D01*
X167073091Y-109797618D01*
X167031441Y-109770810D01*
X166986661Y-109754742D01*
X166937817Y-109749276D01*
X166893939Y-109751999D01*
X166842038Y-109760866D01*
X166749213Y-109787934D01*
X166619984Y-109851278D01*
X166619984Y-109705062D01*
X166715728Y-109659886D01*
X166809730Y-109632034D01*
X166900916Y-109616533D01*
X166966431Y-109612109D01*
X167054727Y-109621089D01*
X167133541Y-109647116D01*
X167181093Y-109675521D01*
X167218448Y-109711597D01*
X167247053Y-109755706D01*
X167267843Y-109806167D01*
X167280145Y-109858186D01*
X167284264Y-109912559D01*
X167279266Y-109973216D01*
X167263769Y-110036358D01*
X167236508Y-110103068D01*
X167200937Y-110165569D01*
X167143172Y-110247687D01*
X167056568Y-110353985D01*
X166970864Y-110454161D01*
X166898726Y-110537509D01*
X166835234Y-110620192D01*
X166788237Y-110695394D01*
X166764819Y-110748175D01*
X166749177Y-110808268D01*
X166741690Y-110877092D01*
X167302264Y-110877092D01*
X167302264Y-111029500D01*
G37*
G36*
X167946796Y-109620378D02*
G01*
X168014316Y-109644128D01*
X168073706Y-109682791D01*
X168126318Y-109737169D01*
X168172813Y-109809366D01*
X168215919Y-109908985D01*
X168248620Y-110028299D01*
X168269702Y-110170833D01*
X168277257Y-110340649D01*
X168269695Y-110510994D01*
X168248601Y-110653851D01*
X168215898Y-110773321D01*
X168172813Y-110872964D01*
X168126321Y-110945127D01*
X168073711Y-110999484D01*
X168014322Y-111038133D01*
X167946800Y-111061875D01*
X167869219Y-111070142D01*
X167791973Y-111061893D01*
X167724630Y-111038184D01*
X167665289Y-110999556D01*
X167612617Y-110945187D01*
X167565961Y-110872964D01*
X167535834Y-110803508D01*
X167694921Y-110803508D01*
X167730783Y-110861576D01*
X167769275Y-110900588D01*
X167813640Y-110924815D01*
X167863241Y-110932975D01*
X167916612Y-110925564D01*
X167962217Y-110904183D01*
X168001876Y-110868611D01*
X168036524Y-110816696D01*
X168066085Y-110744609D01*
X168098932Y-110617152D01*
X168119210Y-110478299D01*
X168126199Y-110326440D01*
X168118433Y-110186576D01*
X168095437Y-110053377D01*
X167694921Y-110803508D01*
X167535834Y-110803508D01*
X167522729Y-110773296D01*
X167489923Y-110653818D01*
X167468766Y-110510969D01*
X167461181Y-110340649D01*
X167461613Y-110330965D01*
X167612978Y-110330965D01*
X167615933Y-110455114D01*
X167622960Y-110527004D01*
X167641524Y-110635066D01*
X168045062Y-109889221D01*
X168016573Y-109836775D01*
X167988948Y-109800904D01*
X167961977Y-109778091D01*
X167916132Y-109756380D01*
X167869219Y-109749276D01*
X167822240Y-109755624D01*
X167780695Y-109774162D01*
X167743249Y-109805268D01*
X167709154Y-109850767D01*
X167678331Y-109913749D01*
X167651250Y-109995832D01*
X167630751Y-110091367D01*
X167617633Y-110202342D01*
X167612978Y-110330965D01*
X167461613Y-110330965D01*
X167468758Y-110170857D01*
X167489903Y-110028332D01*
X167522708Y-109909010D01*
X167565961Y-109809366D01*
X167612621Y-109737110D01*
X167665295Y-109682718D01*
X167724635Y-109644077D01*
X167791977Y-109620360D01*
X167869219Y-109612109D01*
X167946796Y-109620378D01*
G37*
G36*
X169148545Y-111029500D02*
G01*
X168442958Y-111029500D01*
X168442958Y-110877648D01*
X168447781Y-110818497D01*
X168463242Y-110751991D01*
X168490654Y-110684902D01*
X168540618Y-110601488D01*
X168661653Y-110440825D01*
X168741313Y-110345094D01*
X168846496Y-110209515D01*
X168919043Y-110107459D01*
X168953560Y-110046312D01*
X168973262Y-109988892D01*
X168979486Y-109934626D01*
X168972609Y-109879259D01*
X168952862Y-109834470D01*
X168919372Y-109797618D01*
X168877722Y-109770810D01*
X168832941Y-109754742D01*
X168784098Y-109749276D01*
X168740220Y-109751999D01*
X168688318Y-109760866D01*
X168595494Y-109787934D01*
X168466265Y-109851278D01*
X168466265Y-109705062D01*
X168562009Y-109659886D01*
X168656011Y-109632034D01*
X168747197Y-109616533D01*
X168812711Y-109612109D01*
X168901008Y-109621089D01*
X168979822Y-109647116D01*
X169027373Y-109675521D01*
X169064728Y-109711597D01*
X169093334Y-109755706D01*
X169114124Y-109806167D01*
X169126425Y-109858186D01*
X169130544Y-109912559D01*
X169125547Y-109973216D01*
X169110049Y-110036358D01*
X169082789Y-110103068D01*
X169047217Y-110165569D01*
X168989453Y-110247687D01*
X168902849Y-110353985D01*
X168817144Y-110454161D01*
X168745007Y-110537509D01*
X168681514Y-110620192D01*
X168634518Y-110695394D01*
X168611099Y-110748175D01*
X168595457Y-110808268D01*
X168587971Y-110877092D01*
X169148545Y-110877092D01*
X169148545Y-111029500D01*
G37*
G36*
X169395383Y-110318264D02*
G01*
X169395383Y-109652751D01*
X170048378Y-109652751D01*
X170048378Y-109810239D01*
X169535157Y-109810239D01*
X169535157Y-110150616D01*
X169559203Y-110150616D01*
X169686945Y-110159680D01*
X169791687Y-110184765D01*
X169877281Y-110223458D01*
X169946957Y-110274447D01*
X169996368Y-110327960D01*
X170033948Y-110387068D01*
X170060793Y-110452513D01*
X170077266Y-110525530D01*
X170082969Y-110607759D01*
X170076697Y-110694276D01*
X170058367Y-110773040D01*
X170028094Y-110845579D01*
X169986938Y-110910120D01*
X169935731Y-110964888D01*
X169873275Y-111010449D01*
X169805164Y-111043636D01*
X169734561Y-111063469D01*
X169660625Y-111070142D01*
X169586052Y-111064131D01*
X169491254Y-111043846D01*
X169372076Y-111005448D01*
X169372076Y-110825575D01*
X169438615Y-110861836D01*
X169514873Y-110891856D01*
X169592677Y-110911599D01*
X169660625Y-110917734D01*
X169726245Y-110908458D01*
X169791398Y-110880029D01*
X169830982Y-110850838D01*
X169863836Y-110814326D01*
X169890604Y-110769851D01*
X169910533Y-110720300D01*
X169922119Y-110671241D01*
X169925933Y-110621968D01*
X169920032Y-110561417D01*
X169902583Y-110506221D01*
X169872974Y-110454864D01*
X169829347Y-110406454D01*
X169780519Y-110372399D01*
X169711228Y-110344682D01*
X169615502Y-110325533D01*
X169486327Y-110318264D01*
X169395383Y-110318264D01*
G37*
D14*
D15*
X176347219Y-99893333D02*
X175871028Y-100226666D01*
X176347219Y-100464761D02*
X175347219Y-100464761D01*
X175347219Y-100464761D02*
X175347219Y-100083809D01*
X175347219Y-100083809D02*
X175394838Y-99988571D01*
X175394838Y-99988571D02*
X175442457Y-99940952D01*
X175442457Y-99940952D02*
X175537695Y-99893333D01*
X175537695Y-99893333D02*
X175680552Y-99893333D01*
X175680552Y-99893333D02*
X175775790Y-99940952D01*
X175775790Y-99940952D02*
X175823409Y-99988571D01*
X175823409Y-99988571D02*
X175871028Y-100083809D01*
X175871028Y-100083809D02*
X175871028Y-100464761D01*
X176347219Y-99464761D02*
X175680552Y-99464761D01*
X175347219Y-99464761D02*
X175394838Y-99512380D01*
X175394838Y-99512380D02*
X175442457Y-99464761D01*
X175442457Y-99464761D02*
X175394838Y-99417142D01*
X175394838Y-99417142D02*
X175347219Y-99464761D01*
X175347219Y-99464761D02*
X175442457Y-99464761D01*
X175680552Y-98988571D02*
X176347219Y-98988571D01*
X175775790Y-98988571D02*
X175728171Y-98940952D01*
X175728171Y-98940952D02*
X175680552Y-98845714D01*
X175680552Y-98845714D02*
X175680552Y-98702857D01*
X175680552Y-98702857D02*
X175728171Y-98607619D01*
X175728171Y-98607619D02*
X175823409Y-98560000D01*
X175823409Y-98560000D02*
X176347219Y-98560000D01*
X175680552Y-97655238D02*
X176490076Y-97655238D01*
X176490076Y-97655238D02*
X176585314Y-97702857D01*
X176585314Y-97702857D02*
X176632933Y-97750476D01*
X176632933Y-97750476D02*
X176680552Y-97845714D01*
X176680552Y-97845714D02*
X176680552Y-97988571D01*
X176680552Y-97988571D02*
X176632933Y-98083809D01*
X176299600Y-97655238D02*
X176347219Y-97750476D01*
X176347219Y-97750476D02*
X176347219Y-97940952D01*
X176347219Y-97940952D02*
X176299600Y-98036190D01*
X176299600Y-98036190D02*
X176251980Y-98083809D01*
X176251980Y-98083809D02*
X176156742Y-98131428D01*
X176156742Y-98131428D02*
X175871028Y-98131428D01*
X175871028Y-98131428D02*
X175775790Y-98083809D01*
X175775790Y-98083809D02*
X175728171Y-98036190D01*
X175728171Y-98036190D02*
X175680552Y-97940952D01*
X175680552Y-97940952D02*
X175680552Y-97750476D01*
X175680552Y-97750476D02*
X175728171Y-97655238D01*
D14*
D15*
X141932143Y-89444742D02*
X141932143Y-88244742D01*
X141932143Y-88244742D02*
X142217857Y-88244742D01*
X142217857Y-88244742D02*
X142389286Y-88301885D01*
X142389286Y-88301885D02*
X142503571Y-88416171D01*
X142503571Y-88416171D02*
X142560714Y-88530457D01*
X142560714Y-88530457D02*
X142617857Y-88759028D01*
X142617857Y-88759028D02*
X142617857Y-88930457D01*
X142617857Y-88930457D02*
X142560714Y-89159028D01*
X142560714Y-89159028D02*
X142503571Y-89273314D01*
X142503571Y-89273314D02*
X142389286Y-89387600D01*
X142389286Y-89387600D02*
X142217857Y-89444742D01*
X142217857Y-89444742D02*
X141932143Y-89444742D01*
X143132143Y-89444742D02*
X143132143Y-88644742D01*
X143132143Y-88244742D02*
X143075000Y-88301885D01*
X143075000Y-88301885D02*
X143132143Y-88359028D01*
X143132143Y-88359028D02*
X143189286Y-88301885D01*
X143189286Y-88301885D02*
X143132143Y-88244742D01*
X143132143Y-88244742D02*
X143132143Y-88359028D01*
X143532143Y-88644742D02*
X143989286Y-88644742D01*
X143703572Y-88244742D02*
X143703572Y-89273314D01*
X143703572Y-89273314D02*
X143760715Y-89387600D01*
X143760715Y-89387600D02*
X143875000Y-89444742D01*
X143875000Y-89444742D02*
X143989286Y-89444742D01*
D14*
D15*
X175347219Y-91146189D02*
X175347219Y-90574761D01*
X176347219Y-90860475D02*
X175347219Y-90860475D01*
X176347219Y-90241427D02*
X175680552Y-90241427D01*
X175347219Y-90241427D02*
X175394838Y-90289046D01*
X175394838Y-90289046D02*
X175442457Y-90241427D01*
X175442457Y-90241427D02*
X175394838Y-90193808D01*
X175394838Y-90193808D02*
X175347219Y-90241427D01*
X175347219Y-90241427D02*
X175442457Y-90241427D01*
X175680552Y-89765237D02*
X176680552Y-89765237D01*
X175728171Y-89765237D02*
X175680552Y-89669999D01*
X175680552Y-89669999D02*
X175680552Y-89479523D01*
X175680552Y-89479523D02*
X175728171Y-89384285D01*
X175728171Y-89384285D02*
X175775790Y-89336666D01*
X175775790Y-89336666D02*
X175871028Y-89289047D01*
X175871028Y-89289047D02*
X176156742Y-89289047D01*
X176156742Y-89289047D02*
X176251980Y-89336666D01*
X176251980Y-89336666D02*
X176299600Y-89384285D01*
X176299600Y-89384285D02*
X176347219Y-89479523D01*
X176347219Y-89479523D02*
X176347219Y-89669999D01*
X176347219Y-89669999D02*
X176299600Y-89765237D01*
D14*
D15*
X143380000Y-95794742D02*
X143380000Y-94594742D01*
X143380000Y-94594742D02*
X143665714Y-94594742D01*
X143665714Y-94594742D02*
X143837143Y-94651885D01*
X143837143Y-94651885D02*
X143951428Y-94766171D01*
X143951428Y-94766171D02*
X144008571Y-94880457D01*
X144008571Y-94880457D02*
X144065714Y-95109028D01*
X144065714Y-95109028D02*
X144065714Y-95280457D01*
X144065714Y-95280457D02*
X144008571Y-95509028D01*
X144008571Y-95509028D02*
X143951428Y-95623314D01*
X143951428Y-95623314D02*
X143837143Y-95737600D01*
X143837143Y-95737600D02*
X143665714Y-95794742D01*
X143665714Y-95794742D02*
X143380000Y-95794742D01*
X145094286Y-95794742D02*
X145094286Y-95166171D01*
X145094286Y-95166171D02*
X145037143Y-95051885D01*
X145037143Y-95051885D02*
X144922857Y-94994742D01*
X144922857Y-94994742D02*
X144694286Y-94994742D01*
X144694286Y-94994742D02*
X144580000Y-95051885D01*
X145094286Y-95737600D02*
X144980000Y-95794742D01*
X144980000Y-95794742D02*
X144694286Y-95794742D01*
X144694286Y-95794742D02*
X144580000Y-95737600D01*
X144580000Y-95737600D02*
X144522857Y-95623314D01*
X144522857Y-95623314D02*
X144522857Y-95509028D01*
X144522857Y-95509028D02*
X144580000Y-95394742D01*
X144580000Y-95394742D02*
X144694286Y-95337600D01*
X144694286Y-95337600D02*
X144980000Y-95337600D01*
X144980000Y-95337600D02*
X145094286Y-95280457D01*
X145665714Y-95794742D02*
X145665714Y-94594742D01*
X146180000Y-95794742D02*
X146180000Y-95166171D01*
X146180000Y-95166171D02*
X146122857Y-95051885D01*
X146122857Y-95051885D02*
X146008571Y-94994742D01*
X146008571Y-94994742D02*
X145837142Y-94994742D01*
X145837142Y-94994742D02*
X145722857Y-95051885D01*
X145722857Y-95051885D02*
X145665714Y-95109028D01*
D14*
D15*
X175394838Y-95376904D02*
X175347219Y-95472142D01*
X175347219Y-95472142D02*
X175347219Y-95614999D01*
X175347219Y-95614999D02*
X175394838Y-95757856D01*
X175394838Y-95757856D02*
X175490076Y-95853094D01*
X175490076Y-95853094D02*
X175585314Y-95900713D01*
X175585314Y-95900713D02*
X175775790Y-95948332D01*
X175775790Y-95948332D02*
X175918647Y-95948332D01*
X175918647Y-95948332D02*
X176109123Y-95900713D01*
X176109123Y-95900713D02*
X176204361Y-95853094D01*
X176204361Y-95853094D02*
X176299600Y-95757856D01*
X176299600Y-95757856D02*
X176347219Y-95614999D01*
X176347219Y-95614999D02*
X176347219Y-95519761D01*
X176347219Y-95519761D02*
X176299600Y-95376904D01*
X176299600Y-95376904D02*
X176251980Y-95329285D01*
X176251980Y-95329285D02*
X175918647Y-95329285D01*
X175918647Y-95329285D02*
X175918647Y-95519761D01*
X176347219Y-94900713D02*
X175347219Y-94900713D01*
X175347219Y-94900713D02*
X176347219Y-94329285D01*
X176347219Y-94329285D02*
X175347219Y-94329285D01*
X176347219Y-93853094D02*
X175347219Y-93853094D01*
X175347219Y-93853094D02*
X175347219Y-93614999D01*
X175347219Y-93614999D02*
X175394838Y-93472142D01*
X175394838Y-93472142D02*
X175490076Y-93376904D01*
X175490076Y-93376904D02*
X175585314Y-93329285D01*
X175585314Y-93329285D02*
X175775790Y-93281666D01*
X175775790Y-93281666D02*
X175918647Y-93281666D01*
X175918647Y-93281666D02*
X176109123Y-93329285D01*
X176109123Y-93329285D02*
X176204361Y-93376904D01*
X176204361Y-93376904D02*
X176299600Y-93472142D01*
X176299600Y-93472142D02*
X176347219Y-93614999D01*
X176347219Y-93614999D02*
X176347219Y-93853094D01*
D16*
G36*
X147718423Y-110872012D02*
G01*
X147718423Y-111029500D01*
X147084436Y-111029500D01*
X147084436Y-109647671D01*
X147240532Y-109647671D01*
X147240532Y-110872012D01*
X147718423Y-110872012D01*
G37*
G36*
X148477408Y-110029008D02*
G01*
X148513342Y-110033770D01*
X148655870Y-110033770D01*
X148655870Y-110738179D01*
X148659996Y-110856637D01*
X148671281Y-110952564D01*
X148688312Y-111029500D01*
X148537791Y-111029500D01*
X148523488Y-110939065D01*
X148511596Y-110811525D01*
X148466922Y-110884984D01*
X148416699Y-110944632D01*
X148360605Y-110991874D01*
X148298688Y-111028514D01*
X148243833Y-111048624D01*
X148194569Y-111054901D01*
X148143876Y-111048422D01*
X148095851Y-111029022D01*
X148049466Y-110995855D01*
X148004017Y-110946945D01*
X147969338Y-110890720D01*
X147943037Y-110819801D01*
X147925897Y-110730910D01*
X147919655Y-110619984D01*
X147920766Y-110600615D01*
X148075751Y-110600615D01*
X148081833Y-110697855D01*
X148098018Y-110770007D01*
X148122163Y-110822797D01*
X148156556Y-110866191D01*
X148191270Y-110889810D01*
X148227682Y-110897413D01*
X148268707Y-110890015D01*
X148315659Y-110865617D01*
X148370680Y-110819225D01*
X148419392Y-110763401D01*
X148466200Y-110693913D01*
X148511059Y-110608871D01*
X148511059Y-110183479D01*
X148439323Y-110166216D01*
X148374912Y-110160777D01*
X148313069Y-110168260D01*
X148257727Y-110190108D01*
X148207416Y-110226475D01*
X148161187Y-110278892D01*
X148125242Y-110340177D01*
X148098640Y-110412705D01*
X148081757Y-110498624D01*
X148075751Y-110600615D01*
X147920766Y-110600615D01*
X147926158Y-110506571D01*
X147944965Y-110404449D01*
X147975471Y-110311914D01*
X148017819Y-110226277D01*
X148067596Y-110155324D01*
X148125051Y-110097432D01*
X148190484Y-110054562D01*
X148266912Y-110027912D01*
X148356911Y-110018530D01*
X148477408Y-110029008D01*
G37*
G36*
X149191257Y-110986952D02*
G01*
X148802428Y-110028690D01*
X148961278Y-110028690D01*
X149268566Y-110768422D01*
X149525814Y-110028690D01*
X149670962Y-110028690D01*
X149344397Y-110960360D01*
X149285644Y-111111472D01*
X149233767Y-111220532D01*
X149188114Y-111296062D01*
X149147934Y-111345507D01*
X149099297Y-111386318D01*
X149043758Y-111415995D01*
X148980047Y-111434507D01*
X148906537Y-111441000D01*
X148844064Y-111437405D01*
X148790204Y-111427267D01*
X148790204Y-111276844D01*
X148849862Y-111293533D01*
X148902842Y-111298753D01*
X148967260Y-111290879D01*
X149022063Y-111268351D01*
X149054214Y-111244339D01*
X149085955Y-111209068D01*
X149117507Y-111160316D01*
X149156204Y-111084223D01*
X149178831Y-111026086D01*
X149191257Y-110986952D01*
G37*
G36*
X150225038Y-110009637D02*
G01*
X150288551Y-110027936D01*
X150345404Y-110057601D01*
X150396629Y-110098784D01*
X150442910Y-110152362D01*
X150489716Y-110230110D01*
X150523506Y-110317466D01*
X150544429Y-110416206D01*
X150551720Y-110528618D01*
X150544433Y-110641064D01*
X150523517Y-110739917D01*
X150489727Y-110827451D01*
X150442910Y-110905430D01*
X150396611Y-110959168D01*
X150345377Y-111000462D01*
X150288523Y-111030199D01*
X150225020Y-111048539D01*
X150153555Y-111054901D01*
X150081761Y-111048529D01*
X150018024Y-111030170D01*
X149961020Y-111000419D01*
X149909707Y-110959130D01*
X149863395Y-110905430D01*
X149816609Y-110827456D01*
X149782839Y-110739923D01*
X149761934Y-110641069D01*
X149754652Y-110528618D01*
X149910747Y-110528618D01*
X149915459Y-110619335D01*
X149928605Y-110694987D01*
X149949075Y-110758003D01*
X149976302Y-110810414D01*
X150012302Y-110855455D01*
X150053100Y-110886905D01*
X150099661Y-110906018D01*
X150153555Y-110912654D01*
X150207056Y-110906033D01*
X150253364Y-110886948D01*
X150294030Y-110855503D01*
X150330002Y-110810414D01*
X150357259Y-110757998D01*
X150377750Y-110694980D01*
X150390908Y-110619330D01*
X150395624Y-110528618D01*
X150390918Y-110438436D01*
X150377775Y-110363093D01*
X150357286Y-110300203D01*
X150330002Y-110247776D01*
X150294030Y-110202686D01*
X150253364Y-110171242D01*
X150207056Y-110152156D01*
X150153555Y-110145536D01*
X150099661Y-110152172D01*
X150053100Y-110171285D01*
X150012302Y-110202734D01*
X149976302Y-110247776D01*
X149949048Y-110300198D01*
X149928580Y-110363086D01*
X149915449Y-110438431D01*
X149910747Y-110528618D01*
X149754652Y-110528618D01*
X149761939Y-110416202D01*
X149782849Y-110317460D01*
X149816619Y-110230106D01*
X149863395Y-110152362D01*
X149909689Y-110098822D01*
X149960992Y-110057644D01*
X150017997Y-110027965D01*
X150081744Y-110009647D01*
X150153555Y-110003289D01*
X150225038Y-110009637D01*
G37*
G36*
X151423746Y-110028690D02*
G01*
X151423746Y-111029500D01*
X151279741Y-111029500D01*
X151279741Y-110815176D01*
X151233510Y-110888602D01*
X151184525Y-110947360D01*
X151132645Y-110993144D01*
X151075546Y-111028282D01*
X151020413Y-111048372D01*
X150966273Y-111054901D01*
X150917964Y-111049616D01*
X150872878Y-111033978D01*
X150830193Y-111007750D01*
X150792712Y-110972514D01*
X150764331Y-110931506D01*
X150744153Y-110883998D01*
X150732550Y-110830236D01*
X150723583Y-110736539D01*
X150719905Y-110586248D01*
X150719905Y-110028690D01*
X150863978Y-110028690D01*
X150863978Y-110606489D01*
X150867685Y-110737252D01*
X150875464Y-110794538D01*
X150891828Y-110835780D01*
X150917577Y-110868598D01*
X150949810Y-110890395D01*
X150983535Y-110897413D01*
X151030050Y-110889481D01*
X151081713Y-110863746D01*
X151140504Y-110815653D01*
X151192718Y-110757178D01*
X151239086Y-110688769D01*
X151279741Y-110609426D01*
X151279741Y-110028690D01*
X151423746Y-110028690D01*
G37*
G36*
X152358170Y-110986794D02*
G01*
X152264380Y-111029262D01*
X152213628Y-111045534D01*
X152127587Y-111054901D01*
X152069424Y-111050292D01*
X152015721Y-111036821D01*
X151965782Y-111014735D01*
X151920291Y-110983219D01*
X151883643Y-110943809D01*
X151854823Y-110895905D01*
X151835761Y-110841266D01*
X151822459Y-110762896D01*
X151817343Y-110653561D01*
X151817343Y-110257301D01*
X151607716Y-110257301D01*
X151607716Y-110115054D01*
X151817343Y-110115054D01*
X151817343Y-109723875D01*
X151961416Y-109723875D01*
X151961416Y-110115054D01*
X152334864Y-110115054D01*
X152334864Y-110257301D01*
X151961416Y-110257301D01*
X151961416Y-110651021D01*
X151964815Y-110731028D01*
X151973375Y-110784518D01*
X151985126Y-110818590D01*
X152013157Y-110860987D01*
X152048532Y-110889872D01*
X152090662Y-110906653D01*
X152142632Y-110912654D01*
X152208385Y-110904805D01*
X152279718Y-110880001D01*
X152358170Y-110835497D01*
X152358170Y-110986794D01*
G37*
G36*
X153631854Y-110242934D02*
G01*
X153676546Y-110170843D01*
X153726700Y-110112146D01*
X153782644Y-110065522D01*
X153844301Y-110029374D01*
X153899057Y-110009500D01*
X153948344Y-110003289D01*
X153999012Y-110009789D01*
X154047083Y-110029268D01*
X154093589Y-110062601D01*
X154139232Y-110111800D01*
X154174074Y-110168274D01*
X154200500Y-110239527D01*
X154217724Y-110328855D01*
X154223996Y-110440349D01*
X154217448Y-110554330D01*
X154198506Y-110656978D01*
X154167778Y-110750006D01*
X154125217Y-110836088D01*
X154075323Y-110907378D01*
X154017862Y-110965520D01*
X153952453Y-111008569D01*
X153876050Y-111035322D01*
X153786069Y-111044740D01*
X153665505Y-111034262D01*
X153629570Y-111029500D01*
X153487781Y-111029500D01*
X153487781Y-110451303D01*
X153631854Y-110451303D01*
X153631854Y-110879632D01*
X153704897Y-110897045D01*
X153769479Y-110902493D01*
X153830133Y-110895055D01*
X153884861Y-110873255D01*
X153935068Y-110836807D01*
X153981659Y-110784060D01*
X154017909Y-110722547D01*
X154044763Y-110649538D01*
X154061825Y-110562822D01*
X154067901Y-110459638D01*
X154061745Y-110361115D01*
X154045402Y-110288406D01*
X154021086Y-110235551D01*
X153986475Y-110192044D01*
X153951650Y-110168384D01*
X153915231Y-110160777D01*
X153874239Y-110168227D01*
X153827400Y-110192792D01*
X153772569Y-110239520D01*
X153724071Y-110295636D01*
X153677152Y-110365587D01*
X153631854Y-110451303D01*
X153487781Y-110451303D01*
X153487781Y-109591788D01*
X153631854Y-109591788D01*
X153631854Y-110242934D01*
G37*
G36*
X154730098Y-110986952D02*
G01*
X154341270Y-110028690D01*
X154500119Y-110028690D01*
X154807407Y-110768422D01*
X155064656Y-110028690D01*
X155209803Y-110028690D01*
X154883238Y-110960360D01*
X154824485Y-111111472D01*
X154772608Y-111220532D01*
X154726955Y-111296062D01*
X154686776Y-111345507D01*
X154638139Y-111386318D01*
X154582600Y-111415995D01*
X154518888Y-111434507D01*
X154445378Y-111441000D01*
X154382906Y-111437405D01*
X154329045Y-111427267D01*
X154329045Y-111276844D01*
X154388703Y-111293533D01*
X154441684Y-111298753D01*
X154506102Y-111290879D01*
X154560905Y-111268351D01*
X154593056Y-111244339D01*
X154624797Y-111209068D01*
X154656349Y-111160316D01*
X154695046Y-111084223D01*
X154717672Y-111026086D01*
X154730098Y-110986952D01*
G37*
G36*
X156645036Y-109653735D02*
G01*
X156723032Y-109670201D01*
X156784084Y-109694964D01*
X156831344Y-109726653D01*
X156873660Y-109769421D01*
X156911098Y-109822443D01*
X156943772Y-109887059D01*
X156971454Y-109965028D01*
X156996525Y-110072675D01*
X157012528Y-110197532D01*
X157018202Y-110342157D01*
X157012293Y-110478782D01*
X156995463Y-110598922D01*
X156968767Y-110704681D01*
X156929714Y-110804062D01*
X156882987Y-110883244D01*
X156828724Y-110945199D01*
X156782439Y-110979080D01*
X156722250Y-111005475D01*
X156644874Y-111023026D01*
X156546422Y-111029500D01*
X156267747Y-111029500D01*
X156267747Y-110872012D01*
X156423843Y-110872012D01*
X156523115Y-110872012D01*
X156602465Y-110866918D01*
X156662915Y-110853305D01*
X156708239Y-110833185D01*
X156741609Y-110807794D01*
X156780053Y-110760782D01*
X156811160Y-110701959D01*
X156834837Y-110629192D01*
X156849266Y-110551844D01*
X156859185Y-110448327D01*
X156862912Y-110312787D01*
X156858490Y-110180340D01*
X156846827Y-110081454D01*
X156830000Y-110009401D01*
X156803864Y-109941976D01*
X156772506Y-109888426D01*
X156736034Y-109846674D01*
X156692338Y-109817741D01*
X156627787Y-109797679D01*
X156535138Y-109789918D01*
X156423843Y-109789918D01*
X156423843Y-110872012D01*
X156267747Y-110872012D01*
X156267747Y-109647671D01*
X156546422Y-109647671D01*
X156645036Y-109653735D01*
G37*
G36*
X157872966Y-110872012D02*
G01*
X157872966Y-111029500D01*
X157238979Y-111029500D01*
X157238979Y-109647671D01*
X157395075Y-109647671D01*
X157395075Y-110872012D01*
X157872966Y-110872012D01*
G37*
G36*
X158545411Y-109611340D02*
G01*
X158597322Y-109623832D01*
X158644645Y-109644099D01*
X158688056Y-109673165D01*
X158723602Y-109709520D01*
X158752179Y-109753642D01*
X158773288Y-109803525D01*
X158785878Y-109856015D01*
X158790129Y-109912003D01*
X158785758Y-109970004D01*
X158772665Y-110025912D01*
X158751474Y-110079628D01*
X158720880Y-110134740D01*
X158676877Y-110191628D01*
X158587016Y-110284449D01*
X158648071Y-110341840D01*
X158720237Y-110416853D01*
X158768120Y-110477381D01*
X158797383Y-110525999D01*
X158818651Y-110579300D01*
X158831533Y-110636929D01*
X158835936Y-110699918D01*
X158830130Y-110772580D01*
X158813051Y-110839289D01*
X158784544Y-110901425D01*
X158743582Y-110959964D01*
X158694944Y-111005802D01*
X158634488Y-111040066D01*
X158559647Y-111062152D01*
X158467124Y-111070142D01*
X158373701Y-111062580D01*
X158298455Y-111041754D01*
X158238042Y-111009656D01*
X158189792Y-110967108D01*
X158149171Y-110912080D01*
X158120680Y-110851957D01*
X158103433Y-110785614D01*
X158097505Y-110711428D01*
X158097664Y-110709523D01*
X158253600Y-110709523D01*
X158260700Y-110767286D01*
X158281755Y-110818341D01*
X158318282Y-110864709D01*
X158363831Y-110899675D01*
X158414447Y-110920681D01*
X158471624Y-110927894D01*
X158523930Y-110921129D01*
X158571868Y-110901131D01*
X158616637Y-110867328D01*
X158652730Y-110822714D01*
X158673545Y-110773150D01*
X158680580Y-110716588D01*
X158672939Y-110660881D01*
X158648365Y-110601517D01*
X158602398Y-110536159D01*
X158493520Y-110415980D01*
X158449795Y-110375497D01*
X158369647Y-110456604D01*
X158314392Y-110529113D01*
X158279057Y-110594362D01*
X158259694Y-110653906D01*
X158253600Y-110709523D01*
X158097664Y-110709523D01*
X158103299Y-110641959D01*
X158120912Y-110573121D01*
X158151339Y-110503748D01*
X158196378Y-110432900D01*
X158258533Y-110359909D01*
X158340917Y-110284370D01*
X158317812Y-110264366D01*
X158266869Y-110211854D01*
X158212763Y-110132835D01*
X158184087Y-110072525D01*
X158167102Y-110009073D01*
X158161380Y-109941214D01*
X158162390Y-109929546D01*
X158300147Y-109929546D01*
X158304060Y-109968923D01*
X158315944Y-110007213D01*
X158336619Y-110045280D01*
X158380269Y-110099005D01*
X158454093Y-110167921D01*
X158488147Y-110196973D01*
X158556157Y-110130328D01*
X158597176Y-110079197D01*
X158618853Y-110040200D01*
X158639135Y-109977118D01*
X158645317Y-109922402D01*
X158640162Y-109881174D01*
X158624403Y-109841857D01*
X158596353Y-109803174D01*
X158561317Y-109773700D01*
X158519824Y-109755630D01*
X158470079Y-109749276D01*
X158416846Y-109756432D01*
X158375608Y-109776238D01*
X158343537Y-109807937D01*
X158318639Y-109849184D01*
X158304667Y-109889359D01*
X158300147Y-109929546D01*
X158162390Y-109929546D01*
X158167155Y-109874488D01*
X158184130Y-109813749D01*
X158212566Y-109757542D01*
X158253735Y-109704903D01*
X158302101Y-109662729D01*
X158356480Y-109632356D01*
X158418002Y-109613574D01*
X158488147Y-109607029D01*
X158545411Y-109611340D01*
G37*
G36*
X159825169Y-111029500D02*
G01*
X159660745Y-111029500D01*
X159581085Y-110734845D01*
X159173853Y-110734845D01*
X159094999Y-111029500D01*
X158944747Y-111029500D01*
X159058724Y-110592598D01*
X159211264Y-110592598D01*
X159545822Y-110592598D01*
X159406182Y-110063458D01*
X159375353Y-109931768D01*
X159348016Y-110063855D01*
X159211264Y-110592598D01*
X159058724Y-110592598D01*
X159305231Y-109647671D01*
X159462468Y-109647671D01*
X159825169Y-111029500D01*
G37*
G36*
X160342644Y-109653308D02*
G01*
X160429208Y-109667012D01*
X160478567Y-109684741D01*
X160522051Y-109713969D01*
X160556656Y-109750326D01*
X160583482Y-109794284D01*
X160602609Y-109844053D01*
X160614309Y-109898818D01*
X160618341Y-109959630D01*
X160613179Y-110031303D01*
X160597923Y-110098385D01*
X160572685Y-110160854D01*
X160537405Y-110217929D01*
X160491456Y-110267875D01*
X160425170Y-110317471D01*
X160511418Y-110367629D01*
X160571165Y-110421223D01*
X160610147Y-110477975D01*
X160638318Y-110544187D01*
X160654463Y-110608181D01*
X160659716Y-110671024D01*
X160655145Y-110731202D01*
X160641322Y-110790538D01*
X160617670Y-110849865D01*
X160585888Y-110903258D01*
X160546906Y-110947408D01*
X160499994Y-110983063D01*
X160447567Y-111006405D01*
X160369794Y-111023025D01*
X160258529Y-111029500D01*
X159973070Y-111029500D01*
X159973070Y-110887252D01*
X160129166Y-110887252D01*
X160270552Y-110887252D01*
X160348189Y-110878700D01*
X160405242Y-110855807D01*
X160446730Y-110820892D01*
X160478542Y-110773259D01*
X160497255Y-110720683D01*
X160503621Y-110661340D01*
X160495806Y-110595491D01*
X160472388Y-110535207D01*
X160448671Y-110500510D01*
X160416871Y-110470014D01*
X160375533Y-110443683D01*
X160330407Y-110426631D01*
X160263809Y-110414448D01*
X160169130Y-110409709D01*
X160129166Y-110409709D01*
X160129166Y-110887252D01*
X159973070Y-110887252D01*
X159973070Y-110267462D01*
X160129166Y-110267462D01*
X160285933Y-110267462D01*
X160355922Y-110225988D01*
X160397900Y-110187845D01*
X160429022Y-110143162D01*
X160450760Y-110094416D01*
X160463793Y-110041078D01*
X160468291Y-109981142D01*
X160462373Y-109919279D01*
X160446166Y-109872531D01*
X160420468Y-109837228D01*
X160385534Y-109813993D01*
X160326561Y-109796863D01*
X160233006Y-109789918D01*
X160129166Y-109789918D01*
X160129166Y-110267462D01*
X159973070Y-110267462D01*
X159973070Y-109647671D01*
X160202915Y-109647671D01*
X160342644Y-109653308D01*
G37*
G36*
X161588834Y-111027039D02*
G01*
X161504667Y-111051762D01*
X161428887Y-111065722D01*
X161360534Y-111070142D01*
X161287972Y-111064592D01*
X161220841Y-111048367D01*
X161158321Y-111021783D01*
X161099726Y-110984730D01*
X161046919Y-110937932D01*
X160999563Y-110880263D01*
X160957392Y-110810576D01*
X160920458Y-110727304D01*
X160885074Y-110610350D01*
X160863206Y-110481430D01*
X160855642Y-110338585D01*
X160863027Y-110197483D01*
X160884394Y-110069886D01*
X160918980Y-109953915D01*
X160955128Y-109871413D01*
X160996948Y-109801660D01*
X161044420Y-109743242D01*
X161097845Y-109695140D01*
X161177556Y-109646101D01*
X161261590Y-109616892D01*
X161351467Y-109607029D01*
X161420110Y-109612817D01*
X161498449Y-109631400D01*
X161588095Y-109664976D01*
X161588095Y-109833656D01*
X161503439Y-109785539D01*
X161423019Y-109758131D01*
X161345489Y-109749276D01*
X161287976Y-109757178D01*
X161233851Y-109780852D01*
X161181804Y-109821511D01*
X161137471Y-109874336D01*
X161097523Y-109943983D01*
X161062247Y-110033691D01*
X161037413Y-110128397D01*
X161022190Y-110230131D01*
X161016976Y-110339935D01*
X161022521Y-110450507D01*
X161038812Y-110554296D01*
X161065592Y-110652284D01*
X161102950Y-110745323D01*
X161141886Y-110811848D01*
X161187427Y-110862026D01*
X161240229Y-110897884D01*
X161301735Y-110920092D01*
X161374035Y-110927894D01*
X161432739Y-110923132D01*
X161432739Y-110485913D01*
X161316271Y-110485913D01*
X161316271Y-110343666D01*
X161588834Y-110343666D01*
X161588834Y-111027039D01*
G37*
D12*
G36*
X147815352Y-84381936D02*
G01*
X147717542Y-84418346D01*
X147632086Y-84438494D01*
X147557212Y-84444768D01*
X147459634Y-84434314D01*
X147368213Y-84403338D01*
X147281340Y-84351333D01*
X147223095Y-84300218D01*
X147171181Y-84237741D01*
X147125276Y-84162757D01*
X147085408Y-84073677D01*
X147047259Y-83948390D01*
X147023669Y-83810177D01*
X147015506Y-83656938D01*
X147023563Y-83504982D01*
X147046871Y-83367570D01*
X147084602Y-83242678D01*
X147124037Y-83153829D01*
X147169658Y-83078711D01*
X147221446Y-83015799D01*
X147279728Y-82963997D01*
X147344544Y-82922369D01*
X147411947Y-82892887D01*
X147482579Y-82875120D01*
X147557212Y-82869108D01*
X147632096Y-82875341D01*
X147717556Y-82895354D01*
X147815352Y-82931512D01*
X147815352Y-83113168D01*
X147723000Y-83061349D01*
X147635269Y-83031833D01*
X147550691Y-83022297D01*
X147487949Y-83030807D01*
X147428904Y-83056303D01*
X147372125Y-83100089D01*
X147323734Y-83156964D01*
X147280034Y-83231969D01*
X147241333Y-83328590D01*
X147213954Y-83430588D01*
X147197223Y-83539510D01*
X147191507Y-83656425D01*
X147197418Y-83775277D01*
X147214698Y-83885626D01*
X147242945Y-83988620D01*
X147282718Y-84086261D01*
X147326570Y-84160808D01*
X147374176Y-84216181D01*
X147430070Y-84258547D01*
X147488444Y-84283298D01*
X147550691Y-84291579D01*
X147634736Y-84282039D01*
X147722451Y-84252426D01*
X147815352Y-84200281D01*
X147815352Y-84381936D01*
G37*
G36*
X148617910Y-83323547D02*
G01*
X148657111Y-83328676D01*
X148812596Y-83328676D01*
X148812596Y-84087270D01*
X148817096Y-84214840D01*
X148829407Y-84318146D01*
X148847986Y-84401000D01*
X148683782Y-84401000D01*
X148668179Y-84303609D01*
X148655206Y-84166258D01*
X148606470Y-84245367D01*
X148551681Y-84309604D01*
X148490488Y-84360480D01*
X148422942Y-84399938D01*
X148363100Y-84421595D01*
X148309358Y-84428355D01*
X148254056Y-84421378D01*
X148201666Y-84400485D01*
X148151063Y-84364767D01*
X148101483Y-84312095D01*
X148063651Y-84251545D01*
X148034959Y-84175170D01*
X148016261Y-84079441D01*
X148009452Y-83959982D01*
X148010663Y-83939124D01*
X148179738Y-83939124D01*
X148186373Y-84043844D01*
X148204030Y-84121546D01*
X148230370Y-84178397D01*
X148267889Y-84225129D01*
X148305759Y-84250565D01*
X148345481Y-84258752D01*
X148390236Y-84250785D01*
X148441456Y-84224511D01*
X148501479Y-84174550D01*
X148554620Y-84114432D01*
X148605682Y-84039598D01*
X148654619Y-83948015D01*
X148654619Y-83489900D01*
X148576363Y-83471310D01*
X148506095Y-83465452D01*
X148438630Y-83473511D01*
X148378258Y-83497040D01*
X148323373Y-83536204D01*
X148272941Y-83592653D01*
X148233729Y-83658652D01*
X148204708Y-83736759D01*
X148186290Y-83829288D01*
X148179738Y-83939124D01*
X148010663Y-83939124D01*
X148016546Y-83837845D01*
X148037063Y-83727868D01*
X148070342Y-83628215D01*
X148116539Y-83535990D01*
X148170842Y-83459580D01*
X148233520Y-83397235D01*
X148304901Y-83351067D01*
X148388278Y-83322367D01*
X148486458Y-83312263D01*
X148617910Y-83323547D01*
G37*
G36*
X149606168Y-83302850D02*
G01*
X149658609Y-83323827D01*
X149709342Y-83359724D01*
X149759134Y-83412707D01*
X149797143Y-83473526D01*
X149825972Y-83550260D01*
X149844762Y-83646460D01*
X149851605Y-83766530D01*
X149844461Y-83889279D01*
X149823797Y-83999822D01*
X149790275Y-84100007D01*
X149743845Y-84192710D01*
X149689415Y-84269484D01*
X149626730Y-84332099D01*
X149555330Y-84378462D01*
X149471954Y-84407272D01*
X149373792Y-84417413D01*
X149242341Y-84406129D01*
X149205631Y-84401256D01*
X149205631Y-84816799D01*
X149048461Y-84816799D01*
X149048461Y-83778327D01*
X149205631Y-83778327D01*
X149205631Y-84239604D01*
X149285314Y-84258357D01*
X149355767Y-84264224D01*
X149421935Y-84256213D01*
X149481639Y-84232736D01*
X149536410Y-84193485D01*
X149587236Y-84136680D01*
X149626782Y-84070435D01*
X149656077Y-83991811D01*
X149674690Y-83898424D01*
X149681319Y-83787303D01*
X149674603Y-83681201D01*
X149656774Y-83602898D01*
X149630247Y-83545979D01*
X149592490Y-83499124D01*
X149554499Y-83473644D01*
X149514769Y-83465452D01*
X149470051Y-83473475D01*
X149418954Y-83499930D01*
X149359138Y-83550253D01*
X149306232Y-83610685D01*
X149255048Y-83686016D01*
X149205631Y-83778327D01*
X149048461Y-83778327D01*
X149048461Y-83323205D01*
X149205631Y-83323205D01*
X149205631Y-83553929D01*
X149254386Y-83476293D01*
X149309099Y-83413080D01*
X149370129Y-83362870D01*
X149437391Y-83323941D01*
X149497125Y-83302539D01*
X149550893Y-83295849D01*
X149606168Y-83302850D01*
G37*
G36*
X150632034Y-83323547D02*
G01*
X150671235Y-83328676D01*
X150826720Y-83328676D01*
X150826720Y-84087270D01*
X150831221Y-84214840D01*
X150843531Y-84318146D01*
X150862111Y-84401000D01*
X150697906Y-84401000D01*
X150682303Y-84303609D01*
X150669330Y-84166258D01*
X150620595Y-84245367D01*
X150565805Y-84309604D01*
X150504612Y-84360480D01*
X150437066Y-84399938D01*
X150377224Y-84421595D01*
X150323482Y-84428355D01*
X150268180Y-84421378D01*
X150215790Y-84400485D01*
X150165188Y-84364767D01*
X150115607Y-84312095D01*
X150077775Y-84251545D01*
X150049083Y-84175170D01*
X150030385Y-84079441D01*
X150023576Y-83959982D01*
X150024787Y-83939124D01*
X150193862Y-83939124D01*
X150200497Y-84043844D01*
X150218154Y-84121546D01*
X150244494Y-84178397D01*
X150282014Y-84225129D01*
X150319883Y-84250565D01*
X150359605Y-84258752D01*
X150404361Y-84250785D01*
X150455580Y-84224511D01*
X150515603Y-84174550D01*
X150568744Y-84114432D01*
X150619806Y-84039598D01*
X150668744Y-83948015D01*
X150668744Y-83489900D01*
X150590487Y-83471310D01*
X150520220Y-83465452D01*
X150452754Y-83473511D01*
X150392382Y-83497040D01*
X150337498Y-83536204D01*
X150287065Y-83592653D01*
X150247853Y-83658652D01*
X150218832Y-83736759D01*
X150200415Y-83829288D01*
X150193862Y-83939124D01*
X150024787Y-83939124D01*
X150030670Y-83837845D01*
X150051187Y-83727868D01*
X150084466Y-83628215D01*
X150130664Y-83535990D01*
X150184966Y-83459580D01*
X150247645Y-83397235D01*
X150319025Y-83351067D01*
X150402402Y-83322367D01*
X150500582Y-83312263D01*
X150632034Y-83323547D01*
G37*
G36*
X151849316Y-84367147D02*
G01*
X151744759Y-84401926D01*
X151646996Y-84421911D01*
X151555125Y-84428355D01*
X151464673Y-84419759D01*
X151383248Y-84394796D01*
X151309222Y-84353897D01*
X151242631Y-84298199D01*
X151187038Y-84231286D01*
X151141573Y-84152153D01*
X151108614Y-84064826D01*
X151088440Y-83968899D01*
X151081490Y-83862615D01*
X151087245Y-83765854D01*
X151103943Y-83678211D01*
X151131128Y-83598276D01*
X151168888Y-83524898D01*
X151217850Y-83457245D01*
X151290409Y-83385951D01*
X151368477Y-83336119D01*
X151453378Y-83306107D01*
X151546992Y-83295849D01*
X151640998Y-83302436D01*
X151741452Y-83322906D01*
X151849316Y-83358595D01*
X151849316Y-83535635D01*
X151738654Y-83485131D01*
X151643379Y-83457549D01*
X151560914Y-83449039D01*
X151506628Y-83454364D01*
X151454796Y-83470227D01*
X151404696Y-83496910D01*
X151360411Y-83533978D01*
X151322837Y-83583184D01*
X151291636Y-83646423D01*
X151269349Y-83715330D01*
X151256163Y-83784750D01*
X151251776Y-83855349D01*
X151260100Y-83948309D01*
X151285278Y-84038902D01*
X151328639Y-84128815D01*
X151371399Y-84184500D01*
X151424276Y-84224540D01*
X151489372Y-84249728D01*
X151569926Y-84258752D01*
X151667892Y-84250717D01*
X151726087Y-84235138D01*
X151849316Y-84189766D01*
X151849316Y-84367147D01*
G37*
G36*
X152337753Y-84401000D02*
G01*
X152337753Y-83476394D01*
X152083642Y-83476394D01*
X152083642Y-83323205D01*
X152494923Y-83323205D01*
X152494923Y-84247810D01*
X152749839Y-84247810D01*
X152749839Y-84401000D01*
X152337753Y-84401000D01*
G37*
G36*
X152312327Y-82946216D02*
G01*
X152316647Y-82907737D01*
X152328687Y-82878178D01*
X152348377Y-82855345D01*
X152384834Y-82832214D01*
X152416301Y-82825340D01*
X152448537Y-82832267D01*
X152485104Y-82855345D01*
X152504794Y-82878178D01*
X152516835Y-82907737D01*
X152521155Y-82946216D01*
X152516862Y-82984009D01*
X152504846Y-83013291D01*
X152485104Y-83036146D01*
X152448541Y-83059157D01*
X152416301Y-83066066D01*
X152384829Y-83059210D01*
X152348377Y-83036146D01*
X152328636Y-83013291D01*
X152316619Y-82984009D01*
X152312327Y-82946216D01*
G37*
G36*
X153858531Y-84355009D02*
G01*
X153756214Y-84400744D01*
X153700848Y-84418267D01*
X153606985Y-84428355D01*
X153543535Y-84423392D01*
X153484950Y-84408884D01*
X153430471Y-84385099D01*
X153380845Y-84351159D01*
X153340864Y-84308718D01*
X153309424Y-84257128D01*
X153288630Y-84198286D01*
X153274118Y-84113888D01*
X153268538Y-83996143D01*
X153268538Y-83569401D01*
X153039853Y-83569401D01*
X153039853Y-83416212D01*
X153268538Y-83416212D01*
X153268538Y-82994942D01*
X153425708Y-82994942D01*
X153425708Y-83416212D01*
X153833105Y-83416212D01*
X153833105Y-83569401D01*
X153425708Y-83569401D01*
X153425708Y-83993407D01*
X153429416Y-84079568D01*
X153438754Y-84137173D01*
X153451573Y-84173866D01*
X153482153Y-84219524D01*
X153520743Y-84250631D01*
X153566704Y-84268703D01*
X153623398Y-84275166D01*
X153695128Y-84266713D01*
X153772946Y-84240001D01*
X153858531Y-84192074D01*
X153858531Y-84355009D01*
G37*
G36*
X154351877Y-84401000D02*
G01*
X154351877Y-83476394D01*
X154097767Y-83476394D01*
X154097767Y-83323205D01*
X154509047Y-83323205D01*
X154509047Y-84247810D01*
X154763963Y-84247810D01*
X154763963Y-84401000D01*
X154351877Y-84401000D01*
G37*
G36*
X154326451Y-82946216D02*
G01*
X154330771Y-82907737D01*
X154342811Y-82878178D01*
X154362501Y-82855345D01*
X154398958Y-82832214D01*
X154430425Y-82825340D01*
X154462661Y-82832267D01*
X154499229Y-82855345D01*
X154518919Y-82878178D01*
X154530959Y-82907737D01*
X154535279Y-82946216D01*
X154530986Y-82984009D01*
X154518970Y-83013291D01*
X154499229Y-83036146D01*
X154462665Y-83059157D01*
X154430425Y-83066066D01*
X154398953Y-83059210D01*
X154362501Y-83036146D01*
X154342760Y-83013291D01*
X154330744Y-82984009D01*
X154326451Y-82946216D01*
G37*
G36*
X155400705Y-84401000D02*
G01*
X155001074Y-83323205D01*
X155173412Y-83323205D01*
X155485848Y-84168651D01*
X155804878Y-83323205D01*
X155962414Y-83323205D01*
X155559560Y-84401000D01*
X155400705Y-84401000D01*
G37*
G36*
X156605625Y-83304799D02*
G01*
X156674909Y-83330516D01*
X156735656Y-83372533D01*
X156789298Y-83432027D01*
X156829671Y-83502208D01*
X156860742Y-83592270D01*
X156881218Y-83706798D01*
X156888730Y-83851331D01*
X156888730Y-83892193D01*
X156257557Y-83892193D01*
X156262031Y-83963179D01*
X156275196Y-84029481D01*
X156296978Y-84091971D01*
X156326972Y-84149439D01*
X156361476Y-84194733D01*
X156400659Y-84229431D01*
X156444939Y-84254601D01*
X156493414Y-84269908D01*
X156547058Y-84275166D01*
X156617790Y-84268730D01*
X156695273Y-84248425D01*
X156780780Y-84212305D01*
X156875614Y-84157880D01*
X156875614Y-84326969D01*
X156750216Y-84385043D01*
X156634734Y-84417874D01*
X156527348Y-84428355D01*
X156446156Y-84420111D01*
X156372450Y-84396041D01*
X156304745Y-84356291D01*
X156244586Y-84302318D01*
X156192390Y-84234301D01*
X156147795Y-84150443D01*
X156115073Y-84059140D01*
X156095485Y-83964048D01*
X156088883Y-83863983D01*
X156095077Y-83767650D01*
X156097499Y-83755417D01*
X156267083Y-83755417D01*
X156718444Y-83755417D01*
X156718444Y-83732336D01*
X156711781Y-83647801D01*
X156693295Y-83580102D01*
X156664148Y-83525719D01*
X156624062Y-83483239D01*
X156576522Y-83457872D01*
X156519141Y-83449039D01*
X156460770Y-83457729D01*
X156408444Y-83483402D01*
X156360432Y-83527257D01*
X156322155Y-83583804D01*
X156290741Y-83658464D01*
X156267083Y-83755417D01*
X156097499Y-83755417D01*
X156113621Y-83673976D01*
X156144864Y-83581968D01*
X156187891Y-83497248D01*
X156239921Y-83427558D01*
X156301448Y-83371247D01*
X156370891Y-83329444D01*
X156445159Y-83304369D01*
X156525663Y-83295849D01*
X156605625Y-83304799D01*
G37*
G36*
X158893035Y-84381936D02*
G01*
X158795226Y-84418346D01*
X158709769Y-84438494D01*
X158634895Y-84444768D01*
X158537317Y-84434314D01*
X158445896Y-84403338D01*
X158359023Y-84351333D01*
X158300779Y-84300218D01*
X158248864Y-84237741D01*
X158202959Y-84162757D01*
X158163091Y-84073677D01*
X158124943Y-83948390D01*
X158101352Y-83810177D01*
X158093189Y-83656938D01*
X158101246Y-83504982D01*
X158124555Y-83367570D01*
X158162285Y-83242678D01*
X158201720Y-83153829D01*
X158247341Y-83078711D01*
X158299129Y-83015799D01*
X158357411Y-82963997D01*
X158422228Y-82922369D01*
X158489630Y-82892887D01*
X158560263Y-82875120D01*
X158634895Y-82869108D01*
X158709779Y-82875341D01*
X158795239Y-82895354D01*
X158893035Y-82931512D01*
X158893035Y-83113168D01*
X158800683Y-83061349D01*
X158712952Y-83031833D01*
X158628374Y-83022297D01*
X158565633Y-83030807D01*
X158506587Y-83056303D01*
X158449808Y-83100089D01*
X158401418Y-83156964D01*
X158357717Y-83231969D01*
X158319016Y-83328590D01*
X158291638Y-83430588D01*
X158274906Y-83539510D01*
X158269190Y-83656425D01*
X158275101Y-83775277D01*
X158292381Y-83885626D01*
X158320628Y-83988620D01*
X158360401Y-84086261D01*
X158404253Y-84160808D01*
X158451859Y-84216181D01*
X158507753Y-84258547D01*
X158566127Y-84283298D01*
X158628374Y-84291579D01*
X158712419Y-84282039D01*
X158800134Y-84252426D01*
X158893035Y-84200281D01*
X158893035Y-84381936D01*
G37*
G36*
X159174330Y-84401000D02*
G01*
X159026172Y-82912877D01*
X159181804Y-82912877D01*
X159268925Y-83817735D01*
X159280209Y-83965453D01*
X159280063Y-83965453D01*
X159296183Y-83817308D01*
X159430199Y-82912877D01*
X159584951Y-82912877D01*
X159737798Y-83853639D01*
X159753112Y-83994775D01*
X159752966Y-83994775D01*
X159762638Y-83852955D01*
X159858845Y-82912877D01*
X159993007Y-82912877D01*
X159838328Y-84401000D01*
X159677788Y-84401000D01*
X159513437Y-83392618D01*
X159496511Y-83243789D01*
X159481197Y-83392618D01*
X159333259Y-84401000D01*
X159174330Y-84401000D01*
G37*
G36*
X161438168Y-84401000D02*
G01*
X161438168Y-83082479D01*
X161057003Y-83082479D01*
X161057003Y-82912877D01*
X161990425Y-82912877D01*
X161990425Y-83082479D01*
X161608454Y-83082479D01*
X161608454Y-84401000D01*
X161438168Y-84401000D01*
G37*
G36*
X162609160Y-83302686D02*
G01*
X162678447Y-83322392D01*
X162740469Y-83354339D01*
X162796350Y-83398691D01*
X162846839Y-83456390D01*
X162897900Y-83540119D01*
X162934762Y-83634195D01*
X162957587Y-83740530D01*
X162965541Y-83861589D01*
X162957592Y-83982685D01*
X162934774Y-84089142D01*
X162897912Y-84183409D01*
X162846839Y-84267386D01*
X162796331Y-84325258D01*
X162740439Y-84369729D01*
X162678417Y-84401753D01*
X162609141Y-84421503D01*
X162531179Y-84428355D01*
X162452859Y-84421493D01*
X162383327Y-84401722D01*
X162321140Y-84369682D01*
X162265163Y-84325217D01*
X162214640Y-84267386D01*
X162163601Y-84183414D01*
X162126761Y-84089148D01*
X162103956Y-83982689D01*
X162096012Y-83861589D01*
X162266298Y-83861589D01*
X162271438Y-83959284D01*
X162285779Y-84040755D01*
X162308110Y-84108619D01*
X162337812Y-84165061D01*
X162377085Y-84213567D01*
X162421592Y-84247436D01*
X162472385Y-84268019D01*
X162531179Y-84275166D01*
X162589543Y-84268036D01*
X162640062Y-84247482D01*
X162684424Y-84213619D01*
X162723667Y-84165061D01*
X162753402Y-84108613D01*
X162775755Y-84040748D01*
X162790110Y-83959279D01*
X162795254Y-83861589D01*
X162790120Y-83764469D01*
X162775782Y-83683331D01*
X162753431Y-83615604D01*
X162723667Y-83559143D01*
X162684424Y-83510585D01*
X162640062Y-83476722D01*
X162589543Y-83456168D01*
X162531179Y-83449039D01*
X162472385Y-83456185D01*
X162421592Y-83476768D01*
X162377085Y-83510637D01*
X162337812Y-83559143D01*
X162308080Y-83615598D01*
X162285752Y-83683324D01*
X162271427Y-83764464D01*
X162266298Y-83861589D01*
X162096012Y-83861589D01*
X162103961Y-83740525D01*
X162126773Y-83634188D01*
X162163613Y-83540114D01*
X162214640Y-83456390D01*
X162265144Y-83398732D01*
X162321110Y-83354386D01*
X162383298Y-83322424D01*
X162452839Y-83302697D01*
X162531179Y-83295849D01*
X162609160Y-83302686D01*
G37*
G36*
X163916842Y-83323205D02*
G01*
X163916842Y-84401000D01*
X163759745Y-84401000D01*
X163759745Y-84170190D01*
X163709311Y-84249263D01*
X163655874Y-84312542D01*
X163599277Y-84361847D01*
X163536987Y-84399688D01*
X163476842Y-84421323D01*
X163417781Y-84428355D01*
X163365080Y-84422664D01*
X163315895Y-84405823D01*
X163269330Y-84377577D01*
X163228442Y-84339630D01*
X163197480Y-84295468D01*
X163175467Y-84244306D01*
X163162810Y-84186408D01*
X163153028Y-84085504D01*
X163149016Y-83923651D01*
X163149016Y-83323205D01*
X163306186Y-83323205D01*
X163306186Y-83945450D01*
X163310230Y-84086272D01*
X163318716Y-84147964D01*
X163336568Y-84192379D01*
X163364658Y-84227721D01*
X163399820Y-84251195D01*
X163436612Y-84258752D01*
X163487355Y-84250210D01*
X163543715Y-84222496D01*
X163607850Y-84170703D01*
X163664811Y-84107731D01*
X163715395Y-84034059D01*
X163759745Y-83948613D01*
X163759745Y-83323205D01*
X163916842Y-83323205D01*
G37*
G36*
X164941123Y-84367147D02*
G01*
X164836567Y-84401926D01*
X164738804Y-84421911D01*
X164646933Y-84428355D01*
X164556480Y-84419759D01*
X164475055Y-84394796D01*
X164401029Y-84353897D01*
X164334438Y-84298199D01*
X164278846Y-84231286D01*
X164233381Y-84152153D01*
X164200422Y-84064826D01*
X164180247Y-83968899D01*
X164173297Y-83862615D01*
X164179053Y-83765854D01*
X164195750Y-83678211D01*
X164222935Y-83598276D01*
X164260696Y-83524898D01*
X164309658Y-83457245D01*
X164382216Y-83385951D01*
X164460285Y-83336119D01*
X164545185Y-83306107D01*
X164638799Y-83295849D01*
X164732806Y-83302436D01*
X164833260Y-83322906D01*
X164941123Y-83358595D01*
X164941123Y-83535635D01*
X164830461Y-83485131D01*
X164735186Y-83457549D01*
X164652721Y-83449039D01*
X164598435Y-83454364D01*
X164546604Y-83470227D01*
X164496504Y-83496910D01*
X164452219Y-83533978D01*
X164414644Y-83583184D01*
X164383444Y-83646423D01*
X164361156Y-83715330D01*
X164347970Y-83784750D01*
X164343583Y-83855349D01*
X164351908Y-83948309D01*
X164377085Y-84038902D01*
X164420446Y-84128815D01*
X164463207Y-84184500D01*
X164516083Y-84224540D01*
X164581179Y-84249728D01*
X164661734Y-84258752D01*
X164759700Y-84250717D01*
X164817895Y-84235138D01*
X164941123Y-84189766D01*
X164941123Y-84367147D01*
G37*
G36*
X165172959Y-84401000D02*
G01*
X165172959Y-82852695D01*
X165330129Y-82852695D01*
X165330129Y-83552646D01*
X165375166Y-83479691D01*
X165426605Y-83417876D01*
X165484808Y-83366289D01*
X165548963Y-83326151D01*
X165610740Y-83303271D01*
X165671287Y-83295849D01*
X165722504Y-83301142D01*
X165770047Y-83316746D01*
X165814755Y-83342781D01*
X165854927Y-83377530D01*
X165884654Y-83415322D01*
X165905394Y-83456476D01*
X165922700Y-83508975D01*
X165933458Y-83564871D01*
X165938476Y-83637109D01*
X165940858Y-83800553D01*
X165940858Y-84401000D01*
X165783688Y-84401000D01*
X165783688Y-83778754D01*
X165779621Y-83637933D01*
X165771085Y-83576240D01*
X165753275Y-83531834D01*
X165725143Y-83496483D01*
X165689921Y-83473056D01*
X165652383Y-83465452D01*
X165601759Y-83474035D01*
X165545434Y-83501917D01*
X165481217Y-83554100D01*
X165424247Y-83617319D01*
X165373941Y-83690816D01*
X165330129Y-83775591D01*
X165330129Y-84401000D01*
X165172959Y-84401000D01*
G37*
G36*
X167188695Y-84401000D02*
G01*
X167188695Y-82912877D01*
X167358981Y-82912877D01*
X167358981Y-83633686D01*
X167828513Y-82912877D01*
X168009790Y-82912877D01*
X167551395Y-83618983D01*
X168073831Y-84401000D01*
X167860460Y-84401000D01*
X167358981Y-83648475D01*
X167358981Y-84401000D01*
X167188695Y-84401000D01*
G37*
G36*
X168690370Y-83304799D02*
G01*
X168759654Y-83330516D01*
X168820402Y-83372533D01*
X168874044Y-83432027D01*
X168914417Y-83502208D01*
X168945487Y-83592270D01*
X168965964Y-83706798D01*
X168973475Y-83851331D01*
X168973475Y-83892193D01*
X168342303Y-83892193D01*
X168346776Y-83963179D01*
X168359941Y-84029481D01*
X168381723Y-84091971D01*
X168411717Y-84149439D01*
X168446221Y-84194733D01*
X168485404Y-84229431D01*
X168529684Y-84254601D01*
X168578160Y-84269908D01*
X168631804Y-84275166D01*
X168702536Y-84268730D01*
X168780019Y-84248425D01*
X168865525Y-84212305D01*
X168960359Y-84157880D01*
X168960359Y-84326969D01*
X168834961Y-84385043D01*
X168719479Y-84417874D01*
X168612093Y-84428355D01*
X168530902Y-84420111D01*
X168457196Y-84396041D01*
X168389490Y-84356291D01*
X168329332Y-84302318D01*
X168277135Y-84234301D01*
X168232540Y-84150443D01*
X168199818Y-84059140D01*
X168180230Y-83964048D01*
X168173628Y-83863983D01*
X168179823Y-83767650D01*
X168182245Y-83755417D01*
X168351828Y-83755417D01*
X168803189Y-83755417D01*
X168803189Y-83732336D01*
X168796527Y-83647801D01*
X168778040Y-83580102D01*
X168748894Y-83525719D01*
X168708807Y-83483239D01*
X168661267Y-83457872D01*
X168603887Y-83449039D01*
X168545515Y-83457729D01*
X168493189Y-83483402D01*
X168445178Y-83527257D01*
X168406900Y-83583804D01*
X168375486Y-83658464D01*
X168351828Y-83755417D01*
X168182245Y-83755417D01*
X168198367Y-83673976D01*
X168229609Y-83581968D01*
X168272636Y-83497248D01*
X168324666Y-83427558D01*
X168386193Y-83371247D01*
X168455636Y-83329444D01*
X168529905Y-83304369D01*
X168610408Y-83295849D01*
X168690370Y-83304799D01*
G37*
G36*
X169537896Y-84355180D02*
G01*
X169113719Y-83323205D01*
X169287010Y-83323205D01*
X169622233Y-84119839D01*
X169902868Y-83323205D01*
X170061210Y-83323205D01*
X169704958Y-84326542D01*
X169640863Y-84489278D01*
X169584270Y-84606727D01*
X169534467Y-84688067D01*
X169490635Y-84741315D01*
X169437576Y-84785266D01*
X169376988Y-84817225D01*
X169307485Y-84837161D01*
X169227292Y-84844154D01*
X169159141Y-84840283D01*
X169100384Y-84829365D01*
X169100384Y-84667371D01*
X169165465Y-84685344D01*
X169223262Y-84690965D01*
X169293536Y-84682485D01*
X169353321Y-84658224D01*
X169388395Y-84632365D01*
X169423022Y-84594381D01*
X169457442Y-84541879D01*
X169499657Y-84459933D01*
X169524340Y-84397324D01*
X169537896Y-84355180D01*
G37*
D17*
%TO.P,C1,1*%
%TO.N,GND*%
X159152500Y-90340000D03*
%TO.P,C1,2*%
%TO.N,+3.3V*%
X159152500Y-88265000D03*
%TD*%
D18*
%TO.P,C2,1*%
%TO.N,Net-(U1-SNSK)*%
X153267500Y-92710000D03*
%TO.P,C2,2*%
%TO.N,Net-(U1-SNS)*%
X155342500Y-92710000D03*
%TD*%
D17*
%TO.P,C3,1*%
%TO.N,GND*%
X159152500Y-101135000D03*
%TO.P,C3,2*%
%TO.N,+3.3V*%
X159152500Y-99060000D03*
%TD*%
D18*
%TO.P,C4,1*%
%TO.N,Net-(U2-SNSK)*%
X153267500Y-103505000D03*
%TO.P,C4,2*%
%TO.N,Net-(U2-SNS)*%
X155342500Y-103505000D03*
%TD*%
D19*
%TO.P,U1,1,OUT*%
%TO.N,Net-(Q1-G)*%
X152955000Y-87950000D03*
%TO.P,U1,2,VSS*%
%TO.N,GND*%
X152955000Y-88900000D03*
%TO.P,U1,3,SNSK*%
%TO.N,Net-(U1-SNSK)*%
X152955000Y-89850000D03*
%TO.P,U1,4,SNS*%
%TO.N,Net-(U1-SNS)*%
X155655000Y-89850000D03*
%TO.P,U1,5,VDD*%
%TO.N,+3.3V*%
X155655000Y-88900000D03*
%TO.P,U1,6,SYNC*%
X155655000Y-87950000D03*
%TD*%
%TO.P,U2,1,OUT*%
%TO.N,Net-(Q2-G)*%
X152955000Y-98745000D03*
%TO.P,U2,2,VSS*%
%TO.N,GND*%
X152955000Y-99695000D03*
%TO.P,U2,3,SNSK*%
%TO.N,Net-(U2-SNSK)*%
X152955000Y-100645000D03*
%TO.P,U2,4,SNS*%
%TO.N,Net-(U2-SNS)*%
X155655000Y-100645000D03*
%TO.P,U2,5,VDD*%
%TO.N,+3.3V*%
X155655000Y-99695000D03*
%TO.P,U2,6,SYNC*%
X155655000Y-98745000D03*
%TD*%
D20*
%TO.P,Q1,1,G*%
%TO.N,Net-(Q1-G)*%
X164870000Y-88585000D03*
%TO.P,Q1,2,S*%
%TO.N,GND*%
X164870000Y-90485000D03*
%TO.P,Q1,3,D*%
%TO.N,Net-(J1-Pin_1)*%
X167870000Y-89535000D03*
%TD*%
D21*
%TO.P,R1,1*%
%TO.N,Net-(J4-Pin_1)*%
X146955000Y-91440000D03*
%TO.P,R1,2*%
%TO.N,Net-(U1-SNSK)*%
X148955000Y-91440000D03*
%TD*%
%TO.P,R2,1*%
%TO.N,Net-(J5-Pin_1)*%
X146955000Y-101600000D03*
%TO.P,R2,2*%
%TO.N,Net-(U2-SNSK)*%
X148955000Y-101600000D03*
%TD*%
D22*
%TO.P,J4,1,Pin_1*%
%TO.N,Net-(J4-Pin_1)*%
X142875000Y-91440000D03*
%TD*%
%TO.P,J2,1,Pin_1*%
%TO.N,GND*%
X172085000Y-94615000D03*
%TD*%
%TO.P,J3,1,Pin_1*%
%TO.N,Net-(J3-Pin_1)*%
X172085000Y-99060000D03*
%TD*%
D20*
%TO.P,Q2,1,G*%
%TO.N,Net-(Q2-G)*%
X164870000Y-99380000D03*
%TO.P,Q2,2,S*%
%TO.N,GND*%
X164870000Y-101280000D03*
%TO.P,Q2,3,D*%
%TO.N,Net-(J3-Pin_1)*%
X167870000Y-100330000D03*
%TD*%
D22*
%TO.P,J7,1,Pin_1*%
%TO.N,GND*%
X142875000Y-103505000D03*
%TD*%
%TO.P,J6,1,Pin_1*%
%TO.N,+3.3V*%
X172085000Y-103505000D03*
%TD*%
%TO.P,J1,1,Pin_1*%
%TO.N,Net-(J1-Pin_1)*%
X172085000Y-90170000D03*
%TD*%
%TO.P,J5,1,Pin_1*%
%TO.N,Net-(J5-Pin_1)*%
X144780000Y-97790000D03*
%TD*%
D23*
%TO.N,GND*%
X162560000Y-101600000D03*
X168910000Y-94615000D03*
X162560000Y-91440000D03*
X151130000Y-97155000D03*
X147955000Y-105410000D03*
X151130000Y-86360000D03*
%TD*%
D24*
%TO.N,+3.3V*%
X158920000Y-99060000D02*
X159152500Y-99292500D01*
X159385000Y-104140000D02*
X157480000Y-102235000D01*
X157480000Y-88900000D02*
X157480000Y-92710000D01*
X157480000Y-99060000D02*
X157480000Y-99695000D01*
X158750000Y-93980000D02*
X164465000Y-93980000D01*
X157165000Y-98745000D02*
X157480000Y-99060000D01*
X157480000Y-102235000D02*
X157480000Y-99695000D01*
X157480000Y-88265000D02*
X157480000Y-88900000D01*
X174625000Y-101600000D02*
X173990000Y-102235000D01*
X173990000Y-96520000D02*
X174625000Y-97155000D01*
X157480000Y-92710000D02*
X158750000Y-93980000D01*
X165100000Y-95885000D02*
X165735000Y-96520000D01*
X155655000Y-88900000D02*
X157480000Y-88900000D01*
X155655000Y-98745000D02*
X157165000Y-98745000D01*
X155655000Y-99695000D02*
X157480000Y-99695000D01*
X157480000Y-99060000D02*
X158920000Y-99060000D01*
X172085000Y-102235000D02*
X172085000Y-102870000D01*
X174625000Y-97155000D02*
X174625000Y-101600000D01*
X168275000Y-104140000D02*
X159385000Y-104140000D01*
X170180000Y-102235000D02*
X168275000Y-104140000D01*
X172085000Y-102235000D02*
X170180000Y-102235000D01*
X155655000Y-87950000D02*
X157165000Y-87950000D01*
X173990000Y-102235000D02*
X172085000Y-102235000D01*
X164465000Y-93980000D02*
X165100000Y-94615000D01*
X157480000Y-88265000D02*
X159152500Y-88265000D01*
X172085000Y-104140000D02*
X172085000Y-102870000D01*
X157165000Y-87950000D02*
X157480000Y-88265000D01*
X165100000Y-94615000D02*
X165100000Y-95885000D01*
X165735000Y-96520000D02*
X173990000Y-96520000D01*
D25*
%TO.N,Net-(U1-SNS)*%
X155655000Y-92397500D02*
X155342500Y-92710000D01*
X155655000Y-89850000D02*
X155655000Y-92397500D01*
X155575000Y-89930000D02*
X155655000Y-89850000D01*
%TO.N,Net-(U1-SNSK)*%
X152955000Y-89850000D02*
X152955000Y-92397500D01*
X152320000Y-89850000D02*
X149545000Y-89850000D01*
X153035000Y-89930000D02*
X152955000Y-89850000D01*
X152955000Y-92397500D02*
X153267500Y-92710000D01*
X149545000Y-89850000D02*
X148955000Y-90440000D01*
X148955000Y-90440000D02*
X148955000Y-91440000D01*
%TO.N,Net-(U2-SNS)*%
X155655000Y-100645000D02*
X155655000Y-103192500D01*
X155655000Y-103192500D02*
X155342500Y-103505000D01*
%TO.N,Net-(U2-SNSK)*%
X152955000Y-100645000D02*
X151450000Y-100645000D01*
X152955000Y-100645000D02*
X152955000Y-103192500D01*
X150495000Y-101600000D02*
X148955000Y-101600000D01*
X152955000Y-103192500D02*
X153267500Y-103505000D01*
X151450000Y-100645000D02*
X150495000Y-101600000D01*
%TO.N,Net-(J1-Pin_1)*%
X169545000Y-90170000D02*
X172085000Y-90170000D01*
X167307500Y-89535000D02*
X168910000Y-89535000D01*
X168910000Y-89535000D02*
X169545000Y-90170000D01*
%TO.N,Net-(J3-Pin_1)*%
X169545000Y-99695000D02*
X172085000Y-99695000D01*
X167307500Y-100330000D02*
X168910000Y-100330000D01*
X168910000Y-100330000D02*
X169545000Y-99695000D01*
%TO.N,Net-(J4-Pin_1)*%
X142875000Y-91440000D02*
X146955000Y-91440000D01*
%TO.N,Net-(J5-Pin_1)*%
X145415000Y-101600000D02*
X144780000Y-100965000D01*
X146955000Y-101600000D02*
X145415000Y-101600000D01*
X144780000Y-100965000D02*
X144780000Y-97790000D01*
%TO.N,Net-(Q1-G)*%
X165432500Y-88585000D02*
X162245000Y-88585000D01*
X152955000Y-87710000D02*
X152955000Y-87950000D01*
X154305000Y-86360000D02*
X152955000Y-87710000D01*
X161925000Y-86995000D02*
X161290000Y-86360000D01*
X162245000Y-88585000D02*
X161925000Y-88265000D01*
X161290000Y-86360000D02*
X154305000Y-86360000D01*
X161925000Y-88265000D02*
X161925000Y-86995000D01*
%TO.N,Net-(Q2-G)*%
X154305000Y-97155000D02*
X152955000Y-98505000D01*
X161925000Y-99060000D02*
X161925000Y-97790000D01*
X152955000Y-98505000D02*
X152955000Y-98745000D01*
X161925000Y-97790000D02*
X161290000Y-97155000D01*
X165432500Y-99380000D02*
X162245000Y-99380000D01*
X162245000Y-99380000D02*
X161925000Y-99060000D01*
X161290000Y-97155000D02*
X154305000Y-97155000D01*
%TD*%
%TA.AperFunction,Conductor*%
%TO.N,GND*%
G36*
X143511336Y-96429072D02*
G01*
X143557091Y-96481876D01*
X143567035Y-96551034D01*
X143543564Y-96607695D01*
X143512949Y-96648592D01*
X143479111Y-96693795D01*
X143428011Y-96830795D01*
X143428011Y-96830797D01*
X143421500Y-96891345D01*
X143421500Y-98688654D01*
X143428011Y-98749202D01*
X143428011Y-98749204D01*
X143479111Y-98886204D01*
X143566739Y-99003261D01*
X143683796Y-99090889D01*
X143820799Y-99141989D01*
X143848050Y-99144918D01*
X143881345Y-99148499D01*
X143881362Y-99148500D01*
X144022500Y-99148500D01*
X144089539Y-99168185D01*
X144135294Y-99220989D01*
X144146500Y-99272500D01*
X144146500Y-101027398D01*
X144170843Y-101149777D01*
X144170845Y-101149785D01*
X144218598Y-101265072D01*
X144218603Y-101265081D01*
X144287928Y-101368832D01*
X144287931Y-101368836D01*
X145011163Y-102092069D01*
X145011167Y-102092072D01*
X145114921Y-102161399D01*
X145114923Y-102161399D01*
X145114925Y-102161401D01*
X145196447Y-102195168D01*
X145230215Y-102209155D01*
X145230217Y-102209155D01*
X145230222Y-102209157D01*
X145352601Y-102233499D01*
X145352605Y-102233500D01*
X145352606Y-102233500D01*
X145352607Y-102233500D01*
X145477394Y-102233500D01*
X145777205Y-102233500D01*
X145844244Y-102253185D01*
X145889999Y-102305989D01*
X145894911Y-102318497D01*
X145912882Y-102372733D01*
X145912884Y-102372737D01*
X145912885Y-102372738D01*
X146005970Y-102523652D01*
X146131348Y-102649030D01*
X146282262Y-102742115D01*
X146450574Y-102797887D01*
X146554455Y-102808500D01*
X147355544Y-102808499D01*
X147459426Y-102797887D01*
X147627738Y-102742115D01*
X147778652Y-102649030D01*
X147867319Y-102560363D01*
X147928642Y-102526878D01*
X147998334Y-102531862D01*
X148042681Y-102560363D01*
X148131348Y-102649030D01*
X148282262Y-102742115D01*
X148450574Y-102797887D01*
X148554455Y-102808500D01*
X149355544Y-102808499D01*
X149459426Y-102797887D01*
X149627738Y-102742115D01*
X149778652Y-102649030D01*
X149904030Y-102523652D01*
X149997115Y-102372738D01*
X149999426Y-102365765D01*
X150015089Y-102318497D01*
X150054861Y-102261052D01*
X150119376Y-102234228D01*
X150132795Y-102233500D01*
X150557395Y-102233500D01*
X150557396Y-102233499D01*
X150679785Y-102209155D01*
X150795075Y-102161400D01*
X150898833Y-102092071D01*
X151676085Y-101314819D01*
X151703012Y-101300115D01*
X151728831Y-101283523D01*
X151735031Y-101282631D01*
X151737408Y-101281334D01*
X151763766Y-101278500D01*
X151808200Y-101278500D01*
X151875239Y-101298185D01*
X151895881Y-101314819D01*
X151920638Y-101339576D01*
X151920640Y-101339577D01*
X151920642Y-101339579D01*
X152060090Y-101423879D01*
X152215661Y-101472356D01*
X152215668Y-101472356D01*
X152221687Y-101473554D01*
X152283599Y-101505937D01*
X152318175Y-101566651D01*
X152321500Y-101595172D01*
X152321500Y-102536534D01*
X152303039Y-102601631D01*
X152237882Y-102707266D01*
X152182113Y-102875570D01*
X152182113Y-102875571D01*
X152171500Y-102979447D01*
X152171500Y-104030537D01*
X152171501Y-104030553D01*
X152182113Y-104134426D01*
X152237885Y-104302738D01*
X152330970Y-104453652D01*
X152456348Y-104579030D01*
X152607262Y-104672115D01*
X152775574Y-104727887D01*
X152879455Y-104738500D01*
X153655544Y-104738499D01*
X153759426Y-104727887D01*
X153927738Y-104672115D01*
X154078652Y-104579030D01*
X154204030Y-104453652D01*
X154204032Y-104453647D01*
X154207732Y-104448970D01*
X154264753Y-104408591D01*
X154334552Y-104405451D01*
X154394968Y-104440545D01*
X154402268Y-104448970D01*
X154405969Y-104453651D01*
X154405970Y-104453652D01*
X154531348Y-104579030D01*
X154682262Y-104672115D01*
X154850574Y-104727887D01*
X154954455Y-104738500D01*
X155730544Y-104738499D01*
X155834426Y-104727887D01*
X156002738Y-104672115D01*
X156153652Y-104579030D01*
X156279030Y-104453652D01*
X156372115Y-104302738D01*
X156427887Y-104134426D01*
X156438500Y-104030545D01*
X156438499Y-102979456D01*
X156427887Y-102875574D01*
X156426225Y-102870559D01*
X156372117Y-102707266D01*
X156369227Y-102702581D01*
X156306960Y-102601630D01*
X156288500Y-102536534D01*
X156288500Y-101595173D01*
X156295315Y-101571963D01*
X156297861Y-101547909D01*
X156304981Y-101539042D01*
X156308185Y-101528134D01*
X156326463Y-101512295D01*
X156341612Y-101493434D01*
X156354622Y-101487895D01*
X156360989Y-101482379D01*
X156373147Y-101477583D01*
X156386688Y-101473051D01*
X156394339Y-101472356D01*
X156549910Y-101423879D01*
X156570115Y-101411664D01*
X156583147Y-101407303D01*
X156604878Y-101406490D01*
X156625902Y-101400940D01*
X156639100Y-101405212D01*
X156652968Y-101404694D01*
X156671689Y-101415760D01*
X156692376Y-101422456D01*
X156701170Y-101433186D01*
X156713115Y-101440247D01*
X156722881Y-101459677D01*
X156736665Y-101476496D01*
X156740282Y-101494298D01*
X156744493Y-101502675D01*
X156743634Y-101510790D01*
X156746500Y-101524893D01*
X156746500Y-102307247D01*
X156774686Y-102448946D01*
X156774688Y-102448954D01*
X156805176Y-102522558D01*
X156805176Y-102522559D01*
X156829978Y-102582438D01*
X156829981Y-102582443D01*
X156849249Y-102611280D01*
X156910254Y-102702581D01*
X157016740Y-102809067D01*
X157016762Y-102809087D01*
X158812127Y-104604452D01*
X158812156Y-104604483D01*
X158917415Y-104709742D01*
X158917422Y-104709748D01*
X159037556Y-104790018D01*
X159037557Y-104790018D01*
X159037558Y-104790019D01*
X159171046Y-104845312D01*
X159312751Y-104873499D01*
X159312754Y-104873500D01*
X159312756Y-104873500D01*
X168347244Y-104873500D01*
X168370755Y-104868823D01*
X168488954Y-104845312D01*
X168584129Y-104805889D01*
X168622443Y-104790019D01*
X168670562Y-104757866D01*
X168742579Y-104709747D01*
X168844747Y-104607579D01*
X168844748Y-104607577D01*
X168851808Y-104600517D01*
X168851813Y-104600510D01*
X170447506Y-103004819D01*
X170474433Y-102990115D01*
X170500252Y-102973523D01*
X170506452Y-102972631D01*
X170508829Y-102971334D01*
X170535187Y-102968500D01*
X170602500Y-102968500D01*
X170669539Y-102988185D01*
X170715294Y-103040989D01*
X170726500Y-103092500D01*
X170726500Y-104403654D01*
X170733011Y-104464202D01*
X170733011Y-104464204D01*
X170775840Y-104579028D01*
X170784111Y-104601204D01*
X170871739Y-104718261D01*
X170988796Y-104805889D01*
X171094492Y-104845312D01*
X171120463Y-104854999D01*
X171125799Y-104856989D01*
X171153050Y-104859918D01*
X171186345Y-104863499D01*
X171186362Y-104863500D01*
X171950272Y-104863500D01*
X171974462Y-104865882D01*
X172012755Y-104873499D01*
X172012756Y-104873500D01*
X172012757Y-104873500D01*
X172157244Y-104873500D01*
X172157244Y-104873499D01*
X172195537Y-104865882D01*
X172219728Y-104863500D01*
X172983638Y-104863500D01*
X172983654Y-104863499D01*
X173010692Y-104860591D01*
X173044201Y-104856989D01*
X173049537Y-104854999D01*
X173075508Y-104845312D01*
X173181204Y-104805889D01*
X173298261Y-104718261D01*
X173385889Y-104601204D01*
X173436989Y-104464201D01*
X173442968Y-104408591D01*
X173443499Y-104403654D01*
X173443500Y-104403637D01*
X173443500Y-103092500D01*
X173463185Y-103025461D01*
X173515989Y-102979706D01*
X173567500Y-102968500D01*
X174062244Y-102968500D01*
X174085755Y-102963823D01*
X174203954Y-102940312D01*
X174298344Y-102901213D01*
X174337443Y-102885019D01*
X174385562Y-102852866D01*
X174457579Y-102804747D01*
X174459476Y-102802849D01*
X174466582Y-102798042D01*
X174494619Y-102789083D01*
X174521707Y-102777577D01*
X174527519Y-102778571D01*
X174533137Y-102776777D01*
X174561566Y-102784398D01*
X174590575Y-102789363D01*
X174594926Y-102793341D01*
X174600623Y-102794869D01*
X174620418Y-102816650D01*
X174642139Y-102836511D01*
X174643766Y-102842341D01*
X174647615Y-102846576D01*
X174651644Y-102870559D01*
X174660071Y-102900742D01*
X174660071Y-104846828D01*
X176800500Y-104846828D01*
X176867539Y-104866513D01*
X176913294Y-104919317D01*
X176924500Y-104970828D01*
X176924500Y-111800500D01*
X176904815Y-111867539D01*
X176852011Y-111913294D01*
X176800500Y-111924500D01*
X162226334Y-111924500D01*
X162159295Y-111904815D01*
X162113540Y-111852011D01*
X162102334Y-111800500D01*
X162102334Y-111653337D01*
X162122019Y-111586298D01*
X162174823Y-111540543D01*
X162243981Y-111530599D01*
X162307537Y-111559624D01*
X162314015Y-111565656D01*
X162331985Y-111583626D01*
X170596457Y-111583626D01*
X170596457Y-109098620D01*
X165380525Y-109098620D01*
X165371839Y-109096069D01*
X165362878Y-109097358D01*
X165338837Y-109086379D01*
X165313486Y-109078935D01*
X165307558Y-109072094D01*
X165299322Y-109068333D01*
X165285032Y-109046098D01*
X165267731Y-109026131D01*
X165265443Y-109015616D01*
X165261548Y-109009555D01*
X165256525Y-108974620D01*
X165256525Y-108885258D01*
X172249500Y-108885258D01*
X172249500Y-109114741D01*
X172274446Y-109304215D01*
X172279452Y-109342238D01*
X172279453Y-109342240D01*
X172338842Y-109563887D01*
X172426650Y-109775876D01*
X172426657Y-109775890D01*
X172541392Y-109974617D01*
X172681081Y-110156661D01*
X172681089Y-110156670D01*
X172843330Y-110318911D01*
X172843338Y-110318918D01*
X173025382Y-110458607D01*
X173025385Y-110458608D01*
X173025388Y-110458611D01*
X173224112Y-110573344D01*
X173224117Y-110573346D01*
X173224123Y-110573349D01*
X173315480Y-110611190D01*
X173436113Y-110661158D01*
X173657762Y-110720548D01*
X173885266Y-110750500D01*
X173885273Y-110750500D01*
X174114727Y-110750500D01*
X174114734Y-110750500D01*
X174342238Y-110720548D01*
X174563887Y-110661158D01*
X174775888Y-110573344D01*
X174974612Y-110458611D01*
X175156661Y-110318919D01*
X175156665Y-110318914D01*
X175156670Y-110318911D01*
X175318911Y-110156670D01*
X175318914Y-110156665D01*
X175318919Y-110156661D01*
X175458611Y-109974612D01*
X175573344Y-109775888D01*
X175661158Y-109563887D01*
X175720548Y-109342238D01*
X175750500Y-109114734D01*
X175750500Y-108885266D01*
X175720548Y-108657762D01*
X175661158Y-108436113D01*
X175573344Y-108224112D01*
X175458611Y-108025388D01*
X175458608Y-108025385D01*
X175458607Y-108025382D01*
X175318918Y-107843338D01*
X175318911Y-107843330D01*
X175156670Y-107681089D01*
X175156661Y-107681081D01*
X174974617Y-107541392D01*
X174775890Y-107426657D01*
X174775876Y-107426650D01*
X174563887Y-107338842D01*
X174342238Y-107279452D01*
X174304215Y-107274446D01*
X174114741Y-107249500D01*
X174114734Y-107249500D01*
X173885266Y-107249500D01*
X173885258Y-107249500D01*
X173668715Y-107278009D01*
X173657762Y-107279452D01*
X173564076Y-107304554D01*
X173436112Y-107338842D01*
X173224123Y-107426650D01*
X173224109Y-107426657D01*
X173025382Y-107541392D01*
X172843338Y-107681081D01*
X172681081Y-107843338D01*
X172541392Y-108025382D01*
X172426657Y-108224109D01*
X172426650Y-108224123D01*
X172338842Y-108436112D01*
X172279453Y-108657759D01*
X172279451Y-108657770D01*
X172249500Y-108885258D01*
X165256525Y-108885258D01*
X165256525Y-106726111D01*
X151798241Y-106726111D01*
X151798241Y-108954288D01*
X151778556Y-109021327D01*
X151725752Y-109067082D01*
X151674241Y-109078288D01*
X146570936Y-109078288D01*
X146570936Y-111800500D01*
X146551251Y-111867539D01*
X146498447Y-111913294D01*
X146446936Y-111924500D01*
X140199500Y-111924500D01*
X140132461Y-111904815D01*
X140086706Y-111852011D01*
X140075500Y-111800500D01*
X140075500Y-108885258D01*
X141249500Y-108885258D01*
X141249500Y-109114741D01*
X141274446Y-109304215D01*
X141279452Y-109342238D01*
X141279453Y-109342240D01*
X141338842Y-109563887D01*
X141426650Y-109775876D01*
X141426657Y-109775890D01*
X141541392Y-109974617D01*
X141681081Y-110156661D01*
X141681089Y-110156670D01*
X141843330Y-110318911D01*
X141843338Y-110318918D01*
X142025382Y-110458607D01*
X142025385Y-110458608D01*
X142025388Y-110458611D01*
X142224112Y-110573344D01*
X142224117Y-110573346D01*
X142224123Y-110573349D01*
X142315480Y-110611190D01*
X142436113Y-110661158D01*
X142657762Y-110720548D01*
X142885266Y-110750500D01*
X142885273Y-110750500D01*
X143114727Y-110750500D01*
X143114734Y-110750500D01*
X143342238Y-110720548D01*
X143563887Y-110661158D01*
X143775888Y-110573344D01*
X143974612Y-110458611D01*
X144156661Y-110318919D01*
X144156665Y-110318914D01*
X144156670Y-110318911D01*
X144318911Y-110156670D01*
X144318914Y-110156665D01*
X144318919Y-110156661D01*
X144458611Y-109974612D01*
X144573344Y-109775888D01*
X144661158Y-109563887D01*
X144720548Y-109342238D01*
X144750500Y-109114734D01*
X144750500Y-108885266D01*
X144720548Y-108657762D01*
X144661158Y-108436113D01*
X144573344Y-108224112D01*
X144458611Y-108025388D01*
X144458608Y-108025385D01*
X144458607Y-108025382D01*
X144318918Y-107843338D01*
X144318911Y-107843330D01*
X144156670Y-107681089D01*
X144156661Y-107681081D01*
X143974617Y-107541392D01*
X143775890Y-107426657D01*
X143775876Y-107426650D01*
X143563887Y-107338842D01*
X143342238Y-107279452D01*
X143304215Y-107274446D01*
X143114741Y-107249500D01*
X143114734Y-107249500D01*
X142885266Y-107249500D01*
X142885258Y-107249500D01*
X142668715Y-107278009D01*
X142657762Y-107279452D01*
X142564076Y-107304554D01*
X142436112Y-107338842D01*
X142224123Y-107426650D01*
X142224109Y-107426657D01*
X142025382Y-107541392D01*
X141843338Y-107681081D01*
X141681081Y-107843338D01*
X141541392Y-108025382D01*
X141426657Y-108224109D01*
X141426650Y-108224123D01*
X141338842Y-108436112D01*
X141279453Y-108657759D01*
X141279451Y-108657770D01*
X141249500Y-108885258D01*
X140075500Y-108885258D01*
X140075500Y-102607155D01*
X141525000Y-102607155D01*
X141525000Y-103255000D01*
X142441988Y-103255000D01*
X142409075Y-103312007D01*
X142375000Y-103439174D01*
X142375000Y-103570826D01*
X142409075Y-103697993D01*
X142441988Y-103755000D01*
X141525000Y-103755000D01*
X141525000Y-104402844D01*
X141531401Y-104462372D01*
X141531403Y-104462379D01*
X141581645Y-104597086D01*
X141581649Y-104597093D01*
X141667809Y-104712187D01*
X141667812Y-104712190D01*
X141782906Y-104798350D01*
X141782913Y-104798354D01*
X141917620Y-104848596D01*
X141917627Y-104848598D01*
X141977155Y-104854999D01*
X141977172Y-104855000D01*
X142625000Y-104855000D01*
X142625000Y-103938012D01*
X142682007Y-103970925D01*
X142809174Y-104005000D01*
X142940826Y-104005000D01*
X143067993Y-103970925D01*
X143125000Y-103938012D01*
X143125000Y-104855000D01*
X143772828Y-104855000D01*
X143772844Y-104854999D01*
X143832372Y-104848598D01*
X143832379Y-104848596D01*
X143967086Y-104798354D01*
X143967089Y-104798352D01*
X143981759Y-104787371D01*
X144047223Y-104762953D01*
X144115496Y-104777804D01*
X144164902Y-104827209D01*
X144180071Y-104886637D01*
X144180071Y-104910400D01*
X146649929Y-104910400D01*
X146649929Y-103583400D01*
X144180071Y-103583400D01*
X144180071Y-103631000D01*
X144160386Y-103698039D01*
X144107582Y-103743794D01*
X144056071Y-103755000D01*
X143308012Y-103755000D01*
X143340925Y-103697993D01*
X143375000Y-103570826D01*
X143375000Y-103439174D01*
X143340925Y-103312007D01*
X143308012Y-103255000D01*
X144225000Y-103255000D01*
X144225000Y-102607172D01*
X144224999Y-102607155D01*
X144218598Y-102547627D01*
X144218596Y-102547620D01*
X144168354Y-102412913D01*
X144168350Y-102412906D01*
X144082190Y-102297812D01*
X144082187Y-102297809D01*
X143967093Y-102211649D01*
X143967086Y-102211645D01*
X143832379Y-102161403D01*
X143832372Y-102161401D01*
X143772844Y-102155000D01*
X143125000Y-102155000D01*
X143125000Y-103071988D01*
X143067993Y-103039075D01*
X142940826Y-103005000D01*
X142809174Y-103005000D01*
X142682007Y-103039075D01*
X142625000Y-103071988D01*
X142625000Y-102155000D01*
X141977155Y-102155000D01*
X141917627Y-102161401D01*
X141917620Y-102161403D01*
X141782913Y-102211645D01*
X141782906Y-102211649D01*
X141667812Y-102297809D01*
X141667809Y-102297812D01*
X141581649Y-102412906D01*
X141581645Y-102412913D01*
X141531403Y-102547620D01*
X141531401Y-102547627D01*
X141525000Y-102607155D01*
X140075500Y-102607155D01*
X140075500Y-99699500D01*
X140095185Y-99632461D01*
X140147989Y-99586706D01*
X140199500Y-99575500D01*
X142094092Y-99575500D01*
X142094094Y-99575500D01*
X142279423Y-99542821D01*
X142456262Y-99478457D01*
X142619238Y-99384363D01*
X142763398Y-99263398D01*
X142884363Y-99119238D01*
X142978457Y-98956262D01*
X143042821Y-98779423D01*
X143075500Y-98594094D01*
X143075500Y-98500000D01*
X143075500Y-98475469D01*
X143075500Y-96533387D01*
X143095185Y-96466348D01*
X143147989Y-96420593D01*
X143199500Y-96409387D01*
X143444297Y-96409387D01*
X143511336Y-96429072D01*
G37*
%TD.AperFunction*%
%TA.AperFunction,Conductor*%
G36*
X146506142Y-82095185D02*
G01*
X146551897Y-82147989D01*
X146561841Y-82217147D01*
X146532816Y-82280703D01*
X146526784Y-82287181D01*
X146502013Y-82311952D01*
X146502013Y-85357646D01*
X170574710Y-85357646D01*
X170574710Y-84885258D01*
X172249500Y-84885258D01*
X172249500Y-85114741D01*
X172274446Y-85304215D01*
X172279452Y-85342238D01*
X172279453Y-85342240D01*
X172338842Y-85563887D01*
X172426650Y-85775876D01*
X172426657Y-85775890D01*
X172541392Y-85974617D01*
X172681081Y-86156661D01*
X172681089Y-86156670D01*
X172843330Y-86318911D01*
X172843338Y-86318918D01*
X173025382Y-86458607D01*
X173025385Y-86458608D01*
X173025388Y-86458611D01*
X173224112Y-86573344D01*
X173224117Y-86573346D01*
X173224123Y-86573349D01*
X173267140Y-86591167D01*
X173436113Y-86661158D01*
X173657762Y-86720548D01*
X173885266Y-86750500D01*
X173885273Y-86750500D01*
X174114727Y-86750500D01*
X174114734Y-86750500D01*
X174342238Y-86720548D01*
X174563887Y-86661158D01*
X174775888Y-86573344D01*
X174974612Y-86458611D01*
X175156661Y-86318919D01*
X175156665Y-86318914D01*
X175156670Y-86318911D01*
X175318911Y-86156670D01*
X175318914Y-86156665D01*
X175318919Y-86156661D01*
X175458611Y-85974612D01*
X175573344Y-85775888D01*
X175661158Y-85563887D01*
X175720548Y-85342238D01*
X175750500Y-85114734D01*
X175750500Y-84885266D01*
X175720548Y-84657762D01*
X175661158Y-84436113D01*
X175573344Y-84224112D01*
X175458611Y-84025388D01*
X175458608Y-84025385D01*
X175458607Y-84025382D01*
X175318918Y-83843338D01*
X175318911Y-83843330D01*
X175156670Y-83681089D01*
X175156661Y-83681081D01*
X174974617Y-83541392D01*
X174775890Y-83426657D01*
X174775876Y-83426650D01*
X174563887Y-83338842D01*
X174342238Y-83279452D01*
X174304215Y-83274446D01*
X174114741Y-83249500D01*
X174114734Y-83249500D01*
X173885266Y-83249500D01*
X173885258Y-83249500D01*
X173668715Y-83278009D01*
X173657762Y-83279452D01*
X173564076Y-83304554D01*
X173436112Y-83338842D01*
X173224123Y-83426650D01*
X173224109Y-83426657D01*
X173025382Y-83541392D01*
X172843338Y-83681081D01*
X172681081Y-83843338D01*
X172541392Y-84025382D01*
X172426657Y-84224109D01*
X172426650Y-84224123D01*
X172338842Y-84436112D01*
X172279453Y-84657759D01*
X172279451Y-84657770D01*
X172249500Y-84885258D01*
X170574710Y-84885258D01*
X170574710Y-82311952D01*
X170549939Y-82287181D01*
X170516454Y-82225858D01*
X170521438Y-82156166D01*
X170563310Y-82100233D01*
X170628774Y-82075816D01*
X170637620Y-82075500D01*
X176800500Y-82075500D01*
X176867539Y-82095185D01*
X176913294Y-82147989D01*
X176924500Y-82199500D01*
X176924500Y-88550402D01*
X176904815Y-88617441D01*
X176852011Y-88663196D01*
X176800500Y-88674402D01*
X174733719Y-88674402D01*
X174733719Y-91759689D01*
X176800500Y-91759689D01*
X176867539Y-91779374D01*
X176913294Y-91832178D01*
X176924500Y-91883689D01*
X176924500Y-92542381D01*
X176904815Y-92609420D01*
X176852011Y-92655175D01*
X176800500Y-92666381D01*
X174732049Y-92666381D01*
X174732049Y-95925360D01*
X174727466Y-95940964D01*
X174727885Y-95957225D01*
X174717825Y-95973800D01*
X174712364Y-95992399D01*
X174700074Y-96003048D01*
X174691634Y-96016955D01*
X174674208Y-96025460D01*
X174659560Y-96038154D01*
X174643463Y-96040468D01*
X174628845Y-96047604D01*
X174609590Y-96045338D01*
X174590402Y-96048098D01*
X174574900Y-96041258D01*
X174559454Y-96039441D01*
X174538109Y-96025023D01*
X174529282Y-96021129D01*
X174524623Y-96017297D01*
X174457579Y-95950253D01*
X174385562Y-95902133D01*
X174380438Y-95898709D01*
X174337448Y-95869984D01*
X174337444Y-95869982D01*
X174337445Y-95869982D01*
X174337443Y-95869981D01*
X174298344Y-95853786D01*
X174298342Y-95853785D01*
X174298341Y-95853784D01*
X174203952Y-95814687D01*
X174203948Y-95814686D01*
X174085753Y-95791175D01*
X174085753Y-95791174D01*
X174062249Y-95786500D01*
X174062244Y-95786500D01*
X174062243Y-95786500D01*
X173527328Y-95786500D01*
X173460289Y-95766815D01*
X173414534Y-95714011D01*
X173404590Y-95644853D01*
X173411146Y-95619166D01*
X173428597Y-95572376D01*
X173428598Y-95572372D01*
X173434999Y-95512844D01*
X173435000Y-95512827D01*
X173435000Y-94865000D01*
X172518012Y-94865000D01*
X172550925Y-94807993D01*
X172585000Y-94680826D01*
X172585000Y-94549174D01*
X172550925Y-94422007D01*
X172518012Y-94365000D01*
X173435000Y-94365000D01*
X173435000Y-93717172D01*
X173434999Y-93717155D01*
X173428598Y-93657627D01*
X173428596Y-93657620D01*
X173378354Y-93522913D01*
X173378350Y-93522906D01*
X173292190Y-93407812D01*
X173292187Y-93407809D01*
X173177093Y-93321649D01*
X173177086Y-93321645D01*
X173042379Y-93271403D01*
X173042372Y-93271401D01*
X172982844Y-93265000D01*
X172335000Y-93265000D01*
X172335000Y-94181988D01*
X172277993Y-94149075D01*
X172150826Y-94115000D01*
X172019174Y-94115000D01*
X171892007Y-94149075D01*
X171835000Y-94181988D01*
X171835000Y-93265000D01*
X171187155Y-93265000D01*
X171127627Y-93271401D01*
X171127620Y-93271403D01*
X170992913Y-93321645D01*
X170992906Y-93321649D01*
X170877812Y-93407809D01*
X170877809Y-93407812D01*
X170791649Y-93522906D01*
X170791645Y-93522913D01*
X170741403Y-93657620D01*
X170741401Y-93657627D01*
X170735000Y-93717155D01*
X170735000Y-94365000D01*
X171651988Y-94365000D01*
X171619075Y-94422007D01*
X171585000Y-94549174D01*
X171585000Y-94680826D01*
X171619075Y-94807993D01*
X171651988Y-94865000D01*
X170735000Y-94865000D01*
X170735000Y-95512844D01*
X170741401Y-95572372D01*
X170741402Y-95572376D01*
X170758854Y-95619166D01*
X170763838Y-95688858D01*
X170730353Y-95750181D01*
X170669030Y-95783666D01*
X170642672Y-95786500D01*
X166090188Y-95786500D01*
X166060747Y-95777855D01*
X166030761Y-95771332D01*
X166025745Y-95767577D01*
X166023149Y-95766815D01*
X166002507Y-95750181D01*
X165869819Y-95617493D01*
X165836334Y-95556170D01*
X165833500Y-95529812D01*
X165833500Y-94693378D01*
X165833501Y-94693357D01*
X165833501Y-94542754D01*
X165805313Y-94401051D01*
X165805312Y-94401047D01*
X165750018Y-94267556D01*
X165750018Y-94267555D01*
X165669748Y-94147422D01*
X165669742Y-94147415D01*
X165323858Y-93801532D01*
X165041817Y-93519492D01*
X165041814Y-93519488D01*
X165041814Y-93519489D01*
X165034747Y-93512422D01*
X165034747Y-93512421D01*
X164932579Y-93410253D01*
X164932578Y-93410252D01*
X164932577Y-93410251D01*
X164932574Y-93410249D01*
X164833190Y-93343843D01*
X164833184Y-93343840D01*
X164826578Y-93339426D01*
X164812443Y-93329981D01*
X164773344Y-93313786D01*
X164701597Y-93284067D01*
X164678952Y-93274687D01*
X164678948Y-93274686D01*
X164560753Y-93251175D01*
X164560753Y-93251174D01*
X164537249Y-93246500D01*
X164537244Y-93246500D01*
X164537243Y-93246500D01*
X159105187Y-93246500D01*
X159038148Y-93226815D01*
X159017506Y-93210181D01*
X158249819Y-92442494D01*
X158216334Y-92381171D01*
X158213500Y-92354813D01*
X158213500Y-91485569D01*
X158233185Y-91418530D01*
X158285989Y-91372775D01*
X158355147Y-91362831D01*
X158376505Y-91367863D01*
X158524805Y-91417005D01*
X158524809Y-91417006D01*
X158627519Y-91427499D01*
X158902499Y-91427499D01*
X159402500Y-91427499D01*
X159677472Y-91427499D01*
X159677486Y-91427498D01*
X159780197Y-91417005D01*
X159946619Y-91361858D01*
X159946624Y-91361856D01*
X160095845Y-91269815D01*
X160219815Y-91145845D01*
X160311856Y-90996624D01*
X160311858Y-90996619D01*
X160367005Y-90830197D01*
X160367006Y-90830190D01*
X160376059Y-90741582D01*
X163420001Y-90741582D01*
X163426408Y-90812102D01*
X163426409Y-90812107D01*
X163476981Y-90974396D01*
X163564927Y-91119877D01*
X163685122Y-91240072D01*
X163830604Y-91328019D01*
X163830603Y-91328019D01*
X163992894Y-91378590D01*
X163992893Y-91378590D01*
X164063427Y-91384999D01*
X164619999Y-91384999D01*
X165120000Y-91384999D01*
X165676581Y-91384999D01*
X165747102Y-91378591D01*
X165747107Y-91378590D01*
X165909396Y-91328018D01*
X166054877Y-91240072D01*
X166175072Y-91119877D01*
X166263019Y-90974395D01*
X166313590Y-90812106D01*
X166320000Y-90741572D01*
X166320000Y-90735000D01*
X165120000Y-90735000D01*
X165120000Y-91384999D01*
X164619999Y-91384999D01*
X164620000Y-91384998D01*
X164620000Y-90735000D01*
X163420001Y-90735000D01*
X163420001Y-90741582D01*
X160376059Y-90741582D01*
X160377499Y-90727486D01*
X160377500Y-90727473D01*
X160377500Y-90590000D01*
X159402500Y-90590000D01*
X159402500Y-91427499D01*
X158902499Y-91427499D01*
X158902500Y-91427498D01*
X158902500Y-90464000D01*
X158922185Y-90396961D01*
X158974989Y-90351206D01*
X159026500Y-90340000D01*
X159152500Y-90340000D01*
X159152500Y-90214000D01*
X159172185Y-90146961D01*
X159224989Y-90101206D01*
X159276500Y-90090000D01*
X160377499Y-90090000D01*
X160377499Y-89952528D01*
X160377498Y-89952513D01*
X160367005Y-89849802D01*
X160311858Y-89683380D01*
X160311856Y-89683375D01*
X160219815Y-89534154D01*
X160095844Y-89410183D01*
X160090177Y-89405702D01*
X160091904Y-89403516D01*
X160053740Y-89361089D01*
X160042515Y-89292127D01*
X160070355Y-89228043D01*
X160095606Y-89206164D01*
X160095485Y-89206011D01*
X160098901Y-89203309D01*
X160100469Y-89201951D01*
X160101152Y-89201530D01*
X160226530Y-89076152D01*
X160319615Y-88925238D01*
X160375387Y-88756926D01*
X160386000Y-88653045D01*
X160385999Y-87876956D01*
X160375387Y-87773074D01*
X160319615Y-87604762D01*
X160226530Y-87453848D01*
X160101152Y-87328470D01*
X159950238Y-87235385D01*
X159949695Y-87235205D01*
X159949375Y-87234983D01*
X159943695Y-87232335D01*
X159944147Y-87231364D01*
X159892252Y-87195435D01*
X159865428Y-87130919D01*
X159877742Y-87062143D01*
X159925284Y-87010943D01*
X159988700Y-86993500D01*
X160976234Y-86993500D01*
X161043273Y-87013185D01*
X161063915Y-87029819D01*
X161255181Y-87221085D01*
X161288666Y-87282408D01*
X161291500Y-87308766D01*
X161291500Y-88327398D01*
X161315843Y-88449777D01*
X161315845Y-88449785D01*
X161363598Y-88565072D01*
X161363603Y-88565081D01*
X161432928Y-88668832D01*
X161432931Y-88668836D01*
X161841163Y-89077068D01*
X161841167Y-89077071D01*
X161944918Y-89146396D01*
X161944924Y-89146399D01*
X161944925Y-89146400D01*
X162060215Y-89194155D01*
X162151678Y-89212348D01*
X162182601Y-89218499D01*
X162182605Y-89218500D01*
X162182606Y-89218500D01*
X162307393Y-89218500D01*
X163500167Y-89218500D01*
X163567206Y-89238185D01*
X163587843Y-89254814D01*
X163679845Y-89346816D01*
X163823817Y-89433850D01*
X163871003Y-89485377D01*
X163882842Y-89554236D01*
X163855573Y-89618565D01*
X163823817Y-89646082D01*
X163685125Y-89729925D01*
X163685121Y-89729928D01*
X163564927Y-89850122D01*
X163476980Y-89995604D01*
X163426409Y-90157893D01*
X163420000Y-90228427D01*
X163420000Y-90235000D01*
X166319999Y-90235000D01*
X166319999Y-90225957D01*
X166339684Y-90158918D01*
X166392488Y-90113163D01*
X166461646Y-90103219D01*
X166525202Y-90132244D01*
X166550113Y-90161805D01*
X166558184Y-90175155D01*
X166558186Y-90175158D01*
X166679841Y-90296813D01*
X166679843Y-90296814D01*
X166679845Y-90296816D01*
X166827087Y-90385827D01*
X166991351Y-90437013D01*
X167062735Y-90443500D01*
X168677264Y-90443499D01*
X168677271Y-90443499D01*
X168748641Y-90437014D01*
X168748643Y-90437013D01*
X168748649Y-90437013D01*
X168804756Y-90419528D01*
X168874615Y-90418377D01*
X168929327Y-90450233D01*
X169141163Y-90662069D01*
X169141167Y-90662072D01*
X169244921Y-90731399D01*
X169244923Y-90731399D01*
X169244925Y-90731401D01*
X169326447Y-90765168D01*
X169360215Y-90779155D01*
X169360217Y-90779155D01*
X169360222Y-90779157D01*
X169482601Y-90803499D01*
X169482605Y-90803500D01*
X169482606Y-90803500D01*
X169482607Y-90803500D01*
X169607394Y-90803500D01*
X170602500Y-90803500D01*
X170669539Y-90823185D01*
X170715294Y-90875989D01*
X170726500Y-90927500D01*
X170726500Y-91068654D01*
X170733011Y-91129202D01*
X170733011Y-91129204D01*
X170774364Y-91240072D01*
X170784111Y-91266204D01*
X170871739Y-91383261D01*
X170988796Y-91470889D01*
X171125799Y-91521989D01*
X171153050Y-91524918D01*
X171186345Y-91528499D01*
X171186362Y-91528500D01*
X172983638Y-91528500D01*
X172983654Y-91528499D01*
X173010692Y-91525591D01*
X173044201Y-91521989D01*
X173181204Y-91470889D01*
X173298261Y-91383261D01*
X173385889Y-91266204D01*
X173436989Y-91129201D01*
X173440591Y-91095692D01*
X173443499Y-91068654D01*
X173443500Y-91068637D01*
X173443500Y-89271362D01*
X173443499Y-89271345D01*
X173438843Y-89228043D01*
X173436989Y-89210799D01*
X173435752Y-89207483D01*
X173401902Y-89116728D01*
X173385889Y-89073796D01*
X173298261Y-88956739D01*
X173181204Y-88869111D01*
X173178617Y-88868146D01*
X173044203Y-88818011D01*
X172983654Y-88811500D01*
X172983638Y-88811500D01*
X171186362Y-88811500D01*
X171186345Y-88811500D01*
X171125797Y-88818011D01*
X171125795Y-88818011D01*
X170988795Y-88869111D01*
X170871739Y-88956739D01*
X170784111Y-89073795D01*
X170733011Y-89210795D01*
X170733011Y-89210797D01*
X170726500Y-89271345D01*
X170726500Y-89412500D01*
X170706815Y-89479539D01*
X170654011Y-89525294D01*
X170602500Y-89536500D01*
X169858767Y-89536500D01*
X169791728Y-89516815D01*
X169771086Y-89500181D01*
X169313836Y-89042931D01*
X169313832Y-89042928D01*
X169265485Y-89010623D01*
X169228259Y-88971671D01*
X169181818Y-88894848D01*
X169181817Y-88894847D01*
X169181816Y-88894845D01*
X169060155Y-88773184D01*
X168912913Y-88684173D01*
X168748649Y-88632987D01*
X168748647Y-88632986D01*
X168748645Y-88632986D01*
X168698667Y-88628444D01*
X168677265Y-88626500D01*
X168677262Y-88626500D01*
X167062727Y-88626500D01*
X166991355Y-88632985D01*
X166991344Y-88632988D01*
X166827090Y-88684171D01*
X166679841Y-88773186D01*
X166558187Y-88894840D01*
X166553562Y-88900745D01*
X166552395Y-88899831D01*
X166507068Y-88941326D01*
X166438206Y-88953153D01*
X166373883Y-88925872D01*
X166334519Y-88868146D01*
X166328499Y-88829985D01*
X166328499Y-88327736D01*
X166328499Y-88327727D01*
X166322014Y-88256354D01*
X166322011Y-88256344D01*
X166270828Y-88092090D01*
X166270827Y-88092089D01*
X166270827Y-88092087D01*
X166181816Y-87944845D01*
X166181814Y-87944843D01*
X166181813Y-87944841D01*
X166060158Y-87823186D01*
X165912913Y-87734173D01*
X165910018Y-87733271D01*
X165748649Y-87682987D01*
X165748647Y-87682986D01*
X165748645Y-87682986D01*
X165698667Y-87678444D01*
X165677265Y-87676500D01*
X165677262Y-87676500D01*
X164062727Y-87676500D01*
X163991355Y-87682985D01*
X163991344Y-87682988D01*
X163827090Y-87734171D01*
X163679843Y-87823185D01*
X163633846Y-87869183D01*
X163587846Y-87915182D01*
X163526526Y-87948666D01*
X163500167Y-87951500D01*
X162682500Y-87951500D01*
X162615461Y-87931815D01*
X162569706Y-87879011D01*
X162558500Y-87827500D01*
X162558500Y-86932605D01*
X162558499Y-86932601D01*
X162534156Y-86810222D01*
X162534155Y-86810215D01*
X162509420Y-86750500D01*
X162486401Y-86694925D01*
X162463838Y-86661157D01*
X162417072Y-86591166D01*
X162417069Y-86591163D01*
X161693836Y-85867931D01*
X161693832Y-85867928D01*
X161590081Y-85798603D01*
X161590072Y-85798598D01*
X161474785Y-85750845D01*
X161474777Y-85750843D01*
X161352398Y-85726500D01*
X161352394Y-85726500D01*
X154367393Y-85726500D01*
X154242606Y-85726500D01*
X154242601Y-85726500D01*
X154120222Y-85750843D01*
X154120214Y-85750845D01*
X154004927Y-85798598D01*
X154004918Y-85798603D01*
X153901167Y-85867928D01*
X153901163Y-85867931D01*
X152688913Y-87080181D01*
X152627590Y-87113666D01*
X152601232Y-87116500D01*
X152283263Y-87116500D01*
X152215665Y-87122642D01*
X152060089Y-87171121D01*
X151920638Y-87255423D01*
X151805423Y-87370638D01*
X151721121Y-87510089D01*
X151672643Y-87665663D01*
X151666500Y-87733273D01*
X151666500Y-88166736D01*
X151672642Y-88234334D01*
X151672644Y-88234339D01*
X151721121Y-88389910D01*
X151721122Y-88389911D01*
X151723353Y-88397071D01*
X151721420Y-88397673D01*
X151729564Y-88456649D01*
X151725313Y-88475207D01*
X151681065Y-88617205D01*
X151681064Y-88617207D01*
X151678085Y-88649999D01*
X151678085Y-88650000D01*
X151895041Y-88650000D01*
X151959191Y-88667883D01*
X151969975Y-88674402D01*
X152060090Y-88728879D01*
X152215661Y-88777356D01*
X152215673Y-88777357D01*
X152220816Y-88778380D01*
X152282729Y-88810763D01*
X152317306Y-88871477D01*
X152313570Y-88941246D01*
X152272706Y-88997920D01*
X152220828Y-89021615D01*
X152215671Y-89022640D01*
X152060089Y-89071121D01*
X151959191Y-89132117D01*
X151895041Y-89150000D01*
X151678085Y-89150000D01*
X151654231Y-89176120D01*
X151594487Y-89212348D01*
X151562669Y-89216500D01*
X149482601Y-89216500D01*
X149360222Y-89240843D01*
X149360214Y-89240845D01*
X149244927Y-89288598D01*
X149244918Y-89288603D01*
X149141167Y-89357928D01*
X149141163Y-89357931D01*
X148649294Y-89849802D01*
X148551167Y-89947929D01*
X148507047Y-89992049D01*
X148462927Y-90036168D01*
X148393603Y-90139918D01*
X148393600Y-90139925D01*
X148357182Y-90227844D01*
X148313340Y-90282247D01*
X148288681Y-90294570D01*
X148288805Y-90294835D01*
X148282259Y-90297886D01*
X148131346Y-90390971D01*
X148042681Y-90479637D01*
X147981358Y-90513122D01*
X147911666Y-90508138D01*
X147867319Y-90479637D01*
X147778653Y-90390971D01*
X147778652Y-90390970D01*
X147627738Y-90297885D01*
X147568754Y-90278340D01*
X147459427Y-90242113D01*
X147355546Y-90231500D01*
X146554462Y-90231500D01*
X146554446Y-90231501D01*
X146450572Y-90242113D01*
X146282264Y-90297884D01*
X146282259Y-90297886D01*
X146131346Y-90390971D01*
X146005971Y-90516346D01*
X145912882Y-90667266D01*
X145894911Y-90721503D01*
X145855139Y-90778948D01*
X145790624Y-90805772D01*
X145777205Y-90806500D01*
X144357500Y-90806500D01*
X144290461Y-90786815D01*
X144244706Y-90734011D01*
X144233500Y-90682500D01*
X144233500Y-90541362D01*
X144233499Y-90541345D01*
X144229928Y-90508138D01*
X144226989Y-90480799D01*
X144220723Y-90464000D01*
X144195719Y-90396961D01*
X144175889Y-90343796D01*
X144111435Y-90257696D01*
X144087019Y-90192234D01*
X144101870Y-90123961D01*
X144151275Y-90074555D01*
X144210703Y-90059387D01*
X144602786Y-90059387D01*
X144602786Y-87630097D01*
X141318643Y-87630097D01*
X141318643Y-90059387D01*
X141539297Y-90059387D01*
X141606336Y-90079072D01*
X141652091Y-90131876D01*
X141662035Y-90201034D01*
X141638564Y-90257695D01*
X141614450Y-90289910D01*
X141574111Y-90343795D01*
X141523011Y-90480795D01*
X141523011Y-90480797D01*
X141516500Y-90541345D01*
X141516500Y-92338654D01*
X141523011Y-92399202D01*
X141523011Y-92399204D01*
X141574111Y-92536204D01*
X141661739Y-92653261D01*
X141778796Y-92740889D01*
X141915799Y-92791989D01*
X141943050Y-92794918D01*
X141976345Y-92798499D01*
X141976362Y-92798500D01*
X143773638Y-92798500D01*
X143773654Y-92798499D01*
X143800692Y-92795591D01*
X143834201Y-92791989D01*
X143971204Y-92740889D01*
X144088261Y-92653261D01*
X144175889Y-92536204D01*
X144226989Y-92399201D01*
X144231761Y-92354813D01*
X144233499Y-92338654D01*
X144233500Y-92338637D01*
X144233500Y-92197500D01*
X144253185Y-92130461D01*
X144305989Y-92084706D01*
X144357500Y-92073500D01*
X145777205Y-92073500D01*
X145844244Y-92093185D01*
X145889999Y-92145989D01*
X145894911Y-92158497D01*
X145912882Y-92212733D01*
X145912884Y-92212737D01*
X145912885Y-92212738D01*
X146005970Y-92363652D01*
X146131348Y-92489030D01*
X146282262Y-92582115D01*
X146450574Y-92637887D01*
X146554455Y-92648500D01*
X147355544Y-92648499D01*
X147459426Y-92637887D01*
X147627738Y-92582115D01*
X147778652Y-92489030D01*
X147867319Y-92400363D01*
X147928642Y-92366878D01*
X147998334Y-92371862D01*
X148042681Y-92400363D01*
X148131348Y-92489030D01*
X148282262Y-92582115D01*
X148450574Y-92637887D01*
X148554455Y-92648500D01*
X149355544Y-92648499D01*
X149459426Y-92637887D01*
X149627738Y-92582115D01*
X149778652Y-92489030D01*
X149904030Y-92363652D01*
X149997115Y-92212738D01*
X150052887Y-92044426D01*
X150063500Y-91940545D01*
X150063499Y-90939456D01*
X150052887Y-90835574D01*
X149997115Y-90667262D01*
X149997111Y-90667255D01*
X149994061Y-90660714D01*
X149996806Y-90659433D01*
X149981965Y-90605221D01*
X150002878Y-90538555D01*
X150056514Y-90493778D01*
X150105944Y-90483500D01*
X151808200Y-90483500D01*
X151875239Y-90503185D01*
X151895881Y-90519819D01*
X151920638Y-90544576D01*
X151920640Y-90544577D01*
X151920642Y-90544579D01*
X152060090Y-90628879D01*
X152215661Y-90677356D01*
X152215668Y-90677356D01*
X152221687Y-90678554D01*
X152283599Y-90710937D01*
X152318175Y-90771651D01*
X152321500Y-90800172D01*
X152321500Y-91741534D01*
X152303039Y-91806631D01*
X152237882Y-91912266D01*
X152182113Y-92080570D01*
X152182113Y-92080571D01*
X152171500Y-92184447D01*
X152171500Y-93235537D01*
X152171501Y-93235553D01*
X152182113Y-93339427D01*
X152237884Y-93507735D01*
X152237886Y-93507740D01*
X152240775Y-93512423D01*
X152330970Y-93658652D01*
X152456348Y-93784030D01*
X152607262Y-93877115D01*
X152775574Y-93932887D01*
X152879455Y-93943500D01*
X153655544Y-93943499D01*
X153759426Y-93932887D01*
X153927738Y-93877115D01*
X154078652Y-93784030D01*
X154204030Y-93658652D01*
X154204032Y-93658647D01*
X154207732Y-93653970D01*
X154264753Y-93613591D01*
X154334552Y-93610451D01*
X154394968Y-93645545D01*
X154402268Y-93653970D01*
X154405969Y-93658651D01*
X154405970Y-93658652D01*
X154531348Y-93784030D01*
X154682262Y-93877115D01*
X154850574Y-93932887D01*
X154954455Y-93943500D01*
X155730544Y-93943499D01*
X155834426Y-93932887D01*
X156002738Y-93877115D01*
X156153652Y-93784030D01*
X156279030Y-93658652D01*
X156372115Y-93507738D01*
X156427887Y-93339426D01*
X156438500Y-93235545D01*
X156438499Y-92184456D01*
X156427887Y-92080574D01*
X156415909Y-92044426D01*
X156372117Y-91912266D01*
X156322718Y-91832178D01*
X156306960Y-91806630D01*
X156288500Y-91741534D01*
X156288500Y-90800173D01*
X156295315Y-90776963D01*
X156297861Y-90752909D01*
X156304981Y-90744042D01*
X156308185Y-90733134D01*
X156326463Y-90717295D01*
X156341612Y-90698434D01*
X156354622Y-90692895D01*
X156360989Y-90687379D01*
X156373147Y-90682583D01*
X156386688Y-90678051D01*
X156394339Y-90677356D01*
X156549910Y-90628879D01*
X156570115Y-90616664D01*
X156583147Y-90612303D01*
X156604878Y-90611490D01*
X156625902Y-90605940D01*
X156639100Y-90610212D01*
X156652968Y-90609694D01*
X156671689Y-90620760D01*
X156692376Y-90627456D01*
X156701170Y-90638186D01*
X156713115Y-90645247D01*
X156722881Y-90664677D01*
X156736665Y-90681496D01*
X156740282Y-90699298D01*
X156744493Y-90707675D01*
X156743634Y-90715790D01*
X156746500Y-90729893D01*
X156746500Y-92637756D01*
X156746500Y-92782244D01*
X156747861Y-92789088D01*
X156748735Y-92793481D01*
X156748736Y-92793486D01*
X156749734Y-92798500D01*
X156774688Y-92923954D01*
X156808944Y-93006655D01*
X156811645Y-93013176D01*
X156811648Y-93013186D01*
X156829979Y-93057440D01*
X156862129Y-93105557D01*
X156862130Y-93105558D01*
X156862133Y-93105562D01*
X156898142Y-93159454D01*
X156910254Y-93177581D01*
X157016740Y-93284067D01*
X157016762Y-93284087D01*
X158177127Y-94444452D01*
X158177141Y-94444467D01*
X158180252Y-94447578D01*
X158180253Y-94447579D01*
X158282421Y-94549747D01*
X158303762Y-94564006D01*
X158320965Y-94575501D01*
X158402556Y-94630018D01*
X158402557Y-94630019D01*
X158441655Y-94646213D01*
X158536046Y-94685312D01*
X158654244Y-94708823D01*
X158677756Y-94713500D01*
X158677757Y-94713500D01*
X164109813Y-94713500D01*
X164139253Y-94722144D01*
X164169240Y-94728668D01*
X164174255Y-94732422D01*
X164176852Y-94733185D01*
X164197494Y-94749819D01*
X164330181Y-94882506D01*
X164363666Y-94943829D01*
X164366500Y-94970187D01*
X164366500Y-95957247D01*
X164394686Y-96098946D01*
X164394688Y-96098954D01*
X164422953Y-96167192D01*
X164422956Y-96167198D01*
X164425176Y-96172557D01*
X164449981Y-96232443D01*
X164482133Y-96280562D01*
X164530253Y-96352579D01*
X164632421Y-96454747D01*
X164632422Y-96454747D01*
X164639489Y-96461814D01*
X164639488Y-96461814D01*
X164639492Y-96461817D01*
X165267415Y-97089742D01*
X165267422Y-97089748D01*
X165387556Y-97170018D01*
X165387557Y-97170018D01*
X165387558Y-97170019D01*
X165521046Y-97225312D01*
X165521050Y-97225312D01*
X165521051Y-97225313D01*
X165662754Y-97253501D01*
X165662757Y-97253501D01*
X165813358Y-97253501D01*
X165813378Y-97253500D01*
X173634813Y-97253500D01*
X173664253Y-97262144D01*
X173694240Y-97268668D01*
X173699255Y-97272422D01*
X173701852Y-97273185D01*
X173722494Y-97289819D01*
X173855181Y-97422506D01*
X173888666Y-97483829D01*
X173891500Y-97510187D01*
X173891500Y-101244812D01*
X173871815Y-101311851D01*
X173855185Y-101332488D01*
X173722492Y-101465182D01*
X173661172Y-101498666D01*
X173634813Y-101501500D01*
X170107754Y-101501500D01*
X170024302Y-101518100D01*
X169982576Y-101526400D01*
X169975945Y-101527718D01*
X169966048Y-101529687D01*
X169966045Y-101529688D01*
X169832556Y-101584981D01*
X169832555Y-101584981D01*
X169712422Y-101665251D01*
X169712421Y-101665252D01*
X169661337Y-101716336D01*
X169610253Y-101767421D01*
X169610250Y-101767424D01*
X168795232Y-102582443D01*
X168007494Y-103370181D01*
X167946171Y-103403666D01*
X167919813Y-103406500D01*
X159740187Y-103406500D01*
X159673148Y-103386815D01*
X159652506Y-103370181D01*
X158716505Y-102434180D01*
X158683020Y-102372857D01*
X158688004Y-102303165D01*
X158729876Y-102247232D01*
X158795340Y-102222815D01*
X158804186Y-102222499D01*
X158902499Y-102222499D01*
X159402500Y-102222499D01*
X159677472Y-102222499D01*
X159677486Y-102222498D01*
X159780197Y-102212005D01*
X159946619Y-102156858D01*
X159946624Y-102156856D01*
X160095845Y-102064815D01*
X160219815Y-101940845D01*
X160311856Y-101791624D01*
X160311858Y-101791619D01*
X160367005Y-101625197D01*
X160367006Y-101625190D01*
X160376059Y-101536582D01*
X163420001Y-101536582D01*
X163426408Y-101607102D01*
X163426409Y-101607107D01*
X163476981Y-101769396D01*
X163564927Y-101914877D01*
X163685122Y-102035072D01*
X163830604Y-102123019D01*
X163830603Y-102123019D01*
X163992894Y-102173590D01*
X163992893Y-102173590D01*
X164063427Y-102179999D01*
X164619999Y-102179999D01*
X165120000Y-102179999D01*
X165676581Y-102179999D01*
X165747102Y-102173591D01*
X165747107Y-102173590D01*
X165909396Y-102123018D01*
X166054877Y-102035072D01*
X166175072Y-101914877D01*
X166263019Y-101769395D01*
X166313590Y-101607106D01*
X166320000Y-101536572D01*
X166320000Y-101530000D01*
X165120000Y-101530000D01*
X165120000Y-102179999D01*
X164619999Y-102179999D01*
X164620000Y-102179998D01*
X164620000Y-101530000D01*
X163420001Y-101530000D01*
X163420001Y-101536582D01*
X160376059Y-101536582D01*
X160377499Y-101522486D01*
X160377500Y-101522473D01*
X160377500Y-101385000D01*
X159402500Y-101385000D01*
X159402500Y-102222499D01*
X158902499Y-102222499D01*
X158902500Y-102222498D01*
X158902500Y-101259000D01*
X158922185Y-101191961D01*
X158974989Y-101146206D01*
X159026500Y-101135000D01*
X159152500Y-101135000D01*
X159152500Y-101009000D01*
X159172185Y-100941961D01*
X159224989Y-100896206D01*
X159276500Y-100885000D01*
X160377499Y-100885000D01*
X160377499Y-100747528D01*
X160377498Y-100747513D01*
X160367005Y-100644802D01*
X160311858Y-100478380D01*
X160311856Y-100478375D01*
X160219815Y-100329154D01*
X160095844Y-100205183D01*
X160090177Y-100200702D01*
X160091904Y-100198516D01*
X160053740Y-100156089D01*
X160042515Y-100087127D01*
X160070355Y-100023043D01*
X160095606Y-100001164D01*
X160095485Y-100001011D01*
X160098901Y-99998309D01*
X160100469Y-99996951D01*
X160101152Y-99996530D01*
X160226530Y-99871152D01*
X160319615Y-99720238D01*
X160375387Y-99551926D01*
X160386000Y-99448045D01*
X160385999Y-98671956D01*
X160375387Y-98568074D01*
X160319615Y-98399762D01*
X160226530Y-98248848D01*
X160101152Y-98123470D01*
X159950238Y-98030385D01*
X159949695Y-98030205D01*
X159949375Y-98029983D01*
X159943695Y-98027335D01*
X159944147Y-98026364D01*
X159892252Y-97990435D01*
X159865428Y-97925919D01*
X159877742Y-97857143D01*
X159925284Y-97805943D01*
X159988700Y-97788500D01*
X160976234Y-97788500D01*
X161043273Y-97808185D01*
X161063915Y-97824819D01*
X161255181Y-98016085D01*
X161288666Y-98077408D01*
X161291500Y-98103766D01*
X161291500Y-99122398D01*
X161315843Y-99244777D01*
X161315845Y-99244785D01*
X161363598Y-99360072D01*
X161363603Y-99360081D01*
X161432928Y-99463832D01*
X161432931Y-99463836D01*
X161841163Y-99872068D01*
X161841167Y-99872071D01*
X161944918Y-99941396D01*
X161944924Y-99941399D01*
X161944925Y-99941400D01*
X162060215Y-99989155D01*
X162151678Y-100007348D01*
X162182601Y-100013499D01*
X162182605Y-100013500D01*
X162182606Y-100013500D01*
X162307393Y-100013500D01*
X163500167Y-100013500D01*
X163567206Y-100033185D01*
X163587843Y-100049814D01*
X163679845Y-100141816D01*
X163823817Y-100228850D01*
X163871003Y-100280377D01*
X163882842Y-100349236D01*
X163855573Y-100413565D01*
X163823817Y-100441082D01*
X163685125Y-100524925D01*
X163685121Y-100524928D01*
X163564927Y-100645122D01*
X163476980Y-100790604D01*
X163426409Y-100952893D01*
X163420000Y-101023427D01*
X163420000Y-101030000D01*
X166319999Y-101030000D01*
X166319999Y-101020957D01*
X166339684Y-100953918D01*
X166392488Y-100908163D01*
X166461646Y-100898219D01*
X166525202Y-100927244D01*
X166550113Y-100956805D01*
X166558184Y-100970155D01*
X166558186Y-100970158D01*
X166679841Y-101091813D01*
X166679843Y-101091814D01*
X166679845Y-101091816D01*
X166827087Y-101180827D01*
X166991351Y-101232013D01*
X167062735Y-101238500D01*
X168677264Y-101238499D01*
X168677271Y-101238499D01*
X168748644Y-101232014D01*
X168748647Y-101232013D01*
X168748649Y-101232013D01*
X168912913Y-101180827D01*
X169060155Y-101091816D01*
X169181816Y-100970155D01*
X169228260Y-100893325D01*
X169265482Y-100854377D01*
X169313833Y-100822071D01*
X169496267Y-100639637D01*
X169771086Y-100364819D01*
X169832409Y-100331334D01*
X169858767Y-100328500D01*
X170904259Y-100328500D01*
X170971298Y-100348185D01*
X170978552Y-100353220D01*
X170988796Y-100360889D01*
X171125799Y-100411989D01*
X171153050Y-100414918D01*
X171186345Y-100418499D01*
X171186362Y-100418500D01*
X172983638Y-100418500D01*
X172983654Y-100418499D01*
X173010692Y-100415591D01*
X173044201Y-100411989D01*
X173181204Y-100360889D01*
X173298261Y-100273261D01*
X173385889Y-100156204D01*
X173436989Y-100019201D01*
X173440591Y-99985692D01*
X173443499Y-99958654D01*
X173443500Y-99958637D01*
X173443500Y-98161362D01*
X173443499Y-98161345D01*
X173439426Y-98123470D01*
X173436989Y-98100799D01*
X173428778Y-98078786D01*
X173403682Y-98011500D01*
X173385889Y-97963796D01*
X173298261Y-97846739D01*
X173181204Y-97759111D01*
X173044203Y-97708011D01*
X172983654Y-97701500D01*
X172983638Y-97701500D01*
X171186362Y-97701500D01*
X171186345Y-97701500D01*
X171125797Y-97708011D01*
X171125795Y-97708011D01*
X170988795Y-97759111D01*
X170871739Y-97846739D01*
X170784111Y-97963795D01*
X170733011Y-98100795D01*
X170733011Y-98100797D01*
X170726500Y-98161345D01*
X170726500Y-98937500D01*
X170706815Y-99004539D01*
X170654011Y-99050294D01*
X170602500Y-99061500D01*
X169482601Y-99061500D01*
X169360222Y-99085843D01*
X169360214Y-99085845D01*
X169339907Y-99094257D01*
X169339906Y-99094257D01*
X169244932Y-99133595D01*
X169244919Y-99133602D01*
X169141166Y-99202927D01*
X168929327Y-99414766D01*
X168868004Y-99448251D01*
X168804758Y-99445471D01*
X168748649Y-99427987D01*
X168677265Y-99421500D01*
X168677262Y-99421500D01*
X167062727Y-99421500D01*
X166991355Y-99427985D01*
X166991344Y-99427988D01*
X166827090Y-99479171D01*
X166679841Y-99568186D01*
X166558187Y-99689840D01*
X166553562Y-99695745D01*
X166552395Y-99694831D01*
X166507068Y-99736326D01*
X166438206Y-99748153D01*
X166373883Y-99720872D01*
X166334519Y-99663146D01*
X166328499Y-99624985D01*
X166328499Y-99122736D01*
X166328499Y-99122727D01*
X166322014Y-99051354D01*
X166322011Y-99051344D01*
X166270828Y-98887090D01*
X166270827Y-98887089D01*
X166270827Y-98887087D01*
X166181816Y-98739845D01*
X166181814Y-98739843D01*
X166181813Y-98739841D01*
X166060158Y-98618186D01*
X165912913Y-98529173D01*
X165819292Y-98500000D01*
X165748649Y-98477987D01*
X165748647Y-98477986D01*
X165748645Y-98477986D01*
X165698667Y-98473444D01*
X165677265Y-98471500D01*
X165677262Y-98471500D01*
X164062727Y-98471500D01*
X163991355Y-98477985D01*
X163991344Y-98477988D01*
X163827090Y-98529171D01*
X163679843Y-98618185D01*
X163637491Y-98660538D01*
X163587846Y-98710182D01*
X163526526Y-98743666D01*
X163500167Y-98746500D01*
X162682500Y-98746500D01*
X162615461Y-98726815D01*
X162569706Y-98674011D01*
X162558500Y-98622500D01*
X162558500Y-97727605D01*
X162558499Y-97727601D01*
X162534156Y-97605222D01*
X162534155Y-97605215D01*
X162514943Y-97558833D01*
X162486401Y-97489925D01*
X162441353Y-97422506D01*
X162417072Y-97386166D01*
X162417069Y-97386163D01*
X161693836Y-96662931D01*
X161693832Y-96662928D01*
X161590081Y-96593603D01*
X161590072Y-96593598D01*
X161474785Y-96545845D01*
X161474777Y-96545843D01*
X161352398Y-96521500D01*
X161352394Y-96521500D01*
X154367393Y-96521500D01*
X154242606Y-96521500D01*
X154242601Y-96521500D01*
X154120222Y-96545843D01*
X154120214Y-96545845D01*
X154004927Y-96593598D01*
X154004918Y-96593603D01*
X153901167Y-96662928D01*
X153901163Y-96662931D01*
X152688913Y-97875181D01*
X152627590Y-97908666D01*
X152601232Y-97911500D01*
X152283263Y-97911500D01*
X152215665Y-97917642D01*
X152060089Y-97966121D01*
X151920638Y-98050423D01*
X151805423Y-98165638D01*
X151721121Y-98305089D01*
X151672643Y-98460663D01*
X151666500Y-98528273D01*
X151666500Y-98961736D01*
X151672642Y-99029334D01*
X151690251Y-99085843D01*
X151721121Y-99184910D01*
X151721122Y-99184911D01*
X151723353Y-99192071D01*
X151721420Y-99192673D01*
X151729564Y-99251649D01*
X151725313Y-99270207D01*
X151681065Y-99412205D01*
X151681064Y-99412207D01*
X151678085Y-99444999D01*
X151678085Y-99445000D01*
X151895041Y-99445000D01*
X151959191Y-99462883D01*
X151967277Y-99467771D01*
X152060090Y-99523879D01*
X152215661Y-99572356D01*
X152215673Y-99572357D01*
X152220816Y-99573380D01*
X152282729Y-99605763D01*
X152317306Y-99666477D01*
X152313570Y-99736246D01*
X152272706Y-99792920D01*
X152220828Y-99816615D01*
X152215671Y-99817640D01*
X152060089Y-99866121D01*
X151959191Y-99927117D01*
X151895041Y-99945000D01*
X151678085Y-99945000D01*
X151654231Y-99971120D01*
X151594487Y-100007348D01*
X151562669Y-100011500D01*
X151387601Y-100011500D01*
X151265222Y-100035843D01*
X151265214Y-100035845D01*
X151149927Y-100083598D01*
X151149918Y-100083603D01*
X151046167Y-100152928D01*
X151046163Y-100152931D01*
X150268915Y-100930181D01*
X150241987Y-100944884D01*
X150216169Y-100961477D01*
X150209968Y-100962368D01*
X150207592Y-100963666D01*
X150181234Y-100966500D01*
X150132795Y-100966500D01*
X150065756Y-100946815D01*
X150020001Y-100894011D01*
X150015089Y-100881503D01*
X149997117Y-100827266D01*
X149997115Y-100827262D01*
X149904030Y-100676348D01*
X149778652Y-100550970D01*
X149660966Y-100478380D01*
X149627740Y-100457886D01*
X149627735Y-100457884D01*
X149459427Y-100402113D01*
X149355546Y-100391500D01*
X148554462Y-100391500D01*
X148554446Y-100391501D01*
X148450572Y-100402113D01*
X148282264Y-100457884D01*
X148282259Y-100457886D01*
X148131346Y-100550971D01*
X148042681Y-100639637D01*
X147981358Y-100673122D01*
X147911666Y-100668138D01*
X147867319Y-100639637D01*
X147778653Y-100550971D01*
X147778652Y-100550970D01*
X147660966Y-100478380D01*
X147627740Y-100457886D01*
X147627735Y-100457884D01*
X147459427Y-100402113D01*
X147355546Y-100391500D01*
X146554462Y-100391500D01*
X146554446Y-100391501D01*
X146450572Y-100402113D01*
X146282264Y-100457884D01*
X146282259Y-100457886D01*
X146131346Y-100550971D01*
X146005971Y-100676346D01*
X145912882Y-100827266D01*
X145894911Y-100881503D01*
X145881041Y-100901535D01*
X145870918Y-100923703D01*
X145861506Y-100929751D01*
X145855139Y-100938948D01*
X145832639Y-100948302D01*
X145812140Y-100961477D01*
X145795040Y-100963935D01*
X145790624Y-100965772D01*
X145777205Y-100966500D01*
X145728767Y-100966500D01*
X145661728Y-100946815D01*
X145641086Y-100930181D01*
X145449819Y-100738914D01*
X145416334Y-100677591D01*
X145413500Y-100651233D01*
X145413500Y-99272500D01*
X145433185Y-99205461D01*
X145485989Y-99159706D01*
X145537500Y-99148500D01*
X145678638Y-99148500D01*
X145678654Y-99148499D01*
X145705692Y-99145591D01*
X145739201Y-99141989D01*
X145876204Y-99090889D01*
X145993261Y-99003261D01*
X146080889Y-98886204D01*
X146131989Y-98749201D01*
X146136184Y-98710181D01*
X146138499Y-98688654D01*
X146138500Y-98688637D01*
X146138500Y-96891362D01*
X146138499Y-96891345D01*
X146135157Y-96860270D01*
X146131989Y-96830799D01*
X146123320Y-96807558D01*
X146104279Y-96756507D01*
X146080889Y-96693796D01*
X146016435Y-96607696D01*
X145992019Y-96542234D01*
X146006870Y-96473961D01*
X146056275Y-96424555D01*
X146115703Y-96409387D01*
X146794646Y-96409387D01*
X146794646Y-93980097D01*
X142766500Y-93980097D01*
X142766500Y-94494550D01*
X142746815Y-94561589D01*
X142694011Y-94607344D01*
X142624853Y-94617288D01*
X142580819Y-94602121D01*
X142534394Y-94575501D01*
X142453844Y-94529313D01*
X142453841Y-94529312D01*
X142453838Y-94529310D01*
X142277874Y-94465659D01*
X142093564Y-94433348D01*
X142061143Y-94433364D01*
X142027054Y-94426592D01*
X142026997Y-94426883D01*
X142015019Y-94424500D01*
X142015018Y-94424500D01*
X142015016Y-94424500D01*
X140199500Y-94424500D01*
X140132461Y-94404815D01*
X140086706Y-94352011D01*
X140075500Y-94300500D01*
X140075500Y-84885258D01*
X141249500Y-84885258D01*
X141249500Y-85114741D01*
X141274446Y-85304215D01*
X141279452Y-85342238D01*
X141279453Y-85342240D01*
X141338842Y-85563887D01*
X141426650Y-85775876D01*
X141426657Y-85775890D01*
X141541392Y-85974617D01*
X141681081Y-86156661D01*
X141681089Y-86156670D01*
X141843330Y-86318911D01*
X141843338Y-86318918D01*
X142025382Y-86458607D01*
X142025385Y-86458608D01*
X142025388Y-86458611D01*
X142224112Y-86573344D01*
X142224117Y-86573346D01*
X142224123Y-86573349D01*
X142267140Y-86591167D01*
X142436113Y-86661158D01*
X142657762Y-86720548D01*
X142885266Y-86750500D01*
X142885273Y-86750500D01*
X143114727Y-86750500D01*
X143114734Y-86750500D01*
X143342238Y-86720548D01*
X143563887Y-86661158D01*
X143775888Y-86573344D01*
X143974612Y-86458611D01*
X144156661Y-86318919D01*
X144156665Y-86318914D01*
X144156670Y-86318911D01*
X144318911Y-86156670D01*
X144318914Y-86156665D01*
X144318919Y-86156661D01*
X144458611Y-85974612D01*
X144573344Y-85775888D01*
X144661158Y-85563887D01*
X144720548Y-85342238D01*
X144750500Y-85114734D01*
X144750500Y-84885266D01*
X144720548Y-84657762D01*
X144661158Y-84436113D01*
X144573344Y-84224112D01*
X144458611Y-84025388D01*
X144458608Y-84025385D01*
X144458607Y-84025382D01*
X144318918Y-83843338D01*
X144318911Y-83843330D01*
X144156670Y-83681089D01*
X144156661Y-83681081D01*
X143974617Y-83541392D01*
X143775890Y-83426657D01*
X143775876Y-83426650D01*
X143563887Y-83338842D01*
X143342238Y-83279452D01*
X143304215Y-83274446D01*
X143114741Y-83249500D01*
X143114734Y-83249500D01*
X142885266Y-83249500D01*
X142885258Y-83249500D01*
X142668715Y-83278009D01*
X142657762Y-83279452D01*
X142564076Y-83304554D01*
X142436112Y-83338842D01*
X142224123Y-83426650D01*
X142224109Y-83426657D01*
X142025382Y-83541392D01*
X141843338Y-83681081D01*
X141681081Y-83843338D01*
X141541392Y-84025382D01*
X141426657Y-84224109D01*
X141426650Y-84224123D01*
X141338842Y-84436112D01*
X141279453Y-84657759D01*
X141279451Y-84657770D01*
X141249500Y-84885258D01*
X140075500Y-84885258D01*
X140075500Y-82199500D01*
X140095185Y-82132461D01*
X140147989Y-82086706D01*
X140199500Y-82075500D01*
X146439103Y-82075500D01*
X146506142Y-82095185D01*
G37*
%TD.AperFunction*%
%TD*%
M02*
